<svg width="19" height="18" viewBox="0 0 19 18" fill="none" xmlns="http://www.w3.org/2000/svg">
<g clip-path="url(#clip0)">
<path d="M17.465 2.83824C15.4497 0.97552 12.1696 0.97552 10.1537 2.83782L9.73449 3.22454L9.31576 2.83799C7.29964 0.97545 4.0199 0.975661 2.00378 2.83799C1.01387 3.75255 0.46875 4.96561 0.46875 6.25339C0.46875 7.54158 1.01387 8.75444 2.00393 9.66938L9.28688 16.3854C9.41215 16.5012 9.57343 16.5588 9.73446 16.5588C9.89548 16.5588 10.0565 16.5009 10.182 16.3852L17.465 9.66938C18.4548 8.75465 19.0002 7.54162 19.0002 6.2536C19.0002 4.96561 18.4548 3.75276 17.465 2.83824ZM16.569 8.75359L9.73446 15.0563L2.90017 8.7538C2.17082 8.08014 1.76921 7.19213 1.76921 6.2536C1.76921 5.31507 2.17082 4.42705 2.90017 3.75339C3.66093 3.05023 4.66011 2.69888 5.6595 2.69888C6.65911 2.69888 7.65872 3.05065 8.41949 3.75381L9.28645 4.55362C9.53742 4.7854 9.93124 4.7854 10.1823 4.55362L11.0494 3.75339C12.5712 2.34728 15.047 2.34728 16.5687 3.75339C17.2979 4.42709 17.6997 5.31507 17.6997 6.2536C17.6997 7.19213 17.2979 8.07993 16.569 8.75359Z" fill="#6E6E6E"/>
</g>
<defs>
<clipPath id="clip0">
<rect width="18.5314" height="18" fill="white" transform="translate(0.46875)"/>
</clipPath>
</defs>
</svg>
