<svg width="113" height="166" viewBox="0 0 113 166" fill="none" xmlns="http://www.w3.org/2000/svg">
<path d="M27.8869 91.9933C27.8802 92.377 27.959 92.7559 28.1155 93.0918C28.2719 93.4276 28.5004 93.7086 28.7777 93.9061L46.2548 106.343V131.253H49.9283V126.896H66.4594V131.253H70.133V103.951L80.4925 93.7122C80.727 93.4805 80.9092 93.1832 81.0225 92.8471C81.1359 92.5109 81.1768 92.1466 81.1416 91.787C81.1064 91.4274 80.9962 91.0839 80.821 90.7874C80.6458 90.491 80.411 90.2511 80.138 90.0893L61.7701 79.1965L61.7591 79.2249C61.4392 78.6411 61.0529 78.1125 60.6111 77.6541L57.0918 69.2798L53.804 71.2274L55.7234 75.7762C54.4591 75.9253 53.2615 76.5202 52.2849 77.4842L49.7447 71.4583L46.4568 73.4059L48.2238 77.5953L28.8438 90.1263C28.5598 90.31 28.3218 90.5794 28.1537 90.9072C27.9857 91.2351 27.8936 91.6097 27.8869 91.9933ZM49.9283 122.539V118.182C49.9283 118.759 50.1218 119.314 50.4663 119.722C50.8108 120.131 51.278 120.36 51.7651 120.36H66.4594V122.539H49.9283ZM64.6226 98.5747C65.1098 98.5747 65.577 98.8042 65.9214 99.2128C66.2659 99.6214 66.4594 100.175 66.4594 100.753V116.003H53.6019V100.753C53.6019 100.175 53.7954 99.6214 54.1399 99.2128C54.4844 98.8042 54.9515 98.5747 55.4387 98.5747H64.6226ZM69.8024 98.6074C69.5526 97.7491 69.1547 96.962 68.6341 96.2962C68.1136 95.6304 67.4818 95.1006 66.779 94.7405L67.758 93.5793C67.9632 93.3352 68.1167 93.0368 68.2057 92.7086C68.2948 92.3805 68.3169 92.032 68.2703 91.6917C68.2237 91.3515 68.1096 91.0292 67.9376 90.7514C67.7655 90.4735 67.5403 90.2481 67.2805 90.0936L62.5856 87.3094C62.7135 86.7192 62.7807 86.1128 62.7859 85.5034V84.6712L75.9832 92.4966L69.8024 98.6074ZM53.6019 83.3249C53.6019 82.4582 53.8922 81.627 54.4089 81.0142C54.9256 80.4013 55.6264 80.0571 56.3571 80.0571C57.0878 80.0571 57.7886 80.4013 58.3053 81.0142C58.822 81.627 59.1123 82.4582 59.1123 83.3249V85.5034C59.1123 86.3701 58.822 87.2013 58.3053 87.8141C57.7886 88.427 57.0878 88.7712 56.3571 88.7712C55.6264 88.7712 54.9256 88.427 54.4089 87.8141C53.8922 87.2013 53.6019 86.3701 53.6019 85.5034V83.3249ZM49.8585 81.4949L50.0422 81.9415C49.9687 82.3975 49.9306 82.8606 49.9283 83.3249V85.5034C49.9241 86.988 50.2867 88.4415 50.9712 89.6844C51.6556 90.9273 52.6321 91.9052 53.7799 92.4973C54.9278 93.0893 56.1967 93.2697 57.4299 93.0159C58.6632 92.7622 59.8068 92.0856 60.7195 91.0696L63.3589 92.636L62.0254 94.2176H55.4387C54.047 94.2211 52.7085 94.8528 51.6953 95.9844L46.016 91.9432L49.111 89.4945L47.0721 85.8694L41.5618 90.2265C41.3042 90.4303 41.0943 90.7081 40.9515 91.0339C40.8087 91.3598 40.7376 91.7232 40.745 92.0903C40.7523 92.4574 40.8378 92.8164 40.9934 93.1338C41.149 93.4513 41.3698 93.7169 41.6352 93.9061L50.0036 99.8622C49.9617 100.157 49.9366 100.455 49.9283 100.753V105.11C49.9283 104.734 49.8462 104.365 49.6901 104.038C49.534 103.711 49.3092 103.437 49.0375 103.243L33.4248 92.1327L49.8585 81.4949Z" fill="#C4C4C4"/>
<path d="M35.0299 59.361H2.17163V63.7181H35.0299C35.5511 63.7189 36.0522 63.9562 36.4305 64.3813C36.8089 64.8064 37.0358 65.3871 37.0647 66.0042C37.0936 66.6214 36.9223 67.2283 36.5859 67.7005C36.2496 68.1726 35.7737 68.4743 35.2558 68.5436L25.6219 69.8137C24.1792 70.0178 22.8562 70.8661 21.9221 72.186C20.988 73.5059 20.5128 75.1982 20.5933 76.9189C20.6738 78.6395 21.3039 80.2591 22.3554 81.4484C23.4069 82.6376 24.8009 83.3071 26.2537 83.3207H36.9549V78.9679H26.2537C25.7326 78.9671 25.2315 78.7298 24.8531 78.3047C24.4748 77.8796 24.2479 77.2989 24.219 76.6818C24.1901 76.0646 24.3614 75.4577 24.6977 74.9855C25.034 74.5134 25.51 74.2117 26.0278 74.1424L35.6618 72.8723C37.1045 72.6682 38.4274 71.8199 39.3616 70.5C40.2957 69.1801 40.7708 67.4877 40.6904 65.7671C40.6099 64.0465 39.9798 62.4268 38.9283 61.2376C37.8768 60.0484 36.4828 59.3789 35.0299 59.3653V59.361Z" fill="#C4C4C4"/>
<path d="M58.293 50.6466H112.379V46.2894H58.293C57.0492 46.2912 55.8569 46.8779 54.9774 47.921C54.098 48.9641 53.6033 50.3783 53.6018 51.8535V53.9906C53.6029 55.4078 54.0594 56.7712 54.8785 57.803C55.6976 58.8348 56.8175 59.4573 58.0101 59.5438L83.8629 61.3477C84.1216 61.3665 84.3646 61.5016 84.5424 61.7254C84.7202 61.9492 84.8194 62.2449 84.8198 62.5524V63.0295C84.8204 63.3153 84.7351 63.592 84.5792 63.8099C84.4234 64.0279 84.2072 64.1729 83.9694 64.219L77.7243 65.4543C76.6282 65.668 75.6319 66.3376 74.914 67.3431C74.1962 68.3486 73.8035 69.6245 73.8065 70.9421V73.6391C73.8115 75.0441 74.2627 76.3952 75.0702 77.4232C75.8776 78.4512 76.9821 79.0805 78.1633 79.1857L98.5774 80.9155C98.8334 80.9375 99.0729 81.0734 99.248 81.296C99.4231 81.5186 99.5208 81.8115 99.5215 82.1159C99.5225 83.5914 100.017 85.0062 100.896 86.0498C101.776 87.0933 102.969 87.6804 104.213 87.6821H112.379V83.325H104.213C103.943 83.3244 103.684 83.1971 103.494 82.9709C103.303 82.7446 103.196 82.438 103.195 82.1181C103.19 80.7131 102.739 79.3619 101.931 78.334C101.124 77.306 100.019 76.6767 98.8382 76.5715L78.4242 74.8286C78.1697 74.8068 77.9315 74.6724 77.7566 74.4521C77.5818 74.2318 77.4831 73.9417 77.48 73.6391V70.9421C77.4795 70.6563 77.5648 70.3796 77.7206 70.1616C77.8765 69.9436 78.0927 69.7986 78.3305 69.7526L84.5756 68.5173C85.6731 68.3054 86.671 67.6367 87.3904 66.6309C88.1098 65.6252 88.5034 64.3484 88.5008 63.0295V62.5524C88.4997 61.1352 88.0432 59.7719 87.2241 58.7401C86.405 57.7083 85.2851 57.0857 84.0925 56.9992L58.2397 55.1954C57.9796 55.1787 57.7348 55.0446 57.5555 54.8205C57.3762 54.5965 57.2759 54.2996 57.2754 53.9906V51.8535C57.2759 51.5336 57.3832 51.2269 57.574 51.0007C57.7647 50.7745 58.0232 50.6471 58.293 50.6466Z" fill="#C4C4C4"/>
<path d="M21.5094 26.4364L32.1517 38.0873L34.6424 34.8849L28.8841 28.5801L48.0914 5.79897L59.6503 19.5086C59.9947 19.9172 60.4618 20.1468 60.9489 20.1469H65.6988L70.3165 25.6282L66.1323 30.5887L68.7295 33.6692L81.2068 18.8703L93.6841 33.6692C94.0285 34.0778 94.4957 34.3074 94.9828 34.3075H99.7327L107.381 43.379L109.991 40.2986L101.805 30.5887C101.46 30.1802 100.993 29.9506 100.506 29.9504H95.7469L82.5091 14.2496C82.1647 13.8412 81.6976 13.6117 81.2105 13.6117C80.7235 13.6117 80.2564 13.8412 79.9119 14.2496L72.9174 22.5433L67.7579 16.4281C67.4135 16.0196 66.9464 15.7899 66.4593 15.7898H61.7093L49.39 1.17826C49.0455 0.76984 48.5784 0.540405 48.0914 0.540405C47.6043 0.540405 47.1372 0.76984 46.7928 1.17826L26.1822 25.6238L22.7033 21.8135C22.3546 21.4322 21.8951 21.2256 21.421 21.2369C20.9468 21.2483 20.4947 21.4768 20.1593 21.8745L0.873047 44.7494L3.47027 47.8298L21.5094 26.4364Z" fill="#C4C4C4"/>
<path d="M13.1925 124.543V131.253H16.8661V124.543C19.288 124.131 21.5604 122.907 23.4158 121.015C25.2711 119.124 26.6322 116.642 27.3389 113.864C28.0455 111.086 28.0683 108.126 27.4046 105.333C26.7409 102.539 25.4183 100.029 23.5924 98.0975C24.0001 96.8609 24.2106 95.5453 24.2132 94.2175C24.2132 91.3285 23.2456 88.5579 21.5233 86.5151C19.801 84.4723 17.465 83.3247 15.0293 83.3247C12.5935 83.3247 10.2576 84.4723 8.53523 86.5151C6.81291 88.5579 5.84532 91.3285 5.84532 94.2175C5.84794 95.5453 6.05845 96.8609 6.46615 98.0975C4.64027 100.029 3.31764 102.539 2.65392 105.333C1.9902 108.126 2.01301 111.086 2.71967 113.864C3.42633 116.642 4.78742 119.124 6.64277 121.015C8.49812 122.907 10.7705 124.131 13.1925 124.543ZM9.81278 100.509C10.1974 100.193 10.4658 99.7145 10.563 99.1716C10.6603 98.6286 10.5792 98.0621 10.3363 97.5877C9.80566 96.5759 9.52267 95.409 9.5189 94.2175C9.5189 92.4841 10.0995 90.8217 11.1328 89.5961C12.1662 88.3704 13.5678 87.6818 15.0293 87.6818C16.4907 87.6818 17.8923 88.3704 18.9257 89.5961C19.9591 90.8217 20.5396 92.4841 20.5396 94.2175C20.5359 95.409 20.2529 96.5759 19.7223 97.5877C19.4793 98.0621 19.3982 98.6286 19.4955 99.1716C19.5928 99.7145 19.8611 100.193 20.2457 100.509C21.7265 101.723 22.874 103.426 23.5456 105.406C24.2172 107.387 24.3833 109.558 24.0232 111.65C23.6631 113.741 22.7928 115.661 21.5204 117.171C20.2479 118.681 18.6294 119.714 16.8661 120.142V114.726L21.8382 108.829L19.241 105.749L16.8661 108.565V94.2175H13.1925V108.565L10.8175 105.749L8.22029 108.829L13.1925 114.726V120.142C11.4296 119.714 9.8116 118.681 8.53955 117.171C7.2675 115.661 6.39743 113.742 6.0374 111.65C5.67738 109.559 5.84327 107.389 6.51446 105.408C7.18566 103.428 8.33259 101.725 9.81278 100.511V100.509Z" fill="#C4C4C4"/>
<path d="M101.358 131.253V126.495C102.429 126.046 103.357 125.216 104.014 124.117C104.672 123.019 105.027 121.707 105.032 120.36V116.003C105.032 114.269 104.451 112.607 103.418 111.381C102.385 110.156 100.983 109.467 99.5216 109.467C98.0602 109.467 96.6586 110.156 95.6252 111.381C94.5918 112.607 94.0112 114.269 94.0112 116.003V120.36C94.0159 121.707 94.3714 123.019 95.029 124.117C95.6866 125.216 96.6141 126.046 97.6848 126.495V131.253H101.358ZM97.6848 116.003C97.6848 115.425 97.8783 114.871 98.2228 114.462C98.5673 114.054 99.0344 113.824 99.5216 113.824C100.009 113.824 100.476 114.054 100.82 114.462C101.165 114.871 101.358 115.425 101.358 116.003V120.36C101.358 120.938 101.165 121.492 100.82 121.9C100.476 122.309 100.009 122.539 99.5216 122.539C99.0344 122.539 98.5673 122.309 98.2228 121.9C97.8783 121.492 97.6848 120.938 97.6848 120.36V116.003Z" fill="#C4C4C4"/>
<path d="M32.7277 156.598C32.7744 156.72 32.7977 156.832 32.7977 156.934C32.7977 157.177 32.7184 157.378 32.5597 157.536C32.401 157.686 32.219 157.76 32.0137 157.76C31.8457 157.76 31.6917 157.709 31.5517 157.606C31.421 157.504 31.3184 157.364 31.2437 157.186L30.5157 155.492H26.3437L25.6157 157.2C25.5504 157.378 25.4477 157.518 25.3077 157.62C25.177 157.714 25.0324 157.76 24.8737 157.76C24.631 157.76 24.4444 157.695 24.3137 157.564C24.1924 157.434 24.1317 157.256 24.1317 157.032C24.1317 156.948 24.1457 156.86 24.1737 156.766L27.6597 148.394C27.7344 148.208 27.8464 148.063 27.9957 147.96C28.145 147.858 28.313 147.816 28.4997 147.834C28.6677 147.834 28.8217 147.886 28.9617 147.988C29.111 148.082 29.2184 148.217 29.2837 148.394L32.7277 156.598ZM29.8297 153.882L28.4157 150.606L27.0297 153.882H29.8297ZM39.8519 147.862C40.0853 147.862 40.2859 147.942 40.4539 148.1C40.6313 148.259 40.7199 148.45 40.7199 148.674C40.7199 148.796 40.6919 148.922 40.6359 149.052L37.1779 157.144C37.0939 157.322 36.9773 157.457 36.8279 157.55C36.6786 157.644 36.5199 157.69 36.3519 157.69C36.1933 157.681 36.0439 157.634 35.9039 157.55C35.7733 157.457 35.6706 157.326 35.5959 157.158L32.1379 149.038C32.0913 148.945 32.0679 148.828 32.0679 148.688C32.0679 148.436 32.1613 148.236 32.3479 148.086C32.5346 147.928 32.7259 147.848 32.9219 147.848C33.0806 147.848 33.2299 147.895 33.3699 147.988C33.5099 148.082 33.6173 148.217 33.6919 148.394L36.5059 155.016L39.0819 148.394C39.1566 148.226 39.2639 148.096 39.4039 148.002C39.5439 147.909 39.6933 147.862 39.8519 147.862ZM47.7302 156.08C47.9729 156.08 48.1736 156.164 48.3322 156.332C48.5002 156.491 48.5842 156.678 48.5842 156.892C48.5842 157.126 48.5002 157.317 48.3322 157.466C48.1736 157.616 47.9729 157.69 47.7302 157.69H43.0402C42.7976 157.69 42.5922 157.611 42.4242 157.452C42.2656 157.284 42.1862 157.079 42.1862 156.836V148.744C42.1862 148.502 42.2656 148.301 42.4242 148.142C42.5922 147.974 42.7976 147.89 43.0402 147.89H47.7302C47.9729 147.89 48.1736 147.97 48.3322 148.128C48.5002 148.278 48.5842 148.474 48.5842 148.716C48.5842 148.95 48.5049 149.141 48.3462 149.29C48.1876 149.43 47.9822 149.5 47.7302 149.5H43.9362V151.88H47.1002C47.3429 151.88 47.5436 151.96 47.7022 152.118C47.8702 152.268 47.9542 152.464 47.9542 152.706C47.9542 152.94 47.8749 153.131 47.7162 153.28C47.5576 153.42 47.3522 153.49 47.1002 153.49H43.9362V156.08H47.7302ZM57.6319 147.89C57.8559 147.89 58.0379 147.965 58.1779 148.114C58.3179 148.264 58.3879 148.45 58.3879 148.674V156.836C58.3879 157.079 58.3039 157.284 58.1359 157.452C57.9773 157.611 57.7766 157.69 57.5339 157.69C57.4033 157.69 57.2726 157.672 57.1419 157.634C57.0206 157.588 56.9319 157.527 56.8759 157.452L51.7379 150.928V156.906C51.7379 157.13 51.6633 157.317 51.5139 157.466C51.3739 157.616 51.1873 157.69 50.9539 157.69C50.7299 157.69 50.5479 157.616 50.4079 157.466C50.2679 157.317 50.1979 157.13 50.1979 156.906V148.744C50.1979 148.502 50.2773 148.301 50.4359 148.142C50.6039 147.974 50.8093 147.89 51.0519 147.89C51.1919 147.89 51.3273 147.918 51.4579 147.974C51.5979 148.03 51.7006 148.105 51.7659 148.198L56.8619 154.694V148.674C56.8619 148.45 56.9319 148.264 57.0719 148.114C57.2213 147.965 57.4079 147.89 57.6319 147.89ZM66.9329 147.89C67.1849 147.89 67.3902 147.965 67.5489 148.114C67.7075 148.264 67.7869 148.46 67.7869 148.702C67.7869 148.945 67.7075 149.141 67.5489 149.29C67.3902 149.43 67.1849 149.5 66.9329 149.5H64.7349V156.836C64.7349 157.079 64.6462 157.284 64.4689 157.452C64.2915 157.611 64.0722 157.69 63.8109 157.69C63.5495 157.69 63.3349 157.611 63.1669 157.452C62.9989 157.284 62.9149 157.079 62.9149 156.836V149.5H60.7169C60.4649 149.5 60.2595 149.426 60.1009 149.276C59.9422 149.127 59.8629 148.931 59.8629 148.688C59.8629 148.455 59.9422 148.264 60.1009 148.114C60.2689 147.965 60.4742 147.89 60.7169 147.89H66.9329ZM76.2145 147.876C76.4572 147.876 76.6532 147.956 76.8025 148.114C76.9519 148.273 77.0265 148.478 77.0265 148.73V153.798C77.0265 154.573 76.8632 155.259 76.5365 155.856C76.2099 156.454 75.7525 156.92 75.1645 157.256C74.5765 157.592 73.9045 157.76 73.1485 157.76C72.3925 157.76 71.7159 157.592 71.1185 157.256C70.5305 156.92 70.0732 156.454 69.7465 155.856C69.4199 155.259 69.2565 154.573 69.2565 153.798V148.73C69.2565 148.488 69.3405 148.287 69.5085 148.128C69.6765 147.96 69.8912 147.876 70.1525 147.876C70.3765 147.876 70.5725 147.96 70.7405 148.128C70.9085 148.287 70.9925 148.488 70.9925 148.73V153.798C70.9925 154.246 71.0905 154.648 71.2865 155.002C71.4825 155.348 71.7439 155.614 72.0705 155.8C72.4065 155.987 72.7659 156.08 73.1485 156.08C73.5499 156.08 73.9232 155.987 74.2685 155.8C74.6232 155.614 74.9032 155.348 75.1085 155.002C75.3232 154.648 75.4305 154.246 75.4305 153.798V148.73C75.4305 148.478 75.5005 148.273 75.6405 148.114C75.7805 147.956 75.9719 147.876 76.2145 147.876ZM86.8136 156.318C86.935 156.393 87.0283 156.491 87.0936 156.612C87.1683 156.734 87.2056 156.86 87.2056 156.99C87.2056 157.158 87.1496 157.312 87.0376 157.452C86.8976 157.62 86.683 157.704 86.3936 157.704C86.1696 157.704 85.9643 157.653 85.7776 157.55C85.1056 157.168 84.7696 156.388 84.7696 155.212C84.7696 154.876 84.6576 154.61 84.4336 154.414C84.219 154.218 83.9063 154.12 83.4956 154.12H80.8776V156.836C80.8776 157.088 80.8076 157.294 80.6676 157.452C80.537 157.611 80.3596 157.69 80.1356 157.69C79.865 157.69 79.627 157.611 79.4216 157.452C79.2256 157.284 79.1276 157.079 79.1276 156.836V148.744C79.1276 148.502 79.207 148.301 79.3656 148.142C79.5336 147.974 79.739 147.89 79.9816 147.89H84.0136C84.499 147.89 84.9563 148.021 85.3856 148.282C85.815 148.544 86.1556 148.903 86.4076 149.36C86.669 149.818 86.7996 150.331 86.7996 150.9C86.7996 151.367 86.6736 151.824 86.4216 152.272C86.1696 152.711 85.843 153.061 85.4416 153.322C86.0296 153.733 86.3516 154.284 86.4076 154.974C86.4356 155.124 86.4496 155.268 86.4496 155.408C86.487 155.698 86.5243 155.908 86.5616 156.038C86.599 156.16 86.683 156.253 86.8136 156.318ZM83.9436 152.678C84.1116 152.678 84.275 152.599 84.4336 152.44C84.5923 152.282 84.723 152.072 84.8256 151.81C84.9283 151.54 84.9796 151.25 84.9796 150.942C84.9796 150.681 84.9283 150.443 84.8256 150.228C84.723 150.004 84.5923 149.827 84.4336 149.696C84.275 149.566 84.1116 149.5 83.9436 149.5H80.8776V152.678H83.9436ZM96.425 156.598C96.4716 156.72 96.495 156.832 96.495 156.934C96.495 157.177 96.4156 157.378 96.257 157.536C96.0983 157.686 95.9163 157.76 95.711 157.76C95.543 157.76 95.389 157.709 95.249 157.606C95.1183 157.504 95.0156 157.364 94.941 157.186L94.213 155.492H90.041L89.313 157.2C89.2476 157.378 89.145 157.518 89.005 157.62C88.8743 157.714 88.7296 157.76 88.571 157.76C88.3283 157.76 88.1416 157.695 88.011 157.564C87.8896 157.434 87.829 157.256 87.829 157.032C87.829 156.948 87.843 156.86 87.871 156.766L91.357 148.394C91.4316 148.208 91.5436 148.063 91.693 147.96C91.8423 147.858 92.0103 147.816 92.197 147.834C92.365 147.834 92.519 147.886 92.659 147.988C92.8083 148.082 92.9156 148.217 92.981 148.394L96.425 156.598ZM93.527 153.882L92.113 150.606L90.727 153.882H93.527Z" fill="#C4C4C4"/>
</svg>
