<svg width="29" height="29" viewBox="0 0 29 29" fill="none" xmlns="http://www.w3.org/2000/svg">
<g clip-path="url(#clip0)">
<path d="M28.959 21.6097C28.959 23.2 27.7036 24.4629 26.1693 24.4629H2.92198C1.38769 24.4629 0.132324 23.2 0.132324 21.6097V7.39029C0.132324 5.8 1.38769 4.53708 2.92198 4.53708H26.1693C27.7036 4.53708 28.9589 5.8 28.9589 7.39029V21.6097H28.959Z" fill="#009B3A"/>
<path d="M2.92188 4.53708H26.1692C27.7035 4.53708 28.9588 5.8 28.9588 7.39029V21.6096C28.9588 23.1999 27.7034 24.4629 26.1692 24.4629" fill="#007C29"/>
<path d="M2.92188 4.53708H26.1692C27.7035 4.53708 28.9588 5.8 28.9588 7.39029V12.5823" fill="#006D21"/>
<path d="M28.959 21.6097C28.959 23.2 27.7036 24.4629 26.1693 24.4629H2.92198C1.38769 24.4629 0.132324 23.2 0.132324 21.6097" fill="#006D21"/>
<path d="M1.89917 14.5L14.5457 22.6387L27.1922 14.5L14.5457 6.36131L1.89917 14.5Z" fill="#FEDF00"/>
<path d="M14.5456 22.6387L16.1264 21.6097H12.9648L14.5456 22.6387Z" fill="#FCC000"/>
<path d="M9.10571 9.86935L19.9854 19.1307L27.1921 14.5L14.5456 6.36131L9.10571 9.86935Z" fill="#FCC000"/>
<path d="M14.5456 19.879C17.4986 19.879 19.8925 17.4708 19.8925 14.5C19.8925 11.5292 17.4986 9.12096 14.5456 9.12096C11.5926 9.12096 9.19873 11.5292 9.19873 14.5C9.19873 17.4708 11.5926 19.879 14.5456 19.879Z" fill="#002776"/>
<path d="M14.5455 9.12096C12.9182 9.12096 11.4769 9.86935 10.5005 10.9919L18.637 17.9613C19.4275 17.0258 19.8924 15.8097 19.8924 14.5C19.8924 11.5532 17.4747 9.12096 14.5455 9.12096Z" fill="#021E47"/>
<path d="M9.64565 12.3449C9.52798 12.6153 9.4317 12.8972 9.35913 13.1887C10.0762 13.0621 10.815 12.998 11.57 13.0032C14.6774 13.0032 17.5077 14.1665 19.6567 16.0842C19.7394 15.8137 19.8013 15.5339 19.8409 15.247C17.5885 13.3507 14.6879 12.2081 11.5234 12.2081C10.8858 12.208 10.2589 12.2553 9.64565 12.3449Z" fill="white"/>
</g>
<defs>
<clipPath id="clip0">
<rect width="28.8266" height="29" fill="white" transform="translate(0.132324)"/>
</clipPath>
</defs>
</svg>
