<svg width="113" height="169" viewBox="0 0 113 169" fill="none" xmlns="http://www.w3.org/2000/svg">
<path d="M32.6027 25.7108C33.5549 26.3714 34.6976 26.1512 35.269 25.0501C35.8403 23.949 35.6499 22.6277 34.6976 21.967C33.5549 21.0861 32.6027 20.2052 31.6504 19.3243C30.8887 18.6637 29.5555 18.6637 28.9842 19.5445C28.4128 20.4254 28.4128 21.967 29.1746 22.6277C30.3173 23.7288 31.46 24.8299 32.6027 25.7108Z" fill="#C4C4C4"/>
<path d="M24.0326 17.1211C24.7944 18.002 25.9371 18.2222 26.6989 17.3413C27.4607 16.4605 27.6511 15.1391 26.8893 14.2583C24.4135 11.1752 22.509 7.43145 20.9854 3.68772C20.6045 2.58662 19.4618 2.14619 18.5096 2.58662C17.5573 3.02706 17.1764 4.34838 17.5573 5.44948C19.2714 9.85387 21.5568 13.5976 24.0326 17.1211Z" fill="#C4C4C4"/>
<path d="M85.357 14.9197C87.6424 11.6164 89.3565 7.87264 90.6896 3.90866C91.0705 2.80755 90.6896 1.48622 89.5469 1.04578C88.5947 0.605339 87.452 1.04578 87.0711 2.36711C85.9284 5.89065 84.2144 9.19396 82.1194 12.2771C81.5481 13.1579 81.5481 14.6995 82.5003 15.3602C83.4526 16.0208 84.5952 16.0208 85.357 14.9197Z" fill="#C4C4C4"/>
<path d="M76.5965 24.6098C77.9297 23.5086 79.0723 22.4075 80.215 21.3064C80.9768 20.4255 80.9768 19.1042 80.4055 18.2233C79.6437 17.3424 78.501 17.3424 77.7392 18.003C76.787 19.1042 75.6443 20.2053 74.5016 21.0862C73.5494 21.7468 73.3589 23.0682 74.1207 24.1693C74.692 25.0502 75.8347 25.2704 76.5965 24.6098Z" fill="#C4C4C4"/>
<path d="M83.4527 81.8677C82.5004 81.6475 81.3578 82.5284 81.1673 83.6295L78.8819 99.9261C78.6915 101.027 79.4533 102.349 80.4055 102.569C81.3578 102.789 82.5005 101.908 82.6909 100.807L84.9763 84.5104C85.1667 83.1891 84.5954 81.8677 83.4527 81.8677Z" fill="#C4C4C4"/>
<path d="M84.7857 71.9578C83.643 71.7376 82.6908 72.6185 82.5003 73.7196L82.3099 76.5826C82.1194 77.6837 82.8812 79.0051 83.8335 79.2253C84.7857 79.4455 85.9284 78.5646 86.1188 77.4635L86.4997 74.8208C86.6902 73.2792 85.9284 72.178 84.7857 71.9578Z" fill="#C4C4C4"/>
<path d="M26.8895 98.3843C27.8417 98.1641 28.6035 97.063 28.4131 95.7416L25.9372 79.0046C25.7468 77.9035 24.7945 77.0226 23.6518 77.2428C22.6996 77.4631 21.9378 78.5642 22.1283 79.8855L24.6041 96.6225C24.7945 97.9438 25.7468 98.6045 26.8895 98.3843Z" fill="#C4C4C4"/>
<path d="M27.4609 103.23C26.5087 103.45 25.7469 104.551 25.9373 105.872L26.8896 111.818C27.08 112.919 28.0323 113.8 29.175 113.58C30.1272 113.36 30.889 112.259 30.6986 110.937L29.7463 104.991C29.5559 103.67 28.6036 103.009 27.4609 103.23Z" fill="#C4C4C4"/>
<path d="M100.784 104.551C99.6409 104.551 98.8792 105.432 98.8792 106.753V111.598C98.8792 112.919 99.6409 113.8 100.784 113.8C101.926 113.8 102.688 112.919 102.688 111.598V106.753C102.688 105.652 101.736 104.551 100.784 104.551Z" fill="#C4C4C4"/>
<path d="M100.784 122.609C99.6409 122.609 98.8792 123.49 98.8792 124.812V129.657C98.8792 130.978 99.6409 131.859 100.784 131.859C101.926 131.859 102.688 130.978 102.688 129.657V124.812C102.688 123.71 101.736 122.609 100.784 122.609Z" fill="#C4C4C4"/>
<path d="M110.687 116.002H106.497C105.355 116.002 104.593 116.883 104.593 118.205C104.593 119.526 105.355 120.407 106.497 120.407H110.687C111.83 120.407 112.592 119.526 112.592 118.205C112.592 116.883 111.639 116.002 110.687 116.002Z" fill="#C4C4C4"/>
<path d="M95.0702 116.002H90.8803C89.7376 116.002 88.9758 116.883 88.9758 118.205C88.9758 119.526 89.7376 120.407 90.8803 120.407H95.0702C96.2129 120.407 96.9747 119.526 96.9747 118.205C96.9747 116.883 96.0225 116.002 95.0702 116.002Z" fill="#C4C4C4"/>
<path d="M13.1772 100.366C10.7013 103.229 6.89237 103.229 4.41654 100.366C1.94071 97.5036 2.13116 93.0991 4.41654 90.4564C6.70193 87.8137 10.7013 87.8137 13.1772 90.4564C15.653 93.0991 15.653 97.5036 13.1772 100.366Z" fill="#C4C4C4"/>
<path d="M18.9029 111.854C22.5215 116.038 22.5215 122.865 18.9029 126.829C17.1889 128.811 14.9035 129.912 12.4277 129.912C9.95185 129.912 7.66646 128.811 5.95242 126.829C2.33389 122.645 2.33389 115.818 5.95242 111.854C7.66646 109.872 9.95185 108.771 12.4277 108.771C14.9035 108.771 17.1889 109.872 18.9029 111.854Z" fill="#C4C4C4"/>
<path d="M60.7895 111.818H47.0772C41.3637 111.818 36.9834 117.324 36.9834 123.49C36.9834 129.876 41.5542 135.162 47.0772 135.162H60.7895C66.3125 135.162 70.8833 129.876 70.8833 123.49C70.8833 117.103 66.5029 111.818 60.7895 111.818ZM50.5053 125.912C50.5053 127.234 49.7435 128.115 48.6008 128.115C47.4581 128.115 46.6963 127.234 46.6963 125.912V120.847C46.6963 119.526 47.4581 118.645 48.6008 118.645C49.7435 118.645 50.5053 119.526 50.5053 120.847V125.912ZM61.1704 125.912C61.1704 127.234 60.4086 128.115 59.2659 128.115C58.1232 128.115 57.3614 127.234 57.3614 125.912V120.847C57.3614 119.526 58.1232 118.645 59.2659 118.645C60.4086 118.645 61.1704 119.526 61.1704 120.847V125.912Z" fill="#C4C4C4"/>
<path d="M26.476 58.1453C22.8133 53.3922 18.3183 50.6761 13.4903 50.6761C8.6623 50.6761 4.16726 53.3922 0.504639 58.1453C4.16726 62.8984 8.6623 65.6145 13.4903 65.6145C18.3183 65.6145 22.8133 63.1248 26.476 58.1453Z" fill="#C4C4C4"/>
<path d="M40.2209 75.7017C41.2727 75.7017 42.1254 74.7157 42.1254 73.4994C42.1254 72.2831 41.2727 71.2971 40.2209 71.2971C39.1691 71.2971 38.3164 72.2831 38.3164 73.4994C38.3164 74.7157 39.1691 75.7017 40.2209 75.7017Z" fill="#C4C4C4"/>
<path d="M25.9373 50.8163C25.7468 45.3107 27.6513 39.3646 31.6507 35.1804C22.3187 29.4546 14.8912 19.985 10.7014 8.75354C9.55867 25.0501 15.4626 40.4658 25.9373 50.8163Z" fill="#C4C4C4"/>
<path d="M64.7888 34.52H43.0776C34.8883 34.52 28.4131 42.8885 29.7462 52.5783C30.6985 58.5244 26.6991 31.8773 38.126 110.938C38.3164 110.717 41.5541 107.414 46.8866 107.194V80.1062C46.8866 70.4164 43.649 61.167 37.5546 54.3401C36.7928 53.4592 36.7928 52.1379 37.5546 51.257C38.3164 50.3761 39.4591 50.3761 40.2209 51.257C46.8866 58.9648 50.6956 69.3153 50.6956 80.3265V107.414H56.9804V80.1062C56.9804 69.0951 60.5989 58.9648 67.4551 51.0368C68.2169 50.1559 69.3596 50.1559 70.1213 51.0368C70.8831 51.9177 70.8831 53.239 70.1213 54.1199C64.2174 60.9468 60.7894 70.1962 60.7894 79.886V106.973C64.027 106.973 67.2646 108.515 69.55 110.717L77.9297 52.5783C79.4533 42.8885 72.7876 34.52 64.7888 34.52ZM40.2209 66.8928C43.2681 66.8928 45.9344 69.7557 45.9344 73.4995C45.9344 77.2433 43.4585 80.1062 40.2209 80.1062C36.9833 80.1062 34.5075 77.2433 34.5075 73.4995C34.5075 69.7557 36.9833 66.8928 40.2209 66.8928ZM67.836 79.886C64.7888 79.886 62.1225 77.0231 62.1225 73.2793C62.1225 69.5355 64.5983 66.6726 67.836 66.6726C71.0736 66.6726 73.5494 69.5355 73.5494 73.2793C73.5494 77.0231 71.0736 79.886 67.836 79.886Z" fill="#C4C4C4"/>
<path d="M81.7388 58.7441C85.9286 63.3688 91.0708 66.0115 96.5938 66.0115C102.117 66.0115 107.259 63.3688 111.449 58.7441C107.259 54.1195 102.117 51.4768 96.5938 51.4768C91.0708 51.697 85.7382 54.1195 81.7388 58.7441Z" fill="#C4C4C4"/>
<path d="M67.8359 75.7017C68.8877 75.7017 69.7404 74.7157 69.7404 73.4994C69.7404 72.2831 68.8877 71.2971 67.8359 71.2971C66.7841 71.2971 65.9314 72.2831 65.9314 73.4994C65.9314 74.7157 66.7841 75.7017 67.8359 75.7017Z" fill="#C4C4C4"/>
<path d="M76.2156 35.1805C80.215 39.1445 82.1195 45.0906 81.929 50.8164C92.4037 40.4659 98.1172 25.0502 97.1649 8.97388C92.975 19.9851 85.5476 29.4547 76.2156 35.1805Z" fill="#C4C4C4"/>
<path d="M27.5575 147.803C27.8468 147.952 27.9915 148.19 27.9915 148.517C27.9915 148.713 27.9215 148.904 27.7815 149.091C27.6321 149.287 27.4408 149.385 27.2075 149.385C27.0488 149.385 26.8901 149.343 26.7315 149.259C26.2741 149.044 25.7795 148.937 25.2475 148.937C24.5941 148.937 24.0248 149.077 23.5395 149.357C23.0541 149.628 22.6808 150.015 22.4195 150.519C22.1581 151.014 22.0275 151.583 22.0275 152.227C22.0275 153.328 22.3215 154.164 22.9095 154.733C23.5068 155.302 24.2861 155.587 25.2475 155.587C25.8168 155.587 26.3115 155.48 26.7315 155.265C26.8995 155.19 27.0488 155.153 27.1795 155.153C27.4221 155.153 27.6275 155.256 27.7955 155.461C27.9355 155.638 28.0055 155.83 28.0055 156.035C28.0055 156.184 27.9681 156.32 27.8935 156.441C27.8188 156.562 27.7115 156.656 27.5715 156.721C26.8435 157.085 26.0688 157.267 25.2475 157.267C24.3328 157.267 23.4928 157.076 22.7275 156.693C21.9621 156.301 21.3508 155.727 20.8935 154.971C20.4361 154.215 20.2075 153.3 20.2075 152.227C20.2075 151.275 20.4221 150.421 20.8515 149.665C21.2901 148.909 21.8921 148.321 22.6575 147.901C23.4228 147.472 24.2861 147.257 25.2475 147.257C26.0781 147.257 26.8481 147.439 27.5575 147.803ZM36.4328 147.313C36.6755 147.313 36.8715 147.392 37.0208 147.551C37.1701 147.71 37.2448 147.915 37.2448 148.167V153.235C37.2448 154.01 37.0815 154.696 36.7548 155.293C36.4281 155.89 35.9708 156.357 35.3828 156.693C34.7948 157.029 34.1228 157.197 33.3668 157.197C32.6108 157.197 31.9341 157.029 31.3368 156.693C30.7488 156.357 30.2915 155.89 29.9648 155.293C29.6381 154.696 29.4748 154.01 29.4748 153.235V148.167C29.4748 147.924 29.5588 147.724 29.7268 147.565C29.8948 147.397 30.1095 147.313 30.3708 147.313C30.5948 147.313 30.7908 147.397 30.9588 147.565C31.1268 147.724 31.2108 147.924 31.2108 148.167V153.235C31.2108 153.683 31.3088 154.084 31.5048 154.439C31.7008 154.784 31.9621 155.05 32.2888 155.237C32.6248 155.424 32.9841 155.517 33.3668 155.517C33.7681 155.517 34.1415 155.424 34.4868 155.237C34.8415 155.05 35.1215 154.784 35.3268 154.439C35.5415 154.084 35.6488 153.683 35.6488 153.235V148.167C35.6488 147.915 35.7188 147.71 35.8588 147.551C35.9988 147.392 36.1901 147.313 36.4328 147.313ZM44.7499 155.489C44.9926 155.489 45.1932 155.568 45.3519 155.727C45.5199 155.876 45.6039 156.072 45.6039 156.315C45.6039 156.548 45.5199 156.744 45.3519 156.903C45.1932 157.052 44.9926 157.127 44.7499 157.127H40.1999C39.9572 157.127 39.7519 157.048 39.5839 156.889C39.4252 156.721 39.3459 156.516 39.3459 156.273V148.181C39.3459 147.938 39.4299 147.738 39.5979 147.579C39.7659 147.411 39.9806 147.327 40.2419 147.327C40.4752 147.327 40.6759 147.411 40.8439 147.579C41.0119 147.738 41.0959 147.938 41.0959 148.181V155.489H44.7499ZM52.2527 147.327C52.5047 147.327 52.71 147.402 52.8687 147.551C53.0274 147.7 53.1067 147.896 53.1067 148.139C53.1067 148.382 53.0274 148.578 52.8687 148.727C52.71 148.867 52.5047 148.937 52.2527 148.937H50.0547V156.273C50.0547 156.516 49.966 156.721 49.7887 156.889C49.6114 157.048 49.392 157.127 49.1307 157.127C48.8694 157.127 48.6547 157.048 48.4867 156.889C48.3187 156.721 48.2347 156.516 48.2347 156.273V148.937H46.0367C45.7847 148.937 45.5794 148.862 45.4207 148.713C45.262 148.564 45.1827 148.368 45.1827 148.125C45.1827 147.892 45.262 147.7 45.4207 147.551C45.5887 147.402 45.794 147.327 46.0367 147.327H52.2527ZM61.5344 147.313C61.777 147.313 61.973 147.392 62.1224 147.551C62.2717 147.71 62.3464 147.915 62.3464 148.167V153.235C62.3464 154.01 62.183 154.696 61.8564 155.293C61.5297 155.89 61.0724 156.357 60.4844 156.693C59.8964 157.029 59.2244 157.197 58.4684 157.197C57.7124 157.197 57.0357 157.029 56.4384 156.693C55.8504 156.357 55.393 155.89 55.0664 155.293C54.7397 154.696 54.5764 154.01 54.5764 153.235V148.167C54.5764 147.924 54.6604 147.724 54.8284 147.565C54.9964 147.397 55.211 147.313 55.4724 147.313C55.6964 147.313 55.8924 147.397 56.0604 147.565C56.2284 147.724 56.3124 147.924 56.3124 148.167V153.235C56.3124 153.683 56.4104 154.084 56.6064 154.439C56.8024 154.784 57.0637 155.05 57.3904 155.237C57.7264 155.424 58.0857 155.517 58.4684 155.517C58.8697 155.517 59.243 155.424 59.5884 155.237C59.943 155.05 60.223 154.784 60.4284 154.439C60.643 154.084 60.7504 153.683 60.7504 153.235V148.167C60.7504 147.915 60.8204 147.71 60.9604 147.551C61.1004 147.392 61.2917 147.313 61.5344 147.313ZM72.1335 155.755C72.2548 155.83 72.3481 155.928 72.4135 156.049C72.4881 156.17 72.5255 156.296 72.5255 156.427C72.5255 156.595 72.4695 156.749 72.3575 156.889C72.2175 157.057 72.0028 157.141 71.7135 157.141C71.4895 157.141 71.2841 157.09 71.0975 156.987C70.4255 156.604 70.0895 155.825 70.0895 154.649C70.0895 154.313 69.9775 154.047 69.7535 153.851C69.5388 153.655 69.2261 153.557 68.8155 153.557H66.1975V156.273C66.1975 156.525 66.1275 156.73 65.9875 156.889C65.8568 157.048 65.6795 157.127 65.4555 157.127C65.1848 157.127 64.9468 157.048 64.7415 156.889C64.5455 156.721 64.4475 156.516 64.4475 156.273V148.181C64.4475 147.938 64.5268 147.738 64.6855 147.579C64.8535 147.411 65.0588 147.327 65.3015 147.327H69.3335C69.8188 147.327 70.2761 147.458 70.7055 147.719C71.1348 147.98 71.4755 148.34 71.7275 148.797C71.9888 149.254 72.1195 149.768 72.1195 150.337C72.1195 150.804 71.9935 151.261 71.7415 151.709C71.4895 152.148 71.1628 152.498 70.7615 152.759C71.3495 153.17 71.6715 153.72 71.7275 154.411C71.7555 154.56 71.7695 154.705 71.7695 154.845C71.8068 155.134 71.8441 155.344 71.8815 155.475C71.9188 155.596 72.0028 155.69 72.1335 155.755ZM69.2635 152.115C69.4315 152.115 69.5948 152.036 69.7535 151.877C69.9121 151.718 70.0428 151.508 70.1455 151.247C70.2481 150.976 70.2995 150.687 70.2995 150.379C70.2995 150.118 70.2481 149.88 70.1455 149.665C70.0428 149.441 69.9121 149.264 69.7535 149.133C69.5948 149.002 69.4315 148.937 69.2635 148.937H66.1975V152.115H69.2635ZM81.7448 156.035C81.7915 156.156 81.8148 156.268 81.8148 156.371C81.8148 156.614 81.7355 156.814 81.5768 156.973C81.4181 157.122 81.2361 157.197 81.0308 157.197C80.8628 157.197 80.7088 157.146 80.5688 157.043C80.4381 156.94 80.3355 156.8 80.2608 156.623L79.5328 154.929H75.3608L74.6328 156.637C74.5675 156.814 74.4648 156.954 74.3248 157.057C74.1941 157.15 74.0495 157.197 73.8908 157.197C73.6481 157.197 73.4615 157.132 73.3308 157.001C73.2095 156.87 73.1488 156.693 73.1488 156.469C73.1488 156.385 73.1628 156.296 73.1908 156.203L76.6768 147.831C76.7515 147.644 76.8635 147.5 77.0128 147.397C77.1621 147.294 77.3301 147.252 77.5168 147.271C77.6848 147.271 77.8388 147.322 77.9788 147.425C78.1281 147.518 78.2355 147.654 78.3008 147.831L81.7448 156.035ZM78.8468 153.319L77.4328 150.043L76.0468 153.319H78.8468Z" fill="#C4C4C4"/>
</svg>
