<svg width="138" height="163" viewBox="0 0 138 163" fill="none" xmlns="http://www.w3.org/2000/svg">
<path d="M18.9808 81.0305L9.03691 97.9679L48.664 99.1777H103.133C103.397 99.187 103.66 99.1238 103.893 98.9949C104.125 98.8659 104.32 98.6759 104.456 98.4444C104.593 98.2129 104.666 97.9485 104.668 97.6785C104.67 97.4086 104.601 97.143 104.468 96.9093L77.3083 47.307C77.1739 47.0694 76.9786 46.8735 76.7433 46.7404C76.508 46.6072 76.2416 46.5417 75.9726 46.5509L38.2749 47.9119L33.9708 55.1708L20.7618 20.8424L0.874023 71.0496H18.9808V81.0305ZM65.1382 96.1532L75.9726 78.4597L86.8069 96.1532H65.1382ZM75.9726 51.2389L100.61 96.1532H90.2205L75.9726 72.7131L61.5762 96.1532H51.3355L75.9726 51.2389ZM39.9075 51.0877L73.3011 49.8779L47.9219 96.1532L14.2315 95.0946L39.9075 51.0877ZM21.9491 75.8888V71.0496H24.769L21.9491 75.8888ZM5.17809 68.0251L20.6134 29.1599L32.0414 58.649L26.55 68.0251H5.17809Z" fill="#C4C4C4"/>
<path d="M91.7044 113.847C88.8845 115.964 86.0646 117.93 80.7216 117.93C75.3786 117.93 72.5587 115.964 69.7388 113.847C66.9189 111.73 63.2085 109.159 56.8266 109.159C50.4447 109.159 47.1796 111.578 44.0628 113.847C40.9461 116.115 38.423 117.93 33.0801 117.93C27.7371 117.93 24.9172 115.964 22.0973 113.847C19.2774 111.73 15.567 109.159 9.03665 109.159C8.64303 109.159 8.26553 109.318 7.98719 109.602C7.70886 109.885 7.55249 110.27 7.55249 110.671C7.55249 111.072 7.70886 111.457 7.98719 111.74C8.26553 112.024 8.64303 112.183 9.03665 112.183C14.528 112.183 17.1995 114.149 20.0194 116.266C22.8393 118.384 26.4013 120.954 32.7832 120.954C39.1651 120.954 42.4303 118.535 45.547 116.266C48.6637 113.998 51.3352 112.183 56.8266 112.183C62.318 112.183 64.9895 114.149 67.8094 116.266C70.6293 118.384 74.1913 120.954 80.5732 120.954C86.9551 120.954 90.2202 118.535 93.337 116.266C96.4537 113.998 98.9768 112.183 104.468 112.183C109.96 112.183 112.631 114.149 115.451 116.266C118.271 118.384 121.833 120.954 128.215 120.954C128.608 120.954 128.986 120.795 129.264 120.512C129.543 120.228 129.699 119.843 129.699 119.442C129.699 119.041 129.543 118.656 129.264 118.373C128.986 118.089 128.608 117.93 128.215 117.93C122.723 117.93 120.052 115.964 117.232 113.847C114.412 111.73 110.85 109.159 104.468 109.159C98.0863 109.159 94.8211 111.578 91.7044 113.847Z" fill="#C4C4C4"/>
<path d="M9.03665 129.877C14.528 129.877 17.1995 131.843 20.0194 133.96C22.8393 136.077 26.4013 138.648 32.7832 138.648C39.1651 138.648 42.4303 136.228 45.547 133.96C48.6637 131.691 51.1868 129.877 56.5298 129.877C61.8728 129.877 64.6927 131.843 67.5126 133.96C70.3325 136.077 73.8944 138.648 80.2763 138.648C86.6582 138.648 89.9234 136.228 93.0401 133.96C96.1569 131.691 98.6799 129.877 104.023 129.877C109.366 129.877 112.186 131.843 115.006 133.96C117.826 136.077 121.388 138.648 127.769 138.648C128.163 138.648 128.541 138.489 128.819 138.205C129.097 137.921 129.254 137.537 129.254 137.136C129.254 136.735 129.097 136.35 128.819 136.066C128.541 135.783 128.163 135.623 127.769 135.623C122.278 135.623 119.607 133.657 116.787 131.54C113.967 129.423 110.405 126.852 104.023 126.852C97.641 126.852 94.3759 129.272 91.2591 131.54C88.1424 133.809 85.6193 135.623 80.2763 135.623C74.9334 135.623 72.1135 133.657 69.2936 131.54C66.4736 129.423 62.9117 126.852 56.5298 126.852C50.1479 126.852 46.8827 129.272 43.766 131.54C40.6493 133.809 38.1262 135.623 32.7832 135.623C27.4402 135.623 24.6203 133.657 21.8004 131.54C18.9805 129.423 15.4185 126.852 9.03665 126.852C8.64303 126.852 8.26552 127.012 7.98719 127.295C7.70886 127.579 7.55249 127.963 7.55249 128.365C7.55249 128.766 7.70886 129.15 7.98719 129.434C8.26552 129.717 8.64303 129.877 9.03665 129.877Z" fill="#C4C4C4"/>
<path d="M98.8286 28.2525C98.8286 30.6154 99.5163 32.9252 100.805 34.8899C102.093 36.8545 103.924 38.3858 106.067 39.2901C108.209 40.1943 110.566 40.4309 112.841 39.9699C115.115 39.5089 117.204 38.3711 118.844 36.7003C120.484 35.0295 121.601 32.9007 122.053 30.5832C122.505 28.2658 122.273 25.8636 121.386 23.6806C120.498 21.4976 118.996 19.6317 117.067 18.319C115.139 17.0062 112.872 16.3055 110.553 16.3055C107.444 16.3055 104.462 17.5642 102.263 19.8047C100.064 22.0452 98.8286 25.084 98.8286 28.2525ZM110.553 19.3301C112.285 19.3301 113.978 19.8534 115.418 20.8338C116.858 21.8142 117.981 23.2077 118.643 24.838C119.306 26.4684 119.48 28.2624 119.142 29.9932C118.804 31.724 117.97 33.3138 116.745 34.5616C115.521 35.8094 113.96 36.6592 112.262 37.0035C110.563 37.3477 108.803 37.1711 107.202 36.4957C105.602 35.8204 104.235 34.6768 103.273 33.2095C102.311 31.7422 101.797 30.0172 101.797 28.2525C101.797 27.0808 102.023 25.9206 102.463 24.838C102.904 23.7555 103.549 22.7719 104.362 21.9434C105.175 21.1149 106.14 20.4577 107.202 20.0093C108.265 19.5609 109.404 19.3301 110.553 19.3301Z" fill="#C4C4C4"/>
<path d="M112.038 0.880615H109.069V8.26038H112.038V0.880615Z" fill="#C4C4C4"/>
<path d="M112.038 48.3655H109.069V55.7454H112.038V48.3655Z" fill="#C4C4C4"/>
<path d="M137.565 26.7404H130.292V29.7648H137.565V26.7404Z" fill="#C4C4C4"/>
<path d="M90.8142 26.7404H83.5417V29.7648H90.8142V26.7404Z" fill="#C4C4C4"/>
<path d="M128.487 7.8739L123.345 13.1136L125.444 15.2523L130.586 10.0126L128.487 7.8739Z" fill="#C4C4C4"/>
<path d="M95.6438 41.5463L90.5015 46.7861L92.6004 48.9248L97.7427 43.685L95.6438 41.5463Z" fill="#C4C4C4"/>
<path d="M125.545 41.4426L123.447 43.5813L128.568 48.7997L130.667 46.661L125.545 41.4426Z" fill="#C4C4C4"/>
<path d="M92.6038 7.87039L90.5049 10.009L95.6262 15.2273L97.7252 13.0887L92.6038 7.87039Z" fill="#C4C4C4"/>
<path d="M24.5393 158.39C24.782 158.39 24.9826 158.474 25.1413 158.642C25.3093 158.801 25.3933 158.987 25.3933 159.202C25.3933 159.435 25.3093 159.627 25.1413 159.776C24.9826 159.925 24.782 160 24.5393 160H19.8493C19.6066 160 19.4013 159.921 19.2333 159.762C19.0746 159.594 18.9953 159.389 18.9953 159.146V151.054C18.9953 150.811 19.0746 150.611 19.2333 150.452C19.4013 150.284 19.6066 150.2 19.8493 150.2H24.5393C24.782 150.2 24.9826 150.279 25.1413 150.438C25.3093 150.587 25.3933 150.783 25.3933 151.026C25.3933 151.259 25.314 151.451 25.1553 151.6C24.9966 151.74 24.7913 151.81 24.5393 151.81H20.7453V154.19H23.9093C24.152 154.19 24.3526 154.269 24.5113 154.428C24.6793 154.577 24.7633 154.773 24.7633 155.016C24.7633 155.249 24.684 155.441 24.5253 155.59C24.3666 155.73 24.1613 155.8 23.9093 155.8H20.7453V158.39H24.5393ZM33.867 150.676C34.1564 150.825 34.301 151.063 34.301 151.39C34.301 151.586 34.231 151.777 34.091 151.964C33.9417 152.16 33.7504 152.258 33.517 152.258C33.3584 152.258 33.1997 152.216 33.041 152.132C32.5837 151.917 32.089 151.81 31.557 151.81C30.9037 151.81 30.3344 151.95 29.849 152.23C29.3637 152.501 28.9904 152.888 28.729 153.392C28.4677 153.887 28.337 154.456 28.337 155.1C28.337 156.201 28.631 157.037 29.219 157.606C29.8164 158.175 30.5957 158.46 31.557 158.46C32.1264 158.46 32.621 158.353 33.041 158.138C33.209 158.063 33.3584 158.026 33.489 158.026C33.7317 158.026 33.937 158.129 34.105 158.334C34.245 158.511 34.315 158.703 34.315 158.908C34.315 159.057 34.2777 159.193 34.203 159.314C34.1284 159.435 34.021 159.529 33.881 159.594C33.153 159.958 32.3784 160.14 31.557 160.14C30.6424 160.14 29.8024 159.949 29.037 159.566C28.2717 159.174 27.6604 158.6 27.203 157.844C26.7457 157.088 26.517 156.173 26.517 155.1C26.517 154.148 26.7317 153.294 27.161 152.538C27.5997 151.782 28.2017 151.194 28.967 150.774C29.7324 150.345 30.5957 150.13 31.557 150.13C32.3877 150.13 33.1577 150.312 33.867 150.676ZM44.8004 155.1C44.8004 156.024 44.595 156.873 44.1844 157.648C43.7737 158.413 43.2044 159.02 42.4764 159.468C41.7577 159.916 40.9457 160.14 40.0404 160.14C39.135 160.14 38.3184 159.916 37.5904 159.468C36.8717 159.02 36.307 158.413 35.8964 157.648C35.495 156.873 35.2944 156.024 35.2944 155.1C35.2944 154.176 35.495 153.331 35.8964 152.566C36.307 151.791 36.8717 151.18 37.5904 150.732C38.3184 150.284 39.135 150.06 40.0404 150.06C40.9457 150.06 41.7577 150.284 42.4764 150.732C43.2044 151.18 43.7737 151.791 44.1844 152.566C44.595 153.331 44.8004 154.176 44.8004 155.1ZM42.9804 155.1C42.9804 154.475 42.8544 153.91 42.6024 153.406C42.3504 152.893 42.0004 152.487 41.5524 152.188C41.1044 151.889 40.6004 151.74 40.0404 151.74C39.471 151.74 38.9624 151.889 38.5144 152.188C38.0757 152.477 37.7304 152.879 37.4784 153.392C37.2357 153.905 37.1144 154.475 37.1144 155.1C37.1144 155.725 37.2357 156.295 37.4784 156.808C37.7304 157.321 38.0757 157.727 38.5144 158.026C38.9624 158.315 39.471 158.46 40.0404 158.46C40.6004 158.46 41.1044 158.311 41.5524 158.012C42.0004 157.713 42.3504 157.312 42.6024 156.808C42.8544 156.295 42.9804 155.725 42.9804 155.1ZM52.574 150.2C52.826 150.2 53.0313 150.275 53.19 150.424C53.3487 150.573 53.428 150.769 53.428 151.012C53.428 151.255 53.3487 151.451 53.19 151.6C53.0313 151.74 52.826 151.81 52.574 151.81H50.376V159.146C50.376 159.389 50.2873 159.594 50.11 159.762C49.9327 159.921 49.7133 160 49.452 160C49.1907 160 48.976 159.921 48.808 159.762C48.64 159.594 48.556 159.389 48.556 159.146V151.81H46.358C46.106 151.81 45.9007 151.735 45.742 151.586C45.5833 151.437 45.504 151.241 45.504 150.998C45.504 150.765 45.5833 150.573 45.742 150.424C45.91 150.275 46.1153 150.2 46.358 150.2H52.574ZM61.8557 150.186C62.0983 150.186 62.2943 150.265 62.4437 150.424C62.593 150.583 62.6677 150.788 62.6677 151.04V156.108C62.6677 156.883 62.5043 157.569 62.1777 158.166C61.851 158.763 61.3937 159.23 60.8057 159.566C60.2177 159.902 59.5457 160.07 58.7897 160.07C58.0337 160.07 57.357 159.902 56.7597 159.566C56.1717 159.23 55.7143 158.763 55.3877 158.166C55.061 157.569 54.8977 156.883 54.8977 156.108V151.04C54.8977 150.797 54.9817 150.597 55.1497 150.438C55.3177 150.27 55.5323 150.186 55.7937 150.186C56.0177 150.186 56.2137 150.27 56.3817 150.438C56.5497 150.597 56.6337 150.797 56.6337 151.04V156.108C56.6337 156.556 56.7317 156.957 56.9277 157.312C57.1237 157.657 57.385 157.923 57.7117 158.11C58.0477 158.297 58.407 158.39 58.7897 158.39C59.191 158.39 59.5643 158.297 59.9097 158.11C60.2643 157.923 60.5443 157.657 60.7497 157.312C60.9643 156.957 61.0717 156.556 61.0717 156.108V151.04C61.0717 150.788 61.1417 150.583 61.2817 150.424C61.4217 150.265 61.613 150.186 61.8557 150.186ZM72.4548 158.628C72.5761 158.703 72.6694 158.801 72.7348 158.922C72.8094 159.043 72.8468 159.169 72.8468 159.3C72.8468 159.468 72.7908 159.622 72.6788 159.762C72.5388 159.93 72.3241 160.014 72.0348 160.014C71.8108 160.014 71.6054 159.963 71.4188 159.86C70.7468 159.477 70.4108 158.698 70.4108 157.522C70.4108 157.186 70.2988 156.92 70.0748 156.724C69.8601 156.528 69.5474 156.43 69.1368 156.43H66.5188V159.146C66.5188 159.398 66.4488 159.603 66.3088 159.762C66.1781 159.921 66.0008 160 65.7767 160C65.5061 160 65.2681 159.921 65.0628 159.762C64.8668 159.594 64.7688 159.389 64.7688 159.146V151.054C64.7688 150.811 64.8481 150.611 65.0068 150.452C65.1748 150.284 65.3801 150.2 65.6228 150.2H69.6548C70.1401 150.2 70.5974 150.331 71.0268 150.592C71.4561 150.853 71.7968 151.213 72.0488 151.67C72.3101 152.127 72.4408 152.641 72.4408 153.21C72.4408 153.677 72.3148 154.134 72.0628 154.582C71.8108 155.021 71.4841 155.371 71.0828 155.632C71.6708 156.043 71.9928 156.593 72.0488 157.284C72.0768 157.433 72.0908 157.578 72.0908 157.718C72.1281 158.007 72.1654 158.217 72.2028 158.348C72.2401 158.469 72.3241 158.563 72.4548 158.628ZM69.5848 154.988C69.7528 154.988 69.9161 154.909 70.0748 154.75C70.2334 154.591 70.3641 154.381 70.4668 154.12C70.5694 153.849 70.6208 153.56 70.6208 153.252C70.6208 152.991 70.5694 152.753 70.4668 152.538C70.3641 152.314 70.2334 152.137 70.0748 152.006C69.9161 151.875 69.7528 151.81 69.5848 151.81H66.5188V154.988H69.5848ZM76.1301 159.146C76.1301 159.389 76.0414 159.594 75.8641 159.762C75.6867 159.921 75.4814 160 75.2481 160C74.9961 160 74.7861 159.921 74.6181 159.762C74.4594 159.594 74.3801 159.389 74.3801 159.146V151.054C74.3801 150.811 74.4641 150.611 74.6321 150.452C74.8001 150.284 75.0147 150.2 75.2761 150.2C75.5094 150.2 75.7101 150.284 75.8781 150.452C76.0461 150.611 76.1301 150.811 76.1301 151.054V159.146ZM81.3855 160.14C80.7135 160.14 80.1162 160.056 79.5935 159.888C79.0709 159.72 78.5809 159.435 78.1235 159.034C77.8715 158.81 77.7455 158.563 77.7455 158.292C77.7455 158.077 77.8249 157.891 77.9835 157.732C78.1422 157.564 78.3335 157.48 78.5575 157.48C78.7349 157.48 78.8935 157.536 79.0335 157.648C79.4069 157.956 79.7709 158.18 80.1255 158.32C80.4802 158.46 80.9002 158.53 81.3855 158.53C81.9082 158.53 82.3562 158.413 82.7295 158.18C83.1122 157.947 83.3035 157.657 83.3035 157.312C83.3035 156.892 83.1169 156.565 82.7435 156.332C82.3702 156.089 81.7775 155.907 80.9655 155.786C78.9215 155.487 77.8995 154.535 77.8995 152.93C77.8995 152.342 78.0535 151.833 78.3615 151.404C78.6695 150.965 79.0895 150.634 79.6215 150.41C80.1535 150.177 80.7462 150.06 81.3995 150.06C81.9875 150.06 82.5382 150.149 83.0515 150.326C83.5742 150.503 84.0082 150.737 84.3535 151.026C84.6242 151.241 84.7595 151.488 84.7595 151.768C84.7595 151.983 84.6802 152.174 84.5215 152.342C84.3629 152.501 84.1762 152.58 83.9615 152.58C83.8215 152.58 83.6955 152.538 83.5835 152.454C83.3409 152.258 83.0002 152.081 82.5615 151.922C82.1322 151.754 81.7449 151.67 81.3995 151.67C80.8115 151.67 80.3542 151.782 80.0275 152.006C79.7102 152.221 79.5515 152.505 79.5515 152.86C79.5515 153.261 79.7149 153.565 80.0415 153.77C80.3775 153.975 80.9002 154.143 81.6095 154.274C82.4122 154.414 83.0515 154.596 83.5275 154.82C84.0129 155.035 84.3769 155.333 84.6195 155.716C84.8622 156.089 84.9835 156.589 84.9835 157.214C84.9835 157.802 84.8155 158.32 84.4795 158.768C84.1529 159.207 83.7142 159.547 83.1635 159.79C82.6129 160.023 82.0202 160.14 81.3855 160.14ZM95.0871 150.186C95.3204 150.186 95.5211 150.27 95.6891 150.438C95.8664 150.597 95.9551 150.797 95.9551 151.04V159.146C95.9551 159.389 95.8757 159.594 95.7171 159.762C95.5584 159.921 95.3484 160 95.0871 160C94.8257 160 94.6111 159.921 94.4431 159.762C94.2844 159.603 94.2051 159.398 94.2051 159.146V153.504L91.8951 157.032C91.8017 157.144 91.6944 157.237 91.5731 157.312C91.4517 157.377 91.3257 157.405 91.1951 157.396C91.0737 157.405 90.9524 157.377 90.8311 157.312C90.7097 157.237 90.6024 157.144 90.5091 157.032L88.1991 153.378V159.146C88.1991 159.398 88.1244 159.603 87.9751 159.762C87.8257 159.921 87.6297 160 87.3871 160C87.1537 160 86.9624 159.921 86.8131 159.762C86.6637 159.594 86.5891 159.389 86.5891 159.146V151.04C86.5891 150.807 86.6731 150.606 86.8411 150.438C87.0184 150.27 87.2284 150.186 87.4711 150.186C87.6111 150.186 87.7511 150.223 87.8911 150.298C88.0311 150.363 88.1384 150.452 88.2131 150.564L91.2651 155.254L94.4011 150.564C94.4757 150.452 94.5737 150.363 94.6951 150.298C94.8257 150.223 94.9564 150.186 95.0871 150.186ZM107.076 155.1C107.076 156.024 106.87 156.873 106.46 157.648C106.049 158.413 105.48 159.02 104.752 159.468C104.033 159.916 103.221 160.14 102.316 160.14C101.41 160.14 100.594 159.916 99.8658 159.468C99.1471 159.02 98.5824 158.413 98.1718 157.648C97.7704 156.873 97.5698 156.024 97.5698 155.1C97.5698 154.176 97.7704 153.331 98.1718 152.566C98.5824 151.791 99.1471 151.18 99.8658 150.732C100.594 150.284 101.41 150.06 102.316 150.06C103.221 150.06 104.033 150.284 104.752 150.732C105.48 151.18 106.049 151.791 106.46 152.566C106.87 153.331 107.076 154.176 107.076 155.1ZM105.256 155.1C105.256 154.475 105.13 153.91 104.878 153.406C104.626 152.893 104.276 152.487 103.828 152.188C103.38 151.889 102.876 151.74 102.316 151.74C101.746 151.74 101.238 151.889 100.79 152.188C100.351 152.477 100.006 152.879 99.7538 153.392C99.5111 153.905 99.3898 154.475 99.3898 155.1C99.3898 155.725 99.5111 156.295 99.7538 156.808C100.006 157.321 100.351 157.727 100.79 158.026C101.238 158.315 101.746 158.46 102.316 158.46C102.876 158.46 103.38 158.311 103.828 158.012C104.276 157.713 104.626 157.312 104.878 156.808C105.13 156.295 105.256 155.725 105.256 155.1Z" fill="#C4C4C4"/>
</svg>
