<?xml version="1.0" encoding="utf-8"?>
<!-- Generator: Adobe Illustrator 25.0.0, SVG Export Plug-In . SVG Version: 6.00 Build 0)  -->
<svg version="1.1" id="Layer_1" xmlns="http://www.w3.org/2000/svg" xmlns:xlink="http://www.w3.org/1999/xlink" x="0px" y="0px"
	 viewBox="0 0 350 250" style="enable-background:new 0 0 350 250;" xml:space="preserve">
<style type="text/css">
	.st0{opacity:0.8;fill:#F8FCFF;}
	.st1{fill:#B7D7A0;}
	.st2{fill:#CED0CD;stroke:#878787;stroke-width:0.5;stroke-miterlimit:10;}
	.st3{fill:none;stroke:#704E2D;stroke-miterlimit:10;}
	.st4{fill:none;stroke:#704E2D;stroke-width:0.25;stroke-miterlimit:10;}
	.st5{fill:#7B4C27;}
	.st6{fill:#8B5F3E;}
	.st7{fill:#A06C42;}
	.st8{fill:#A2784C;}
	.st9{fill:#8D623E;}
	.st10{fill:#B18B5C;}
	.st11{fill:#B78F63;}
	.st12{fill:#C59B6A;}
	.st13{fill:#976544;}
	.st14{fill:#A07148;}
	.st15{fill:#8C613D;}
	.st16{fill:#9F6B45;}
	.st17{fill:#A3764D;}
	.st18{fill:#8C603A;}
	.st19{fill:#A06B45;}
	.st20{fill:#A06B46;}
	.st21{fill:#976540;}
	.st22{fill:#B59164;}
	.st23{fill:none;stroke:#8B5F3F;stroke-width:0.25;stroke-linecap:round;stroke-linejoin:round;stroke-miterlimit:10;}
	.st24{fill:#8B5F3F;}
	.st25{fill:#A97C50;}
	.st26{fill:#BC8252;}
	.st27{fill:#C4996B;}
	.st28{fill:#754E29;}
	.st29{fill:#784D2A;}
	.st30{fill:none;stroke:#AA8A5D;stroke-width:0.25;stroke-linecap:round;stroke-linejoin:round;stroke-miterlimit:10;}
	.st31{fill:#AB8A5E;}
	.st32{fill:#B69064;}
	.st33{fill:#8A5D3A;}
	.st34{fill:#C4996D;}
	.st35{fill:#A97D4D;}
	.st36{fill:#BB5617;}
	.st37{fill:#1A3760;}
	.st38{fill:#0C478D;}
	.st39{fill:#EE7610;}
	.st40{fill:#F6AA78;}
	.st41{fill:#F28F38;}
	.st42{fill:#F49D65;}
	.st43{fill:#1D59A1;}
</style>
<g>
	<path class="st0" d="M175.9,69.5c0,0,7.6-13.9,25.7-12.4c0,0,26.3-23.2,54.3-3.1c0,0,29.8-5,51.8,4.3c14.7,6.2,19.6,12.7,19.6,12.7
		L175.9,69.5z"/>
	<path class="st0" d="M150.9,139.5c0,0,7.6-13.9,25.7-12.4c0,0,26.3-23.2,54.3-3.1c0,0,29.8-5,51.8,4.3
		c14.7,6.2,19.6,12.7,19.6,12.7L150.9,139.5z"/>
	<path class="st0" d="M19,97.9c0,0,6.4-9.8,21.7-8.7c0,0,22.3-16.3,46-2.2c0,0,25.2-3.5,43.9,3c12.5,4.4,16.6,8.9,16.6,8.9L19,97.9z
		"/>
	<path class="st0" d="M4.5,32.9c0,0,4.6-9.8,15.5-8.7c0,0,15.8-16.3,32.8-2.2c0,0,18-3.5,31.3,3c8.9,4.4,11.8,8.9,11.8,8.9L4.5,32.9
		z"/>
	<path class="st0" d="M235.5,23.9c0,0,4.6-9.8,15.5-8.7c0,0,15.8-16.3,32.8-2.2c0,0,18-3.5,31.3,3c8.9,4.4,11.8,8.9,11.8,8.9
		L235.5,23.9z"/>
</g>
<image style="display:none;overflow:visible;opacity:0.46;" width="2592" height="1944" xlink:href="7902217F.jpg"  transform="matrix(0.1379 0 0 0.1379 -3 -9)">
</image>
<path class="st1" d="M350,223.4c-0.1,2.3-0.4,4.6-0.8,7.2c-1.9,11.2-12.4,19.4-24.6,19.4l-70.7,0l-61.9,0H190l-13.3,0H175l-12.7,0
	l-2.2,0l-17.6,0l-3.1,0l-14.4,0h-2.1l-1.8,0l-24.8,0l-4.3,0l-20.2,0l-3,0l-29.5,0c-3.8,0-7.4-0.8-10.7-2.2c-5-2.1,51.1,1.9,48.4-2.7
	c-5-8.6-69.7,13.3-73-1c-0.7-2.9-0.6-17-1-20c-0.7-5,1.8-17.8,2-23c0.1-1.9,5-5,9-6c14-4,37-22.2,80.5-9.4
	c55.6,16.3,106.9,26.8,144.3,18.2c31.1-7.1,56.4-14,79.2-13.8c1.3,1.1,15.8,0.3,17.1,1.5c0.3,0.2,0.5,0.5,0.8,0.7
	c0.5,0.4,0.9,0.8,1.3,1.3c1.8,1.8,3.6,3.6,5.1,5.6c0.3,0.4,0.7,0.9,1,1.3c0.4,0.5,0.8,1.1,1.1,1.6c1.1,1.7,2.1,3.6,3,5.6
	C349.2,212,350.2,217.1,350,223.4z"/>
<g>
	<polygon class="st2" points="19.5,206.9 83.5,210.5 304.5,197.5 196.5,192 19.5,205.2 	"/>
	<polygon class="st2" points="15.9,250 19.5,206.9 83.5,210.5 81.1,250 	"/>
	<polygon class="st2" points="304.5,197.5 304.4,206.9 81.1,250 83.5,210.5 	"/>
</g>
<g id="Pescador_3">
	<g>
		<path class="st3" d="M198.5,114.5c5.1,12.8,4.9,15.2,10,28c4.9,12.5,9.5,24.8,18.2,35c8.7,10.2,10.8,18,24.8,17"/>
		<path class="st3" d="M198.6,115c6.7,13.1,6.9,15.7,13.6,28.8c6.5,12.8,12.6,25.5,22,35.3c9.4,9.8,12.6,17.9,24.8,14.9"/>
		<path class="st3" d="M199.1,114.5c8.1,13.5,8.6,16.2,16.8,29.7c7.9,13.1,15.5,26.2,26.4,35.9c10.8,9.7,14.9,18.1,27.7,13.9"/>
		<path class="st3" d="M198,113c9.5,13.9,10,16.7,19.4,30.6c9.2,13.5,18,27,30.9,36.8c13,9.8,20.1,21.1,36.1,12.1"/>
		<path class="st3" d="M196.6,109.2c10.6,14.8,11.1,17.8,21.6,32.7c10.3,14.4,20.1,28.8,34.7,39.1c14.6,10.3,18.2,19.2,36.6,13.6"/>
		<path class="st3" d="M199,116c3.6,12.1,3.3,14.2,6.9,26.2c3.5,11.7,6.8,23.4,14.3,33.5c7.5,10.2,8.8,17.4,22.8,18.1"/>
		<path class="st3" d="M197.5,114.5c4.5,11.9,3.6,20.4,7,32c3.5,11.9,6.9,22.8,14.1,32.1s9.2,16.6,20.4,15.3"/>
		<path class="st3" d="M197,117c3.9,11.5,3.1,19.6,6.1,30.7c3,11.4,5.9,21.8,12.2,30.8c6.2,9,7.9,16,17.4,14.7"/>
		<path class="st3" d="M200.5,134.5c0.9,10.7,1.6,26.2,2.5,36.8c0.2,2.3,0.4,4.5,0.8,6.7c0.3,1.3,0.6,2.7,1,4
			c1,3.6,1.9,7.3,2.9,10.9"/>
		<path class="st3" d="M217.1,193c-1.6,0.5-3-1-4-2.3c-5.8-8.3-7.2-18.8-8.4-28.8c-0.4-3.5-0.8-9.9-1.2-13.3"/>
		<path class="st3" d="M192.7,191c4.4-12,6.7-25,5.5-37.7c-0.7-6.7,2.8-17.2,1.3-23.7"/>
		<path class="st4" d="M198.3,144.5c1.7,0.5,3.4-0.7,4.8-1.9c3.5-3.1,8.8-6,11.9-9.6"/>
		<path class="st4" d="M201,133.1c0.6,0.2,1.3,0.1,1.9-0.2c0.5-0.3,0.8-0.8,1.1-1.2c1.4-1.7,4.2-3.3,6-4.6"/>
		<path class="st4" d="M198.7,151.9c4.7-1.5,9.5-3.5,12.7-7.3c2.2-2.5,3.6-5.8,6.6-7.4"/>
		<path class="st4" d="M198.2,157.3c2.2,0.2,4.4-0.7,6.3-1.9c1.9-1.2,3.5-2.8,5.3-4.1c3.2-2.5,6.9-4.3,10-6.9
			c0.8-0.7,1.7-1.5,1.9-2.6"/>
		<path class="st4" d="M198.2,162c9.8-3.5,21.1-8,27.8-16"/>
		<path class="st4" d="M197.8,164.8c3.7,0.1,7.4-0.2,11-0.9c2.2-0.4,4.4-1,6.1-2.3c1.1-0.8,1.9-1.9,2.8-2.9c2.9-3.2,7.9-7,11.3-9.7"
			/>
		<path class="st4" d="M197.8,167.5c4.3,1.1,8.7-0.6,12.7-2.3c3-1.2,5.9-2.4,8.9-3.6c4.2-1.7,10.6-4.2,13.6-7.6"/>
		<path class="st4" d="M197.4,170c5.2,0.5,10.4-0.3,15.5-1.6c8.2-2.1,15.9-5.9,22.6-11.1"/>
		<path class="st4" d="M196.7,172.5c4.1,0.6,8.2-0.6,12.4-0.8c2-0.1,4.1,0.1,6.1-0.1c3.2-0.3,6.3-1.5,9.4-2.6c5.2-2,10.4-4,14.7-7.6
			"/>
		<path class="st4" d="M196.3,174.9c6.6,0.1,13.2,0.2,19.8,0.2c1.9,0,3.8,0,5.7-0.5c1.8-0.5,3.4-1.5,5-2.2c1.5-0.6,3.1-1,4.6-1.6
			c3.6-1.4,7.6-4.5,10.6-6.9"/>
		<path class="st4" d="M196,177.7c6.4,0,12.9,0,19.3,0.1c2.1,0,4.2,0,6.2-0.5c1.7-0.4,3.3-1.2,5-1.7c1.6-0.5,3.2-0.8,4.8-1.1
			c5.6-1.3,10.9-3.5,15.7-6.6"/>
		<path class="st4" d="M195.5,179c3.3,1.1,6.8,1.1,10.2,1c4.8,0,9.6-0.1,14.4-0.1c1,0,2,0,2.9-0.1c1.2-0.2,2.3-0.5,3.4-0.8
			c7.7-2.4,15.6-4.7,22.6-8.7"/>
		<path class="st4" d="M195,181c10.8,0.1,21.7,2.7,32.4,1.3c7-0.9,13.7-3.5,20.3-6.1c2.1-0.8,4.1-1.6,6.2-2.4"/>
		<path class="st4" d="M258.2,177.2c-3.7,0.5-7.3,1-11,1.5c-2.3,0.3-4.8,0.7-6.8,1.9c-1,0.6-1.8,1.3-2.8,1.9c-1,0.5-2.1,0.8-3.2,1
			c-12.8,2.8-26.3,2.3-38.8-1.5"/>
		<path class="st4" d="M194.6,184.2c3.6,1.8,7.8,1.1,11.8,1.5c1.1,0.1,2.3,0.3,3.4,0.5c7.3,1.2,14.8,1.1,22.3,0.9
			c1.6,0,3.2-0.1,4.7-0.4c2.9-0.6,5.5-2.1,8.2-3c5.3-1.8,11.3-1.6,15.9-4.7"/>
		<path class="st4" d="M265.3,181.6c-3.1,2-6.6,3.5-10.2,4.3c-1.5,0.3-2.9,0.6-4.4,0.8c-10.2,1.6-20.6,2.8-31,2.3
			c-8.6-0.4-17.2-1.9-25.7-3.4"/>
		<path class="st4" d="M193.8,187.6c4.8,1.3,9.5,2.7,14.5,3.2c3.2,0.4,6.5,0.4,9.8,0.4c7.9,0,15.8,0,23.7,0c2.7,0,5.4,0,8.1-0.3
			c7.2-0.7,14.1-3.1,20.9-5.5"/>
		<path class="st4" d="M273.8,186.9c-6.9,4.6-15.6,5.6-23.9,6.1c-18.9,1.1-37.9,0.2-56.6-2.7"/>
		<path class="st4" d="M278,189.7c-2.1,0.4-3.6,2.1-5.5,3c-1.6,0.7-3.5,0.8-5.3,0.9c-1.7,0.1-8.6-0.7-10.2-0.6"/>
		<path class="st4" d="M282,191c-0.3,0.3-1.6,0.6-1.9,0.9c-0.4,0.4-0.9,0.8-1.4,1.1c-1,0.6-2.1,1-3.3,1.3c-1.1,0.3-3.3,0.4-4.4,0.7"
			/>
	</g>
	<g>
		<path class="st5" d="M171.8,152.6L171.8,152.6c-1.5-0.7-2.1-2.5-1.4-4l14.7-29.6c0.7-1.5,2.5-2.1,4-1.4l0,0c1.5,0.7,2.1,2.5,1.4,4
			l-14.7,29.6C175.1,152.7,173.3,153.3,171.8,152.6z"/>
		<path class="st5" d="M169.5,197.7L169.5,197.7c-1.7-0.1-2.9-1.6-2.8-3.2l3.3-46.2c0.1-1.7,1.6-2.9,3.2-2.8l0,0
			c1.7,0.1,2.9,1.6,2.8,3.2l-3.3,46.2C172.6,196.6,171.2,197.8,169.5,197.7z"/>
	</g>
	<g>
		<path class="st6" d="M198,164.4L198,164.4c-1.7,0.1-3.1-1.1-3.2-2.8l-2.5-32.9c-0.1-1.7,1.1-3.1,2.8-3.2l0,0
			c1.7-0.1,3.1,1.1,3.2,2.8l2.5,32.9C200.9,162.9,199.7,164.3,198,164.4z"/>
		<path class="st6" d="M201,197.5L201,197.5c-1.7,0.1-3.1-1.1-3.2-2.8l-2.5-32.9c-0.1-1.7,1.1-3.1,2.8-3.2l0,0
			c1.7-0.1,3.1,1.1,3.2,2.8l2.5,32.9C203.9,196,202.6,197.4,201,197.5z"/>
	</g>
	<g>
		<polygon class="st7" points="187,80 190,83 190,86.2 188.5,86.2 184.5,89.5 204,87.3 197.3,84.8 196.5,80.5 197.4,78.2 
			194.5,77.5 		"/>
		<path class="st8" d="M185,75l-6,6c1.1,0.3,2.6,0.5,4.5,0.5c3-0.1,3.7-0.9,8-2c5.5-1.5,7.3-1,10-3c1.2-0.9,2-1.8,2.5-2.5
			c-3.1,0-6.2,0-9.3,0l-1.7-4h-3.5l-2.5,1L185,75z"/>
	</g>
	<g>
		<g>
			<polygon class="st8" points="191,87 204,87 194,118 192.5,118 187,117 			"/>
			<polygon class="st9" points="191,87 184,90 184,117.2 187,117 			"/>
			<polygon class="st10" points="204,87 207,90 198,120 194.2,117.2 			"/>
			<path class="st11" d="M192,118c0.3-1.7,0.7-3.3,1-5c0.3,1,0.9,2.5,2,4c1,1.4,2.2,2.4,3,3C196,119.3,194,118.7,192,118z"/>
		</g>
		<g>
			<path class="st12" d="M199.9,105.6L199.9,105.6c-1.6-0.5-2.4-2.2-1.9-3.8l4.7-13.8c0.5-1.6,2.2-2.4,3.8-1.9l0,0
				c1.6,0.5,2.4,2.2,1.9,3.8l-4.7,13.8C203.2,105.3,201.5,106.1,199.9,105.6z"/>
			<path class="st12" d="M202.6,106.1L202.6,106.1c-1.3,1.1-3.2,0.9-4.2-0.3l-12.9-15c-1.1-1.3-0.9-3.2,0.3-4.2l0,0
				c1.3-1.1,3.2-0.9,4.2,0.3l12.9,15C204,103.2,203.8,105.1,202.6,106.1z"/>
		</g>
		<path class="st13" d="M179.2,112.9L179.2,112.9c-1.6-0.3-2.7-1.8-2.5-3.4l3.8-23.1c0.3-1.6,1.8-2.7,3.4-2.5l0,0
			c1.6,0.3,2.7,1.8,2.5,3.4l-3.8,23.1C182.3,112,180.8,113.1,179.2,112.9z"/>
		<g>
			<polygon class="st14" points="183.5,117.2 187,116.5 199,120 202,140 187.5,130.1 180,127 181,126 			"/>
			<path class="st15" d="M198,137c-0.2-1.3-0.8-3.9-2-6c-1.3-2.3-2.9-3.8-4-4.6l7-6.4l3,20l-4-2.7"/>
		</g>
	</g>
</g>
<g id="Pescador_2">
	<g>
		<polyline class="st16" points="153.5,58.5 154.5,62.5 153.5,64.8 145.5,67.5 171.5,71.5 161.7,65 162.5,59.5 153.5,58.5 		"/>
		<path class="st17" d="M143.5,50.5c0.8,1.2,5.1,8,14,10c8.9,2,15.8-2.2,17-3l-9-4l-2-6l-3-2h-3l-4,5H143.5z"/>
	</g>
	<g>
		<polygon class="st18" points="143.5,106.4 140,68 145.5,67.5 157,68 152.5,106.5 		"/>
		<polyline class="st8" points="152.5,106.5 161.3,106.4 173.8,71.5 157,68 		"/>
	</g>
	<path class="st8" d="M161.5,200.6L161.5,200.6c1.7,0.1,3.1-1.1,3.2-2.8l3.3-50.6c0.1-1.7-1.1-3.1-2.8-3.2h0
		c-1.7-0.1-3.1,1.1-3.2,2.8l-3.3,50.6C158.6,199,159.8,200.5,161.5,200.6z"/>
	<path class="st8" d="M165,149.2L165,149.2c1.6-0.3,2.7-1.9,2.3-3.6l-6.7-31.6c-0.3-1.6-1.9-2.7-3.6-2.3l0,0
		c-1.6,0.3-2.7,1.9-2.3,3.6l6.7,31.6C161.8,148.6,163.4,149.6,165,149.2z"/>
	<g>
		<path class="st15" d="M140.1,153.4L140.1,153.4c-1.6-0.2-2.8-1.7-2.6-3.3l4.8-39.8c0.2-1.6,1.7-2.8,3.3-2.6l0,0
			c1.6,0.2,2.8,1.7,2.6,3.3l-4.8,39.8C143.3,152.4,141.8,153.6,140.1,153.4z"/>
		<path class="st15" d="M136.5,199.6L136.5,199.6c-1.7-0.1-2.9-1.6-2.7-3.3l4.1-45.9c0.1-1.7,1.6-2.9,3.3-2.7l0,0
			c1.7,0.1,2.9,1.6,2.7,3.3l-4.1,45.9C139.6,198.5,138.1,199.7,136.5,199.6z"/>
	</g>
	<g>
		<g>
			<polyline class="st19" points="143,106 141,119 162,122 161.3,106.4 143,106 			"/>
			<path class="st20" d="M155.6,117.4c-1.1,0.1-2.2,0-3.3-0.1c-0.3,0-0.5-0.1-0.8-0.1c-0.1,0-0.3,0-0.4-0.1c-0.5-0.1-1-0.2-1.5-0.3
				c-0.4-0.1-1.1-0.1-1.4-0.4c0.3,0.1,0.3,0.1,0.1,0.1c-0.1,0-0.2-0.1-0.3-0.1c-0.3-0.1-0.5-0.3-0.7-0.4c-0.7-0.3-1.4-0.5-2.2-0.5
				c-0.5,0-0.9,0.1-1.4,0c-1.3-0.1-2.6,1.2-2.5,2.5c0.1,1.4,1.1,2.4,2.5,2.5c0.5,0,0.9,0,1.4,0c0.1,0,0.1,0,0.2,0
				c0.1,0.1,0.2,0.1,0.3,0.2c1,0.5,2,0.8,3.1,1c2.3,0.4,4.6,0.7,6.9,0.6c1.3-0.1,2.6-1.1,2.5-2.5C158.1,118.6,157,117.3,155.6,117.4
				z"/>
			<path class="st19" d="M163.1,119.1c-0.1-0.3-0.4-0.5-0.5-0.9c-0.1-0.3-0.1-0.7-0.1-1.1c0-0.3-0.1-0.7-0.2-1
				c-0.1-0.5-0.3-0.8-0.1-1.3c0.1-0.3,0.2-0.5,0.3-0.8c0.1-0.7-0.4-1.1-0.5-1.7c-0.1-0.7,0.2-1.5,0.1-2.2c0-0.3-0.1-0.6-0.2-0.9
				c0-0.4,0.1-0.6,0.2-0.9c0.1-0.5-0.1-1.1-0.7-1.2c-0.7-0.1-1,0.7-0.6,1.1c0,0,0,0,0,0c-0.1,0.1-0.1,0.3-0.1,0.4
				c-0.1,0.2,0,0.5,0,0.8c0.1,0.7,0.2,1.2,0.1,1.9c-0.1,0.6-0.1,1.2,0.1,1.8c0.1,0.2,0.3,0.5,0.3,0.7c0.1,0.3-0.2,0.6-0.3,0.9
				c-0.2,0.6-0.1,1.2,0.1,1.7c0.2,0.6,0.2,1.2,0.3,1.9c0,0.3,0.1,0.5,0.2,0.8c0,0.1,0.1,0.1,0.1,0.2c-0.3,0-0.5,0.2-0.5,0.6
				c0,0.9,0.1,1.7,0.3,2.5c0.2,0.6,1.1,0.6,1.2,0c0.2-0.8,0.4-1.5,0.5-2.3C163.3,119.7,163.2,119.4,163.1,119.1z"/>
		</g>
		<polygon class="st15" points="142.8,107.4 142,108 141,108 140,109 131.5,107.5 123.5,111.5 123.5,121.5 127.5,120.5 136.5,119.5 
			141.6,119.3 		"/>
	</g>
	<g>
		<g>
			<g>
				<path class="st21" d="M135.4,97L135.4,97c1.6,0.2,3.1-1,3.3-2.6l2.5-22.5c0.2-1.6-1-3.1-2.6-3.3l0,0c-1.6-0.2-3.1,1-3.3,2.6
					l-2.5,22.5C132.6,95.3,133.8,96.8,135.4,97z"/>
			</g>
			<g>
				<path class="st21" d="M133.4,95.9L133.4,95.9c0.8,1.4,2.7,1.9,4.1,1.1L161,83.4c1.4-0.8,1.9-2.7,1.1-4.1l0,0
					c-0.8-1.4-2.7-1.9-4.1-1.1l-23.5,13.5C133.1,92.6,132.6,94.4,133.4,95.9z"/>
			</g>
		</g>
	</g>
	<path class="st3" d="M127.6,53.3l35.7,28.2l3.3-12.4l4.3-0.2l28.8,38.5c2.3,11.6,15.9,26.8,31.8,45.2c21.7,25.2,46.3,37.4,60,43"/>
	<g>
		<g>
			<g>
				<path class="st22" d="M170.9,105.4L170.9,105.4c-1.6-0.2-2.8-1.7-2.6-3.3l3-26.9c0.2-1.6,1.7-2.8,3.3-2.6h0
					c1.6,0.2,2.8,1.7,2.6,3.3l-3,26.9C174.1,104.4,172.6,105.6,170.9,105.4z"/>
			</g>
			<g>
				<path class="st22" d="M172.1,105.6L172.1,105.6c-1.6,0.6-3.3-0.3-3.8-1.8l-9-25.5c-0.6-1.6,0.3-3.3,1.8-3.8h0
					c1.6-0.6,3.3,0.3,3.8,1.8l9,25.5C174.5,103.4,173.6,105.1,172.1,105.6z"/>
			</g>
		</g>
	</g>
</g>
<g id="Pescador_1">
	<g>
		<g>
			<path class="st6" d="M97,26c-0.2,0.5-0.3,1.3,0,2c0.7,1.4,2.8,1.6,5,2c4.1,0.8,3.6,1.8,8,3c2.2,0.6,4.5,0.7,9,1
				c2.3,0.1,5.3,0.3,8.9,0.3"/>
			<path class="st6" d="M127.6,33.6c-2.5-1.1-5-2.3-7.5-3.4c-1.2-0.5-2.3-0.8-3.6-1c-1.2-0.2-2.4-0.4-3.4-1
				c-0.3-0.2-0.6-0.1-0.7,0.1c-0.8-0.2-1.8-0.3-2.3-0.4c-2-0.3-4-0.7-6.1-1c-0.1,0-0.1,0-0.2,0c-2-0.4-4.1-0.9-6.2-1.1
				c-0.8-0.1-0.8,1.2,0,1.2c2.5,0.3,5.1,0.9,7.6,1.4c2.6,0.5,5.2,1.2,7.7,2c0.4,0.1,0.7-0.2,0.8-0.6c0,0,0,0,0,0
				c1.8,0.6,3.8,0.7,5.6,1.4c2.6,1,5.1,2.3,7.7,3.4C127.7,35,128.3,34,127.6,33.6z"/>
		</g>
		<g>
			<polyline class="st23" points="123,35 124,44 130,47.3 			"/>
			<path class="st24" d="M129.7,47.1l-3.1-1.8c-0.3-0.1-0.5-0.3-0.8-0.4c-0.2-0.1-0.4-0.2-0.7-0.2c-0.1-0.1-0.2-0.1-0.3-0.2
				c0,0-0.1,0-0.1,0c-0.2-0.2-0.4-0.3-0.7-0.4c-0.3-1.4-0.5-2.8-0.7-4.2c0,0,0-0.1,0-0.1c-0.1-1.5-0.2-2.9-0.4-4.4
				c-0.1-0.7-0.5-1.2-1.2-1.2c-0.3,0-0.5,0.1-0.7,0.3c-0.6-0.4-1.5-0.4-1.8,0.3c-0.3,0.6-0.6,1.3-0.9,2c-0.1,0-0.2,0-0.3,0
				c-0.2,0-0.3,0.1-0.5,0.1c-0.2-0.6-0.4-1.2-0.6-1.9c-0.2-0.5-0.7-0.9-1.2-0.9c-0.5-0.9-2-1.1-2.3,0.2c-0.9,4.2-1.9,8.4-2.8,12.6
				c-0.3,1.5,1.8,2.2,2.3,0.9c0.5,0.1,1.1-0.1,1.4-0.6c0,0.1,0.2,0,0.3-0.1c0.3-0.1,0.6-0.1,0.9-0.1c0.7-0.1,1.5-0.1,2.2-0.1
				c1.4,0,2.9,0.6,4.2,0.9c0.8,0.2,1.5-0.5,1.6-1.2c0,0,0.1,0.1,0.1,0.1c0.2,0.1,0.3,0.2,0.6,0.3c0,0,0,0,0,0c0,0,0.1,0.1,0.1,0.1
				c0,0,0.1,0,0.1,0.1c0.3,0.3,0.7,0.4,1.1,0.3c0.3,0.2,0.6,0.3,0.9,0.5c0.7,0.4,1.3,0.8,2,1.1c0.6,0.3,1.4,0.2,1.7-0.4
				C130.5,48.2,130.3,47.5,129.7,47.1z"/>
		</g>
		<g>
			<polyline class="st25" points="115,36.9 114,36 111.3,28.3 			"/>
			<path class="st25" d="M115.9,36.1c-0.7-1.2-1.2-2.6-1.5-3.9c0.1-0.1,0.1-0.3,0.1-0.4c-0.3-1-0.6-1.9-1-2.8
				c-0.1-0.3-0.4-0.5-0.8-0.4c0,0,0,0,0,0l-0.2-0.6c-0.1-0.3-0.4-0.5-0.8-0.4c-0.3,0.1-0.6,0.5-0.4,0.8l0.9,2.5
				c0.3,0.8,0.6,1.6,1,2.2c0,0.1,0.1,0.1,0.2,0.2c0.4,1.2,0.9,2.5,1.5,3.6c0.2,0.3,0.6,0.4,0.9,0.2C116,36.7,116,36.4,115.9,36.1z"
				/>
		</g>
		<g>
			<polyline class="st26" points="113.1,28.7 115,37 117.5,38.2 123,35 123.2,32.1 			"/>
			<path class="st26" d="M122.5,31.5c-2.8-0.7-5.5-1.9-8.2-3c0-0.3-0.2-0.5-0.6-0.5c-0.7,0-0.8,1-0.2,1.2c0,0.2,0.2,0.4,0.5,0.5
				c2.7,1,5.4,2.2,8.2,3C123,32.9,123.3,31.7,122.5,31.5z"/>
		</g>
		<path class="st27" d="M97,26l14-4c2-2,4-4,6-6c2.3,0.3,4.7,0.7,7,1l2.9,9c1.6,1,3.3,2.4,5.1,4c2.6,2.4,4.6,4.9,6,7
			c-1.2-0.2-2.9-0.5-5-1c-4.5-1.2-6.9-2.6-10-4c-6.2-2.8-11.7-3.7-19-5C101.1,26.5,98.7,26.2,97,26z"/>
	</g>
	<g>
		<path class="st28" d="M105,117l-1-20c-1,0.3-2,0.7-3,1c-0.5,0.1-1.2,0.2-2,0c-0.9-0.2-1-0.6-1.7-0.7c-1.2-0.2-2.3,0.6-3,1.2
			c0,0,0,0-1.3,1.1c0,0-1.2,1.1-1.3,1.2c0,0-1.4,1.2-1.4,1.2c0,0-1.3,1.2-1.3,1.2c0,0-2.1,1.8-2.1,1.9c0,0-0.7,0.8-0.7,0.8
			c0,0-0.8,1-0.8,1c-0.4,0.5-0.8,0.9-1.2,1.4c-0.5,0.6-0.8,0.9-0.8,0.9c-1.2,1.3-1.2,1.3-1.3,1.5C82,111,82,111.3,82,113
			c0,0.9,0,1.6,0,2c0,0.6-0.2,1.8-1,3c-0.7,1.1-1.5,1.7-2,2c-0.7,1.7-1.6,4.1-2,7c-0.5,3.3-0.3,6,0,8c0.1-0.5,0.4-1.2,1-2
			c0.2-0.3,0.5-0.6,1-1c1-0.7,1.7-0.5,3-1c0.7-0.2,1.1-0.5,2-1c3.7-2.1,4.7-2.4,9-5C97.9,122,102.1,119.1,105,117
			c3.2,1.5,5.5,1.4,7,1c1.3-0.3,1.6-0.8,3-1c2.6-0.4,3.8,0.8,6,1c1.4,0.1,3.4-0.2,6-2l3-17"/>
		<g>
			<path class="st29" d="M112.2,190.1l1,0.9c-1.9,0.4-4.2,0.9-4.5-0.8l-3.1-17.7l-2.2-19.6c-0.3-1.7,0.9-3.4,2.8-3.7l0.1-0.2
				c1.9-0.4,3.7,0.7,4,2.4l4.2,36.6C114.9,189.7,114.1,189.7,112.2,190.1z"/>
			<path class="st6" d="M107.8,155l-1.3-0.1c-1.7-0.1-2.9-1.5-2.8-3.1l1.8-35c0.1-1.7,1.5-2.9,3.1-2.8l1.3,0.1
				c1.7,0.1,2.9,1.5,2.8,3.1l-1.8,35C110.9,153.9,109.4,155.1,107.8,155z"/>
		</g>
		<g>
			<path class="st25" d="M118,142.6l-1.3-0.2c-1.6-0.2-2.8-1.7-2.6-3.3l3.7-31.3c0.2-1.6,1.7-2.8,3.3-2.6l1.3,0.2
				c1.6,0.2,2.8,1.7,2.6,3.3l-3.7,31.3C121.2,141.7,119.7,142.8,118,142.6z"/>
			<path class="st6" d="M111,206.9l-3.1-0.1c-1.6-0.2-2.8-1.7-2.6-3.3l8.4-62.5c0.2-1.6,1.7-2.8,3.3-2.6l1.1,0.1
				c1.6,0.2,2.8,1.7,2.6,3.3L117,165l-2.7,39.3C114.1,205.9,112.6,207.1,111,206.9z"/>
		</g>
		<g>
			<path class="st30" d="M105,117c5.2-0.2,7.2-1.6,8-3c0.8-1.3,0.6-2.6,2-4c1.5-1.5,3.3-1.9,4-2c0.7-0.1,4.7-0.8,7,2
				c2,2.5,1.1,5.6,1,6"/>
			<path class="st31" d="M130,99c0-0.1,0-0.2-0.1-0.3c-0.2-0.3-0.4-0.5-0.6-0.7c-0.2-0.2-0.5-0.4-0.7-0.6c-0.5-0.4-0.9-0.8-1.4-1.2
				c-0.1-0.1-0.3-0.2-0.5-0.2c-0.1,0-0.2-0.1-0.3-0.1c-4,0-7.9,0.2-11.9,0.1c-0.1,0-0.2,0-0.3,0.1c-0.1,0-0.2,0-0.3,0
				c-0.2,0-0.4,0.1-0.5,0.2c-3,0.1-6,0.3-9,0.6c-0.3,0-0.7,0.2-0.7,0.6l0,0c0,0.1,0,0.2,0,0.3l0.5,6.9c0,0,0,0,0,0v0.8
				c0,0,0,0.1,0,0.1c0,0,0,0.1,0,0.1c0,3.5,0,7.1,0,10.6c0,0.3,0.2,0.5,0.4,0.6c0.1,0.1,0.2,0.1,0.4,0.1c0.7,0,1.5,0.1,2.1-0.1
				c0.2-0.1,0.3-0.1,0.5-0.2c0,0,0,0,0.1,0c1,0.1,2-0.3,2.9-0.8c0.8-0.4,1.5-0.9,2-1.6c0.6-0.8,1-1.7,1.3-2.6
				c0.1-0.4,0.3-0.8,0.5-1.2c0.3-0.4,0.6-0.7,1-0.9c0,0,0,0,0,0c0,0,0,0,0.1,0c2.6-1.5,5.8-2.5,8.5-0.9c2.3,1.3,3.6,4.5,2.4,6.9
				c-0.4,0.7,0.7,1.4,1.1,0.6c0.4-0.8,0.5-1.6,0.6-2.4c0-0.1,0.1-0.2,0.1-0.3c0-0.5,0.1-0.9,0.1-1.4c0,0,0,0,0-0.1
				c0.4-4.3,1-8.6,1.6-12.8C130,99.1,130,99,130,99z"/>
		</g>
		<g>
			<polyline class="st25" points="113.4,34.3 111,46 100,48 104,83 104,97 115,96 117.5,62.2 117.5,45.1 111,46 			"/>
			<polyline class="st32" points="117.5,45.1 140,49 131,81 127,96 115,96 			"/>
			<path class="st33" d="M127,96l3,3c2-9,4.9-17.3,7-28c1.6-8,2.5-15.4,3-22"/>
		</g>
		<g>
			<path class="st34" d="M98.1,88L98.1,88c-1.6-0.5-2.5-2.1-2.1-3.7l9.6-33.5c0.5-1.6,2.1-2.5,3.7-2.1l0,0c1.6,0.5,2.5,2.1,2.1,3.7
				L101.8,86C101.3,87.6,99.7,88.5,98.1,88z"/>
			<path class="st6" d="M99,88L99,88c-1.7,0-3-1.3-3-3l0-33c0-1.7,1.3-3,3-3l0,0c1.7,0,3,1.3,3,3l0,33C102,86.7,100.7,88,99,88z"/>
		</g>
		<path class="st26" d="M110.7,40.9c5,0,1.3,30.9,4.2,71c4.1,57.7,11.1,93.7,10,93.9c-4.6,1.1-8.2-35.1-12.6-73.4
			c-1.9-16.2-3.8-37.6-3.3-63.9C109.2,57.9,108.1,40.9,110.7,40.9z"/>
		<g>
			<path class="st35" d="M140,88L140,88c-1.7,0-3-1.3-3-3V52c0-1.7,1.3-3,3-3h0c1.7,0,3,1.3,3,3v33C143,86.7,141.7,88,140,88z"/>
			<path class="st35" d="M142.3,86.8L142.3,86.8c-1,1.2-2.7,1.4-3.9,0.4l-34.8-28.5c-1.2-1-1.4-2.7-0.4-3.9v0c1-1.2,2.7-1.4,3.9-0.4
				l34.8,28.5C143.1,83.8,143.2,85.6,142.3,86.8z"/>
		</g>
	</g>
</g>
<g>
	<path class="st36" d="M296.1,233.7c0,0-0.2,3.6-0.9,3.7c-0.1,0-3.5,0-3.5,0l-4.4,0c0,0,0-1.1,1.3-1.3c1.3-0.2,3.4-1.1,4.2-2.8
		C293.6,231.5,296.1,233.7,296.1,233.7z"/>
	<path class="st36" d="M273.7,230.7c0,0-0.7,3.5-1.4,3.5c-0.1,0-3.5-0.4-3.5-0.4l-4.4-0.6c0,0,0.2-1,1.5-1.1
		c1.3-0.1,3.5-0.7,4.5-2.3C271.5,228.1,273.7,230.7,273.7,230.7z"/>
	<path class="st37" d="M281.5,195c0,0,1.1,7.4,5.4,20.4c4.3,13.1,4.8,18.7,4.8,18.7l4.6-0.1c0,0,0.1-14.3-1.9-20.8
		c-2-6.6-0.4-23.7-0.4-23.7L281.5,195z"/>
	<path class="st38" d="M280.2,188.3c0,0-6.3,12.6-7.9,22.7c-1.6,10-2.8,19.2-2.8,19.2s1.5,0.6,4.4,0.8c0,0,4.9-14.5,5.4-18.2
		c0.5-3.6,15.1-18.1,13.9-21.7C292.2,187.5,280.2,188.3,280.2,188.3z"/>
	<path class="st39" d="M289.3,163.9c0,0,6.5,6.2,6.8,8.8c0.3,2.6-3.1,6.5-3.1,6.5L289.3,163.9z"/>
	<path class="st40" d="M288.2,163.9l-2.4,1.6l-3.5-0.7c0-0.3,0.3-1.5,0.5-2.5c0-0.1,0-0.1,0-0.2c0.2-0.9,0.3-1.7,0.3-1.7l3.3-1.4
		l1.2-0.5c0,0-0.1,1-0.1,1.2C287.3,162.2,288.2,163.9,288.2,163.9z"/>
	<path class="st39" d="M283.1,163.1c0.1,0,4.3-1.3,4.7-1.1c0.5,0.2,0.7,1,0.7,1l-6.9,1.5C281.7,164.6,282.3,163.5,283.1,163.1z"/>
	<path class="st41" d="M294.4,191.3c-0.7,3.2-12.5,3.6-15.6,0.6c-0.3-0.3-0.4-1.9-0.2-4c0.3-4.1,1.1-10.3,1.1-13.4
		c0-1.5,0.2-3.1,0.5-4.5c0.6-3,1.5-5.4,1.5-5.4s5.8-1.9,6.9-1.5C293.8,164.6,295.1,188,294.4,191.3z"/>
	<path class="st39" d="M278.6,187.9c0.3-4.1,0.4-10.9,0.4-14c0-1.5,0.9-2.5,1.2-3.9l3.5-0.6C283.7,169.4,287,183.2,278.6,187.9z"/>
	<path class="st37" d="M284.8,183c0,0-3.9-3.4-5.4-5.6l-1.1,0.8c0,0,3.1,5.2,6.1,6.6C287.3,186.1,284.8,183,284.8,183z"/>
	<path class="st42" d="M287.3,159.7c-0.7,1.2-3.4,2.3-4.6,2.7c0-0.1,0-0.1,0-0.2c0.2-0.9,0.3-1.7,0.3-1.7l3.3-1.4
		C287.1,159,287.6,159.2,287.3,159.7z"/>
	<path class="st40" d="M282,160.1c0,0,5,2.4,6.5-0.7c1.5-3.1,3.1-5,0-6.6c-3.1-1.7-4.3-0.8-5.1,0.2
		C282.6,153.8,280.7,159.4,282,160.1z"/>
	<path class="st37" d="M283.6,152.6c0,0-0.2,3.9,0.6,3.8c0.8,0,1.6-0.1,1.3,1.1c-0.3,1.1-1.6,2.3,0.8,2.9c2.4,0.6,6.9-5.2,6.4-6.5
		C291.2,150.2,281.4,148,283.6,152.6z"/>
	<path class="st37" d="M291.7,177.5c0,0,0.6,0.1,0.7,0.6c0.1,0.6,0.4,7.4,0.1,7.6c-0.3,0.2-1.8,0.1-1.9,0c-0.1-0.1-0.4-7.6-0.2-8.1
		C290.4,177.6,291.1,177.3,291.7,177.5z"/>
	<path class="st40" d="M278.5,185.3c0,0-0.8,0.6-1,1.3c-0.3,1.1-0.1,2.1,1,2.5c0.4,0.1,0.4-0.8,0.7-1.2c0.3-0.4,1.3-0.6,1.1-1.2
		c-0.2-0.6-0.7-1.8-0.7-1.8L278.5,185.3z"/>
	<path class="st40" d="M279.9,185.7c0,0,0.7,0.7,0.7,1.2c0.1,0.5,0.1,1.2,0.1,1.5c0,0.3-0.1,0.6-0.4,0.1c-0.3-0.5-0.5-1.2-0.7-1.2
		C279.4,187.2,279.9,185.7,279.9,185.7z"/>
	<path class="st41" d="M284.4,163.8c0,0-4.1,0.7-7.3,5.4c-3.2,4.7-4.3,7.6-3.8,9.3c0.6,1.7,3.5,6.9,4.1,7.6c0.5,0.6,1.9,0.6,2.9,0.2
		c0,0-1.8-7.8-1.1-8.6c0.3-0.4,4.4-3.8,5-2.1C285.3,178.2,284.4,163.8,284.4,163.8z"/>
	<path class="st37" d="M280.9,165.4c0,0,0.7-1.2,2.3-1.4c1.6-0.2,2.6,1.6,2.6,1.6l-1.2,0.5c0,0-0.8-1.4-1.5-1.4
		C282.2,164.6,281.5,164.9,280.9,165.4z"/>
	<g>
		<path class="st37" d="M283.5,171.1c0,0,1.7,0,3.8-0.1c3.7-0.1,8.9-0.3,9.1-0.5c0.2-0.4-0.1-5.2-1.4-5.5c-0.1,0-0.3-0.1-0.5-0.1
			c-2.1-0.2-8.4,0.2-9.9,0.6C283.1,166,283.5,171.1,283.5,171.1z"/>
		<path class="st38" d="M287.3,171c3.7-0.1,8.9-0.3,9.1-0.5c0.2-0.4-0.1-5.2-1.4-5.5c-0.1,0-0.3-0.1-0.5-0.1
			c-2.4,0.1-5.2,0.4-6.1,0.6C287,166,287.3,170.4,287.3,171z"/>
		<path class="st38" d="M283.5,171.1c0,0,12.8-1.3,15.1-0.5c2.2,0.7,2.2,15.9,1.5,16.9c-0.7,1-13.3,2-15.1,1.5
			C283.2,188.4,283.5,171.1,283.5,171.1z"/>
		<path class="st37" d="M287.3,170.7c0,0,1.8,0.2,1.9,1.4c0.2,1.3,1.3,16.5,0.3,16.9c-1,0.4-5.2,0.2-5.4,0c-0.2-0.2-1.1-17-0.5-18
			C283.5,171.1,285.6,170.5,287.3,170.7z"/>
		<g>
			<g>
				<path class="st37" d="M295.3,166.6c0,0,0.4,2.1-0.1,2.4c-0.5,0.3-1.8,0.4-2.1,0c-0.3-0.4-0.3-2.4-0.3-2.4L295.3,166.6z"/>
				<path class="st43" d="M295.3,166.6c0,0-0.2,0.9-1.2,0.9c-1,0-1.3-0.8-1.3-0.8S294.1,166,295.3,166.6z"/>
			</g>
			<path class="st41" d="M294.3,167.1c0-0.1-0.1-0.2-0.2-0.2c-0.1,0-0.2,0.1-0.2,0.2c0,0.1,0.1,0.2,0.2,0.2
				C294.2,167.3,294.3,167.2,294.3,167.1z"/>
		</g>
		<g>
			<g>
				<path class="st37" d="M291.5,166.8c0,0,0.5,2.1,0,2.4c-0.5,0.4-1.8,0.5-2.1,0.2c-0.3-0.4-0.4-2.4-0.4-2.4L291.5,166.8z"/>
				<path class="st43" d="M291.5,166.8c0,0-0.1,0.9-1.1,0.9S289,167,289,167S290.3,166.3,291.5,166.8z"/>
			</g>
			<path class="st41" d="M290.5,167.4c0-0.1-0.1-0.2-0.2-0.2c-0.1,0-0.2,0.1-0.2,0.2c0,0.1,0.1,0.2,0.2,0.2
				C290.5,167.6,290.5,167.5,290.5,167.4z"/>
		</g>
		<g>
			<path class="st37" d="M298.8,172.3c0,0,0.6,2,0.2,2.5c-0.3,0.5-7.4,0.9-7.8,0.4c-0.5-0.4-0.5-2.7-0.5-2.7L298.8,172.3z"/>
			<path class="st43" d="M298.8,172.3c0,0-1,1.2-3.4,1.3c-2.4,0-4.7-1-4.7-1S296.4,171.5,298.8,172.3z"/>
			<circle class="st41" cx="295.6" cy="173.1" r="0.2"/>
		</g>
		<path class="st43" d="M292.7,177.4c0,0,5.8-0.2,6.2,0c0.3,0.2,0.5,8.3,0.2,8.7c-0.3,0.4-6.2,0.6-6.2,0.6L292.7,177.4z"/>
	</g>
</g>
</svg>
