<svg width="117" height="152" viewBox="0 0 117 152" fill="none" xmlns="http://www.w3.org/2000/svg">
<path d="M109.929 54.7675H101.2V49.1163C101.2 48.6317 101.145 48.1594 101.049 47.7013H105.702C107.125 47.7013 108.279 46.5127 108.279 45.0482C108.279 43.5837 107.125 42.3951 105.702 42.3951H94.6714H82.4553L96.3049 14.44C98.7646 9.4786 97.7872 4.06092 94.0753 2.10291C93.2199 1.65365 92.2855 1.42725 91.2979 1.42725C88.1202 1.42725 84.8927 3.80445 83.0685 7.48522L65.7749 42.3951H21.9004H10.8694C9.44721 42.3951 8.29293 43.5837 8.29293 45.0482C8.29293 46.5127 9.44721 47.7013 10.8694 47.7013H15.5226C15.4264 48.1594 15.3715 48.6299 15.3715 49.1163V54.7675H6.64397C2.98017 54.7675 0 57.6965 0 61.2959V73.5569C0 77.1563 2.98017 80.0854 6.64397 80.0854H15.3715V125.746C15.3715 129.453 18.3001 132.469 21.9004 132.469H94.6714C98.2716 132.469 101.2 129.453 101.2 125.746V80.0872H109.929C113.593 80.0872 116.573 77.1581 116.573 73.5587V61.2977C116.575 57.6983 113.593 54.7675 109.929 54.7675ZM87.6598 9.8978C88.8502 7.4976 90.8908 6.38859 91.7342 6.83078C92.5432 7.25705 92.9468 9.54758 91.717 12.0291L76.6702 42.3951H71.5584L87.6598 9.8978ZM6.64568 74.7809C5.83666 74.7809 5.15474 74.222 5.15474 73.5587V61.2977C5.15474 60.6344 5.83666 60.0755 6.64568 60.0755H15.3732V74.7809H6.64568ZM96.0472 125.747C96.0472 126.528 95.4306 127.164 94.6714 127.164H21.9004C21.1429 127.164 20.5245 126.529 20.5245 125.747V77.434V57.4206V49.1163C20.5245 48.3363 21.1411 47.7013 21.9004 47.7013H67.3518H78.2487H94.6731C95.4306 47.7013 96.049 48.3345 96.049 49.1163V57.4206V77.4323L96.0472 125.747ZM111.422 73.5587C111.422 74.222 110.74 74.7809 109.931 74.7809H101.202V60.0755H109.931C110.74 60.0755 111.422 60.6344 111.422 61.2977V73.5587Z" fill="#C4C4C4"/>
<path d="M31.5771 34.2885C31.9986 35.328 33.0083 35.9584 34.0754 35.9584C34.409 35.9584 34.7461 35.8982 35.0743 35.7689C36.4553 35.2235 37.126 33.6775 36.5736 32.3175C34.8681 28.1047 35.5496 23.0844 36.2705 17.7702C36.9269 12.9411 37.6049 7.94917 36.7297 2.76064C36.4858 1.31387 35.1012 0.341687 33.6324 0.578978C32.169 0.819811 31.1772 2.18866 31.4229 3.6372C32.1654 8.03594 31.5413 12.6259 30.9387 17.0654C30.1549 22.8241 29.3461 28.7812 31.5771 34.2885Z" fill="#C4C4C4"/>
<path d="M49.3196 26.2199C49.3196 27.5356 49.8217 29.0249 50.3544 30.6027C50.6378 31.4421 51.113 32.8481 51.113 33.3032C51.113 34.7695 52.3182 35.9595 53.8032 35.9595C55.2881 35.9595 56.4933 34.7695 56.4933 33.3032C56.4933 31.9875 55.9912 30.4982 55.4585 28.9204C55.1751 28.081 54.6999 26.675 54.6999 26.2199C54.6999 24.0063 55.3527 21.6352 56.045 19.1259C57.3936 14.2295 58.9216 8.68146 56.3014 2.21259C55.749 0.849042 54.1834 0.184978 52.806 0.732167C51.4251 1.27759 50.7543 2.82353 51.3067 4.18353C53.258 9.00199 52.0904 13.2414 50.853 17.7305C50.0997 20.4682 49.3196 23.2962 49.3196 26.2199Z" fill="#C4C4C4"/>
<path d="M16.274 145.708C16.5167 145.708 16.7173 145.792 16.876 145.96C17.0347 146.119 17.114 146.319 17.114 146.562V149.53C17.114 149.857 16.9693 150.109 16.68 150.286C15.7653 150.855 14.762 151.14 13.67 151.14C12.746 151.14 11.892 150.916 11.108 150.468C10.324 150.011 9.70333 149.399 9.246 148.634C8.78867 147.859 8.56 147.015 8.56 146.1C8.56 145.185 8.78867 144.345 9.246 143.58C9.70333 142.805 10.324 142.194 11.108 141.746C11.892 141.289 12.746 141.06 13.67 141.06C14.594 141.06 15.3967 141.247 16.078 141.62C16.218 141.695 16.3207 141.793 16.386 141.914C16.4607 142.035 16.498 142.166 16.498 142.306C16.498 142.539 16.4187 142.745 16.26 142.922C16.1107 143.09 15.924 143.174 15.7 143.174C15.56 143.174 15.406 143.137 15.238 143.062C14.734 142.847 14.2113 142.74 13.67 142.74C13.0727 142.74 12.522 142.894 12.018 143.202C11.514 143.501 11.1127 143.907 10.814 144.42C10.5247 144.933 10.38 145.493 10.38 146.1C10.38 146.707 10.5247 147.267 10.814 147.78C11.1127 148.293 11.514 148.704 12.018 149.012C12.522 149.311 13.0727 149.46 13.67 149.46C13.9313 149.46 14.2113 149.437 14.51 149.39C14.8087 149.343 15.07 149.283 15.294 149.208V147.388H13.978C13.7353 147.388 13.53 147.309 13.362 147.15C13.2033 146.991 13.124 146.791 13.124 146.548C13.124 146.305 13.2033 146.105 13.362 145.946C13.53 145.787 13.7353 145.708 13.978 145.708H16.274ZM26.484 149.908C26.5307 150.029 26.554 150.141 26.554 150.244C26.554 150.487 26.4747 150.687 26.316 150.846C26.1574 150.995 25.9754 151.07 25.77 151.07C25.602 151.07 25.448 151.019 25.308 150.916C25.1774 150.813 25.0747 150.673 25 150.496L24.272 148.802H20.1L19.372 150.51C19.3067 150.687 19.204 150.827 19.064 150.93C18.9334 151.023 18.7887 151.07 18.63 151.07C18.3874 151.07 18.2007 151.005 18.07 150.874C17.9487 150.743 17.888 150.566 17.888 150.342C17.888 150.258 17.902 150.169 17.93 150.076L21.416 141.704C21.4907 141.517 21.6027 141.373 21.752 141.27C21.9014 141.167 22.0694 141.125 22.256 141.144C22.424 141.144 22.578 141.195 22.718 141.298C22.8674 141.391 22.9747 141.527 23.04 141.704L26.484 149.908ZM23.586 147.192L22.172 143.916L20.786 147.192H23.586ZM30.8895 151.14C30.2175 151.14 29.6201 151.056 29.0975 150.888C28.5748 150.72 28.0848 150.435 27.6275 150.034C27.3755 149.81 27.2495 149.563 27.2495 149.292C27.2495 149.077 27.3288 148.891 27.4875 148.732C27.6461 148.564 27.8375 148.48 28.0615 148.48C28.2388 148.48 28.3975 148.536 28.5375 148.648C28.9108 148.956 29.2748 149.18 29.6295 149.32C29.9841 149.46 30.4041 149.53 30.8895 149.53C31.4121 149.53 31.8601 149.413 32.2335 149.18C32.6161 148.947 32.8075 148.657 32.8075 148.312C32.8075 147.892 32.6208 147.565 32.2475 147.332C31.8741 147.089 31.2815 146.907 30.4695 146.786C28.4255 146.487 27.4035 145.535 27.4035 143.93C27.4035 143.342 27.5575 142.833 27.8655 142.404C28.1735 141.965 28.5935 141.634 29.1255 141.41C29.6575 141.177 30.2501 141.06 30.9035 141.06C31.4915 141.06 32.0421 141.149 32.5555 141.326C33.0781 141.503 33.5121 141.737 33.8575 142.026C34.1281 142.241 34.2635 142.488 34.2635 142.768C34.2635 142.983 34.1841 143.174 34.0255 143.342C33.8668 143.501 33.6801 143.58 33.4655 143.58C33.3255 143.58 33.1995 143.538 33.0875 143.454C32.8448 143.258 32.5041 143.081 32.0655 142.922C31.6361 142.754 31.2488 142.67 30.9035 142.67C30.3155 142.67 29.8581 142.782 29.5315 143.006C29.2141 143.221 29.0555 143.505 29.0555 143.86C29.0555 144.261 29.2188 144.565 29.5455 144.77C29.8815 144.975 30.4041 145.143 31.1135 145.274C31.9161 145.414 32.5555 145.596 33.0315 145.82C33.5168 146.035 33.8808 146.333 34.1235 146.716C34.3661 147.089 34.4875 147.589 34.4875 148.214C34.4875 148.802 34.3195 149.32 33.9835 149.768C33.6568 150.207 33.2181 150.547 32.6675 150.79C32.1168 151.023 31.5241 151.14 30.8895 151.14ZM42.533 141.2C42.785 141.2 42.9903 141.275 43.149 141.424C43.3076 141.573 43.387 141.769 43.387 142.012C43.387 142.255 43.3076 142.451 43.149 142.6C42.9903 142.74 42.785 142.81 42.533 142.81H40.335V150.146C40.335 150.389 40.2463 150.594 40.069 150.762C39.8916 150.921 39.6723 151 39.411 151C39.1496 151 38.935 150.921 38.767 150.762C38.599 150.594 38.515 150.389 38.515 150.146V142.81H36.317C36.065 142.81 35.8596 142.735 35.701 142.586C35.5423 142.437 35.463 142.241 35.463 141.998C35.463 141.765 35.5423 141.573 35.701 141.424C35.869 141.275 36.0743 141.2 36.317 141.2H42.533ZM52.5426 149.628C52.664 149.703 52.7573 149.801 52.8226 149.922C52.8973 150.043 52.9346 150.169 52.9346 150.3C52.9346 150.468 52.8786 150.622 52.7666 150.762C52.6266 150.93 52.412 151.014 52.1226 151.014C51.8986 151.014 51.6933 150.963 51.5066 150.86C50.8346 150.477 50.4986 149.698 50.4986 148.522C50.4986 148.186 50.3866 147.92 50.1626 147.724C49.948 147.528 49.6353 147.43 49.2246 147.43H46.6066V150.146C46.6066 150.398 46.5366 150.603 46.3966 150.762C46.266 150.921 46.0886 151 45.8646 151C45.594 151 45.356 150.921 45.1506 150.762C44.9546 150.594 44.8566 150.389 44.8566 150.146V142.054C44.8566 141.811 44.936 141.611 45.0946 141.452C45.2626 141.284 45.468 141.2 45.7106 141.2H49.7426C50.228 141.2 50.6853 141.331 51.1146 141.592C51.544 141.853 51.8846 142.213 52.1366 142.67C52.398 143.127 52.5286 143.641 52.5286 144.21C52.5286 144.677 52.4026 145.134 52.1506 145.582C51.8986 146.021 51.572 146.371 51.1706 146.632C51.7586 147.043 52.0806 147.593 52.1366 148.284C52.1646 148.433 52.1786 148.578 52.1786 148.718C52.216 149.007 52.2533 149.217 52.2906 149.348C52.328 149.469 52.412 149.563 52.5426 149.628ZM49.6726 145.988C49.8406 145.988 50.004 145.909 50.1626 145.75C50.3213 145.591 50.452 145.381 50.5546 145.12C50.6573 144.849 50.7086 144.56 50.7086 144.252C50.7086 143.991 50.6573 143.753 50.5546 143.538C50.452 143.314 50.3213 143.137 50.1626 143.006C50.004 142.875 49.8406 142.81 49.6726 142.81H46.6066V145.988H49.6726ZM63.3473 146.1C63.3473 147.024 63.1419 147.873 62.7313 148.648C62.3206 149.413 61.7513 150.02 61.0233 150.468C60.3046 150.916 59.4926 151.14 58.5873 151.14C57.6819 151.14 56.8653 150.916 56.1373 150.468C55.4186 150.02 54.8539 149.413 54.4433 148.648C54.0419 147.873 53.8413 147.024 53.8413 146.1C53.8413 145.176 54.0419 144.331 54.4433 143.566C54.8539 142.791 55.4186 142.18 56.1373 141.732C56.8653 141.284 57.6819 141.06 58.5873 141.06C59.4926 141.06 60.3046 141.284 61.0233 141.732C61.7513 142.18 62.3206 142.791 62.7313 143.566C63.1419 144.331 63.3473 145.176 63.3473 146.1ZM61.5273 146.1C61.5273 145.475 61.4013 144.91 61.1493 144.406C60.8973 143.893 60.5473 143.487 60.0993 143.188C59.6513 142.889 59.1473 142.74 58.5873 142.74C58.0179 142.74 57.5093 142.889 57.0613 143.188C56.6226 143.477 56.2773 143.879 56.0253 144.392C55.7826 144.905 55.6613 145.475 55.6613 146.1C55.6613 146.725 55.7826 147.295 56.0253 147.808C56.2773 148.321 56.6226 148.727 57.0613 149.026C57.5093 149.315 58.0179 149.46 58.5873 149.46C59.1473 149.46 59.6513 149.311 60.0993 149.012C60.5473 148.713 60.8973 148.312 61.1493 147.808C61.4013 147.295 61.5273 146.725 61.5273 146.1ZM72.3883 141.2C72.6123 141.2 72.7943 141.275 72.9343 141.424C73.0743 141.573 73.1443 141.76 73.1443 141.984V150.146C73.1443 150.389 73.0603 150.594 72.8923 150.762C72.7336 150.921 72.533 151 72.2903 151C72.1596 151 72.029 150.981 71.8983 150.944C71.777 150.897 71.6883 150.837 71.6323 150.762L66.4943 144.238V150.216C66.4943 150.44 66.4196 150.627 66.2703 150.776C66.1303 150.925 65.9436 151 65.7103 151C65.4863 151 65.3043 150.925 65.1643 150.776C65.0243 150.627 64.9543 150.44 64.9543 150.216V142.054C64.9543 141.811 65.0336 141.611 65.1923 141.452C65.3603 141.284 65.5656 141.2 65.8083 141.2C65.9483 141.2 66.0836 141.228 66.2143 141.284C66.3543 141.34 66.457 141.415 66.5223 141.508L71.6183 148.004V141.984C71.6183 141.76 71.6883 141.573 71.8283 141.424C71.9776 141.275 72.1643 141.2 72.3883 141.2ZM84.2652 146.1C84.2652 147.024 84.0599 147.873 83.6492 148.648C83.2386 149.413 82.6692 150.02 81.9412 150.468C81.2226 150.916 80.4106 151.14 79.5052 151.14C78.5999 151.14 77.7832 150.916 77.0552 150.468C76.3366 150.02 75.7719 149.413 75.3612 148.648C74.9599 147.873 74.7592 147.024 74.7592 146.1C74.7592 145.176 74.9599 144.331 75.3612 143.566C75.7719 142.791 76.3366 142.18 77.0552 141.732C77.7832 141.284 78.5999 141.06 79.5052 141.06C80.4106 141.06 81.2226 141.284 81.9412 141.732C82.6692 142.18 83.2386 142.791 83.6492 143.566C84.0599 144.331 84.2652 145.176 84.2652 146.1ZM82.4452 146.1C82.4452 145.475 82.3192 144.91 82.0672 144.406C81.8152 143.893 81.4652 143.487 81.0172 143.188C80.5692 142.889 80.0652 142.74 79.5052 142.74C78.9359 142.74 78.4272 142.889 77.9792 143.188C77.5406 143.477 77.1952 143.879 76.9432 144.392C76.7006 144.905 76.5792 145.475 76.5792 146.1C76.5792 146.725 76.7006 147.295 76.9432 147.808C77.1952 148.321 77.5406 148.727 77.9792 149.026C78.4272 149.315 78.9359 149.46 79.5052 149.46C80.0652 149.46 80.5692 149.311 81.0172 149.012C81.4652 148.713 81.8152 148.312 82.0672 147.808C82.3192 147.295 82.4452 146.725 82.4452 146.1ZM94.3703 141.186C94.6036 141.186 94.8043 141.27 94.9723 141.438C95.1496 141.597 95.2383 141.797 95.2383 142.04V150.146C95.2383 150.389 95.1589 150.594 95.0003 150.762C94.8416 150.921 94.6316 151 94.3703 151C94.1089 151 93.8943 150.921 93.7263 150.762C93.5676 150.603 93.4883 150.398 93.4883 150.146V144.504L91.1783 148.032C91.0849 148.144 90.9776 148.237 90.8563 148.312C90.7349 148.377 90.6089 148.405 90.4783 148.396C90.3569 148.405 90.2356 148.377 90.1143 148.312C89.9929 148.237 89.8856 148.144 89.7923 148.032L87.4823 144.378V150.146C87.4823 150.398 87.4076 150.603 87.2583 150.762C87.1089 150.921 86.9129 151 86.6703 151C86.4369 151 86.2456 150.921 86.0963 150.762C85.9469 150.594 85.8723 150.389 85.8723 150.146V142.04C85.8723 141.807 85.9563 141.606 86.1243 141.438C86.3016 141.27 86.5116 141.186 86.7543 141.186C86.8943 141.186 87.0343 141.223 87.1743 141.298C87.3143 141.363 87.4216 141.452 87.4963 141.564L90.5483 146.254L93.6843 141.564C93.7589 141.452 93.8569 141.363 93.9783 141.298C94.1089 141.223 94.2396 141.186 94.3703 141.186ZM99.093 150.146C99.093 150.389 99.0043 150.594 98.827 150.762C98.6496 150.921 98.4443 151 98.211 151C97.959 151 97.749 150.921 97.581 150.762C97.4223 150.594 97.343 150.389 97.343 150.146V142.054C97.343 141.811 97.427 141.611 97.595 141.452C97.763 141.284 97.9776 141.2 98.239 141.2C98.4723 141.2 98.673 141.284 98.841 141.452C99.009 141.611 99.093 141.811 99.093 142.054V150.146ZM108.884 149.908C108.931 150.029 108.954 150.141 108.954 150.244C108.954 150.487 108.875 150.687 108.716 150.846C108.558 150.995 108.376 151.07 108.17 151.07C108.002 151.07 107.848 151.019 107.708 150.916C107.578 150.813 107.475 150.673 107.4 150.496L106.672 148.802H102.5L101.772 150.51C101.707 150.687 101.604 150.827 101.464 150.93C101.334 151.023 101.189 151.07 101.03 151.07C100.788 151.07 100.601 151.005 100.47 150.874C100.349 150.743 100.288 150.566 100.288 150.342C100.288 150.258 100.302 150.169 100.33 150.076L103.816 141.704C103.891 141.517 104.003 141.373 104.152 141.27C104.302 141.167 104.47 141.125 104.656 141.144C104.824 141.144 104.978 141.195 105.118 141.298C105.268 141.391 105.375 141.527 105.44 141.704L108.884 149.908ZM105.986 147.192L104.572 143.916L103.186 147.192H105.986Z" fill="#C4C4C4"/>
</svg>
