<svg width="119" height="152" viewBox="0 0 119 152" fill="none" xmlns="http://www.w3.org/2000/svg">
<path d="M111.4 54.7675H102.626V49.1163C102.626 48.6317 102.571 48.1594 102.474 47.7013H107.151C108.581 47.7013 109.741 46.5127 109.741 45.0482C109.741 43.5837 108.581 42.3951 107.151 42.3951H96.0629H83.7832L97.7049 14.44C100.177 9.4786 99.195 4.06092 95.4638 2.10291C94.6039 1.65365 93.6646 1.42725 92.6718 1.42725C89.4776 1.42725 86.2332 3.80445 84.3996 7.48522L67.0159 42.3951H22.9129H11.8245C10.3949 42.3951 9.23456 43.5837 9.23456 45.0482C9.23456 46.5127 10.3949 47.7013 11.8245 47.7013H16.5019C16.4052 48.1594 16.35 48.6299 16.35 49.1163V54.7675H7.57701C3.89413 54.7675 0.898438 57.6965 0.898438 61.2959V73.5569C0.898438 77.1563 3.89413 80.0854 7.57701 80.0854H16.35V125.746C16.35 129.453 19.2939 132.469 22.9129 132.469H96.0629C99.6819 132.469 102.626 129.453 102.626 125.746V80.0872H111.4C115.083 80.0872 118.079 77.1581 118.079 73.5587V61.2977C118.081 57.6983 115.083 54.7675 111.4 54.7675ZM89.0148 9.8978C90.2114 7.4976 92.2626 6.38859 93.1104 6.83078C93.9236 7.25705 94.3294 9.54758 93.0931 12.0291L77.9679 42.3951H72.8295L89.0148 9.8978ZM7.57873 74.7809C6.7655 74.7809 6.08003 74.222 6.08003 73.5587V61.2977C6.08003 60.6344 6.7655 60.0755 7.57873 60.0755H16.3517V74.7809H7.57873ZM97.4459 125.747C97.4459 126.528 96.8261 127.164 96.0629 127.164H22.9129C22.1514 127.164 21.5298 126.529 21.5298 125.747V77.434V57.4206V49.1163C21.5298 48.3363 22.1497 47.7013 22.9129 47.7013H68.601H79.5547H96.0646C96.8261 47.7013 97.4477 48.3345 97.4477 49.1163V57.4206V77.4323L97.4459 125.747ZM112.901 73.5587C112.901 74.222 112.215 74.7809 111.402 74.7809H102.628V60.0755H111.402C112.215 60.0755 112.901 60.6344 112.901 61.2977V73.5587Z" fill="#C4C4C4"/>
<path d="M32.6401 34.2885C33.0638 35.328 34.0787 35.9584 35.1514 35.9584C35.4867 35.9584 35.8256 35.8982 36.1555 35.7689C37.5436 35.2235 38.2179 33.6775 37.6626 32.3175C35.9482 28.1047 36.6332 23.0844 37.358 17.7702C38.0178 12.9411 38.6992 7.94917 37.8195 2.76064C37.5743 1.31387 36.1826 0.341687 34.7061 0.578978C33.235 0.819811 32.2381 2.18866 32.4851 3.6372C33.2314 8.03594 32.604 12.6259 31.9983 17.0654C31.2105 22.8241 30.3974 28.7812 32.6401 34.2885Z" fill="#C4C4C4"/>
<path d="M50.4749 26.2199C50.4749 27.5356 50.9796 29.0249 51.5151 30.6027C51.7999 31.4421 52.2776 32.8481 52.2776 33.3032C52.2776 34.7695 53.4891 35.9595 54.9818 35.9595C56.4745 35.9595 57.686 34.7695 57.686 33.3032C57.686 31.9875 57.1812 30.4982 56.6458 28.9204C56.3609 28.081 55.8832 26.675 55.8832 26.2199C55.8832 24.0063 56.5394 21.6352 57.2353 19.1259C58.591 14.2295 60.1269 8.68146 57.4931 2.21259C56.9378 0.849042 55.364 0.184978 53.9794 0.732167C52.5913 1.27759 51.9171 2.82353 52.4723 4.18353C54.4338 9.00199 53.2601 13.2414 52.0162 17.7305C51.2591 20.4682 50.4749 23.2962 50.4749 26.2199Z" fill="#C4C4C4"/>
<path d="M17.2142 145.708C17.4569 145.708 17.6575 145.792 17.8162 145.96C17.9749 146.119 18.0542 146.319 18.0542 146.562V149.53C18.0542 149.857 17.9095 150.109 17.6202 150.286C16.7055 150.855 15.7022 151.14 14.6102 151.14C13.6862 151.14 12.8322 150.916 12.0482 150.468C11.2642 150.011 10.6435 149.399 10.1862 148.634C9.72885 147.859 9.50019 147.015 9.50019 146.1C9.50019 145.185 9.72885 144.345 10.1862 143.58C10.6435 142.805 11.2642 142.194 12.0482 141.746C12.8322 141.289 13.6862 141.06 14.6102 141.06C15.5342 141.06 16.3369 141.247 17.0182 141.62C17.1582 141.695 17.2609 141.793 17.3262 141.914C17.4009 142.035 17.4382 142.166 17.4382 142.306C17.4382 142.539 17.3589 142.745 17.2002 142.922C17.0509 143.09 16.8642 143.174 16.6402 143.174C16.5002 143.174 16.3462 143.137 16.1782 143.062C15.6742 142.847 15.1515 142.74 14.6102 142.74C14.0129 142.74 13.4622 142.894 12.9582 143.202C12.4542 143.501 12.0529 143.907 11.7542 144.42C11.4649 144.933 11.3202 145.493 11.3202 146.1C11.3202 146.707 11.4649 147.267 11.7542 147.78C12.0529 148.293 12.4542 148.704 12.9582 149.012C13.4622 149.311 14.0129 149.46 14.6102 149.46C14.8715 149.46 15.1515 149.437 15.4502 149.39C15.7489 149.343 16.0102 149.283 16.2342 149.208V147.388H14.9182C14.6755 147.388 14.4702 147.309 14.3022 147.15C14.1435 146.991 14.0642 146.791 14.0642 146.548C14.0642 146.305 14.1435 146.105 14.3022 145.946C14.4702 145.787 14.6755 145.708 14.9182 145.708H17.2142ZM27.4242 149.908C27.4709 150.029 27.4942 150.141 27.4942 150.244C27.4942 150.487 27.4149 150.687 27.2562 150.846C27.0976 150.995 26.9156 151.07 26.7102 151.07C26.5422 151.07 26.3882 151.019 26.2482 150.916C26.1176 150.813 26.0149 150.673 25.9402 150.496L25.2122 148.802H21.0402L20.3122 150.51C20.2469 150.687 20.1442 150.827 20.0042 150.93C19.8736 151.023 19.7289 151.07 19.5702 151.07C19.3276 151.07 19.1409 151.005 19.0102 150.874C18.8889 150.743 18.8282 150.566 18.8282 150.342C18.8282 150.258 18.8422 150.169 18.8702 150.076L22.3562 141.704C22.4309 141.517 22.5429 141.373 22.6922 141.27C22.8416 141.167 23.0096 141.125 23.1962 141.144C23.3642 141.144 23.5182 141.195 23.6582 141.298C23.8076 141.391 23.9149 141.527 23.9802 141.704L27.4242 149.908ZM24.5262 147.192L23.1122 143.916L21.7262 147.192H24.5262ZM31.8296 151.14C31.1576 151.14 30.5603 151.056 30.0376 150.888C29.515 150.72 29.025 150.435 28.5676 150.034C28.3156 149.81 28.1896 149.563 28.1896 149.292C28.1896 149.077 28.269 148.891 28.4276 148.732C28.5863 148.564 28.7776 148.48 29.0016 148.48C29.179 148.48 29.3376 148.536 29.4776 148.648C29.851 148.956 30.215 149.18 30.5696 149.32C30.9243 149.46 31.3443 149.53 31.8296 149.53C32.3523 149.53 32.8003 149.413 33.1736 149.18C33.5563 148.947 33.7476 148.657 33.7476 148.312C33.7476 147.892 33.561 147.565 33.1876 147.332C32.8143 147.089 32.2216 146.907 31.4096 146.786C29.3656 146.487 28.3436 145.535 28.3436 143.93C28.3436 143.342 28.4976 142.833 28.8056 142.404C29.1136 141.965 29.5336 141.634 30.0656 141.41C30.5976 141.177 31.1903 141.06 31.8436 141.06C32.4316 141.06 32.9823 141.149 33.4956 141.326C34.0183 141.503 34.4523 141.737 34.7976 142.026C35.0683 142.241 35.2036 142.488 35.2036 142.768C35.2036 142.983 35.1243 143.174 34.9656 143.342C34.807 143.501 34.6203 143.58 34.4056 143.58C34.2656 143.58 34.1396 143.538 34.0276 143.454C33.785 143.258 33.4443 143.081 33.0056 142.922C32.5763 142.754 32.189 142.67 31.8436 142.67C31.2556 142.67 30.7983 142.782 30.4716 143.006C30.1543 143.221 29.9956 143.505 29.9956 143.86C29.9956 144.261 30.159 144.565 30.4856 144.77C30.8216 144.975 31.3443 145.143 32.0536 145.274C32.8563 145.414 33.4956 145.596 33.9716 145.82C34.457 146.035 34.821 146.333 35.0636 146.716C35.3063 147.089 35.4276 147.589 35.4276 148.214C35.4276 148.802 35.2596 149.32 34.9236 149.768C34.597 150.207 34.1583 150.547 33.6076 150.79C33.057 151.023 32.4643 151.14 31.8296 151.14ZM43.4732 141.2C43.7252 141.2 43.9305 141.275 44.0892 141.424C44.2478 141.573 44.3272 141.769 44.3272 142.012C44.3272 142.255 44.2478 142.451 44.0892 142.6C43.9305 142.74 43.7252 142.81 43.4732 142.81H41.2752V150.146C41.2752 150.389 41.1865 150.594 41.0092 150.762C40.8318 150.921 40.6125 151 40.3512 151C40.0898 151 39.8752 150.921 39.7072 150.762C39.5392 150.594 39.4552 150.389 39.4552 150.146V142.81H37.2572C37.0052 142.81 36.7998 142.735 36.6412 142.586C36.4825 142.437 36.4032 142.241 36.4032 141.998C36.4032 141.765 36.4825 141.573 36.6412 141.424C36.8092 141.275 37.0145 141.2 37.2572 141.2H43.4732ZM53.4828 149.628C53.6042 149.703 53.6975 149.801 53.7628 149.922C53.8375 150.043 53.8748 150.169 53.8748 150.3C53.8748 150.468 53.8188 150.622 53.7068 150.762C53.5668 150.93 53.3522 151.014 53.0628 151.014C52.8388 151.014 52.6335 150.963 52.4468 150.86C51.7748 150.477 51.4388 149.698 51.4388 148.522C51.4388 148.186 51.3268 147.92 51.1028 147.724C50.8882 147.528 50.5755 147.43 50.1648 147.43H47.5468V150.146C47.5468 150.398 47.4768 150.603 47.3368 150.762C47.2062 150.921 47.0288 151 46.8048 151C46.5342 151 46.2962 150.921 46.0908 150.762C45.8948 150.594 45.7968 150.389 45.7968 150.146V142.054C45.7968 141.811 45.8762 141.611 46.0348 141.452C46.2028 141.284 46.4082 141.2 46.6508 141.2H50.6828C51.1682 141.2 51.6255 141.331 52.0548 141.592C52.4842 141.853 52.8248 142.213 53.0768 142.67C53.3382 143.127 53.4688 143.641 53.4688 144.21C53.4688 144.677 53.3428 145.134 53.0908 145.582C52.8388 146.021 52.5122 146.371 52.1108 146.632C52.6988 147.043 53.0208 147.593 53.0768 148.284C53.1048 148.433 53.1188 148.578 53.1188 148.718C53.1562 149.007 53.1935 149.217 53.2308 149.348C53.2682 149.469 53.3522 149.563 53.4828 149.628ZM50.6128 145.988C50.7808 145.988 50.9442 145.909 51.1028 145.75C51.2615 145.591 51.3922 145.381 51.4948 145.12C51.5975 144.849 51.6488 144.56 51.6488 144.252C51.6488 143.991 51.5975 143.753 51.4948 143.538C51.3922 143.314 51.2615 143.137 51.1028 143.006C50.9442 142.875 50.7808 142.81 50.6128 142.81H47.5468V145.988H50.6128ZM64.2874 146.1C64.2874 147.024 64.0821 147.873 63.6714 148.648C63.2608 149.413 62.6914 150.02 61.9634 150.468C61.2448 150.916 60.4328 151.14 59.5274 151.14C58.6221 151.14 57.8054 150.916 57.0774 150.468C56.3588 150.02 55.7941 149.413 55.3834 148.648C54.9821 147.873 54.7814 147.024 54.7814 146.1C54.7814 145.176 54.9821 144.331 55.3834 143.566C55.7941 142.791 56.3588 142.18 57.0774 141.732C57.8054 141.284 58.6221 141.06 59.5274 141.06C60.4328 141.06 61.2448 141.284 61.9634 141.732C62.6914 142.18 63.2608 142.791 63.6714 143.566C64.0821 144.331 64.2874 145.176 64.2874 146.1ZM62.4674 146.1C62.4674 145.475 62.3414 144.91 62.0894 144.406C61.8374 143.893 61.4874 143.487 61.0394 143.188C60.5914 142.889 60.0874 142.74 59.5274 142.74C58.9581 142.74 58.4494 142.889 58.0014 143.188C57.5628 143.477 57.2174 143.879 56.9654 144.392C56.7228 144.905 56.6014 145.475 56.6014 146.1C56.6014 146.725 56.7228 147.295 56.9654 147.808C57.2174 148.321 57.5628 148.727 58.0014 149.026C58.4494 149.315 58.9581 149.46 59.5274 149.46C60.0874 149.46 60.5914 149.311 61.0394 149.012C61.4874 148.713 61.8374 148.312 62.0894 147.808C62.3414 147.295 62.4674 146.725 62.4674 146.1ZM73.3285 141.2C73.5525 141.2 73.7345 141.275 73.8745 141.424C74.0145 141.573 74.0845 141.76 74.0845 141.984V150.146C74.0845 150.389 74.0005 150.594 73.8325 150.762C73.6738 150.921 73.4731 151 73.2305 151C73.0998 151 72.9691 150.981 72.8385 150.944C72.7171 150.897 72.6285 150.837 72.5725 150.762L67.4345 144.238V150.216C67.4345 150.44 67.3598 150.627 67.2105 150.776C67.0705 150.925 66.8838 151 66.6505 151C66.4265 151 66.2445 150.925 66.1045 150.776C65.9645 150.627 65.8945 150.44 65.8945 150.216V142.054C65.8945 141.811 65.9738 141.611 66.1325 141.452C66.3005 141.284 66.5058 141.2 66.7485 141.2C66.8885 141.2 67.0238 141.228 67.1545 141.284C67.2945 141.34 67.3971 141.415 67.4625 141.508L72.5585 148.004V141.984C72.5585 141.76 72.6285 141.573 72.7685 141.424C72.9178 141.275 73.1045 141.2 73.3285 141.2ZM85.2054 146.1C85.2054 147.024 85.0001 147.873 84.5894 148.648C84.1787 149.413 83.6094 150.02 82.8814 150.468C82.1627 150.916 81.3507 151.14 80.4454 151.14C79.5401 151.14 78.7234 150.916 77.9954 150.468C77.2767 150.02 76.7121 149.413 76.3014 148.648C75.9001 147.873 75.6994 147.024 75.6994 146.1C75.6994 145.176 75.9001 144.331 76.3014 143.566C76.7121 142.791 77.2767 142.18 77.9954 141.732C78.7234 141.284 79.5401 141.06 80.4454 141.06C81.3507 141.06 82.1627 141.284 82.8814 141.732C83.6094 142.18 84.1787 142.791 84.5894 143.566C85.0001 144.331 85.2054 145.176 85.2054 146.1ZM83.3854 146.1C83.3854 145.475 83.2594 144.91 83.0074 144.406C82.7554 143.893 82.4054 143.487 81.9574 143.188C81.5094 142.889 81.0054 142.74 80.4454 142.74C79.8761 142.74 79.3674 142.889 78.9194 143.188C78.4807 143.477 78.1354 143.879 77.8834 144.392C77.6407 144.905 77.5194 145.475 77.5194 146.1C77.5194 146.725 77.6407 147.295 77.8834 147.808C78.1354 148.321 78.4807 148.727 78.9194 149.026C79.3674 149.315 79.8761 149.46 80.4454 149.46C81.0054 149.46 81.5094 149.311 81.9574 149.012C82.4054 148.713 82.7554 148.312 83.0074 147.808C83.2594 147.295 83.3854 146.725 83.3854 146.1ZM95.3105 141.186C95.5438 141.186 95.7445 141.27 95.9125 141.438C96.0898 141.597 96.1785 141.797 96.1785 142.04V150.146C96.1785 150.389 96.0991 150.594 95.9405 150.762C95.7818 150.921 95.5718 151 95.3105 151C95.0491 151 94.8345 150.921 94.6665 150.762C94.5078 150.603 94.4285 150.398 94.4285 150.146V144.504L92.1185 148.032C92.0251 148.144 91.9178 148.237 91.7965 148.312C91.6751 148.377 91.5491 148.405 91.4185 148.396C91.2971 148.405 91.1758 148.377 91.0545 148.312C90.9331 148.237 90.8258 148.144 90.7325 148.032L88.4225 144.378V150.146C88.4225 150.398 88.3478 150.603 88.1985 150.762C88.0491 150.921 87.8531 151 87.6105 151C87.3771 151 87.1858 150.921 87.0365 150.762C86.8871 150.594 86.8125 150.389 86.8125 150.146V142.04C86.8125 141.807 86.8965 141.606 87.0645 141.438C87.2418 141.27 87.4518 141.186 87.6945 141.186C87.8345 141.186 87.9745 141.223 88.1145 141.298C88.2545 141.363 88.3618 141.452 88.4365 141.564L91.4885 146.254L94.6245 141.564C94.6991 141.452 94.7971 141.363 94.9185 141.298C95.0491 141.223 95.1798 141.186 95.3105 141.186ZM100.033 150.146C100.033 150.389 99.9445 150.594 99.7672 150.762C99.5898 150.921 99.3845 151 99.1512 151C98.8992 151 98.6892 150.921 98.5212 150.762C98.3625 150.594 98.2832 150.389 98.2832 150.146V142.054C98.2832 141.811 98.3672 141.611 98.5352 141.452C98.7032 141.284 98.9178 141.2 99.1792 141.2C99.4125 141.2 99.6132 141.284 99.7812 141.452C99.9492 141.611 100.033 141.811 100.033 142.054V150.146ZM109.825 149.908C109.871 150.029 109.895 150.141 109.895 150.244C109.895 150.487 109.815 150.687 109.657 150.846C109.498 150.995 109.316 151.07 109.111 151.07C108.943 151.07 108.789 151.019 108.649 150.916C108.518 150.813 108.415 150.673 108.341 150.496L107.613 148.802H103.441L102.713 150.51C102.647 150.687 102.545 150.827 102.405 150.93C102.274 151.023 102.129 151.07 101.971 151.07C101.728 151.07 101.541 151.005 101.411 150.874C101.289 150.743 101.229 150.566 101.229 150.342C101.229 150.258 101.243 150.169 101.271 150.076L104.757 141.704C104.831 141.517 104.943 141.373 105.093 141.27C105.242 141.167 105.41 141.125 105.597 141.144C105.765 141.144 105.919 141.195 106.059 141.298C106.208 141.391 106.315 141.527 106.381 141.704L109.825 149.908ZM106.927 147.192L105.513 143.916L104.127 147.192H106.927Z" fill="#C4C4C4"/>
</svg>
