<svg width="320" height="215" viewBox="0 0 320 215" fill="none" xmlns="http://www.w3.org/2000/svg">
<path d="M320 0H160V215H320V0Z" fill="#FDD142"/>
<path d="M0 215H160V121.7L177.268 108.3L160 95.02V0H0V215Z" fill="#2C3037"/>
<path d="M21.1433 102.49V105.6H24.6458V102.49H26.7636V110.57H24.6458V107.19H21.1433V110.57H19.0138V102.49H21.1433Z" fill="white"/>
<path d="M35.2582 107.57C35.2582 109.72 33.4894 110.7 31.6625 110.7C29.6727 110.7 28.1367 109.57 28.1367 107.68C28.1367 105.79 29.5913 104.57 31.7789 104.57C33.8618 104.57 35.2582 105.81 35.2582 107.57ZM30.3127 107.63C30.3127 108.64 30.8014 109.39 31.7091 109.39C32.5353 109.39 33.0589 108.68 33.0589 107.63C33.0589 106.75 32.6633 105.87 31.7091 105.87C30.6967 105.87 30.3127 106.77 30.3127 107.63Z" fill="white"/>
<path d="M36.5615 108.98C36.9571 109.18 37.76 109.42 38.3884 109.42C39.0284 109.42 39.296 109.23 39.296 108.93C39.296 108.63 39.0866 108.49 38.2953 108.26C36.8873 107.85 36.3404 107.19 36.352 106.5C36.352 105.41 37.4458 104.58 39.1331 104.58C39.9244 104.58 40.6342 104.74 41.0531 104.92L40.6807 106.18C40.3782 106.04 39.7847 105.84 39.2029 105.84C38.6909 105.84 38.3884 106.02 38.3884 106.32C38.3884 106.6 38.656 106.74 39.4938 106.99C40.7971 107.37 41.3324 107.94 41.344 108.8C41.344 109.89 40.3433 110.7 38.3884 110.7C37.4924 110.7 36.7011 110.53 36.1775 110.29L36.5615 108.98Z" fill="white"/>
<path d="M42.6356 106.67C42.6356 105.9 42.6124 105.24 42.5775 104.7H44.416L44.5091 105.52H44.5324C45.0327 104.9 45.8124 104.57 46.8131 104.57C48.3025 104.57 49.6407 105.69 49.6407 107.56C49.6407 109.69 48.0582 110.7 46.5455 110.7C45.7193 110.7 45.0793 110.41 44.7767 110.03H44.7535V112.95H42.6356V106.67V106.67ZM44.7535 108.05C44.7535 108.19 44.7651 108.33 44.8 108.43C44.9396 108.92 45.4284 109.29 46.0451 109.29C46.9644 109.29 47.5113 108.63 47.5113 107.63C47.5113 106.69 47.0225 105.99 46.0684 105.99C45.4633 105.99 44.9396 106.37 44.8 106.91C44.7767 107.01 44.7535 107.13 44.7535 107.23V108.05V108.05Z" fill="white"/>
<path d="M53.1782 103.07C53.1782 103.57 52.736 103.98 52.0378 103.98C51.3629 103.98 50.9207 103.57 50.9324 103.07C50.9207 102.54 51.3629 102.15 52.0494 102.15C52.7244 102.15 53.1665 102.55 53.1782 103.07ZM50.9789 110.57V104.7H53.0967V110.57H50.9789Z" fill="white"/>
<path d="M57.1811 103.03V104.71H58.7055V106.05H57.1811V108.17C57.1811 108.88 57.3789 109.2 58.0189 109.2C58.2866 109.2 58.496 109.18 58.6473 109.15L58.6589 110.53C58.3796 110.63 57.8793 110.69 57.2742 110.69C56.5876 110.69 56.0175 110.49 55.68 110.19C55.2844 109.84 55.0982 109.28 55.0982 108.45V106.05H54.1906V104.71H55.0982V103.44L57.1811 103.03Z" fill="white"/>
<path d="M63.8138 110.57L63.6858 109.98H63.6509C63.2087 110.45 62.5106 110.7 61.696 110.7C60.3113 110.7 59.4851 109.84 59.4851 108.9C59.4851 107.38 61.0793 106.65 63.488 106.66V106.58C63.488 106.27 63.2902 105.83 62.2429 105.83C61.5447 105.83 60.8 106.03 60.3578 106.27L59.9622 105.09C60.4393 104.86 61.3702 104.57 62.6153 104.57C64.896 104.57 65.6175 105.72 65.6175 107.1V109.14C65.6175 109.7 65.6407 110.24 65.7106 110.57H63.8138V110.57ZM63.5578 107.8C62.4407 107.79 61.5796 108.02 61.5796 108.72C61.5796 109.19 61.9404 109.42 62.4175 109.42C62.9527 109.42 63.3833 109.12 63.5229 108.75C63.5462 108.65 63.5695 108.55 63.5695 108.44V107.8H63.5578Z" fill="white"/>
<path d="M69.4924 103.07C69.4924 103.57 69.0502 103.98 68.352 103.98C67.6771 103.98 67.2349 103.57 67.2466 103.07C67.2349 102.54 67.6771 102.15 68.3636 102.15C69.0502 102.15 69.4807 102.55 69.4924 103.07ZM67.3047 110.57V104.7H69.4226V110.57H67.3047Z" fill="white"/>
<path d="M71.1215 108.98C71.5171 109.18 72.32 109.42 72.9484 109.42C73.5884 109.42 73.856 109.23 73.856 108.93C73.856 108.63 73.6465 108.49 72.8553 108.26C71.4473 107.85 70.9004 107.19 70.912 106.5C70.912 105.41 72.0058 104.58 73.6931 104.58C74.4844 104.58 75.1942 104.74 75.6131 104.92L75.2407 106.18C74.9382 106.04 74.3447 105.84 73.7629 105.84C73.2509 105.84 72.9484 106.02 72.9484 106.32C72.9484 106.6 73.216 106.74 74.0538 106.99C75.3571 107.37 75.8924 107.94 75.904 108.8C75.904 109.89 74.9033 110.7 72.9484 110.7C72.0524 110.7 71.2611 110.53 70.7375 110.29L71.1215 108.98Z" fill="white"/>
<path d="M80.0815 102.59C80.7331 102.49 81.6524 102.42 82.9557 102.42C84.2706 102.42 85.2015 102.64 85.8298 103.07C86.4349 103.48 86.8306 104.15 86.8306 104.94C86.8306 105.73 86.528 106.4 85.9695 106.86C85.248 107.45 84.1658 107.71 82.9091 107.71C82.6298 107.71 82.3738 107.7 82.1877 107.67V110.56H80.0815V102.59ZM82.1877 106.26C82.3738 106.3 82.5949 106.31 82.8975 106.31C84.0262 106.31 84.7244 105.82 84.7244 104.99C84.7244 104.25 84.1193 103.8 83.0604 103.8C82.6298 103.8 82.3389 103.84 82.176 103.87V106.26H82.1877Z" fill="white"/>
<path d="M94.4175 108.69C94.4175 109.46 94.4407 110.08 94.4756 110.57H92.6371L92.544 109.74H92.4975C92.2298 110.1 91.5898 110.7 90.368 110.7C88.9833 110.7 87.9709 109.96 87.9709 108.15V104.71H90.1004V107.86C90.1004 108.71 90.4262 109.23 91.1593 109.23C91.7411 109.23 92.0786 108.88 92.2182 108.6C92.2764 108.49 92.288 108.35 92.288 108.2V104.71H94.4175V108.69ZM93.4982 102.15L91.7993 103.97H90.3331L91.5316 102.15H93.4982Z" fill="white"/>
<path d="M96.0698 110.57C96.0931 110.19 96.128 109.48 96.128 108.82V102.06H98.2458V105.41H98.2691C98.6764 104.91 99.3862 104.58 100.34 104.58C101.969 104.58 103.168 105.74 103.156 107.54C103.156 109.65 101.597 110.71 100.026 110.71C99.2349 110.71 98.4669 110.46 97.9782 109.76H97.9549L97.8735 110.58H96.0698V110.57ZM98.2458 108.08C98.2458 108.2 98.2575 108.31 98.2924 108.4C98.432 108.89 98.9207 109.26 99.5375 109.26C100.445 109.26 101.004 108.66 101.004 107.61C101.004 106.7 100.527 105.98 99.5375 105.98C98.9673 105.98 98.432 106.35 98.2924 106.88C98.2691 106.99 98.2458 107.1 98.2458 107.22V108.08Z" fill="white"/>
<path d="M104.483 102.05H106.601V110.57H104.483V102.05Z" fill="white"/>
<path d="M110.511 103.07C110.511 103.57 110.068 103.98 109.37 103.98C108.695 103.98 108.253 103.57 108.265 103.07C108.253 102.54 108.695 102.15 109.382 102.15C110.057 102.15 110.499 102.55 110.511 103.07ZM108.311 110.57V104.7H110.429V110.57H108.311Z" fill="white"/>
<path d="M117.26 110.43C116.887 110.57 116.166 110.69 115.363 110.69C113.164 110.69 111.744 109.54 111.744 107.69C111.744 105.98 113.117 104.57 115.654 104.57C116.212 104.57 116.829 104.65 117.271 104.8L116.934 106.15C116.678 106.05 116.305 105.97 115.747 105.97C114.63 105.97 113.908 106.65 113.92 107.61C113.92 108.69 114.758 109.25 115.793 109.25C116.294 109.25 116.689 109.18 117.004 109.07L117.26 110.43Z" fill="white"/>
<path d="M125.033 107.57C125.033 109.72 123.264 110.7 121.437 110.7C119.447 110.7 117.911 109.57 117.911 107.68C117.911 105.79 119.366 104.57 121.553 104.57C123.636 104.57 125.033 105.81 125.033 107.57ZM120.087 107.63C120.087 108.64 120.576 109.39 121.484 109.39C122.31 109.39 122.833 108.68 122.833 107.63C122.833 106.75 122.438 105.87 121.484 105.87C120.46 105.87 120.087 106.77 120.087 107.63Z" fill="white"/>
<path d="M126.336 108.98C126.732 109.18 127.535 109.42 128.163 109.42C128.803 109.42 129.071 109.23 129.071 108.93C129.071 108.63 128.861 108.49 128.07 108.26C126.662 107.85 126.115 107.19 126.127 106.5C126.127 105.41 127.22 104.58 128.908 104.58C129.699 104.58 130.409 104.74 130.828 104.92L130.455 106.18C130.153 106.04 129.559 105.84 128.977 105.84C128.465 105.84 128.163 106.02 128.163 106.32C128.163 106.6 128.431 106.74 129.268 106.99C130.572 107.37 131.107 107.94 131.119 108.8C131.119 109.89 130.118 110.7 128.163 110.7C127.267 110.7 126.476 110.53 125.952 110.29L126.336 108.98Z" fill="white"/>
<path d="M246.481 102.59C256.597 102.59 264.797 95.5429 264.797 86.85C264.797 78.157 256.597 71.11 246.481 71.11C236.366 71.11 228.166 78.157 228.166 86.85C228.166 95.5429 236.366 102.59 246.481 102.59Z" stroke="black" stroke-width="2" stroke-miterlimit="10" stroke-linecap="round" stroke-linejoin="round"/>
<path d="M234.461 84.63V89.31H243.235V96.85H249.344V89.31H258.513V84.63H249.821V76.84H243.049V84.63H234.461Z" stroke="black" stroke-width="2" stroke-miterlimit="10" stroke-linecap="round" stroke-linejoin="round"/>
<path d="M224.535 143.42V132.04C224.535 131.05 224.128 130.09 223.395 129.32L216.96 122.66L205.836 111.3C204.637 110.08 203.985 108.53 203.985 106.94V87.32C204.893 85.53 207.011 84.46 209.129 84.67C210.874 84.84 212.399 85.87 213.108 87.32C213.702 91.75 214.307 96.18 214.9 100.6C215.075 101.88 215.75 103.07 216.82 103.98C220.614 107.19 224.396 110.39 228.189 113.6" stroke="black" stroke-width="2" stroke-miterlimit="10" stroke-linecap="round" stroke-linejoin="round"/>
<path d="M243.037 143.42V119.55C243.037 117.93 242.327 116.38 241.036 115.19L227.351 102.59C225.676 101.77 223.593 101.89 222.08 102.9C220.637 103.86 219.974 105.47 220.369 107.02" stroke="black" stroke-width="2" stroke-miterlimit="10" stroke-linecap="round" stroke-linejoin="round"/>
<path d="M267.764 143.42V132.04C267.764 131.05 268.172 130.09 268.905 129.32L275.34 122.66L286.464 111.3C287.663 110.08 288.314 108.53 288.314 106.94V87.32C287.407 85.53 285.289 84.46 283.171 84.67C281.425 84.84 279.901 85.87 279.191 87.32C278.598 91.75 277.993 96.18 277.399 100.6C277.225 101.88 276.55 103.07 275.479 103.98C271.686 107.19 267.904 110.39 264.111 113.6" stroke="black" stroke-width="2" stroke-miterlimit="10" stroke-linecap="round" stroke-linejoin="round"/>
<path d="M249.263 143.42V119.55C249.263 117.93 249.972 116.38 251.264 115.19L264.948 102.59C266.624 101.77 268.707 101.89 270.22 102.9C271.663 103.86 272.326 105.47 271.93 107.02" stroke="black" stroke-width="2" stroke-miterlimit="10" stroke-linecap="round" stroke-linejoin="round"/>
</svg>
