<svg width="320" height="215" viewBox="0 0 320 215" fill="none" xmlns="http://www.w3.org/2000/svg">
<path d="M320 0H160V215H320V0Z" fill="#FDD142"/>
<path d="M0 215H160V121.7L177.268 108.3L160 95.02V0H0V215Z" fill="#2C3037"/>
<path d="M21.2364 102.49V105.6H24.7389V102.49H26.8567V110.57H24.7389V107.19H21.2364V110.57H19.1069V102.49H21.2364Z" fill="white"/>
<path d="M35.3513 107.57C35.3513 109.72 33.5825 110.7 31.7556 110.7C29.7658 110.7 28.2298 109.57 28.2298 107.68C28.2298 105.79 29.6843 104.57 31.872 104.57C33.9549 104.57 35.3513 105.81 35.3513 107.57ZM30.4174 107.63C30.4174 108.64 30.9062 109.39 31.8138 109.39C32.64 109.39 33.1636 108.68 33.1636 107.63C33.1636 106.75 32.768 105.87 31.8138 105.87C30.7898 105.87 30.4174 106.77 30.4174 107.63Z" fill="white"/>
<path d="M36.6545 108.97C37.0502 109.17 37.8531 109.41 38.4814 109.41C39.1214 109.41 39.3891 109.22 39.3891 108.92C39.3891 108.62 39.1796 108.48 38.3884 108.25C36.9804 107.84 36.4334 107.18 36.4451 106.49C36.4451 105.4 37.5389 104.57 39.2262 104.57C40.0174 104.57 40.7273 104.73 41.1462 104.91L40.7738 106.17C40.4713 106.03 39.8778 105.83 39.296 105.83C38.784 105.83 38.4814 106.01 38.4814 106.31C38.4814 106.59 38.7491 106.73 39.5869 106.98C40.8902 107.36 41.4254 107.93 41.4371 108.79C41.4371 109.88 40.4364 110.69 38.4814 110.69C37.5854 110.69 36.7942 110.52 36.2705 110.28L36.6545 108.97Z" fill="white"/>
<path d="M42.7287 106.67C42.7287 105.9 42.7054 105.24 42.6705 104.7H44.5091L44.6022 105.52H44.6254C45.1258 104.9 45.9054 104.57 46.9062 104.57C48.3956 104.57 49.7338 105.69 49.7338 107.56C49.7338 109.69 48.1513 110.7 46.6385 110.7C45.8124 110.7 45.1724 110.41 44.8698 110.03H44.8465V112.95H42.7287V106.67V106.67ZM44.8465 108.05C44.8465 108.19 44.8582 108.33 44.8931 108.43C45.0327 108.92 45.5214 109.29 46.1382 109.29C47.0574 109.29 47.6044 108.63 47.6044 107.63C47.6044 106.69 47.1156 105.99 46.1614 105.99C45.5564 105.99 45.0327 106.37 44.8931 106.91C44.8698 107.01 44.8465 107.13 44.8465 107.23V108.05V108.05Z" fill="white"/>
<path d="M53.2713 103.07C53.2713 103.57 52.8291 103.98 52.1309 103.98C51.456 103.98 51.0138 103.57 51.0254 103.07C51.0138 102.54 51.456 102.15 52.1425 102.15C52.8291 102.15 53.2596 102.55 53.2713 103.07ZM51.0836 110.57V104.7H53.2014V110.57H51.0836Z" fill="white"/>
<path d="M57.2742 103.03V104.71H58.7985V106.05H57.2742V108.17C57.2742 108.88 57.472 109.2 58.112 109.2C58.3796 109.2 58.5891 109.18 58.7404 109.15L58.752 110.53C58.4727 110.63 57.9724 110.69 57.3673 110.69C56.6807 110.69 56.1105 110.49 55.7731 110.19C55.3774 109.84 55.1913 109.28 55.1913 108.45V106.05H54.2836V104.71H55.1913V103.44L57.2742 103.03Z" fill="white"/>
<path d="M63.9069 110.57L63.7789 109.98H63.7323C63.2902 110.45 62.592 110.7 61.7774 110.7C60.3927 110.7 59.5665 109.84 59.5665 108.9C59.5665 107.38 61.1607 106.65 63.5694 106.66V106.58C63.5694 106.27 63.3716 105.82 62.3243 105.82C61.6262 105.82 60.8814 106.02 60.4393 106.26L60.0436 105.08C60.5207 104.85 61.4516 104.56 62.6967 104.56C64.9774 104.56 65.6989 105.71 65.6989 107.09V109.13C65.6989 109.69 65.7222 110.23 65.792 110.56H63.9069V110.57ZM63.6625 107.8C62.5454 107.79 61.6843 108.02 61.6843 108.72C61.6843 109.19 62.0451 109.42 62.5222 109.42C63.0574 109.42 63.488 109.12 63.6276 108.75C63.6509 108.65 63.6742 108.55 63.6742 108.44V107.8H63.6625Z" fill="white"/>
<path d="M69.5971 103.07C69.5971 103.57 69.1549 103.98 68.4567 103.98C67.7818 103.98 67.3396 103.57 67.3513 103.07C67.3396 102.54 67.7818 102.15 68.4684 102.15C69.1433 102.15 69.5855 102.55 69.5971 103.07ZM67.3978 110.57V104.7H69.5156V110.57H67.3978Z" fill="white"/>
<path d="M71.2145 108.97C71.6102 109.17 72.4131 109.41 73.0415 109.41C73.6815 109.41 73.9491 109.22 73.9491 108.92C73.9491 108.62 73.7396 108.48 72.9484 108.25C71.5404 107.84 70.9934 107.18 71.0051 106.49C71.0051 105.4 72.0989 104.57 73.7862 104.57C74.5775 104.57 75.2873 104.73 75.7062 104.91L75.3338 106.17C75.0313 106.03 74.4378 105.83 73.856 105.83C73.344 105.83 73.0415 106.01 73.0415 106.31C73.0415 106.59 73.3091 106.73 74.1469 106.98C75.4502 107.36 75.9855 107.93 75.9971 108.79C75.9971 109.88 74.9964 110.69 73.0415 110.69C72.1455 110.69 71.3542 110.52 70.8305 110.28L71.2145 108.97Z" fill="white"/>
<path d="M80.1862 102.59C80.8378 102.49 81.7571 102.42 83.0604 102.42C84.3753 102.42 85.3062 102.64 85.9345 103.07C86.5396 103.48 86.9353 104.15 86.9353 104.94C86.9353 105.73 86.6327 106.4 86.0742 106.86C85.3527 107.45 84.2705 107.71 83.0138 107.71C82.7345 107.71 82.4785 107.7 82.2924 107.67V110.56H80.1862V102.59ZM82.2924 106.26C82.4785 106.3 82.6996 106.31 83.0022 106.31C84.1309 106.31 84.8291 105.82 84.8291 104.99C84.8291 104.25 84.224 103.8 83.1651 103.8C82.7345 103.8 82.4436 103.84 82.2807 103.87V106.26H82.2924Z" fill="white"/>
<path d="M88.0989 106.64C88.0989 105.78 88.0756 105.21 88.0407 104.71H89.8676L89.9375 105.79H89.9956C90.3447 104.94 91.1825 104.58 91.8342 104.58C92.032 104.58 92.1251 104.58 92.2764 104.6V106.31C92.1251 106.29 91.9389 106.26 91.7062 106.26C90.9265 106.26 90.3913 106.62 90.2516 107.18C90.2284 107.3 90.2051 107.44 90.2051 107.59V110.56H88.0873V106.64H88.0989Z" fill="white"/>
<path d="M95.5927 103.07C95.5927 103.57 95.1505 103.98 94.4524 103.98C93.7774 103.98 93.3353 103.57 93.3469 103.07C93.3353 102.54 93.7774 102.15 94.464 102.15C95.1505 102.15 95.5811 102.55 95.5927 103.07ZM93.4051 110.57V104.7H95.5229V110.57H93.4051Z" fill="white"/>
<path d="M98.8044 104.71L99.7236 107.43C99.8865 107.92 100.015 108.39 100.108 108.86H100.154C100.271 108.38 100.375 107.94 100.527 107.43L101.411 104.71H103.645L101.108 110.58H98.9905L96.512 104.71H98.8044Z" fill="white"/>
<path d="M108.416 110.57L108.288 109.98H108.241C107.799 110.45 107.101 110.7 106.287 110.7C104.902 110.7 104.076 109.84 104.076 108.9C104.076 107.38 105.67 106.65 108.079 106.66V106.58C108.079 106.27 107.881 105.82 106.833 105.82C106.135 105.82 105.391 106.02 104.948 106.26L104.553 105.08C105.03 104.85 105.961 104.56 107.206 104.56C109.487 104.56 110.208 105.71 110.208 107.09V109.13C110.208 109.69 110.231 110.23 110.301 110.56H108.416V110.57ZM108.16 107.8C107.043 107.79 106.182 108.02 106.182 108.72C106.182 109.19 106.543 109.42 107.02 109.42C107.555 109.42 107.985 109.12 108.125 108.75C108.148 108.65 108.172 108.55 108.172 108.44V107.8H108.16Z" fill="white"/>
<path d="M118.516 102.05V108.81C118.516 109.47 118.54 110.16 118.575 110.56H116.689L116.596 109.7H116.573C116.143 110.36 115.316 110.7 114.444 110.7C112.826 110.7 111.523 109.51 111.523 107.69C111.511 105.71 112.943 104.57 114.583 104.57C115.421 104.57 116.073 104.82 116.387 105.23H116.41V102.05H118.516V102.05ZM116.399 107.19C116.399 107.09 116.387 106.96 116.375 106.87C116.247 106.38 115.793 105.97 115.13 105.97C114.164 105.97 113.664 106.71 113.664 107.64C113.664 108.64 114.234 109.26 115.119 109.26C115.735 109.26 116.224 108.9 116.352 108.38C116.399 108.25 116.41 108.12 116.41 107.96V107.19H116.399Z" fill="white"/>
<path d="M126.964 107.57C126.964 109.72 125.196 110.7 123.369 110.7C121.379 110.7 119.843 109.57 119.843 107.68C119.843 105.79 121.297 104.57 123.485 104.57C125.568 104.57 126.964 105.81 126.964 107.57ZM122.031 107.63C122.031 108.64 122.519 109.39 123.427 109.39C124.253 109.39 124.777 108.68 124.777 107.63C124.777 106.75 124.381 105.87 123.427 105.87C122.403 105.87 122.031 106.77 122.031 107.63Z" fill="white"/>
<path d="M128.268 108.97C128.663 109.17 129.466 109.41 130.095 109.41C130.735 109.41 131.002 109.22 131.002 108.92C131.002 108.62 130.793 108.48 130.001 108.25C128.593 107.84 128.047 107.18 128.058 106.49C128.058 105.4 129.152 104.57 130.839 104.57C131.631 104.57 132.34 104.73 132.759 104.91L132.387 106.17C132.084 106.03 131.491 105.83 130.909 105.83C130.397 105.83 130.095 106.01 130.095 106.31C130.095 106.59 130.362 106.73 131.2 106.98C132.503 107.36 133.039 107.93 133.05 108.79C133.05 109.88 132.049 110.69 130.095 110.69C129.199 110.69 128.407 110.52 127.884 110.28L128.268 108.97Z" fill="white"/>
<path d="M246.028 89.8099C255.385 89.8099 262.97 83.2912 262.97 75.2499C262.97 67.2087 255.385 60.6899 246.028 60.6899C236.671 60.6899 229.085 67.2087 229.085 75.2499C229.085 83.2912 236.671 89.8099 246.028 89.8099Z" stroke="black" stroke-width="2" stroke-miterlimit="10" stroke-linecap="round" stroke-linejoin="round"/>
<path d="M234.903 73.2V77.53H243.025V84.51H248.669V77.53H257.152V73.2H249.111V65.99H242.839V73.2H234.903Z" stroke="black" stroke-width="2" stroke-miterlimit="10" stroke-linecap="round" stroke-linejoin="round"/>
<path d="M227.363 74.9299H222.511C219.252 74.9299 216.599 77.1999 216.599 80.0099V143.42H200.099C198.807 143.42 197.748 142.52 197.748 141.4V91.8399C197.748 88.2599 201.135 85.3699 205.289 85.3899L216.599 85.4299" stroke="black" stroke-width="2" stroke-miterlimit="10" stroke-linecap="round" stroke-linejoin="round"/>
<path d="M216.681 102.88H210.106C208.326 102.88 206.883 101.64 206.883 100.11V97.23C206.883 95.7 208.326 94.46 210.106 94.46H216.681V102.88Z" stroke="black" stroke-width="2" stroke-miterlimit="10" stroke-linecap="round" stroke-linejoin="round"/>
<path d="M216.681 119.22H210.106C208.326 119.22 206.883 117.98 206.883 116.45V113.57C206.883 112.04 208.326 110.8 210.106 110.8H216.681V119.22Z" stroke="black" stroke-width="2" stroke-miterlimit="10" stroke-linecap="round" stroke-linejoin="round"/>
<path d="M216.681 135.56H210.106C208.326 135.56 206.883 134.32 206.883 132.79V129.91C206.883 128.38 208.326 127.14 210.106 127.14H216.681V135.56Z" stroke="black" stroke-width="2" stroke-miterlimit="10" stroke-linecap="round" stroke-linejoin="round"/>
<path d="M264.297 74.9299H269.149C272.407 74.9299 275.06 77.1999 275.06 80.0099V143.42H291.561C292.852 143.42 293.911 142.52 293.911 141.4V91.8399C293.911 88.2599 290.525 85.3699 286.371 85.3899L275.06 85.4299" stroke="black" stroke-width="2" stroke-miterlimit="10" stroke-linecap="round" stroke-linejoin="round"/>
<path d="M274.979 102.88H281.553C283.334 102.88 284.777 101.64 284.777 100.11V97.23C284.777 95.7 283.334 94.46 281.553 94.46H274.979V102.88Z" stroke="black" stroke-width="2" stroke-miterlimit="10" stroke-linecap="round" stroke-linejoin="round"/>
<path d="M274.979 119.22H281.553C283.334 119.22 284.777 117.98 284.777 116.45V113.57C284.777 112.04 283.334 110.8 281.553 110.8H274.979V119.22Z" stroke="black" stroke-width="2" stroke-miterlimit="10" stroke-linecap="round" stroke-linejoin="round"/>
<path d="M274.979 135.56H281.553C283.334 135.56 284.777 134.32 284.777 132.79V129.91C284.777 128.38 283.334 127.14 281.553 127.14H274.979V135.56Z" stroke="black" stroke-width="2" stroke-miterlimit="10" stroke-linecap="round" stroke-linejoin="round"/>
<path d="M238.185 106.41H229.05C227.095 106.41 225.501 105.05 225.501 103.36V99.6999C225.501 98.0199 227.084 96.6499 229.05 96.6499H238.185C240.14 96.6499 241.734 98.0099 241.734 99.6999V103.36C241.734 105.05 240.14 106.41 238.185 106.41Z" stroke="black" stroke-width="2" stroke-miterlimit="10" stroke-linecap="round" stroke-linejoin="round"/>
<path d="M262.9 106.41H253.766C251.811 106.41 250.217 105.05 250.217 103.36V99.6999C250.217 98.0199 251.799 96.6499 253.766 96.6499H262.9C264.855 96.6499 266.449 98.0099 266.449 99.6999V103.36C266.449 105.05 264.855 106.41 262.9 106.41Z" stroke="black" stroke-width="2" stroke-miterlimit="10" stroke-linecap="round" stroke-linejoin="round"/>
<path d="M262.982 118.35H229.329C228.247 118.35 227.363 117.59 227.363 116.66V114.92C227.363 113.99 228.247 113.23 229.329 113.23H262.982C264.064 113.23 264.948 113.99 264.948 114.92V116.66C264.937 117.59 264.064 118.35 262.982 118.35Z" stroke="black" stroke-width="2" stroke-miterlimit="10" stroke-linecap="round" stroke-linejoin="round"/>
<path d="M216.599 143.42H275.06" stroke="black" stroke-width="2" stroke-miterlimit="10" stroke-linecap="round" stroke-linejoin="round"/>
<path d="M230.691 118.35V143.42" stroke="black" stroke-width="2" stroke-miterlimit="10" stroke-linecap="round" stroke-linejoin="round"/>
<path d="M245.9 118.35V143.42" stroke="black" stroke-width="2" stroke-miterlimit="10" stroke-linecap="round" stroke-linejoin="round"/>
<path d="M260.166 118.35V143.42" stroke="black" stroke-width="2" stroke-miterlimit="10" stroke-linecap="round" stroke-linejoin="round"/>
<path d="M240.058 129.16V132.08" stroke="black" stroke-width="2" stroke-miterlimit="10" stroke-linecap="round" stroke-linejoin="round"/>
<path d="M251.799 129.16V132.08" stroke="black" stroke-width="2" stroke-miterlimit="10" stroke-linecap="round" stroke-linejoin="round"/>
</svg>
