<svg width="213" height="204" viewBox="0 0 213 204" fill="none" xmlns="http://www.w3.org/2000/svg">
<path d="M5.82422 61.6296H207.176V30.9767H168.07C168.07 35.1566 169.734 39.3366 171.398 42.8199C173.062 46.3031 175.559 48.3931 178.055 48.3931V53.2697C173.895 53.2697 168.902 49.7864 166.406 44.9098C163.91 40.7299 162.246 35.8533 162.246 30.9767H131.461C132.293 35.1566 133.957 39.3366 135.621 42.8199C137.285 46.3031 139.781 48.3931 142.277 48.3931V53.2697C137.285 53.2697 133.125 49.7864 129.797 44.9098C128.133 40.7299 126.469 35.8533 125.637 30.9767H95.6836C96.5156 35.1566 97.3477 39.3366 99.0117 42.8199C101.508 46.3031 104.004 48.3931 106.5 48.3931V53.2697C101.508 53.2697 97.3477 49.7864 94.0195 44.9098C92.3555 40.7299 90.6914 35.8533 89.8594 30.9767H59.9062C59.9062 35.1566 61.5703 39.3366 63.2344 42.8199C64.8984 46.3031 67.3945 48.3931 69.8906 48.3931V53.2697C65.7305 53.2697 60.7383 49.7864 58.2422 44.9098C55.7461 40.7299 54.082 35.8533 54.082 30.9767H23.2969C24.1289 35.1566 25.793 39.3366 27.457 42.8199C29.1211 46.3031 31.6172 48.3931 34.1133 48.3931V53.2697C29.1211 53.2697 24.9609 49.7864 21.6328 44.9098C19.9688 40.7299 18.3047 35.8533 17.4727 30.9767H5.82422V61.6296ZM162.246 26.1001C162.246 19.1335 163.91 12.8636 166.406 8.68362C168.902 3.80702 173.895 0.32373 178.055 0.32373C183.047 0.32373 188.039 3.80702 190.535 8.68362C193.031 12.8636 194.695 19.1335 194.695 26.1001H213V203.748H0V26.1001H17.4727C17.4727 19.1335 19.1367 12.8636 21.6328 8.68362C24.9609 3.80702 29.1211 0.32373 34.1133 0.32373C39.1055 0.32373 43.2656 3.80702 46.5938 8.68362C49.0898 12.8636 50.7539 19.1335 50.7539 26.1001H54.082C54.082 19.1335 55.7461 12.8636 58.2422 8.68362C60.7383 3.80702 65.7305 0.32373 69.8906 0.32373C74.8828 0.32373 79.875 3.80702 82.3711 8.68362C84.8672 12.8636 86.5312 19.1335 86.5312 26.1001H89.8594C89.8594 19.1335 91.5234 12.8636 94.0195 8.68362C97.3477 3.80702 101.508 0.32373 106.5 0.32373C111.492 0.32373 115.652 3.80702 118.98 8.68362C121.477 12.8636 123.141 19.1335 123.141 26.1001H125.637C125.637 19.1335 127.301 12.8636 129.797 8.68362C133.125 3.80702 137.285 0.32373 142.277 0.32373C147.27 0.32373 151.43 3.80702 154.758 8.68362C157.254 12.8636 158.918 19.1335 158.918 26.1001H162.246ZM188.871 26.1001C188.871 19.8301 188.039 14.9535 185.543 10.7736C183.879 7.29031 181.383 5.20034 178.055 5.20034C175.559 5.20034 173.062 7.29031 171.398 10.7736C168.902 14.9535 168.07 19.8301 168.07 26.1001H188.871ZM153.094 26.1001C153.094 19.8301 151.43 14.9535 149.766 10.7736C147.27 7.29031 144.773 5.20034 142.277 5.20034C139.781 5.20034 137.285 7.29031 135.621 10.7736C133.125 14.9535 131.461 19.8301 131.461 26.1001H153.094ZM117.316 26.1001C117.316 19.8301 115.652 14.9535 113.156 10.7736C111.492 7.29031 108.996 5.20034 106.5 5.20034C104.004 5.20034 101.508 7.29031 99.0117 10.7736C97.3477 14.9535 95.6836 19.8301 95.6836 26.1001H117.316ZM80.707 26.1001C80.707 19.8301 79.875 14.9535 77.3789 10.7736C75.7148 7.29031 73.2188 5.20034 69.8906 5.20034C67.3945 5.20034 64.8984 7.29031 63.2344 10.7736C60.7383 14.9535 59.9062 19.8301 59.9062 26.1001H80.707ZM44.9297 26.1001C44.9297 19.8301 43.2656 14.9535 41.6016 10.7736C39.1055 7.29031 36.6094 5.20034 34.1133 5.20034C31.6172 5.20034 29.1211 7.29031 27.457 10.7736C24.9609 14.9535 23.2969 19.8301 23.2969 26.1001H44.9297ZM207.176 76.2594H5.82422V199.568H207.176V76.2594Z" fill="#3E528D"/>
<path fill-rule="evenodd" clip-rule="evenodd" d="M10.8164 97.8562H35.7773V113.183H10.8164V97.8562Z" fill="#3E528D"/>
<path fill-rule="evenodd" clip-rule="evenodd" d="M44.0977 97.8562H69.0586V113.183H44.0977V97.8562Z" fill="#3E528D"/>
<path fill-rule="evenodd" clip-rule="evenodd" d="M77.3789 97.8562H102.34V113.183H77.3789V97.8562Z" fill="#3E528D"/>
<path fill-rule="evenodd" clip-rule="evenodd" d="M110.66 97.8562H135.621V113.183H110.66V97.8562Z" fill="#3E528D"/>
<path fill-rule="evenodd" clip-rule="evenodd" d="M143.941 97.8562H168.902V113.183H143.941V97.8562Z" fill="#3E528D"/>
<path fill-rule="evenodd" clip-rule="evenodd" d="M177.223 97.8562H202.184V113.183H177.223V97.8562Z" fill="#3E528D"/>
<path fill-rule="evenodd" clip-rule="evenodd" d="M10.8164 118.755H35.7773V134.082H10.8164V118.755Z" fill="#3E528D"/>
<path fill-rule="evenodd" clip-rule="evenodd" d="M44.0977 118.755H69.0586V134.082H44.0977V118.755Z" fill="#3E528D"/>
<path fill-rule="evenodd" clip-rule="evenodd" d="M77.3789 118.755H102.34V134.082H77.3789V118.755Z" fill="#3E528D"/>
<path fill-rule="evenodd" clip-rule="evenodd" d="M110.66 118.755H135.621V134.082H110.66V118.755Z" fill="#3E528D"/>
<path fill-rule="evenodd" clip-rule="evenodd" d="M143.941 118.755H168.902V134.082H143.941V118.755Z" fill="#3E528D"/>
<path fill-rule="evenodd" clip-rule="evenodd" d="M177.223 118.755H202.184V134.082H177.223V118.755Z" fill="#3E528D"/>
<path fill-rule="evenodd" clip-rule="evenodd" d="M10.8164 139.655H35.7773V154.982H10.8164V139.655Z" fill="#3E528D"/>
<path fill-rule="evenodd" clip-rule="evenodd" d="M44.0977 139.655H69.0586V154.982H44.0977V139.655Z" fill="#3E528D"/>
<path fill-rule="evenodd" clip-rule="evenodd" d="M77.3789 139.655H102.34V154.982H77.3789V139.655Z" fill="#3E528D"/>
<path fill-rule="evenodd" clip-rule="evenodd" d="M110.66 139.655H135.621V154.982H110.66V139.655Z" fill="#3E528D"/>
<path fill-rule="evenodd" clip-rule="evenodd" d="M143.941 139.655H168.902V154.982H143.941V139.655Z" fill="#3E528D"/>
<path fill-rule="evenodd" clip-rule="evenodd" d="M177.223 139.655H202.184V154.982H177.223V139.655Z" fill="#3E528D"/>
<path fill-rule="evenodd" clip-rule="evenodd" d="M10.8164 160.555H35.7773V175.882H10.8164V160.555Z" fill="#3E528D"/>
<path fill-rule="evenodd" clip-rule="evenodd" d="M44.0977 160.555H69.0586V175.882H44.0977V160.555Z" fill="#3E528D"/>
<path fill-rule="evenodd" clip-rule="evenodd" d="M77.3789 160.555H102.34V175.882H77.3789V160.555Z" fill="#3E528D"/>
<path fill-rule="evenodd" clip-rule="evenodd" d="M110.66 160.555H135.621V175.882H110.66V160.555Z" fill="#3E528D"/>
<path fill-rule="evenodd" clip-rule="evenodd" d="M143.941 160.555H168.902V175.882H143.941V160.555Z" fill="#3E528D"/>
<path fill-rule="evenodd" clip-rule="evenodd" d="M177.223 160.555H202.184V175.882H177.223V160.555Z" fill="#3E528D"/>
</svg>
