<?xml version="1.0" encoding="utf-8"?>
<!-- Generator: Adobe Illustrator 25.0.0, SVG Export Plug-In . SVG Version: 6.00 Build 0)  -->
<svg version="1.1" id="Layer_1" xmlns="http://www.w3.org/2000/svg" xmlns:xlink="http://www.w3.org/1999/xlink" x="0px" y="0px"
	 viewBox="0 0 350 250" style="enable-background:new 0 0 350 250;" xml:space="preserve">
<style type="text/css">
	.st0{clip-path:url(#SVGID_2_);fill:#F7E7BA;}
	.st1{clip-path:url(#SVGID_2_);}
	.st2{opacity:0.9;fill:#F8FCFF;}
	.st3{clip-path:url(#SVGID_2_);fill:#EEC994;}
	.st4{fill:#F7E7BA;}
	.st5{opacity:0.44;clip-path:url(#SVGID_2_);}
	.st6{fill:#D6AB82;}
	.st7{fill:url(#SVGID_3_);}
	.st8{fill:#EEC994;}
	.st9{fill:none;stroke:#EEC994;stroke-width:3;stroke-linecap:round;stroke-linejoin:round;stroke-miterlimit:10;}
	.st10{fill:#E8945B;}
	.st11{fill:#F59F49;}
	.st12{fill:#F7B17F;}
	.st13{fill:#B94E43;}
	.st14{fill:#AB3F3A;}
	.st15{fill:#2D3A64;}
	.st16{fill:#243862;}
	.st17{fill:#2C488C;}
	.st18{fill:#FFFFFF;}
	.st19{fill:#BC5717;}
	.st20{fill:#1A375F;}
	.st21{fill:#0F488C;}
	.st22{fill:#EE7713;}
	.st23{fill:#F6AA78;}
	.st24{fill:#F29039;}
	.st25{fill:#F49E66;}
	.st26{fill:#1F5AA2;}
</style>
<g>
	<defs>
		<rect id="SVGID_1_" width="350" height="250"/>
	</defs>
	<clipPath id="SVGID_2_">
		<use xlink:href="#SVGID_1_"  style="overflow:visible;"/>
	</clipPath>
	<rect x="0.28" y="140" class="st0" width="349.72" height="110"/>
	<g class="st1">
		<path class="st2" d="M124.69,57.41c0,0-4.5-5.28-15.26-4.7c0,0-15.62-8.8-32.28-1.17c0,0-17.71-1.89-30.82,1.64
			C37.58,55.53,34.7,58,34.7,58L124.69,57.41z"/>
		<path class="st2" d="M295.72,108.56c0,0-7.05-13-23.91-11.56c0,0-24.48-21.67-50.58-2.89c0,0-27.74-4.65-48.29,4.03
			c-13.7,5.79-18.22,11.86-18.22,11.86L295.72,108.56z"/>
		<path class="st2" d="M272.93,55.34c0,0,2.77-5.91,9.4-5.26c0,0,9.62-9.85,19.88-1.31c0,0,10.91-2.12,18.98,1.83
			c5.38,2.63,7.16,5.39,7.16,5.39L272.93,55.34z"/>
		<path class="st2" d="M165.41,66.56c0-3.86-3.13-7-7-7c-3.86,0-7,3.13-7,7c0,3.86,3.13,7,7,7
			C162.28,73.55,165.41,70.42,165.41,66.56z"/>
		<path class="st2" d="M61.28,85.35c0,0,3.16-5.82,10.71-5.18c0,0,10.96-9.71,22.66-1.29c0,0,12.43-2.08,21.63,1.8
			c6.14,2.59,8.16,5.31,8.16,5.31L61.28,85.35z"/>
	</g>
	<path class="st3" d="M210.05,128.58c-1.93-1.96-4.8-2.05-7.35-1.68c-4.18,0.61-8.11,3.23-12.21,3.23c-3.22,0-3.22,5,0,5
		c1.22,0,2.39-0.18,3.53-0.45c0.57,0.32,1.27,0.42,1.96,0.3c4.25-0.72,8.74,0.11,12.52,2.2c1.55,0.85,3.92-0.19,3.76-2.16
		C212.09,132.73,211.74,130.3,210.05,128.58z"/>
	<g class="st1">
		<path class="st4" d="M210,136.27c-12.12-1.47-24.21-3.12-36.28-4.94c-5.83-0.88-11.65-1.67-17.33-3.3
			c-5.74-1.65-11.47-2.07-17.42-1.9c-3.25,0.09-6.07,0.87-8.53,3.07c-0.19,0.17-0.37,0.35-0.56,0.54c-0.44-0.76-1.26-1.16-2.16-1.26
			c-0.51-0.06-1.02-0.11-1.53-0.17c-0.56-0.28-1.13-0.53-1.71-0.76c-0.08-0.19-0.17-0.38-0.29-0.57c-0.98-1.57-2.82-2.04-4.54-2.25
			c-1.61-0.19-3.2-0.43-4.72-1.04c-1.96-0.79-3.63-1.44-5.8-1.4c-4.33,0.08-8.69,1.07-12.68,2.72c-0.54,0.22-1.01,0.55-1.34,0.98
			c-3.15-0.1-6.31-0.18-9.47-0.25c-2.09-0.05-4.19-0.12-6.24-0.58c-2.12-0.47-4.12-1.42-6.26-1.8c-3.28-0.58-6.06,0.3-8.6,1.83
			c-0.55,0.05-1.08,0.27-1.45,0.7c-0.21,0.24-0.41,0.48-0.62,0.71c-0.73,0.55-1.45,1.14-2.16,1.75c-0.46,0.39-0.68,0.96-0.71,1.55
			c-0.96,1.11-1.92,2.22-2.89,3.33c-0.16,0.19-0.33,0.39-0.5,0.59c-3.81,0.19-7.45-0.84-11.07-2.08c-1.99-0.68-3.97-1.41-5.97-2.05
			c-1.96-0.62-3.87-1.06-5.6,0.04c-0.66-0.32-1.32-0.65-1.97-0.99c-1.82-0.96-3.56-2.1-5.41-3c-3.89-1.88-8.26-1.43-12.46-1.42
			c-4.56,0.01-9.12,0.02-13.68,0.03c-2.87,0.01-3.18,3.97-0.93,4.83c-0.36,0.55-0.51,1.23-0.33,1.98c0.02,0.09,0.06,0.18,0.08,0.27
			c-0.71,1.14-0.51,2.94,0.64,3.62c-0.47,0.13-0.93,0.26-1.4,0.38c-1.92,0.49-2.63,3.68-0.6,4.57c2.64,1.15,5.32,1.89,8.15,2.26
			c0.38,0.07,0.78,0.13,1.18,0.16c0.7,0.06,1.34-0.28,1.8-0.79c1.02,0.2,2.04,0.4,3.06,0.61c3.15,0.62,6.29,1.24,9.44,1.86
			c6.37,1.26,12.74,2.52,19.11,3.78c1.32,0.26,2.7-0.38,3.08-1.75c0.34-1.23-0.42-2.81-1.75-3.08c-6.53-1.29-13.07-2.58-19.6-3.87
			c-0.03-0.01-0.06-0.01-0.08-0.02c8.02,0.84,16.12,1.86,24.18,1.21c1.57,0.39,3.17,0.64,4.78,0.73c0.75,0.04,1.47,0.01,2.18-0.08
			c1.59,0.06,3.12-0.21,4.67-0.81c1.26-0.49,0.07,2.48,1.26,1.77c-0.03,0.54,2.56-2.43,2.81-1.93c0.57,1.14,1.59,1.79,2.72,2.29
			c2.12,0.93,4.41,1.08,6.66,0.53c0.8-0.19,1.39-0.82,1.66-1.57c0.48,0.95,1.48,1.66,2.81,1.38c2.65-0.55,5.3-1.07,7.95-1.59
			c0.24,0.01,0.48,0,0.72-0.04c1.44-0.25,2.86-0.56,4.27-0.89c1.12-0.21,2.27,3.01,3.39,2.81c0.35,0.87,1.14-1.91,2.24-1.85
			c2.31,0.12,4.61,0.17,6.92,0.16c0.55,1.12,1.67,1.56,2.89,1.34c3.7-0.66,7.4-1.33,11.1-1.99c0.1,0,0.19,0.02,0.29,0
			c2.92-0.39,5.88-0.29,8.82-0.29c3.08-0.01,6.16-0.01,9.25-0.02c6-0.01,12-0.03,17.99-0.04c11.99-0.03,24.03-0.4,36.01,0.13
			c6.64,0.29,13.18,1.18,19.61,2.85c1.65,0.43,2.79-0.72,3.04-2.02c1.27,0.04,2.34-1.31,2.34-2.5
			C212.5,137.28,211.35,136.43,210,136.27z M20.38,132.83c-0.91-0.1-1.81-0.22-2.72-0.32c1.11-0.01,2.24,0.02,3.27,0.39
			C20.74,132.87,20.56,132.85,20.38,132.83z"/>
		<path class="st4" d="M258.5,137.48c-9.57-0.91-19.17-1.46-28.77-1.65c-0.69-0.01-1.38-0.01-2.08-0.02
			c-0.1-1.01-0.73-1.96-1.79-2.2c-2.05-0.46-4.15-0.84-6.15-1.52c-0.2-0.07-0.41-0.14-0.61-0.22c-0.02-0.01-0.04-0.02-0.08-0.03
			c-0.05-0.02-0.11-0.05-0.14-0.06c-0.4-0.19-0.8-0.4-1.18-0.63c-0.11-0.07-0.22-0.14-0.32-0.21c-0.01-0.01-0.04-0.03-0.07-0.05
			c-0.01-0.01-0.03-0.02-0.04-0.03c-0.1-0.08-0.19-0.17-0.29-0.26c-0.15-0.14-0.29-0.3-0.43-0.45c0,0,0,0-0.01-0.01
			c-0.05-0.08-0.11-0.16-0.16-0.24c-0.62-0.95-1.87-1.5-2.96-1.12c-0.62-0.55-1.36-0.96-2.24-1.12c-1.33-0.25-2.7,0.37-3.08,1.75
			c-0.33,1.22,0.41,2.83,1.75,3.08c0.58,0.11,0.7,0.61,0.89,1.14c0.36,0.99,0.57,2,1.03,2.96c0.9,1.87,2.66,3.1,4.62,3.67
			c1.73,0.5,3.57,0.51,5.36,0.51c2.49,0,4.97,0.01,7.46,0.06c9.77,0.17,19.54,0.73,29.27,1.66c1.35,0.13,2.5-1.24,2.5-2.5
			C261,138.52,259.85,137.61,258.5,137.48z"/>
	</g>
	<g class="st5">
		<path class="st6" d="M114.55,167.3c-4.53-2.18-9.1-4.36-13.88-5.95c-4.85-1.61-9.8-2.29-14.9-2.35
			c-4.76-0.05-9.42-0.14-14.11-1.07c-4.34-0.86-8.58-2.14-12.75-3.61c-8.59-3.01-16.89-6.79-25.58-9.51
			c-1.9-0.6-3.82-1.12-5.76-1.59c2.92-0.09,5.84-0.16,8.76-0.03c4.16,0.2,8.05,1.14,12.01,2.36c7.56,2.32,15.28,3.77,23.21,3.95
			c9.09,0.2,18.25-1.17,26.88-4.02c3.56-1.18,2.04-6.81-1.56-5.62c-14.74,4.87-30.58,5.03-45.44,0.54c-3.9-1.18-7.72-2.3-11.79-2.77
			c-4.05-0.47-8.14-0.36-12.21-0.23c-7.93,0.24-15.86,0.26-23.77-0.45c-8.82-0.8-17.55-2.6-25.82-5.8c-1.48-0.57-3.22,0.63-3.6,2.04
			c-0.46,1.65,0.57,3.02,2.05,3.59c5.15,1.99,10.46,3.42,15.85,4.43c-7.54-0.39-15.04-1.32-22.47-2.89
			c-3.68-0.78-5.25,4.84-1.56,5.62c10.31,2.19,20.86,3.35,31.4,3.35c5.27,0,10.54-0.37,15.8-0.09c4.41,0.23,8.73,1.06,12.98,2.23
			c17.22,4.7,33.03,14.48,51.22,15.32c5.7,0.26,11.25-0.1,16.81,1.4c5.33,1.43,10.31,3.81,15.26,6.2c1.42,0.68,3.17,0.39,4.01-1.05
			C116.35,170.01,115.98,167.99,114.55,167.3z"/>
		<path class="st6" d="M127.62,126.58c-0.89-0.56-2.04-0.53-3.05-0.64c-2.38-0.27-4.75-0.56-7.13-0.79
			c-2.15-0.21-4.31-0.3-6.47-0.33c-0.69-1.55-2.14-2.73-4.36-2.73c-1.11,0-2.02,0.31-2.75,0.8c-4.78-0.28-8.1,6.68-3.01,9.19
			c6.64,3.27,13.4,4.23,20.71,3.21c1.43-0.2,2.49-1.25,3.09-2.55c1.56-0.34,3.11-0.96,3.88-2.27
			C129.29,129.16,128.93,127.4,127.62,126.58z"/>
		<path class="st6" d="M356.83,143.25c0.75-1.08,0.23-2.82-0.9-3.42c-1.28-0.67-2.62-0.25-3.42,0.9c0.15-0.17,0.13-0.15-0.06,0.07
			c-0.11,0.12-0.23,0.23-0.35,0.34c-0.05,0.04-0.09,0.07-0.12,0.1c-0.12,0.09-0.25,0.17-0.37,0.25c-0.52,0.33-1.06,0.64-1.6,0.93
			c-1.19,0.64-2.37,1.2-3.4,1.6c-2.57,1-5.24,1.69-7.97,2.08c-0.72,0.1-1.28,0.68-1.59,1.36c-2.71-0.01-5.42-0.07-8.12-0.15
			c-1.77-0.05-3.54-0.1-5.32-0.18c2.22-0.45,4.44-0.91,6.66-1.36c1.23-0.18,2.47-0.35,3.69-0.56c2.48-0.43,4.88-1.04,7.21-1.92
			c3.99-1.21,7.78-2.97,10.71-6.06c1.68-1.78-0.1-4.79-2.25-4.27c-0.71-0.69-1.77-0.99-2.88-0.36c-6.39,3.61-14.03,3.19-21.1,3.9
			c-3.86,0.39-7.51,1.13-11.16,2.44c-0.24,0.09-0.49,0.16-0.73,0.24c-0.4-0.85-1.27-1.48-2.26-1.46c-6.48,0.09-12.78,1.5-18.74,4.04
			c-0.2,0.08-0.36,0.21-0.51,0.35c-2.71-0.21-5.43-0.17-8.17,0.21c-0.36-0.74-1.06-1.31-2.14-1.31c-3.17,0-3.22,4.85-0.13,4.99
			c0.54,1.04,1.71,1.43,2.87,1.24c0.43-0.07,0.86-0.12,1.29-0.17c0.43,0.36,0.96,0.59,1.53,0.53c1.77-0.18,3.53-0.35,5.3-0.53
			c7.08,0.7,14.09,3.22,21.06,4.19c5.23,0.73,10.53,0.93,15.81,1.07c4.92,0.13,9.91,0.29,14.82-0.04c4.74-0.32,9.37-1.54,12.27-5.56
			c0.64-0.89,0.36-2.17-0.35-2.96C356.55,143.6,356.7,143.44,356.83,143.25z"/>
		<g>
			<path class="st6" d="M364.48,185.99c-0.34-1.23-1.8-2.2-3.08-1.75c-4.85,1.72-9.92,2.37-15.05,1.87
				c-5.25-0.51-9.95-2.92-15.08-3.89c-5.46-1.03-11.13-0.89-16.66-1.16c-5.61-0.27-11.21-0.61-16.81-1.02
				c-3.13-0.23-6.26-0.48-9.38-0.75c-1.48-0.13-2.99-0.2-4.46-0.4c-0.46-0.06-0.89-0.24-1.34-0.34c-0.05-0.01-0.08-0.03-0.11-0.04
				c-0.02,0.06-0.05,0.12-0.09,0.2c0.04-0.07,0.05-0.14,0.08-0.21c-0.28-0.14,0.09-0.39,0.03-0.09c0.71-1.7-0.53-3.24-2.28-3.47
				c-0.59-0.08-1.19-0.11-1.79-0.12c-0.58-0.71-1.47-1.12-2.49-0.77c-6.52,2.23-13.17,4.09-19.9,5.57
				c-3.14,0.69-1.81,5.51,1.33,4.82c1.21-0.27,2.42-0.56,3.62-0.85c-0.03,1.17,0.58,2.19,1.8,2.57c3.08,0.98,6.27,0.37,9.3-0.51
				c0.09,0.06,0.17,0.12,0.26,0.18c-0.13,1.1,0.42,2.24,1.76,2.62c1.77,0.51,3.53,0.61,5.27,0.49c0.08,0.02,0.15,0.05,0.23,0.07
				c5.47,1.57,11.24,1.93,16.9,1.98c5.85,0.05,11.7-0.12,17.55,0.1c6.09,0.23,12.17,0.73,18.21,1.51
				c5.91,0.76,12.24,2.21,17.73-0.95c0.2-0.11,0.37-0.26,0.53-0.43c4.13-0.07,8.23-0.79,12.15-2.19
				C364.01,188.62,364.86,187.36,364.48,185.99z"/>
			<path class="st6" d="M282.52,178.51c0.01-0.04,0.02-0.06,0.03-0.09C282.53,178.45,282.52,178.48,282.52,178.51
				C282.51,178.51,282.51,178.51,282.52,178.51z"/>
		</g>
		<path class="st6" d="M360.82,167.67c-5.26-0.89-10.53-1.73-15.86-0.94c-4.81,0.71-9.29,2.84-13.96,4.1
			c-9.28,2.5-19.1,3.11-28.62,1.69c-1.33-0.2-2.69,0.33-3.08,1.75c-0.32,1.18,0.4,2.87,1.75,3.08c9.83,1.47,19.82,1.12,29.49-1.23
			c4.71-1.14,9.18-3.17,13.91-4.22c4.97-1.11,10.1-0.24,15.04,0.6c1.33,0.23,2.69-0.35,3.08-1.75
			C362.89,169.55,362.15,167.9,360.82,167.67z"/>
		<path class="st6" d="M58.72,123.74c-2.16-0.38-4.17-0.04-6.29,0.45c-1.78,0.41-3.56,0.76-5.36,1.04c-2.99-0.18-5.98-0.01-8.96,0.3
			c-0.72-0.18-1.45-0.34-2.21-0.42c-0.63-0.07-1.21,0.32-1.55,0.85c-0.14,0.02-0.28,0.03-0.42,0.05c-2.33,0.29-2.48,3.67,0,3.75
			c1.83,0.06,3.66,0.04,5.49-0.04c3.19,1.13,6.18,2.95,9.52,3.62c2.28,0.46,4.91,0.59,6.94-0.74c2.16-1.42,3.4-4.17,4.15-6.55
			C60.31,125.14,59.69,123.91,58.72,123.74z"/>
		<path class="st6" d="M243.03,145.89c-1.56-0.45-3.2-0.46-4.78-0.76c-0.38-0.07-0.76-0.16-1.14-0.25
			c-1.08-0.74-2.16-1.51-3.33-2.09c-1.29-0.63-2.76-0.75-4.02-1.39c-2.11-1.07-4.04-4.12-6.78-3.24c-1.52,0.48-1.99,2.38-0.97,3.56
			c0.14,0.16,0.31,0.32,0.48,0.46c2.15,2.13,4.25,4.46,6.82,6.1c1.48,0.95,3.15,1.38,4.77,1.91c0.94,1.24,2.24,1.88,3.43,2.89
			c0.57,0.48,0.84,0.81,0.73,1.53c-0.15,0.94-0.21,1.78,0.35,2.61c0.43,0.65,1.32,1.16,2.12,0.86c1.37-0.5,2.7-1.11,3.97-1.84
			c1.07,0.22,2.26-0.52,2.37-1.55c0.69-0.55,1.29-1.19,1.56-1.98C249.7,149.55,245.61,146.63,243.03,145.89z"/>
		<path class="st6" d="M253.86,219.57c-17.37,0.45-34.75-1.04-51.86-4.08c-16.9-3.01-33.53-7.65-50.69-8.91
			c-14.41-1.06-28.87-0.3-43.3-0.55c-3.68-0.94-7.49-1.13-11.33-0.54c-0.09,0.01-0.17,0.05-0.25,0.08
			c-16.37-1.17-32.48-4.73-48.83-6.17c-14.85-1.31-29.75-1.25-44.64-0.85c-5.97-0.97-12.86-2.3-18.31,0.97
			c-2.95,1.77-4.92,5.12-4.62,8.7c0.13,1.52,0.6,2.96,1.33,4.22c-0.22,1.84-0.31,3.7-0.22,5.57c0.06,1.34,1.28,2.51,2.63,2.07
			c16.61-5.4,34.2-2.5,51.28-3.45c8.96-0.5,17.7-2.57,26.59-3.57c6.66-0.74,13.36-0.83,20.05-0.73c0.53,0.17,1.06,0.34,1.59,0.52
			c0.83,0.29,1.5,0.04,1.94-0.45c1.26,0.03,2.52,0.06,3.78,0.1c18.54,0.52,37.08,1.08,55.62,1.71c18.12,0.62,36.17,1.72,53.89,5.93
			c16.22,3.85,33.28,9.45,50,5.5c2.01-0.47,3.98-1.1,5.9-1.86C256.48,222.98,256.36,219.5,253.86,219.57z"/>
		<path class="st6" d="M379.72,236.36c-20.98,2.54-41.97-0.78-62.94-1.76c-10.38-0.49-20.78-0.4-31.12,1.31
			c-10.33,1.7-20.49,5.43-30.64,9.39c-11.3,4.4-22.65,8.78-34.2,9.43c-2.41,0.14-2.42,7.41,0,7.27
			c20.66-1.17,40.5-13.91,60.97-18.11c20.8-4.26,41.74-1.52,62.58-0.06c11.78,0.83,23.59,1.23,35.36-0.2
			C382.12,243.35,382.14,236.07,379.72,236.36z"/>
	</g>
	<g class="st1">
		
			<radialGradient id="SVGID_3_" cx="447.9225" cy="267.6574" r="222.3071" gradientTransform="matrix(0.6924 0 0 -0.4106 13.4269 290.5006)" gradientUnits="userSpaceOnUse">
			<stop  offset="0.2821" style="stop-color:#6AC2BB"/>
			<stop  offset="0.3584" style="stop-color:#6AC2BB"/>
			<stop  offset="0.4836" style="stop-color:#6AC2BB"/>
			<stop  offset="0.5389" style="stop-color:#68C2C2"/>
			<stop  offset="0.6578" style="stop-color:#65C2CC"/>
			<stop  offset="0.7109" style="stop-color:#61C3D8"/>
			<stop  offset="0.7894" style="stop-color:#5DC3E2"/>
			<stop  offset="0.902" style="stop-color:#57C4EF"/>
			<stop  offset="1" style="stop-color:#FFFFFF"/>
		</radialGradient>
		<path class="st7" d="M349.09,220.72c-4.35,0-7.76-1.37-11.37-2.82l-1.27-0.5c-1.27-0.5-2.43-1.01-3.55-1.5
			c-5.25-2.3-9.78-4.29-22.91-4.39c-11.2-0.08-17.5-1.73-23.6-3.33c-4.17-1.09-8.1-2.12-13.54-2.68c-3.49-0.36-6.7-1.44-9.81-2.48
			c-3.84-1.29-7.47-2.51-11.64-2.51l-0.85,0.01c-3.93,0-19.08-1.68-21.64-4.49c-0.75-0.54-5.15-2.57-9.4-4.54
			c-18.75-8.66-27.86-13.32-28.93-16.41c-0.27-0.77-0.1-1.37,0.09-1.75c1.1-2.16,4.49-3,12.09-3c2.88,0,6.1,0.12,9.21,0.24
			c3.01,0.11,6.13,0.23,8.83,0.23c7.17,0,8.22-0.91,8.35-1.09c1.05-6.09,11.17-6.09,14.49-6.09c5.71,0,12.14,0.78,16.83,1.36
			c2.6,0.32,4.85,0.59,5.89,0.59c0.13,0,0.23,0,0.31-0.01c0.15-0.04,0.29-0.07,0.43-0.1c-1.39-0.33-2.36-0.78-2.36-2.01
			c0.01-1.62,1.74-2.11,5.98-2.9c6.11-1.14,16.53-1.2,26.6-1.25c8.33-0.05,16.21-0.09,20.44-0.76c7.08-1.12,13.99-1.66,21.11-1.66
			c10.33,0,21.26,1.17,34.4,3.67c2.65,0.5,5.41,0.76,8.19,0.76c16.65,0,31.86-9,40.95-14.39c3.87-2.29,6.43-3.81,8.13-4.12
			c0.88-0.16,1.74-0.32,2.6-0.48c4.91-0.92,9.55-1.79,13.19-1.79c3.72,0,6.2,0.95,7.56,2.89c1.89,2.69,2.11,7.07,0.62,12.01
			c-1.87,6.19-6.98,14.58-15.26,17.83c-1.81,0.71-3.42,1.03-5.22,1.03c-1.62,0-3.27-0.25-5.35-0.57c-1.99-0.3-4.46-0.68-7.7-0.96
			c-4.33-0.36-10.21-1.59-17.01-3.01c-11.19-2.34-25.13-5.24-37.46-5.24c-6.5,0-12.07,0.82-16.54,2.44
			c-10.89,3.94-31.03,5.42-50.51,6.85c-20.47,1.5-43.67,3.21-46.11,7.86c0.36,0.66,3.36,3.4,28.26,6.44
			c15.53,1.9,34.03,3.27,46.27,4.17c10.94,0.81,13.81,1.04,14.62,1.34c1.25,0.45,2.7,0.68,4.29,0.68c6.52,0,14.78-3.69,22.76-7.26
			c7.72-3.45,15.01-6.71,20.74-6.71c1.81,0,3.41,0.33,4.77,0.99c4.4,2.12,10,7.02,8.62,10.32c-2.21,5.3-8.63,10.79-26.78,24.59
			c-2.18,1.66-9.07,2.52-18.57,3.56c-2.46,0.27-4.59,0.5-6.12,0.73C351.16,220.64,350.11,220.72,349.09,220.72z"/>
		<path class="st8" d="M446.34,142c2.94,0,5.17,0.6,6.33,2.25c4.34,6.19-2.33,23.02-13.96,27.58c-1.72,0.68-3.15,0.92-4.67,0.92
			c-3.01,0-6.34-0.97-12.93-1.52c-11.46-0.96-34.76-8.25-54.6-8.25c-6.17,0-12.01,0.71-17.05,2.53C326,174,257,171,252,181
			c-4.49,8.99,86.97,12.91,90,14c1.48,0.53,3.09,0.77,4.8,0.77c13.17,0,32.24-13.97,43.51-13.97c1.53,0,2.91,0.26,4.12,0.84
			c4.55,2.19,8.69,6.47,7.89,8.39c-2.11,5.05-8.9,10.74-26.31,23.97c-2.72,2.07-18.01,3.12-24,4c-1.02,0.15-1.99,0.22-2.91,0.22
			c-4.55,0-8.08-1.64-12.09-3.22c-7.13-2.81-10.72-5.88-27-6c-18.52-0.14-23.3-4.6-37-6c-7.44-0.76-13.64-5-21.6-5
			c-0.13,0-0.26,0-0.4,0c-0.15,0-0.3,0-0.45,0c-6.71,0-19.93-2.45-20.55-4c-0.5-1.26-39.9-17.27-38-21
			c0.89-1.74,5.25-2.18,10.75-2.18c5.67,0,12.54,0.47,18.05,0.47c5.4,0,9.48-0.45,9.8-2.25c0.67-3.84,6.35-4.94,13.05-4.94
			c8.92,0,19.64,1.95,22.72,1.95c0.28,0,0.49-0.02,0.64-0.05c14-3.35-10.45-2.31,4-5c11.05-2.06,37.54-0.51,47-2
			c7.18-1.13,14.06-1.64,20.88-1.64c11.22,0,22.25,1.38,34.12,3.64c2.85,0.54,5.68,0.79,8.47,0.79c23.67,0,44.21-17.59,49.35-18.53
			C436.73,143.17,442.23,142,446.34,142 M446.34,139c-3.78,0-8.49,0.88-13.47,1.82c-0.85,0.16-1.71,0.32-2.59,0.48
			c-1.96,0.36-4.47,1.85-8.63,4.31c-8.96,5.3-23.94,14.18-40.18,14.18c-2.69,0-5.35-0.25-7.91-0.73c-13.24-2.52-24.26-3.7-34.68-3.7
			c-7.2,0-14.18,0.55-21.35,1.68c-4.12,0.65-11.94,0.69-20.21,0.74c-10.14,0.06-20.63,0.11-26.87,1.28c-4.02,0.75-7.2,1.34-7.2,4.37
			c0,0.13,0,0.25,0.02,0.36c-0.8-0.09-1.68-0.2-2.61-0.31c-4.73-0.58-11.2-1.37-17.01-1.37c-3.5,0-13.86,0-15.81,6.6
			c-0.69,0.22-2.51,0.59-7.03,0.59c-2.67,0-5.78-0.12-8.78-0.23c-3.13-0.12-6.36-0.24-9.27-0.24c-7.09,0-11.8,0.64-13.42,3.82
			c-0.45,0.89-0.52,1.93-0.17,2.92c1.15,3.32,7.54,7.04,29.72,17.28c3.59,1.66,7.61,3.51,8.89,4.23c0.91,1.11,3.08,2.2,9.67,3.46
			c4.75,0.91,9.78,1.47,13.12,1.47c0.17,0,0.34,0,0.5,0c0.12,0,0.23,0,0.34,0c3.92,0,7.44,1.18,11.16,2.43
			c3.19,1.07,6.48,2.18,10.13,2.55c5.32,0.55,9.2,1.56,13.31,2.64c6.18,1.62,12.58,3.29,23.97,3.38c12.82,0.1,17.22,2.03,22.32,4.27
			c1.13,0.5,2.31,1.01,3.61,1.52c0.42,0.17,0.84,0.34,1.26,0.5c3.58,1.44,7.29,2.92,11.93,2.92c1.09,0,2.22-0.08,3.35-0.25
			c1.5-0.22,3.72-0.46,6.07-0.72c11.5-1.26,17.02-2.12,19.31-3.86c18.7-14.21,24.9-19.54,27.26-25.21
			c2.03-4.87-5.43-10.36-9.35-12.25c-1.56-0.75-3.39-1.14-5.42-1.14c-6.06,0-13.49,3.32-21.36,6.84
			c-7.84,3.51-15.95,7.13-22.15,7.13c-1.42,0-2.69-0.2-3.78-0.59c-1-0.36-3.37-0.56-15.01-1.42c-11.71-0.87-29.4-2.17-44.53-3.96
			c-18.67-2.21-25.34-4.24-27.71-5.32c1.47-0.82,4.9-2.1,12.8-3.27c8.51-1.27,19.44-2.07,31.01-2.92
			c19.58-1.44,39.82-2.93,50.91-6.94c4.31-1.56,9.71-2.35,16.03-2.35c12.18,0,26.03,2.89,37.16,5.21
			c6.85,1.43,12.76,2.66,17.19,3.03c3.19,0.27,5.63,0.64,7.6,0.94c2.15,0.33,3.85,0.59,5.58,0.59c2,0,3.77-0.35,5.77-1.13
			c8.78-3.45,14.18-12.28,16.15-18.79c1.65-5.46,1.35-10.19-0.83-13.31C452.65,139,447.9,139,446.34,139L446.34,139z"/>
	</g>
	<g class="st1">
		<path class="st9" d="M-5,165.15c15.35,9.3,35.18,3.94,53.29,4.29c17.39,0.34,34.19,6.25,51.53,7.47c7.16,0.5,14.4,0.21,21.48,1.39
			c7.87,1.32,15.28,4.42,22.96,6.51c9.18,2.5,18.71,3.54,28.18,4.66c60.41,7.14,120.37,17.88,179.42,32.14"/>
		<path class="st9" d="M0.25,123.79c8.98,0.94,18.46-1.69,26.88,1.58c2.72,1.06,5.17,2.68,7.73,4.09c4.32,2.37,8.98,4.12,13.8,5.18
			c1.98,0.44,4.13,0.74,5.99-0.06c3.59-1.54,4.46-6.25,7.23-9c2.71-2.7,6.97-3.2,10.76-2.61c3.78,0.59,7.37,2.1,11.13,2.85
			c5.01,0.99,10.28,0.58,15.07-1.17c1.74-0.64,3.45-1.45,5.29-1.63c1.44-0.14,2.88,0.13,4.29,0.39c6.99,1.29,15.09,2.8,22.08,4.09"
			/>
		<path class="st9" d="M114.36,136.2c5.42-1.52,10.54-4.1,14.98-7.54c1.21-0.94,2.39-1.95,3.76-2.65
			c5.01-2.53,10.96-0.23,16.31,1.45c12.12,3.81,24.99,4.27,37.6,5.84c12.61,1.57,25.56,4.5,35.56,12.34
			c3.53,2.77,6.81,6.2,11.16,7.3"/>
		<path class="st9" d="M181.5,132.5c8.17-0.99,21.34-7.97,29.29-5.83c2.81,0.75,5.21,2.53,7.76,3.93c8.71,4.79,19.1,5.24,29.04,4.92
			c3.01-0.1,6.11-0.24,8.95,0.75c1.74,0.61,3.3,1.62,4.9,2.53c12.3,6.96,27.1,7.86,40.16,13.25c2.62,1.08,5.17,2.34,7.86,3.27
			c9.01,3.12,18.85,2.29,28.34,1.43"/>
		<path class="st9" d="M270.5,142.5c8.19,0.34,19.1-1.08,27.07-2.99c2.06-0.49,4.1-1.13,6.21-1.36c2.99-0.32,6,0.22,9,0.54
			c11.44,1.23,27.32-3.28,37.72-8.2"/>
		<path class="st9" d="M320.49,146.77c4.89,0.37,9.91,0.72,14.61-0.66c1.9-0.56,3.72-1.39,5.62-1.96c2.74-0.82,5.78-1.16,7.97-3.01
			c2.21-1.87,3.08-4.91,5.04-7.05c0.8-0.87,1.78-1.58,2.85-2.07"/>
		<path class="st9" d="M117.78,151.66c4.75,3.87,11.45,3.83,17.56,4.3c17.29,1.33,36.05,4.7,49.08,16.14
			c13.39,11.76,32.49,21.8,48.08,25.4"/>
	</g>
</g>
<g>
	<path class="st10" d="M83.86,182.93c-0.12-0.09-0.23,0.22-0.38,0.21c-0.03,0,0.15-0.18,0.19-0.25c0.04-0.06,0.03-0.1,0-0.12
		c-0.03-0.02-0.46,0.21-0.54,0.31c-0.05,0.06-0.17,0.27-0.25,0.42c0,0,0,0,0,0c0,0-2.41,0.18-2.89,0.14
		c-0.35-0.03-0.53-2.52-0.55-2.51c-0.46,0.08-1.35,0.26-1.9,0.64c-0.02,0.02-0.04,0.03-0.07,0.03c0.21,0.77,0.52,1.68,0.98,2.52
		c0.3,0.55,0.89,0.88,1.51,0.83c0.84-0.07,2.07-0.28,3.13-0.95c0,0,0.54-0.28,0.8-0.5C84.24,183.39,83.98,183.02,83.86,182.93z"/>
	<path class="st11" d="M79.63,187.88c0,0-0.16,2.04-0.32,4.02c-0.21,2.7-1.02,9.41-1.02,9.41s0.17,0.27-0.66,0.09
		c0,0-1.01-2.29-1.23-4.92c0-0.04-0.01-0.09-0.01-0.13c-0.2-2.68-0.5-8.32-0.5-8.32L79.63,187.88z"/>
	<path class="st11" d="M79.64,187.7c0,0-0.18,2.22-0.33,4.21l-2.9,4.59c0-0.04-0.01-0.09-0.01-0.13c-0.2-2.68-0.5-8.32-0.5-8.32
		L79.64,187.7z"/>
	<path class="st11" d="M79.47,187.81l-6.76,12.86c0,0-0.63,0.28-0.71,0.04c0,0,0.6-5.89,1.65-7.22c0.59-0.75,1.29-2.99,1.32-3.77
		c0.03-0.78,0.22-2.44,0.22-2.44L79.47,187.81z"/>
	<path class="st12" d="M75.93,178.73c0,0,1.61,0.79,2.55,0.5c0,0-0.23-0.29-0.63-0.51c0.02-0.14,0.04-0.26,0.06-0.37
		c0.05-0.4,0.05-0.63,0.05-0.63l-0.99-0.8l-0.22-0.18c0.01,0.19-0.01,0.36-0.03,0.53c0,0.01,0,0.03-0.01,0.04
		C76.55,178.27,75.93,178.73,75.93,178.73z"/>
	<path class="st13" d="M75.01,187.18c0,0.1,0.21,0.22,0.3,0.26c0.41,0.18,0.8,0.33,1.2,0.44c0.28,0.07,0.57,0.13,0.86,0.16
		c0.86,0.09,1.89-0.11,2.24-0.1c0.04,0,0.07-0.01,0.1-0.04c0.02-0.02,0.04-1.07,0.02-2.41c0-0.05,0-0.11,0-0.16v-0.02
		c0-0.52-0.02-1.07-0.05-1.61c-0.05-1.2-0.14-2.35-0.3-2.99c-0.19-0.75-0.62-1.25-1.01-1.61l-0.28-0.28
		c-0.02-0.02-0.04-0.02-0.07-0.02c-0.31,0.06-0.65,0.05-0.98-0.11c-0.37-0.18-0.77-0.38-0.84-0.33c-0.77,0.57-1.15,2.26-1.14,4.19
		c0,0.06,0,0.12,0,0.18c0,0.2,0.01,0.4,0.02,0.6c0.08,1.42,0,2.65-0.05,3.36C75.03,186.91,75.01,187.07,75.01,187.18z"/>
	<path class="st14" d="M75.01,187.18c0,0.1,0.21,0.22,0.3,0.26c0.41,0.18,0.8,0.33,1.2,0.44c1.11-3.6-0.22-7.09-0.22-7.09
		l-1.22,1.95c0,0.2,0.01,0.4,0.02,0.6c0.08,1.42,0,2.65-0.05,3.36C75.03,186.91,75.01,187.07,75.01,187.18z"/>
	<path class="st13" d="M76.73,181.35c-0.4-0.24-1.2-0.67-1.87-0.73c-0.15-0.01-0.23-0.17-0.18-0.3c0.21-0.48,0.8-1.48,1.52-1.95
		c0.07-0.04,0.12-0.01,0.19,0.03c0.27,0.15,0.84,0.59,0.87,1.11c0.03,0.46-0.13,1.27-0.22,1.7
		C77.01,181.35,76.85,181.42,76.73,181.35z"/>
	<path class="st10" d="M76.7,177.29c0,0,0,0.01,0.01,0.01c0.06,0.11,0.49,0.83,1.19,1.04c0.05-0.4,0.05-0.63,0.05-0.63l-0.99-0.8
		c-0.13,0.15-0.22,0.29-0.25,0.35C76.71,177.28,76.7,177.29,76.7,177.29z"/>
	<path class="st12" d="M78.24,177.7c0,0-1.54,0.26-1.69-0.71c-0.14-0.96-0.44-1.58,0.54-1.78c0.98-0.2,1.22,0.13,1.35,0.44
		C78.57,175.96,78.64,177.61,78.24,177.7z"/>
	<path class="st15" d="M78.69,175.1c-0.32-0.15-1.88-0.89-2.55-0.21c-0.01-0.1-0.01-0.23-0.01-0.23c-0.05,0.09-0.07,0.22-0.08,0.31
		c-0.06-0.07-0.17-0.08-0.17-0.08c0.08,0.04,0.11,0.11,0.13,0.17c-0.66,0.98,0.34,1.99,0.48,2.14c0.14,0.16,0.22,0.11,0.22,0.11
		s0.25-0.34,0.13-0.56c0,0-0.2-0.21-0.09-0.34c0.12-0.13,0.19,0.07,0.28,0.06c0.09-0.01,0.26-0.28,0.27-0.53
		c0.01-0.25,0.91,0.13,1.27,0.01C78.93,175.84,79.25,175.35,78.69,175.1z"/>
	<path class="st12" d="M79.16,185.63c-0.03-0.11-0.34-0.07-0.53-0.09c-0.07-0.01-0.1-0.09-0.06-0.14l0.09-0.13
		c-0.14-0.03-0.31-0.05-0.37-0.04c-0.08,0.01-0.3,0.1-0.46,0.16c0,0,0,0,0,0c0,0-1.96-1.41-2.3-1.76c-0.25-0.25,1.22-2.27,1.2-2.28
		c-0.4-0.24-1.2-0.67-1.87-0.74c-0.03,0-0.05-0.01-0.07-0.02c-0.34,0.73-0.68,1.62-0.87,2.56c-0.13,0.61,0.12,1.24,0.62,1.61
		c0.68,0.49,1.77,1.12,3,1.29c0,0,0.66,0.26,1,0.25C79.01,186.28,79.2,185.77,79.16,185.63z"/>
	<path class="st10" d="M83.24,183c0,0,0.31-0.26,0.43,0.04c0.09,0.21-0.04,0.37-0.12,0.44c-0.04,0.04-0.11,0.03-0.14-0.03
		c-0.02-0.04-0.03-0.09-0.01-0.17l-0.29,0.62L83.24,183z"/>
	<path class="st10" d="M83.81,182.92c0,0-0.19-0.01-0.21,0.31c-0.02,0.32-0.06,0.77,0.21,0.53
		C84.09,183.51,83.81,182.92,83.81,182.92z"/>
</g>
<g>
	<path class="st10" d="M285.01,209.36c0.01-0.17,0.25-0.31,0.41-0.35c0.12-0.03,0.28-0.21,0.34-0.27c0.55-0.69,1.36-2.11,1.57-2.36
		c0.07-0.09,0.3-0.55,0.59-1.14c0.2-0.4,0.43-0.85,0.66-1.3c0.35,0.13,0.78,0.3,1.15,0.52c-0.22,0.35-0.52,0.83-0.78,1.25
		c-0.24,0.39-0.45,0.74-0.54,0.92c-0.29,0.55-2.3,2.38-2.3,2.38l-0.11,0.11c-0.02,0.02-0.04,0.05-0.06,0.07
		c-0.06,0.09-0.18,0.28-0.36,0.44c-0.11,0.1-0.18,0.16-0.38,0.14C284.94,209.74,285,209.52,285.01,209.36z"/>
	<path class="st16" d="M288.65,203.52c0,0-1,2-1.15,2.31c0,0,0.53,1.05,0.87,1.05C288.73,206.87,288.65,203.52,288.65,203.52z"/>
	<path class="st16" d="M291.13,199.05c0.02-0.05,0.21-0.67,1.17-0.46c0,0-0.48-0.06-0.61,0.12c0,0,0.38-0.17,0.62-0.03
		s0.28,0.63,0.24,0.78c-0.04,0.15-0.3,0.59-0.47,0.59c-0.07,0-0.14-0.02-0.2-0.05c0.03,0.08,0.05,0.16,0.07,0.26
		c0.18,0.87-0.39,1.53-0.69,1.37c-0.19-0.1-0.34,0.23-0.34,0.23l-1.59-2.11C289.33,199.76,290.44,198.43,291.13,199.05z"/>
	<path class="st12" d="M288.64,209.46c0.72-2.31-0.07-2.81,0.01-3.96c0.08-1.15,0.97-2.39,0.97-2.39s0.05,0,0.12-0.01
		c0.06-0.03,0.08-0.28,0.08-0.55c0-0.32-0.03-0.65-0.03-0.65l1.07-0.21l0.06-0.01c0,0.75,0.19,1.24,0.34,1.35
		c0.13,0.02,0.7,0.09,1.06,0.23c0.13,0.06,0.23,0.12,0.27,0.2c0.29,0.65,0.59,2.28,0.79,3.44c0.12,0.65,0.37,1.47,0.18,1.64
		l-1.11-0.42c-0.04-0.2-0.11-0.61-0.23-1.05c-0.02-0.07,0.01-0.15-0.01-0.22c-0.21,0.57-0.32,0.83-0.31,1.08
		c0.01,0.35,0.25,0.67,0.74,1.78C292.9,210.33,287.9,211.81,288.64,209.46z"/>
	<path class="st10" d="M289.78,201.89c0,0,0.02,0.34,0.03,0.65c0.6-0.02,0.92-0.56,1.05-0.87L289.78,201.89z"/>
	<path class="st16" d="M290.96,201.56c0,0,0.31-0.5,0.39-0.92c0.05-0.3-0.1-1.43-1.23-1.26c0,0-0.33,0.03-0.64,0.24
		c-0.24,0.17-0.6,0.52-0.2,1.5l0.1,0.33L290.96,201.56z"/>
	<path class="st12" d="M289.58,202.19c0,0,1.42,0.02,1.42-0.86c0-0.88,0.18-1.48-0.72-1.53c-0.91-0.05-1.08,0.28-1.15,0.58
		C289.05,200.68,289.21,202.16,289.58,202.19z"/>
	<path class="st13" d="M287.6,222.78l0.46,0.11c0,0,0.72-0.98,1.31-2.32c0.38-0.85,0.7-1.81,0.77-2.71c0.03-0.41,0.01-0.8-0.09-1.16
		c0,0,0.13-0.86,0.3-2c0.19-1.27,0.44-2.89,0.64-4.08l-0.12-0.04l-2.54-0.75c0,0-0.5,1.95-0.27,5c0.05,0.63,0.12,1.3,0.24,2.01
		c0.2,1.22,0.12,2.44-0.05,3.45C288.02,221.74,287.6,222.78,287.6,222.78z"/>
	<path class="st14" d="M288.06,214.83l1.99,3.67c0.05-0.34,0.23-0.94,0-1.8c0,0,0.13-0.86,0.3-2c0.19-1.27,0.44-2.89,0.64-4.08
		l-0.12-0.04l-2.54-0.75C288.33,209.83,287.84,211.78,288.06,214.83z"/>
	<path class="st13" d="M290.29,216.9c0.09,0.17,0.98,1.24,1.88,2.43c0.08,0.1,0.16,0.21,0.24,0.33c0.53,0.74,1.14,1.71,1.5,2.19
		c0.33,0.43,0.63-0.11,0.46-0.49c-0.26-0.61-0.49-1.66-0.74-2.44c-0.06-0.18-0.12-0.35-0.18-0.49c-0.27-0.61-0.81-1.29-1.46-1.95
		c-0.11-0.12,0.94-2.87,0.87-4.99c-0.03-0.84-0.14-1.58-0.41-2.03l-2.67,0.13C289.78,209.59,289.41,215.26,290.29,216.9z"/>
	<path class="st16" d="M289.17,199.89c0.22-0.27,0.38-0.21,0.48-0.13c0.76-0.42,1.72,0.03,1.72,0.03c0.09,0.63,0.11,1.17,0.11,1.17
		s-0.26,0.16-0.85,0.01c-0.18-0.05-0.34-0.18-0.48-0.33c0.24,0.4,0.57,0.69,0.57,0.69c-0.71-0.33-1-1.32-1.03-1.42
		c-0.09,0.08-0.26,0.25-0.31,0.41c-0.07,0.22-0.1,0.69-0.24,0.67C289.13,201,288.84,200.29,289.17,199.89z"/>
	<path class="st17" d="M292.96,210.52c0,0.09,0,0.16-0.02,0.21c-0.06,0.18-0.25,0.26-0.72,0.21c-0.29-0.03-0.42-0.51-0.47-0.92
		c-0.17,0.59-0.42,0.92-0.73,0.99c-0.46,0.1-2.76,0.38-2.91-0.71c-0.17-1.21,0.33-3.34,0.36-4.49c-0.07-0.41-0.09-0.76-0.08-1.07
		c0.02-0.82,0.26-1.28,0.44-1.46c0.05-0.04,0.1-0.07,0.32-0.1c0.11-0.02,0.26-0.04,0.47-0.07c0,0,0.09-0.01,0.09-0.01
		c-0.04,0.07-0.46,0.69-0.42,0.89c0.04,0.21,1.66,0.18,1.78,0.07c0.13-0.12,0.46-1,0.46-1s0.66,0.07,0.98,0.3c0,0,0,0,0,0
		c0.04,0.03,0.07,0.06,0.08,0.09c0.34,0.65,0.68,2.3,0.92,3.47c-0.58,0.32-1.09,0.23-1.25,0.18
		C292.46,208.45,292.93,209.9,292.96,210.52z"/>
	<path class="st12" d="M289.37,220.58c-0.59,1.34-1.31,2.32-1.31,2.32l-0.46-0.11c0,0,0.41-1.04,0.65-2.49
		C288.4,220.4,288.71,220.53,289.37,220.58z"/>
	<path class="st16" d="M292.96,210.52c-0.32-0.11-0.72-0.39-1.21-1.02c-1.29-1.67-0.11-3.63,0.05-3.67
		c0.16-0.04,0.46,1.27,0.46,1.27c0.03,0.28,0.1,0.58,0.16,0.87c0.01,0.03,0.01,0.06,0.02,0.08c0.05,0.34,0.02,0.66,0.09,0.97
		c0,0.01,0.14,0.03,0.14,0.03C292.82,209.68,292.95,210.21,292.96,210.52z"/>
	<path class="st18" d="M289.99,201.67c0,0-0.03,0.11-0.3,0.09c0,0-0.23-0.02-0.22-0.14C289.47,201.62,289.69,201.54,289.99,201.67z"
		/>
	<path class="st12" d="M292.41,219.66c0.53,0.74,1.14,1.71,1.5,2.19c0.33,0.43,0.63-0.11,0.46-0.49c-0.26-0.61-0.49-1.66-0.74-2.44
		C293.46,219.17,293.11,219.51,292.41,219.66z"/>
	<path class="st12" d="M292.97,207.61l0.58,0.92c-1.01,0.7-2.15,1.08-2.9,1.56c-0.07,0.05-0.29,0.15-0.33,0.27
		c-0.06,0.15-0.18,0.34-0.34,0.34s-0.42-0.12-0.45-0.29c-0.01-0.07,0.05-0.05,0.2-0.19c0.12-0.12,0.17-0.2,0.18-0.27
		c0.06-0.04,0.27-0.15,0.27-0.15c0.13-0.08,0.21-0.13,0.21-0.13l0,0l0,0C290.38,209.69,292.31,208.18,292.97,207.61z"/>
	<path class="st10" d="M285.33,209.34c0-0.04-0.01-0.09-0.02-0.13c-0.03-0.14,0.23-0.26,0.23-0.26l0.15,0.21
		c0,0-0.24,0.14-0.23,0.26c0,0.04-0.01,0.07-0.03,0.08c0.05,0.12,0.07,0.26-0.09,0.27c-0.21,0.02-0.29-0.5-0.29-0.5
		S285.23,209.26,285.33,209.34z"/>
	<path class="st12" d="M292.44,208.06c0,0-0.14-0.42-0.18-0.96C292.26,207.1,292.55,207.75,292.44,208.06z"/>
</g>
<g>
	<path class="st19" d="M281.5,221.86c0,0-0.06,1.11-0.28,1.14c-0.03,0-1.08,0-1.08,0h-1.36c0,0,0-0.34,0.4-0.4
		c0.4-0.06,1.05-0.34,1.3-0.87C280.72,221.18,281.5,221.86,281.5,221.86z"/>
	<path class="st19" d="M274.58,220.93c0,0-0.22,1.08-0.43,1.08c-0.03,0-1.08-0.12-1.08-0.12l-1.36-0.19c0,0,0.06-0.31,0.46-0.34
		c0.4-0.03,1.08-0.22,1.39-0.71C273.9,220.13,274.58,220.93,274.58,220.93z"/>
	<path class="st20" d="M276.99,209.9c0,0,0.34,2.29,1.67,6.3c1.33,4.05,1.48,5.78,1.48,5.78l1.42-0.03c0,0,0.03-4.42-0.59-6.43
		c-0.62-2.04-0.12-7.32-0.12-7.32L276.99,209.9z"/>
	<path class="st21" d="M276.58,207.83c0,0-1.95,3.89-2.44,7.01c-0.49,3.09-0.87,5.93-0.87,5.93s0.46,0.19,1.36,0.25
		c0,0,1.51-4.48,1.67-5.62c0.15-1.11,4.67-5.59,4.29-6.7C280.29,207.58,276.58,207.83,276.58,207.83z"/>
	<path class="st22" d="M279.4,200.29c0,0,2.01,1.92,2.1,2.72s-0.96,2.01-0.96,2.01L279.4,200.29z"/>
	<path class="st23" d="M279.06,200.29l-0.74,0.49l-1.08-0.22c0-0.09,0.09-0.46,0.15-0.77c0-0.03,0-0.03,0-0.06
		c0.06-0.28,0.09-0.53,0.09-0.53l1.02-0.43l0.37-0.15c0,0-0.03,0.31-0.03,0.37C278.78,199.77,279.06,200.29,279.06,200.29z"/>
	<path class="st22" d="M277.48,200.05c0.03,0,1.33-0.4,1.45-0.34c0.15,0.06,0.22,0.31,0.22,0.31l-2.13,0.46
		C277.05,200.51,277.23,200.17,277.48,200.05z"/>
	<path class="st24" d="M280.97,208.76c-0.22,0.99-3.86,1.11-4.82,0.19c-0.09-0.09-0.12-0.59-0.06-1.24
		c0.09-1.27,0.34-3.18,0.34-4.14c0-0.46,0.06-0.96,0.15-1.39c0.19-0.93,0.46-1.67,0.46-1.67s1.79-0.59,2.13-0.46
		C280.79,200.51,281.19,207.74,280.97,208.76z"/>
	<path class="st22" d="M276.09,207.71c0.09-1.27,0.12-3.37,0.12-4.33c0-0.46,0.28-0.77,0.37-1.2l1.08-0.19
		C277.67,201.99,278.69,206.26,276.09,207.71z"/>
	<path class="st20" d="M278.01,206.19c0,0-1.2-1.05-1.67-1.73l-0.34,0.25c0,0,0.96,1.61,1.88,2.04
		C278.78,207.15,278.01,206.19,278.01,206.19z"/>
	<path class="st25" d="M278.78,199c-0.22,0.37-1.05,0.71-1.42,0.83c0-0.03,0-0.03,0-0.06c0.06-0.28,0.09-0.53,0.09-0.53l1.02-0.43
		C278.72,198.78,278.87,198.84,278.78,199z"/>
	<path class="st23" d="M277.14,199.12c0,0,1.54,0.74,2.01-0.22s0.96-1.54,0-2.04c-0.96-0.53-1.33-0.25-1.58,0.06
		C277.33,197.17,276.74,198.9,277.14,199.12z"/>
	<path class="st20" d="M277.63,196.8c0,0-0.06,1.2,0.19,1.17c0.25,0,0.49-0.03,0.4,0.34c-0.09,0.34-0.49,0.71,0.25,0.9
		s2.13-1.61,1.98-2.01C279.98,196.06,276.96,195.38,277.63,196.8z"/>
	<path class="st20" d="M280.14,204.49c0,0,0.19,0.03,0.22,0.19c0.03,0.19,0.12,2.29,0.03,2.35c-0.09,0.06-0.56,0.03-0.59,0
		c-0.03-0.03-0.12-2.35-0.06-2.5C279.74,204.53,279.95,204.43,280.14,204.49z"/>
	<path class="st23" d="M276.06,206.9c0,0-0.25,0.19-0.31,0.4c-0.09,0.34-0.03,0.65,0.31,0.77c0.12,0.03,0.12-0.25,0.22-0.37
		c0.09-0.12,0.4-0.19,0.34-0.37c-0.06-0.19-0.22-0.56-0.22-0.56L276.06,206.9z"/>
	<path class="st23" d="M276.49,207.03c0,0,0.22,0.22,0.22,0.37c0.03,0.15,0.03,0.37,0.03,0.46c0,0.09-0.03,0.19-0.12,0.03
		c-0.09-0.15-0.15-0.37-0.22-0.37C276.34,207.49,276.49,207.03,276.49,207.03z"/>
	<path class="st24" d="M277.88,200.26c0,0-1.27,0.22-2.26,1.67c-0.99,1.45-1.33,2.35-1.17,2.87c0.19,0.53,1.08,2.13,1.27,2.35
		c0.15,0.19,0.59,0.19,0.9,0.06c0,0-0.56-2.41-0.34-2.66c0.09-0.12,1.36-1.17,1.54-0.65C278.16,204.71,277.88,200.26,277.88,200.26z
		"/>
	<path class="st20" d="M276.8,200.76c0,0,0.22-0.37,0.71-0.43c0.49-0.06,0.8,0.49,0.8,0.49l-0.37,0.15c0,0-0.25-0.43-0.46-0.43
		C277.2,200.51,276.99,200.6,276.8,200.76z"/>
	<g>
		<path class="st20" d="M277.6,202.52c0,0,0.53,0,1.17-0.03c1.14-0.03,2.75-0.09,2.81-0.15c0.06-0.12-0.03-1.61-0.43-1.7
			c-0.03,0-0.09-0.03-0.15-0.03c-0.65-0.06-2.6,0.06-3.06,0.19C277.48,200.94,277.6,202.52,277.6,202.52z"/>
		<path class="st21" d="M278.78,202.49c1.14-0.03,2.75-0.09,2.81-0.15c0.06-0.12-0.03-1.61-0.43-1.7c-0.03,0-0.09-0.03-0.15-0.03
			c-0.74,0.03-1.61,0.12-1.88,0.19C278.69,200.94,278.78,202.3,278.78,202.49z"/>
		<path class="st21" d="M277.6,202.52c0,0,3.95-0.4,4.67-0.15c0.68,0.22,0.68,4.91,0.46,5.22c-0.22,0.31-4.11,0.62-4.67,0.46
			C277.51,207.86,277.6,202.52,277.6,202.52z"/>
		<path class="st20" d="M278.78,202.39c0,0,0.56,0.06,0.59,0.43c0.06,0.4,0.4,5.1,0.09,5.22c-0.31,0.12-1.61,0.06-1.67,0
			c-0.06-0.06-0.34-5.25-0.15-5.56C277.6,202.52,278.25,202.33,278.78,202.39z"/>
		<g>
			<g>
				<path class="st20" d="M281.25,201.13c0,0,0.12,0.65-0.03,0.74c-0.15,0.09-0.56,0.12-0.65,0s-0.09-0.74-0.09-0.74H281.25z"/>
				<path class="st26" d="M281.25,201.13c0,0-0.06,0.28-0.37,0.28s-0.4-0.25-0.4-0.25S280.88,200.94,281.25,201.13z"/>
			</g>
			<path class="st24" d="M280.94,201.28c0-0.03-0.03-0.06-0.06-0.06s-0.06,0.03-0.06,0.06c0,0.03,0.03,0.06,0.06,0.06
				C280.91,201.34,280.94,201.31,280.94,201.28z"/>
		</g>
		<g>
			<g>
				<path class="st20" d="M280.08,201.19c0,0,0.15,0.65,0,0.74c-0.15,0.12-0.56,0.15-0.65,0.06c-0.09-0.12-0.12-0.74-0.12-0.74
					L280.08,201.19z"/>
				<path class="st26" d="M280.08,201.19c0,0-0.03,0.28-0.34,0.28c-0.31,0-0.43-0.22-0.43-0.22S279.7,201.03,280.08,201.19z"/>
			</g>
			<path class="st24" d="M279.77,201.37c0-0.03-0.03-0.06-0.06-0.06c-0.03,0-0.06,0.03-0.06,0.06s0.03,0.06,0.06,0.06
				C279.77,201.44,279.77,201.4,279.77,201.37z"/>
		</g>
		<g>
			<path class="st20" d="M282.33,202.89c0,0,0.19,0.62,0.06,0.77c-0.09,0.15-2.29,0.28-2.41,0.12c-0.15-0.12-0.15-0.83-0.15-0.83
				L282.33,202.89z"/>
			<path class="st26" d="M282.33,202.89c0,0-0.31,0.37-1.05,0.4c-0.74,0-1.45-0.31-1.45-0.31S281.59,202.64,282.33,202.89z"/>
			<circle class="st24" cx="281.34" cy="203.14" r="0.06"/>
		</g>
		<path class="st26" d="M280.45,204.46c0,0,1.79-0.06,1.92,0c0.09,0.06,0.15,2.56,0.06,2.69c-0.09,0.12-1.92,0.19-1.92,0.19
			L280.45,204.46z"/>
	</g>
</g>
</svg>
