<svg height="749.85" viewBox="0 0 1920 749.85" width="1920" xmlns="http://www.w3.org/2000/svg"><g fill="#fff"><g clip-rule="evenodd" fill-rule="evenodd"><path d="m712.71 545.013c-6.541-5.556-12.91-11.311-19.336-17.012-3.967-3.512-6.261-7.866-6.686-13.226-.215-2.638.401-4.688 2.498-6.48 5.448-4.676 10.69-9.594 16.156-14.243 5.637-4.803 9.782-10.5 11.471-17.775 2.74-11.851 2.272-23.654-1.078-35.305-2.195-7.628-7.296-12.552-14.904-14.928-6.718-2.094-13.583-3.512-20.57-3.989-20.813-1.434-41.665-.85-62.502-.366-3.326 0-6.646-.052-9.974.016-13.307.262-26.62.23-39.915 1.053-1.955.123-3.752.369-5.461 1.45-3.693 2.348-7.398 4.7-11.243 6.782-2.304 1.247-3.104 2.924-3.122 5.435-.096 8.927-.47 17.858-.477 26.793-.022 27.506.731 54.984 4.687 82.266 1.662 11.438 3.759 22.79 7.304 33.821.533 1.661.912 3.397 2.579 4.402 8.253 4.982 16.898 3.921 22.115-4.005 2.437-3.703 3.729-7.882 4.827-12.133 1.747-6.794 2.514-13.766 3.777-20.643 1.89-10.246 8.462-16.396 18.759-17.652 9.899-1.212 19.14.659 27.608 6.112 5.771 3.705 11.034 8.059 16.032 12.719 8.069 7.525 15.945 15.264 24.063 22.741 4.939 4.561 10.562 8.037 17.313 9.432 2.742.564 5.14.342 7.4-1.486 3.124-2.527 6.344-4.954 9.562-7.378 2.822-2.121 4.256-5.045 4.889-8.41 1.319-7.026-.035-13.132-5.772-17.991m-32.814-73.232c-1.45 3.524-4.078 6.063-6.993 8.349-6.745 5.27-14.507 8.321-22.775 10.157-10.306 2.292-20.797 2.473-31.837 2.793-6.946-.532-14.472-.397-21.946-1.367-2.16-.278-3.413-1.152-4.449-3-1.796-3.214-3.436-6.48-4.79-9.896-1.57-3.949-1.245-7.894.169-11.78 1.345-3.689 3.932-6.148 7.777-7.151 2.892-.747 5.83-1.021 8.832-.997 18.885.151 37.776.529 56.648.167 6.772-.127 12.286 1.844 17.488 5.63 3.054 2.217 3.359 3.504 1.876 7.095"/><path d="m1150.25 427.496c-6.712-7.914-14.829-10.318-23.708-2.785-.399.334-.791.703-1.24.963-4.027 2.298-5.056 5.918-4.829 10.28 1.311 25.033.707 50.09 1.142 75.139.052 3.361-1.253 5.653-3.957 7.906-1.095-.965-1.901-1.629-2.652-2.34-17.663-16.785-35.043-33.849-51.609-51.719-13.859-14.95-28.821-28.644-45.426-40.503-1.545-1.112-3.033-2.276-5.089-2.519-8.079-.95-15.822 2.868-19.952 10-2.318 4.005-3.425 8.391-4.162 12.92-2.447 14.992-1.982 30.076-.614 45.072 2.048 22.415 1.257 44.77-.018 67.161-.401 6.996-.749 13.992-.884 20.997-.093 4.918 1.792 6.976 6.607 7.866 1.371.254 2.787.352 4.183.37 6.837.115 13.657-.04 20.444-1.025 4.797-.707 4.821-.616 4.821-5.61 0-10.516-.07-21.028-.012-31.545.06-11.378-.352-22.784 1.27-34.111.808-5.626 1.422-11.323 4.126-16.297 4.998 4.811 9.938 9.261 14.548 14.032 21.801 22.562 45.265 43.431 67.294 65.767 2.944 2.992 6.136 5.773 9.712 8.025 3.608 2.271 7.443 3.659 11.813 3.854 10.172.445 17.773-4.259 24.256-11.474 1.371-1.522 1.855-3.218 1.839-5.268-.069-11.041-.036-22.077-.024-33.118.016-20.325.332-40.626 1.824-60.916.786-10.675.266-21.37-1.794-31.918-1.349-6.908-3.216-13.674-7.909-19.204"/><path d="m281.818 469.867c0-13.667-.075-27.335.057-40.992.035-2.964-1.062-4.485-3.779-5.367-9.066-2.926-25.117-2.13-33.357 9.141-3.228 4.422-5.952 9.086-8.159 14.052-5.756 12.971-10.738 26.225-14.727 39.852-1.576 5.371-3.367 10.687-5.356 15.915-2.003 5.26-4.678 10.175-8.744 14.219-7.479 7.421-21.724 10.143-31.24-.969-1.926-2.253-3.635-4.724-5.203-7.242-3.429-5.518-6.083-11.442-8.403-17.497-4.935-12.908-9.73-25.879-14.678-38.791-3.037-7.926-7.222-15.162-13.361-21.16-8.948-8.736-19.751-11.557-31.888-9.936-4.33.58-4.4.826-4.119 5.451.596 9.61 1.521 19.217 1.784 28.835.722 26.118.323 52.219-1.587 78.285-.534 7.356-.701 14.715-.185 22.073.474 6.837 1.635 13.568 4.857 19.757 3.556 6.841 10.049 8.335 16.21 3.79 1.851-1.363 3.358-3.079 4.723-4.919 2.86-3.866 4.475-8.307 5.634-12.912 3.096-12.276 4.636-24.799 5.269-37.4.197-3.882 2.691-5.069 5.203-6.44 2.252-1.228 3.384 1.14 4.696 2.316 6.098 5.467 10.289 12.356 14.115 19.475 5.23 9.726 9.939 19.697 14.17 29.896 1.761 4.235 3.948 8.2 7.3 11.434 8.963 8.661 22.705 6.972 29.098-3.635 1.262-2.092 2.343-4.303 3.449-6.488 7.433-14.688 14.617-29.495 22.918-43.725 1.316-2.26 2.719-4.489 4.237-6.633 1.029-1.46 2.417-2.517 4.396-2.461 3.252.095 4.808 1.716 4.89 5.419.202 9.459-.075 18.931 1.231 28.342 1.088 7.85 2.762 15.478 6.898 22.407 2.483 4.144 6.081 6.142 10.739 6.488 2.451.179 4.889 0 7.321-.469 4.772-.904 4.819-.85 4.571-5.598-.655-12.767-1.365-25.57-.704-38.35 1.149-22.041 2.356-44.078 1.724-66.163"/><path d="m1793.846 440.495c-13.941-12.769-30.307-19.836-48.556-20.118-3.657.203-6.46.342-9.251.536-1.047.068-2.096.223-3.127.409-22.302 4.144-41.707 14.072-57.972 29.812-18.744 18.14-28.821 39.886-25.486 66.504 2.417 19.29 10.111 36.322 25.446 48.59 28.253 22.61 60.125 27.063 93.336 13.671 32.194-12.975 51.288-37.106 53.08-72.779 1.323-26.35-7.948-48.739-27.47-66.625m-9.762 88.202c-4.054 5.093-8.88 9.427-13.623 13.845-1.251 1.164-2.646 1.514-4.251 1.692-5.925.656-11.871.866-17.83.767-10.727.234-21.356-.568-31.783-3.202-19.735-4.982-30.38-21.493-29.453-38.882.608-11.521 4.978-21.388 12.465-29.931 17.425-19.904 50.731-22.677 70.913-6.023 4.519 3.73 8.067 8.264 10.9 13.357 4.553 8.208 7.304 17.036 8.76 26.268 1.294 8.253-.923 15.601-6.098 22.109"/><path d="m1600.477 547.282c-3.552-15.431-9.416-30.031-16.082-44.325-11.45-24.56-25.375-47.567-43.487-67.861-4.676-5.232-9.616-10.214-15.858-13.635-7.535-4.14-14.743-3.75-21.549 1.625-1.512 1.192-2.956 2.467-4.36 3.78-6.789 6.363-11.255 14.281-14.749 22.759-5.868 14.227-11.253 28.668-17.379 42.784-10.669 24.554-22.461 48.608-34.149 72.699-4.342 8.959.646 20.381 10.02 23.587 2.235.763 3.423.52 4.507-1.768 7.004-14.763 18.931-23.905 33.924-29.558 8.609-3.258 17.546-4.851 26.628-5.653 21.151-1.847 39.959 3.099 54.857 19.268 2.598 2.817 5.612 5.276 8.556 7.759 2.682 2.273 5.683 4.08 9.003 5.304 5.852 2.157 10.959 1.188 15.343-3.421 5.179-5.443 6.859-12.038 6.579-19.026.063-5.054-.738-9.698-1.804-14.318m-66.538-37.143c-.91 2.324-2.155 3.866-5.012 3.556-2.072-.227-4.185-.048-6.279-.048-5.578-.246-11.112-1.001-16.73-.794-6.396.238-9.33-4.11-6.994-9.936 2.217-5.534 3.417-11.35 5.121-17.016.397-1.343.737-2.698 1.188-4.017 1.832-5.411 6.72-7.66 11.942-5.433.733.308 1.335 1.098 1.808 1.794 5.085 7.521 10.171 15.037 14.002 23.305 1.264 2.725 2.14 5.53.954 8.589"/><path d="m922.605 512.301c-11.885-27.679-26.846-53.495-46.764-76.243-4.627-5.288-9.553-10.278-15.622-13.957-8.297-5.026-15.764-4.537-23.303 1.482-1.369 1.088-2.642 2.296-3.919 3.496-6.654 6.249-11.034 14.012-14.467 22.32-4.95 11.962-9.501 24.083-14.509 36.03-11.312 26.952-24.338 53.117-37.008 79.449-4.365 9.066.309 20.274 9.692 23.726 2.498.916 3.686.533 4.854-1.943 6.289-13.321 16.915-22.069 30.176-27.878 10.229-4.485 21.069-6.345 32.117-7.187 20.925-1.593 39.112 4.148 53.589 19.936 2.961 3.238 6.26 6.13 9.879 8.633 2.45 1.692 4.969 3.252 7.854 4.164 5.309 1.665 9.943.807 14.017-3.178 5.547-5.419 7.384-12.113 7.156-19.606-.07-2.797-.21-5.578-.671-8.363-2.355-14.271-7.402-27.683-13.071-40.881m-54.471-2.662c-1.131 3.361-2.003 4.024-5.677 3.985-1.918-.028-3.847-.008-5.767-.008-5.576-.151-11.106-.945-16.725-.759-6.997.25-9.607-5.339-6.877-10.476 2.213-4.172 2.923-8.927 4.167-13.46.786-2.861 1.489-5.753 2.504-8.526 1.273-3.472 2.699-4.156 6.314-4.311 3.965-.171 6.715.973 8.869 4.704 3.925 6.794 8.587 13.15 11.885 20.309 1.247 2.702 2.353 5.443 1.307 8.542"/><path d="m499.415 554.572c-.732-4.136-1.531-8.273-2.677-12.304-8.098-28.736-21.236-55.125-37.497-80.037-7.581-11.609-15.974-22.609-25.851-32.399-3.746-3.711-7.77-7.056-12.624-9.301-6.244-2.88-12.263-2.451-17.958 1.315-2.171 1.442-4.144 3.226-6.066 5.002-7.503 6.964-12.037 15.856-15.846 25.128-5.519 13.44-10.525 27.091-16.311 40.4-10.679 24.556-22.487 48.592-34.141 72.695-4.385 9.074.446 20.258 9.928 23.575 2.141.747 3.404.763 4.534-1.653 6.127-13.166 16.463-21.964 29.511-27.854 10.026-4.521 20.658-6.567 31.52-7.477 20.764-1.736 39.265 3.174 54.004 18.863 2.393 2.557 5.02 4.891 7.667 7.183 2.925 2.527 6.108 4.724 9.725 6.162 6.426 2.57 11.478 1.426 16.206-3.586 5.034-5.33 6.566-11.809 6.316-18.903-.13-2.276-.043-4.588-.44-6.809m-73.748-40.944c-3.667-.06-7.329-.012-10.99-.012-3.478-.862-6.965-1.021-10.46-.735-6.556.524-10.871-4.541-7.573-10.767 2.616-4.942 3.271-10.643 4.876-15.983.351-1.168.655-2.352 1.029-3.512 2.024-6.214 5.93-8.232 11.957-6.233 1.1.358 1.65 1.228 2.223 2.09 4.827 7.274 9.721 14.497 13.501 22.397 1.054 2.205 2.032 4.471 1.81 7.014-.346 4.028-2.384 5.804-6.373 5.741"/><path d="m1463.876 394.021c3.866 4.974 5.969 5.359 11.509 2.332 7.231-3.933 14.575-7.525 22.673-9.432 4.911-1.16 9.094-.413 13.446 2.272 9.078 5.61 19.08 8.601 31.568 8.85 7.93.475 15.655-4.241 23.458-9.112 8.963-5.602 11.311-14.103 11.553-23.792.079-2.973-1.18-5.05-3.884-6.213-2.974-1.283-3.937 1.259-5.355 2.911-4.458 5.221-9.245 10.06-15.421 13.274-5.957 3.099-11.957 3.661-18.011.179-3.331-1.924-6.744-3.692-10.079-5.61-4.547-2.608-8.971-5.464-13.822-7.49-4.974-2.077-10.004-2.927-15.21-.493-12.528 5.84-24.538 12.659-36.723 19.148-2.102 1.116-2.064 2.352-1.124 4.215 1.582 3.129 3.269 6.188 5.422 8.961"/><path d="m972.39 621.975c-1.222-.048-2.451-.087-3.673-.087-44.002-.012-88.013-.016-132.02-.024h-299.272v.028h-228.792c-67.677 0-135.351-.012-203.026.036-1.802 0-4.74-1.136-4.451 2.519.25 3.164 2.935 1.859 4.526 1.867 15.772.127 31.544.107 47.315.107 75.014.02 150.021.044 225.04.044 78.868 0 157.733-.032 236.603-.056 65.189-.016 130.373-.064 195.563-.056 52.575.004 105.153.064 157.729.087 1.573.008 3.158-.024 4.71-.25 1.4-.207 1.263-1.438 1.24-2.483-.024-.985-.392-1.696-1.492-1.732"/><path d="m1479.98 643.62c-.006-6.13-.046-12.264-.016-18.398.01-1.891.024-3.437-2.646-3.405-2.811.028-2.441 1.855-2.447 3.576-.012 3.683-.004 7.358-.004 11.041v30.289c-.316.092-.628.183-.938.278-.842-1.104-1.69-2.205-2.523-3.317-9.402-12.654-18.804-25.303-28.203-37.957-.729-.985-1.442-1.986-2.227-2.924-1.067-1.267-2.559-1.073-3.909-.81-1.734.338-1.182 1.903-1.194 3.004-.06 7.004-.047 14.016-.047 21.024 0 9.293-.012 18.579.042 27.866.012 2.61 1.16 3.421 3.482 2.861 2.082-.509 1.426-2.142 1.426-3.413.024-12.256-.028-24.516.004-36.773.008-1.438-.677-3.111.757-4.283 1.13.175 1.456 1.037 1.949 1.704 7.592 10.29 15.169 20.579 22.761 30.871 2.499 3.379 5.079 6.704 7.507 10.133 1.253 1.772 2.785 2.737 4.893 2.11 2.171-.647 1.319-2.614 1.323-4.036.056-9.815.022-19.632.01-29.441"/><path d="m1738.998 621.137c-15.202-.034-28.283 11.196-28.452 27.5-.177 17.505 11.651 29.443 28.581 29.614 16.241.163 28.295-12.05 28.348-28.064.603-15.983-11.797-29.018-28.477-29.05m-.478 52.215c-13.11-.187-22.9-10.401-22.776-23.766.133-14.084 10.236-24.389 23.672-24.139 13.589.235 23.636 10.719 23.46 24.461-.17 13.663-10.527 23.627-24.356 23.444"/><path d="m1654.021 626.179c0-.707-.044-1.406 0-2.102.109-1.979-1.057-2.249-2.67-2.189-2.978.111-2.026 2.352-2.038 3.854-.057 13.817-.034 27.631-.034 41.449-.27.123-.538.246-.81.373-2.896-3.897-5.802-7.787-8.693-11.696-7.828-10.548-15.667-21.084-23.43-31.676-1.273-1.732-2.708-2.86-4.827-2.165-2.113.695-1.146 2.686-1.152 4.072-.088 12.085-.052 24.175-.052 36.264.004 4.03 0 8.057.016 12.089.004 1.057.036 2.173 1.51 2.221 1.009.032 2.302.421 2.781-.759.371-.914.264-2.046.264-3.083.018-12.447-.014-24.878.04-37.321.008-1.271-.59-2.733.86-4.118 1.095 1.464 2.113 2.823 3.125 4.197 9.694 13.079 19.401 26.154 29.046 39.278 1.275 1.734 2.733 2.89 4.837 2.191 2.062-.683 1.214-2.682 1.22-4.108.047-15.592.017-31.186.007-46.771"/><path d="m1109.412 655.01c1.196-.663 2.108-1.152 3.01-1.669 6.543-3.75 9.235-9.189 8.263-16.69-.906-7.056-5.395-12.03-12.536-13.833-2.38-.598-4.791-.993-7.266-.969-3.858.044-7.713-.02-11.567.008-4.577.036-4.623.063-4.626 4.613-.02 15.417-.006 30.839-.006 46.252 0 .699.04 1.398.006 2.102-.072 1.347.665 1.812 1.885 1.935 2.094.211 3.218-.278 3.146-2.801-.169-5.935-.06-11.867-.06-18.315 4.041 0 7.697.203 11.327-.068 2.521-.183 3.754.922 4.92 2.9 3.009 5.141 6.321 10.095 9.241 15.272 1.673 2.96 3.748 3.707 7.129 2.539-2.173-3.611-4.209-7.02-6.263-10.409-2.166-3.577-4.343-7.149-6.603-10.867m-4.716-3.846c-4.16.379-8.375.103-12.57.203-1.861.036-2.398-.858-2.364-2.566.072-3.317.024-6.639.024-9.964h.018c0-3.139.093-6.285-.036-9.432-.087-2.082.808-2.817 2.751-2.769 4.36.111 8.746-.33 13.079.477 6.742 1.251 10.663 5.939 10.417 12.368-.241 6.165-4.794 11.095-11.319 11.683"/><path d="m1287.207 622.818c-8.488-1.712-17.093-.687-25.643-.898-3.562-.089-3.633.072-3.651 3.858-.048 7.874-.016 15.745-.016 23.619 0 8.049.092 16.098-.053 24.147-.042 2.534.753 3.349 3.276 3.278 5.596-.163 11.195-.036 16.791-.056 3.498-.014 7.004.183 10.453-.628 12.922-3.071 21.114-14.171 20.609-27.321-.495-12.921-9.077-23.461-21.766-25.999m17.05 28.465c-.824 12.197-10.177 20.917-22.608 21.024-4.904.048-9.807-.008-14.706-.036-4.704-.02-4.475.214-4.465-4.696.006-6.13 0-12.26 0-18.394 0-6.48.048-12.959-.024-19.443-.022-2.01.264-3.425 2.751-3.361 6.637.187 13.307-.556 19.92.556 12.072 2.043 19.964 12.104 19.132 24.35"/><path d="m1162.447 652.499c2.924-1.812 5.043-4.33 6.144-7.616 3.405-10.166-1.933-19.705-12.395-22.149-7.286-1.696-14.648-.489-22.536-.933 0 17.969.01 35.136-.018 52.302 0 1.581.163 2.642 2.187 2.718 2.326.095 2.517-1.132 2.493-2.928-.058-4.906.129-9.825-.064-14.727-.111-2.817.95-3.703 3.635-3.524 2.614.175 5.274.222 7.878-.008 2.235-.207 3.498.504 4.614 2.467 2.958 5.169 6.152 10.202 9.277 15.273 2.282 3.713 2.294 3.701 7.151 2.68-4.265-7.024-8.502-14.008-12.794-21.074 1.695-.944 3.097-1.655 4.428-2.481m-8.774-1.375c-4.33.473-8.75.151-13.126.246-1.967.036-2.264-1.089-2.243-2.69.056-3.333.018-6.662.018-9.992-.004-2.98.081-5.959-.034-8.931-.082-2.193.662-3.238 2.974-3.154 4.195.143 8.409-.25 12.594.437 6.958 1.158 10.768 5.451 10.691 12.062-.07 6.444-4.207 11.301-10.874 12.022"/><path d="m1804.709 649.325c-3.55-1.43-7.318-2.312-10.977-3.472-3.158-1.005-6.428-1.768-9.245-3.627-4.94-3.27-5.224-9.64-.556-13.262 5.916-4.593 19.898-5.125 24.119 5.562.804 2.038 1.498 2.284 3.321 1.728 2.348-.711 1.681-2.201 1.172-3.695-2.406-7.08-9.587-11.704-18.16-11.732-3.74-.048-7.332.727-10.639 2.412-5.032 2.57-8.146 6.466-8.146 12.423 0 6.011 3.776 9.134 8.615 11.366 4.303 1.99 8.917 3.063 13.476 4.259 2.558.676 4.952 1.669 7.223 3.031 6.748 4.044 5.834 12.737.117 16.61-8.935 6.063-21.406 2.312-25.2-7.779-.526-1.408-.703-2.686-2.767-1.99-1.816.616-2.529 1.402-1.933 3.413 1.406 4.756 3.975 8.589 8.44 10.87 7.705 3.917 15.574 3.814 23.188-.048 4.797-2.439 7.666-6.533 7.847-12.169.211-6.416-2.974-11.116-9.895-13.9"/><path d="m1420.639 672.256c-8.228-.032-16.462-.068-24.689.042-2.386.034-3.518-.542-3.437-3.18.163-5.423.187-10.854.034-16.277-.073-2.654 1.055-3.274 3.431-3.214 5.073.119 10.153.028 15.236.028 1.396 0 2.801-.016 4.199-.004 1.675.004 2.024-1.033 1.961-2.423-.052-1.152-.368-2.07-1.756-2.09-1.053-.012-2.102-.012-3.155-.012-5.6 0-11.205-.068-16.807.036-2.179.04-3.178-.56-3.077-2.932.145-3.671.016-7.35.03-11.029.01-4.549.014-4.583 4.485-4.601 7.709-.032 15.411-.028 23.118.012 1.939.006 3.453-.165 3.276-2.773-.175-2.594-2.036-1.931-3.445-1.935-9.811-.056-19.61.016-29.421-.075-2.217-.016-3.117.651-3.071 2.976.111 5.598.016 11.207.012 16.809v35.172h8.051c8.405 0 16.815-.04 25.22.036 2.137.016 3.399-.473 3.049-2.92-.31-2.123-1.951-1.642-3.244-1.646"/><path d="m1537.567 664.37c-8.363 10.572-24.743 12.133-34.651 3.301-10.083-8.991-10.516-25.718-.914-35.291 9.213-9.189 25.494-8.589 34.389 1.267 2.966 3.278 2.966 3.278 7.163 1.283-6.297-11.362-19.709-16.624-32.949-12.928-12.775 3.576-20.855 15.55-20.053 29.721.729 12.944 10.041 23.781 22.196 25.836 14.116 2.391 26.533-3.635 31.28-15.169-3.776-1.425-3.776-1.425-6.461 1.98"/><path d="m1574.892 621.96c-2.324-.08-2.869 1.422-3.608 3.087-5.101 11.505-10.268 22.987-15.403 34.48-2.467 5.542-4.896 11.108-7.388 16.758 4.913.596 4.932.608 6.583-3.071 1.44-3.186 2.872-6.376 4.237-9.6.755-1.794 1.842-2.688 3.943-2.656 7.707.107 15.417.083 23.116.016 1.851-.012 2.869.703 3.56 2.396 1.317 3.242 2.801 6.412 4.235 9.602 1.704 3.786 1.711 3.786 6.889 3.532-7.789-17.496-15.385-34.548-22.981-51.603-.631-1.428-1.094-2.866-3.183-2.941m-12.296 34.321c3.993-9.205 7.831-18.053 12.044-27.778 4.219 9.596 8.099 18.434 12.203 27.778z"/><path d="m1205.9 624.256c-.622-1.458-1.379-2.251-3.063-2.28-1.714-.032-2.563.792-3.097 2.245-.238.661-.548 1.283-.834 1.923-7.135 15.975-14.274 31.954-21.402 47.925-.34.771-.856 1.557-.157 2.419 3.083 1.037 4.845-.091 5.932-3.154 1.172-3.29 2.845-6.396 4.15-9.638.743-1.855 1.814-2.749 3.911-2.729 7.705.091 15.419.075 23.128.012 1.835-.016 2.912.675 3.603 2.364 1.333 3.24 2.791 6.424 4.225 9.61 1.635 3.627.866 4.291 6.841 3.429-5.749-12.86-11.301-25.291-16.847-37.726-2.143-4.794-4.332-9.569-6.39-14.4m-15.182 31.946c4.038-9.297 7.912-18.216 12.052-27.727 4.122 9.412 8.027 18.327 12.147 27.727z"/><path d="m1071.28 672.339c-1.226-.052-2.451-.08-3.675-.084-7.531-.008-15.063-.127-22.59.044-2.827.064-3.641-.973-3.564-3.631.141-5.073-.012-10.151.07-15.232.056-3.671.135-3.746 3.887-3.786 6.126-.064 12.254-.032 18.386-.024 1.498 0 2.775-.091 2.745-2.173-.028-1.915-1.063-2.324-2.68-2.312-4.378.034-8.762.095-13.134-.032-2.92-.087-6.611 1.279-8.554-.731-1.933-2-.604-5.673-.628-8.605-.018-2.777-1.142-6.15.493-8.188 1.935-2.408 5.558-.894 8.427-.969 6.48-.173 12.961-.002 19.441-.107 2.334-.036 3.16-1.359 2.557-3.325-.526-1.728-1.903-1.247-3.019-1.255-9.457-.04-18.913-.052-28.37-.032-4.318.012-4.36.058-4.38 4.219-.028 7.701-.01 15.395-.01 23.09h.048c0 7.699-.03 15.399.006 23.098.018 4.378.062 4.426 4.148 4.434 9.283.032 18.559.012 27.846.008.87 0 1.746-.016 2.622-.072 1.398-.087 1.579-1.041 1.567-2.193-.012-1.164-.25-2.086-1.639-2.142"/><path d="m1354.386 672.292c-1.047-.024-2.1-.036-3.149-.036-7.356.004-14.714.036-22.061.016-4.471-.012-4.497-.036-4.519-4.676-.03-4.374-.03-8.752.006-13.126.028-4.787.052-4.815 4.986-4.831 5.776-.032 11.557-.052 17.333.012 2.022.02 2.88-.723 2.646-2.785-.193-1.772-1.416-1.72-2.658-1.72-5.949-.008-11.909.024-17.86-.018-4.388-.026-4.414-.058-4.453-4.189-.034-3.321-.034-6.651-.006-9.972.04-4.33.064-4.4 4.342-4.418 7.878-.048 15.762 0 23.636-.012 1.589 0 3.202.195 3.22-2.261.012-2.348-1.418-2.396-3.109-2.388-9.809.016-19.616.083-29.419-.048-2.533-.028-3.333.779-3.293 3.297.129 8.049.048 16.106.048 24.159 0 8.061.081 16.114-.054 24.171-.034 2.459.632 3.397 3.226 3.329 6.645-.155 13.301-.048 19.961-.048 3.673 0 7.348-.02 11.029-.02 1.271 0 1.903-.576 1.903-1.887-.007-1.278.025-2.522-1.755-2.549"/><path d="m1024.037 621.88c-11.899-.036-23.803-.016-35.704-.032-1.623 0-3.178-.167-3.196 2.265-.02 2.26 1.216 2.519 3.019 2.499 4.201-.056 8.405.095 12.598-.026 2.326-.065 3.139.916 2.974 3.101-.093 1.216-.016 2.447-.016 3.677v39.897c0 1.724-.415 3.524 2.398 3.588 2.706.051 2.604-1.49 2.594-3.369-.05-7.175-.018-14.352-.018-21.525 0-7.35.087-14.708-.048-22.053-.048-2.527.791-3.397 3.307-3.315 4.366.145 8.746.105 13.12-.014 2.066-.056 3.015-1.859 2.171-3.611-.714-1.479-2.061-1.082-3.199-1.082"/><path d="m1702.831 621.876c-12.254.028-24.508.012-36.757 0-1.474 0-2.749-.02-2.797 2.102-.052 2.233 1.134 2.594 2.938 2.578 3.85-.04 7.707-.056 11.557-.004 4.074.048 4.132.083 4.156 4.001.042 7 .01 14 .01 21.005h.018c0 6.996-.062 14 .054 21 .024 1.593-1.236 4.112 2.171 4.199 3.677.087 2.435-2.598 2.604-4.434.149-1.557.044-3.146.044-4.722.004-11.726.004-23.454.004-35.182-.004-6.5-.304-5.793 6.047-5.852 3.321-.032 6.645-.02 9.97-.004 1.633.004 2.634-.453 2.604-2.38-.024-1.906-.968-2.311-2.623-2.307"/><path d="m1382.355 558.366c-3.121-9.479-5.878-19.09-7.596-28.918-4.32-24.695-6.217-49.673-8.353-74.606-1.416-16.567-1.144-16.595-10.397-29.769-3.063-4.366-3.729-4.593-8.446-1.915-6.8 3.866-10.729 9.924-12.57 17.369-2.511 10.123-2.892 20.432-2.431 30.798.314 6.953-1.418 9.896-7.795 12.677-4.5 1.963-9.169 3.5-14.03 4.184-19.729 2.781-39.468 2.451-59.19-.052-6.792-.858-9.436-3.723-10.288-10.536-1.114-8.891-.948-17.838-.781-26.765 0-5.252-.01-10.508.006-15.768.024-7.878-1.627-10.298-8.941-13.408-4.076-1.732-7.995-1.529-11.366 1.263-8.758 7.262-14.676 15.883-13.055 28.1 1.057 7.977 2.171 15.987 2.459 24.02.429 12.228.834 24.461 1.192 36.693-.147 4.362-.272 8.724-.425 13.087-.37 10.29-1.798 20.548-3.151 30.766-2.078 15.653 5.502 26.694 16.726 35.998 4.314 3.576 9.338 3.838 14.556 1.617 9.37-3.985 11.484-7.084 11.454-17.175-.02-6.738-.008-13.472-.008-20.202-.167-8.812-.322-17.64.266-26.439.667-.93 1.504-1.74 2.628-2.344 4.392-2.362 9.779-2.443 14.819-3.051.177-.016.354-.004.526-.036 11.891-1.927 23.78-.532 35.641.294 8.206.576 16.352 1.903 24.546 2.562 2.995.234 3.738 1.617 3.949 4.191.421 5.232.852 10.476 1.575 15.669 1.297 9.38 3.083 18.676 7.256 27.286 2.298 4.748 5.026 9.269 8.971 12.848 3.667 3.329 6.867 3.317 10.866.389 2.002-1.47 3.629-3.305 5.127-5.244 4.829-6.234 9.644-12.495 15.287-18.021 1.849-1.812 1.7-3.345.973-5.562"/></g><path d="m353.309 156.421s-2.028 113.663-2.028 120.917c0 8.586-.225 11.929 2.252 13.12 1.524.73 4.922 1.1 9.567 1.131 3.81.024 5.37-3.577 5.619-4.831.596-2.988.412-6.383.573-11.088.194-5.765.075-111.138.751-116.385 0 0 1.351-3.336-.226-3.336s-13.132-.716-13.132-.716-4.279-.716-3.376 1.188"/><path clip-rule="evenodd" d="m1757.015 307.223c-7.491-4.443-15.675-7.265-23.843-10.12-9.638-3.376-19.282-6.69-28.227-11.739-14.366-8.108-39.758-24.718-24.024-107.111.876-4.594 1.108-7.453-3.143-8.456-20.16-4.736-148.555-10.71-177.269-7.162-16.175 1.993-15.168 10.174-15.54 14.418-1.287 14.768-10.914 80.256-74.475 117.807 0 0-19.586 9.634-25.681 11.88-6.098 2.244 2.25 5.453 16.058 2.564 11.182-2.339 114.287-8.68 198.087-8.954 31.997.47 63.981 1.574 95.939 3.626 19.52 1.263 39.029 2.925 58.365 6.143 2.491.417 5.073 1.302 7.66.314-.571-1.943-2.473-2.356-3.907-3.21" fill-rule="evenodd"/><path clip-rule="evenodd" d="m1760.923 310.433c.012.02.034.033.038.055l.141-.097c-.06.017-.118.013-.179.042" fill-rule="evenodd"/><path d="m422.868 89.725s-1.694-5.085-7.02-1.213c-3.591 2.614-36.783 16.338-60.482 25.081-11.456 4.229-14.928 5.58-26.915 8.22-2.347.516.988 3.855 9.908 3.505 8.726-.338 163.851.913 168.239.97 6.25.083 8.793-4.542-3.151-5.326-4.851-.321-57.334-6.781-80.579-31.237"/><path d="m337.016 222.947s.671-8.224-4.644-4.631c-5.311 3.586-95.763 64.674-184.228 71.956 0 0-8.173.905-6.025 2.376 2.145 1.468 44.18 2.535 58.607 1.196 14.427-1.341 37.903-2.603 55.674-1.254 14.997 1.141 60.996.809 75.554-.484 2.688-.237 7.606-3.985 6.22-10.966-.891-4.493-1.158-58.193-1.158-58.193"/><path d="m457.563 280.994c2.966-.429 8.849-1.554 9.969-9.729.514-20.024 1.587-75.104-.126-99.909-.728-10.537-6.755-15.931-12.154-15.931-4.387 0-52.79.272-70.736.377-4.125.025-8.092.041-8.713 7.919-.521 6.586-2.197 88.934-2.738 115.944l-.219 5.202s.051 2.734-.539 4.297c-.235.614-.445 1.389-.122 1.735.578.608 3.812 1.425 8.155 1.534 4.466.116 4.589-.134 6.592-.12 0 0 2.83.248 1.248-3.964-1.585-4.215-2.092-4.757-2.565-9.355-.031-.291-.077-.549-.138-.775.063-2.313.099-5.153.12-8.34-.043-.167-.062-.279-.062-.279s.027.116.062.275c.144-24.235-.869-69.532-.708-72.253.148-2.567-2.207-16.686 7.956-18.348 7.621-1.244 32.507-.794 45.289-.631 12.327.159 15.048 5.411 15.048 11.842 0 6.106 1.684 79.627 1.853 87.837.358 1.635 1.092 2.879 2.528 2.672"/><path d="m474.014 276.735c3.901-.533 11.688-1.518 12.385-9.361-.482-26.391-1.916-103.215-1.062-108.326.955-5.722.578-10.732 6.066-16.93 5.483-6.202 11.68-12.05 4.705-12.164-6.217-.103-149.773-1.196-153.587-1.429-3.816-.242-5.722 1.429 0 5.243 5.724 3.819 11.777 8.375 11.298 12.668-.473 4.297-1.186 4.297 7.153 4.53 8.353.238 22.425-.233 31.251-.233 6.566 0 43.392-.45 61.553-.316 6.241.045 17.06.054 17.294 16.985.236 16.932.716 82.857 0 95.023-.171 2.897-.396 6.078-.598 9.241.225 2.276.994 5.419 3.542 5.069"/><path d="m394.784 278.042c4.422 1.776 5.726-1.689 6.068-4.763.153-22.225.448-66.196.448-68.111 0-2.566-.894-7.69.354-7.69 1.244 0 32.747 0 33.996.363 1.241.366.708 2.201.885 4.943.155 2.397.718 63.583.86 79.301.625.788 1.384 1.267 2.315 1.141 3.305-.457 9.318-.154 11.647-6.151-.068-1.092-.14-2.219-.232-3.415-1.004-13.155-1.064-70.698-1.064-72.886 0-5.497-.293-17.286-13.704-16.302-6.92.509-34.71-.183-40.226 0-5.523.183-9.068 6.774-8.173 14.105.653 5.386.057 50.946-.305 74.701 1.262 1.517 3.418 3.275 7.131 4.764"/><path d="m501.485 267.458c10.256-3.001 44.903-20.361 44.903-20.361s5.404-3.094.476-6.657c-34.176-11.946-52.926-20.645-52.926-20.645s-2.907-2.902-2.665 14.289c.087 6.106.266 14.596.58 23.15.352 4.33 2.014 12.454 9.632 10.224"/><path clip-rule="evenodd" d="m984.37 264.073c-110.265 1.242-209.85 24.481-231.536 44.762-21.679 20.288 85.933 39.94 158.089 41.274 156.569 2.893 296.64-27.243 297.981-42.67 1.41-16.163-141.412-44.307-224.534-43.366" fill-rule="evenodd"/><path clip-rule="evenodd" d="m763.199 266.445s196.702-90.242 240.279-106.445c40.243-14.959 62.837-28.943 96.775-12.746 22.359 10.671 133.025 94.044 220.106 124.047 89.745 30.916 52.694 31.242 13.251 27.544-24.242-2.272-229.456-54.549-305.743-55.749-171.233-2.702-244.396 28.392-255.026 30.294-15.038 2.697-17.742-1.931-9.642-6.945" fill-rule="evenodd"/><path clip-rule="evenodd" d="m896.913 172.356s-59.282-57.192-142.29-23.634c-83.007 33.554-287.434 188.53-363.379 132.9 0 0 56.219 110.443 254.32 17.218 61.065-28.731 178.587-106.877 251.349-126.484" fill-rule="evenodd"/><path d="m437.891 264.8s-.382-1.514-.836-4.163c-.254-1.327-.486-2.936-.755-4.779-.303-1.849-.482-3.93-.765-6.202-.248-2.275-.412-4.736-.646-7.344-.189-2.601-.332-5.352-.443-8.191-.212-5.681-.244-11.747-.083-17.81.022-1.518.109-3.035.162-4.544l.114-2.305.073-1.167.024-.93c-.022-2.459-.659-4.343-2.113-5.415-.739-.553-1.707-.951-2.797-1.17-.537-.117-1.107-.185-1.683-.226-.661-.055-1.314-.112-1.96-.167-2.602-.258-5.063-.504-7.336-.73-2.277-.324-4.366-.617-6.217-.879-1.837-.317-3.438-.592-4.758-.821-2.626-.495-4.128-.824-4.128-.824s1.526-.167 4.194-.368c2.653-.163 6.438-.395 10.982-.671 2.276-.132 4.739-.271 7.348-.421 2.382-.145 6.081-.32 9.369 1.706 1.644 1.007 3.059 2.595 3.897 4.359.86 1.759 1.218 3.618 1.33 5.386.031.441.039.879.041 1.308l-.004 1.08.122 2.218c.059 1.509.152 3.022.183 4.542.19 6.062.181 12.125-.006 17.808-.099 2.846-.227 5.594-.407 8.202-.222 2.605-.375 5.068-.614 7.345-.275 2.277-.444 4.363-.737 6.211-.26 1.85-.486 3.459-.736 4.789-.438 2.656-.815 4.173-.815 4.173"/><path d="m502.693 113.419c-3.979-1.342-7.96-2.634-11.894-4.072-3.938-1.409-7.871-2.805-11.757-4.322-3.879-1.526-7.758-3.022-11.578-4.648-3.829-1.6-7.587-3.346-11.316-5.097-3.721-1.768-7.391-3.622-10.931-5.644-1.76-1.029-3.517-2.054-5.213-3.15-1.735-1.046-3.397-2.179-5.029-3.33-1.638-1.151-3.189-2.38-4.705-3.631l-2.187-1.951-1.572-1.572c-.08-.152-.154-.307-.239-.458-.263-.445-.57-.878-.924-1.303-.7-.842-1.733-1.665-2.964-2.164-1.234-.529-2.61-.65-3.742-.501-1.147.138-2.102.48-2.903.858-.825.377-1.481.806-2.115 1.246l-.588.377c-.243.161-.368.208-.555.32l-1.273.687-1.438.743c-3.899 1.976-7.953 3.88-11.985 5.769l-24.239 11.468-24.27 11.499c-4.031 1.951-8.086 3.853-12.15 5.736-2.026.958-4.064 1.875-6.114 2.772-2.055.892-4.097 1.801-6.269 2.385 2.265-.072 4.485-.639 6.696-1.109 2.188-.546 4.375-1.122 6.545-1.738 2.181-.596 4.322-1.288 6.477-1.956l6.436-2.062 12.744-4.453c4.218-1.554 8.417-3.163 12.613-4.776 2.094-.818 4.205-1.597 6.279-2.463l6.237-2.563c4.15-1.726 8.307-3.444 12.434-5.252 4.117-1.847 8.21-3.69 12.337-5.699l1.56-.779c.537-.279 1.007-.501 1.695-.892.297-.167.677-.371.903-.521l.828-.522c.248-.159.478-.303.668-.39l.683 1.137 2.449 2.38 2.551 2.205c1.741 1.397 3.506 2.747 5.323 3.989 1.817 1.239 3.652 2.443 5.531 3.539 1.873 1.121 3.8 2.114 5.716 3.119 3.847 1.97 7.766 3.731 11.712 5.388 1.97.842 3.971 1.597 5.974 2.331 2.008.72 4.014 1.446 6.035 2.11 4.034 1.351 8.082 2.638 12.189 3.714 4.099 1.097 8.196 2.167 12.335 3.06 4.144.878 8.281 1.745 12.461 2.4 2.09.334 4.178.656 6.273.93 2.104.235 4.2.529 6.318.58-4.073-1.09-8.06-2.432-12.052-3.724"/><path d="m911.327 169.285s-1.51-1.692-4.585-4.54c-3.08-2.854-7.746-6.885-14.19-11.345-6.44-4.428-14.685-9.334-24.924-13.21-10.197-3.848-22.538-6.578-36.056-5.823-1.689.051-3.381.301-5.097.446-1.709.197-3.42.521-5.159.779-3.428.664-6.883 1.298-10.423 2.065-7.065 1.475-14.346 3.191-21.68 5.51-7.339 2.3-14.732 5.101-22.121 8.331-7.351 3.301-14.792 6.837-22.178 10.75-14.829 7.727-29.795 16.323-44.915 25.197-15.124 8.874-30.314 18.136-45.682 27.061-30.749 17.843-62.217 34.49-92.624 48.121-30.381 13.626-59.761 24.272-85.799 29.819-13.004 2.781-25.154 4.266-35.93 4.319-10.779.071-20.137-1.409-27.472-3.735-3.676-1.159-6.81-2.579-9.479-3.909-2.624-1.422-4.766-2.785-6.428-3.997-.815-.623-1.538-1.172-2.162-1.648-.59-.517-1.086-.951-1.487-1.3-.795-.7-1.206-1.064-1.206-1.064-.269-.236-.677-.236-.942.014-.283.262-.299.708-.035.991l.01.008s.386.417 1.137 1.214c.378.403.85.904 1.409 1.496.6.555 1.294 1.198 2.079 1.926 3.204 2.83 8.371 6.745 15.964 9.809 7.552 3.03 17.329 5.482 28.625 6.081 11.282.654 24.042.053 37.607-2.197 13.563-2.209 28.087-5.441 42.98-10.142 7.461-2.304 15.056-4.856 22.75-7.62 7.697-2.758 15.5-5.718 23.293-9.037 15.621-6.556 31.51-13.834 47.408-21.682 15.795-8.04 31.604-16.611 47.228-25.473l11.677-6.706c3.839-2.272 7.726-4.652 11.48-6.952 7.542-4.594 15.054-9.165 22.507-13.702 7.447-4.526 14.888-8.873 22.206-13.184 7.278-4.369 14.489-8.62 21.629-12.572 7.125-4.038 14.196-7.636 21.151-11.009 6.946-3.329 13.763-6.339 20.583-8.81 6.792-2.502 13.686-4.464 20.448-6.196 3.432-.887 6.806-1.758 10.118-2.608 1.519-.325 3.022-.717 4.53-.996 1.513-.218 3.01-.551 4.509-.691 5.993-.731 11.875-.684 17.465-.06 5.602.551 10.937 1.634 15.878 3.064 4.951 1.413 9.493 3.193 13.649 5.002 4.17 1.792 7.921 3.702 11.246 5.565 6.615 3.781 11.682 7.16 14.997 9.637 3.338 2.467 4.974 3.942 4.974 3.942l.049.043c.26.236.658.24.928 0 .29-.256.316-.695.06-.982"/><path d="m1475.193 300.343c-.318-.641-.751-1.359-1.1-1.846-.288-.392-.594-.773-.912-1.139-.731-.837-1.109-1.137-1.649-1.617-.572-.492-.854-.671-1.309-1-.791-.545-1.45-.926-2.06-1.252-.616-.328-1.168-.586-1.716-.832l-.824-.342-1.015-.38c-.725-.266-1.541-.474-2.348-.561l-.31-.035c-13.52-1.497-26.98-3.696-40.396-6.324-13.396-2.742-26.696-6.106-39.891-9.92-13.196-3.814-26.233-8.269-39.164-13.045-12.928-4.782-25.708-10.031-38.326-15.673-12.628-5.624-25.085-11.655-37.444-17.896-12.344-6.273-24.525-12.892-36.522-19.826-11.994-6.928-23.817-14.194-35.319-21.809-2.851-1.905-5.749-3.856-8.466-5.766l-1.386-.974-1.136-.734-2.253-1.442-4.503-2.848c-6.009-3.771-12.052-7.469-18.146-11.098-12.209-7.217-60.278-39.716-83.623-40.428-37.565-1.143-113.554 22.913-344.757 138.555-9.196 4.599-18.571 8.75-27.763 13.081-18.394 8.606-36.677 16.607-54.587 23.687-17.85 7.236-35.309 13.655-52.112 18.815-16.795 5.165-32.841 9.512-47.881 12.251-15.021 2.706-28.947 4.522-41.35 4.744-12.393.346-23.233-.421-32.078-1.802-8.818-1.43-15.747-3.155-20.3-4.673-2.314-.655-4.074-1.403-5.266-1.8-1.19-.425-1.803-.646-1.803-.646l-.055-.021c-.34-.12-.718.035-.868.37-.161.352-.004.765.348.926 0 0 .592.264 1.739.789 1.166.493 2.811 1.355 5.126 2.226 4.546 1.904 11.348 4.298 20.273 6.372 8.934 1.981 19.98 3.672 32.719 3.998 12.736.437 27.128-.429 42.638-2.575 31.052-4.315 66.415-14.19 103.033-27.841 36.665-13.612 74.649-30.915 112.087-49.185 18.74-9.107 37.328-18.511 55.643-27.686 18.305-9.194 36.573-17.711 54.261-25.964 35.398-16.444 68.733-31.148 97.703-42.757 6.81-2.725 13.363-5.274 19.654-7.65.531-.2 1.059-.407 1.591-.6 3.065-1.154 6.061-2.263 8.988-3.322.469-.167.938-.334 1.406-.504 1.818-.651 3.603-1.287 5.363-1.904 9.531-3.305 19.141-6.36 28.837-9.086 3.369-.956 6.744-1.881 10.157-2.64l5.105-1.209c1.702-.386 3.429-.658 5.141-.992 1.718-.312 3.426-.671 5.151-.938l5.184-.633 2.592-.318 2.563-.012 2.481.266 2.529.476c6.738 1.496 13.267 4.093 19.667 6.869 6.392 2.826 12.664 5.944 18.861 9.203 12.391 6.535 24.497 13.622 36.447 20.955 5.973 3.668 11.903 7.415 17.788 11.221 2.914 1.914 5.931 3.814 8.72 5.797 2.854 2.073 5.743 4.076 8.639 6.069 11.615 7.933 23.49 15.467 35.559 22.67 24.139 14.409 49.039 27.548 74.616 39.232 12.785 5.856 25.748 11.314 38.894 16.311 13.146 4.989 26.424 9.657 39.906 13.692 13.478 4.023 27.097 7.607 40.863 10.551 13.722 2.855 27.566 5.126 41.498 6.731 1.029.384 2.241.984 2.745 1.545.018.01.01.014.022.027-.195.199-.727.449-1.212.649-2.249.781-4.851 1.176-7.401 1.485-5.145.596-10.371.858-15.594 1.037-10.48.297-20.901.365-31.403-.049-20.897-.798-41.763-3.081-62.559-5.716-41.588-5.396-82.973-12.479-124.124-20.636-20.571-4.098-41.087-8.508-61.446-13.502l-15.25-3.887c-5.091-1.275-10.163-2.605-15.319-3.706-5.135-1.172-10.272-2.323-15.438-3.29-5.159-1.021-10.312-2.075-15.506-2.892-10.349-1.876-20.774-3.269-31.187-4.715-10.455-1.137-20.889-2.439-31.382-3.135-10.473-.983-20.985-1.321-31.485-1.837-5.248-.246-10.508-.185-15.764-.293-5.256-.028-10.512-.246-15.768-.041-10.508.271-21.025.324-31.513 1.129l-15.74.966-15.689 1.572c-20.927 2.042-41.703 5.415-62.333 9.448-5.19.86-10.279 2.197-15.401 3.368l-15.353 3.594c-1.277.307-2.564.582-3.832.92l-3.792 1.076-7.583 2.16-15.167 4.315c-5.058 1.428-10.056 3.125-14.99 5.01-4.914 1.929-9.809 4.018-14.3 7.01-2.203 1.517-4.426 3.236-5.842 5.823-.679 1.283-1.041 2.892-.718 4.414.32 1.514 1.141 2.797 2.081 3.847 1.925 2.081 4.264 3.511 6.63 4.754 2.378 1.237 4.835 2.263 7.321 3.179 9.969 3.614 20.272 5.908 30.584 7.958 10.326 2.009 20.716 3.626 31.124 5.057 20.823 2.838 41.736 4.906 62.673 6.581 20.937 1.651 41.905 2.888 62.892 3.694 10.493.396 20.994.687 31.496.803 10.504.101 21.013.097 31.527-.438.373-.016.667-.329.663-.703-.004-.388-.322-.696-.707-.692h-.032c-20.949.25-41.902-1.171-62.811-2.485-20.912-1.351-41.798-3.135-62.618-5.332-20.817-2.209-41.585-4.821-62.153-8.173-10.281-1.681-20.506-3.592-30.591-5.777-10.044-2.189-20.117-4.673-29.19-8.183-2.246-.883-4.406-1.849-6.306-2.897-1.397-.738-2.673-1.625-3.486-2.341.073-.068.142-.13.223-.202.564-.488 1.3-1.049 2.166-1.584 3.456-2.205 8.051-4.134 12.653-5.813 4.646-1.669 9.456-3.202 14.46-4.51l15.024-3.96 7.502-1.993 3.746-1.011c1.253-.318 2.525-.563 3.786-.848l15.163-3.325c5.063-1.083 10.083-2.325 15.205-3.101 20.36-3.677 40.837-6.71 61.442-8.421l15.444-1.333 15.486-.726c10.315-.625 20.651-.633 30.98-.792 5.163-.163 10.327.104 15.49.175 5.163.155 10.329.137 15.486.425 10.31.605 20.631 1.026 30.905 2.084 10.298.771 20.53 2.143 30.776 3.344 10.204 1.517 20.415 2.972 30.537 4.897 5.083.85 10.115 1.929 15.153 2.972 2.509.537 5.061 1.009 7.542 1.57l7.431 1.696c4.898 1.056 10.031 2.419 15.113 3.711l15.303 3.956c20.643 5.134 41.28 9.648 61.993 13.846 20.703 4.194 41.461 8.074 62.282 11.651 20.816 3.612 41.743 6.68 62.783 9.314 21.044 2.585 42.186 4.845 63.947 5.602l7.87.198 2.221.045h1.998l4.001-.004c5.344-.033 10.705-.112 16.13-.304 5.447-.208 10.886-.488 16.766-1.184l2.26-.305 2.394-.404c.896-.196 1.649-.316 2.66-.584l1.482-.407 1.752-.592c.747-.301 1.448-.6 2.31-1.047.546-.304 1.085-.633 1.603-.978.234-.155.509-.343.965-.722.401-.334.789-.688 1.158-1.058.427-.452.586-.551 1.198-1.368.51-.687.969-1.434 1.357-2.205.356-.676.745-1.656 1.013-2.848.256-1.12.379-2.317.344-3.385-.042-2.03-.81-4.456-1.408-5.485m-716.863-5.794c-.106-.159-.077-.186 0 0"/><path d="m1778.113 302.67c-1.124-1.676-2.384-3.281-3.758-4.784-1.397-1.477-2.886-2.872-4.432-4.198-3.101-2.638-6.39-5.052-9.795-7.211-6.813-4.322-13.909-7.921-20.73-11.609-3.413-1.842-6.792-3.631-10.018-5.557-3.22-1.929-6.311-3.946-9.187-6.052-2.869-2.117-5.487-4.402-7.68-6.873-2.169-2.492-4.078-5.031-5.411-7.824-1.357-2.772-2.257-5.724-2.686-8.851-.135-.811-.163-1.483-.254-2.188l-.119-1.463-.03-.358-.002-.017-.006-.179-.028-.701-.232-5.655c-.048-3.773-.141-7.55.004-11.333.056-3.781.296-7.565.532-11.347.302-3.777.62-7.56 1.019-11.333.417-3.776.91-7.541 1.48-11.296.596-3.746 1.239-7.494 2.01-11.196.739-3.664 1.633-7.492 2.543-10.83l-.123-.016c.33-.926.401-1.704.449-2.156.374-3.425-1.72-6.743-5.133-7.793-1.19-.364-2.394-.377-3.536-.155l-1.017-.222c-1.428-.325-2.777-.537-4.168-.803-2.757-.497-5.473-.893-8.198-1.285-5.433-.753-10.84-1.328-16.243-1.875-10.794-.958-21.569-1.746-32.331-2.134-21.521-.97-43.01-.891-64.464-.437-21.438.505-42.889 1.318-64.269 2.209l-16.031.596-4.009.147-2.004.071c-.669.017-1.524.073-2.259.184-3.029.441-5.963 1.57-8.458 3.354-2.499 1.78-4.489 4.156-5.929 6.716-1.474 2.567-2.41 5.322-3.089 8.074-.656 2.733-.975 5.627-1.22 8.287-.23 2.626-.516 5.248-.87 7.86-2.505 20.912-11.082 40.928-25.069 56.214-13.905 15.409-31.95 26.393-50.809 35.066l-7.129 3.189c-2.41.98-4.708 1.989-7.201 2.952l-3.742 1.438-1.875.724-1.619.575c-2.29.798-4.758 1.51-7.24 2.214-9.988 2.772-20.387 5.014-30.764 7.123-20.8 4.185-41.83 7.632-62.875 10.924-21.058 3.231-42.186 6.115-63.355 8.645-21.17 2.539-42.38 4.76-63.611 6.762-21.231 1.983-42.498 3.614-63.78 4.914-21.287 1.243-42.585 2.347-63.899 2.905-21.314.587-42.637.726-63.951.459-21.319-.246-42.621-1.155-63.887-2.565-21.267-1.45-42.483-3.629-63.583-6.694-21.098-3.109-42.037-7.16-62.691-12.713-.382-.099-.784.109-.908.493-.126.392.088.813.483.942l.01.004c10.161 3.294 20.52 6.225 30.914 8.847 10.405 2.625 20.919 4.788 31.458 6.823 21.092 4.007 42.388 6.815 63.736 9.07 21.36 2.143 42.788 3.576 64.228 4.449 21.443.942 42.907 1.157 64.36 1.037 21.457-.159 42.911-.655 64.338-1.684 21.428-1.008 42.839-2.359 64.223-4.055 21.388-1.662 42.74-3.747 64.054-6.186 21.318-2.412 42.601-5.178 63.84-8.295 21.251-3.1 42.424-6.719 63.55-11.021 10.572-2.183 21.092-4.467 31.707-7.443 2.666-.751 5.32-1.58 8.067-2.568l2.143-.813 1.842-.789 3.685-1.587c2.459-1.056 5.018-2.284 7.519-3.419 2.473-1.209 4.932-2.405 7.372-3.668 19.338-10.258 37.655-23.61 51.196-41.227 6.827-8.707 12.242-18.47 16.211-28.699 1.976-5.122 3.55-10.378 4.775-15.693 1.295-5.299 2.233-10.671 2.884-16.061.322-2.696.574-5.393.771-8.094.175-2.665.521-5.102 1.124-7.565 1.208-4.835 3.524-9.396 7.328-12.013 1.877-1.296 4.072-2.152 6.349-2.385.59-.062 1.075-.083 1.742-.079l2.006-.009 4.009-.014 16.044-.045c21.388.084 42.714.747 64.048 1.642 21.32.968 42.599 2.276 63.776 3.857l7.938.637 7.91.755c5.284.447 10.52 1.096 15.768 1.679 5.22.676 10.431 1.376 15.572 2.23 2.555.439 5.121.889 7.612 1.409.004.004.01.004.014.004-.364 1.455-.715 2.909-1.057 4.386-.92 3.946-1.7 7.902-2.431 11.871-.703 3.972-1.325 7.958-1.867 11.954l-.735 6.011-.531 6.035c-.268 4.031-.534 8.065-.61 12.113-.167 4.043-.087 8.1-.043 12.154l.228 6.085.03.759.056.918.111 1.462c.151 1.236.328 2.515.556 3.627.862 4.598 2.479 9.165 4.779 13.313 2.296 4.152 5.212 7.899 8.542 10.97 3.305 3.11 6.883 5.683 10.52 7.913 3.627 2.26 7.377 4.08 11.116 5.74 3.746 1.642 7.469 3.156 11.203 4.514l11.116 3.938c3.671 1.289 7.33 2.539 10.885 3.964 3.57 1.397 7.119 2.826 10.486 4.609 1.687.881 3.335 1.838 4.924 2.894 1.609 1.03 3.184 2.138 4.66 3.393.252.215.628.246.914.058.351-.237.443-.701.212-1.046"/><path d="m349.857 200.901c-.091-.396-.248-.909-.466-1.438-.165-.357-.349-.708-.557-1.037-.264-.413-.763-.98-1.223-1.368-.741-.563-1.506-1.008-2.559-1.2-1.082-.202-1.938-.084-2.749.145-.318.099-.631.222-.934.368-.279.136-.477.258-.708.407-.217.159-.378.268-.543.404-3.743 2.468-7.453 4.97-11.133 7.521l-5.573 3.893c-1.821 1.351-3.808 2.459-5.681 3.734l-11.379 7.481c-1.869 1.292-3.83 2.435-5.779 3.599l-5.856 3.489c-3.93 2.283-7.773 4.731-11.822 6.805l-12.046 6.424c-4.026 2.122-8.175 4.001-12.262 6.015l-6.155 2.972-6.253 2.762c-4.183 1.798-8.321 3.733-12.554 5.423l-12.715 5.065-12.853 4.715c-4.278 1.605-8.645 2.943-12.967 4.43-4.318 1.506-8.726 2.705-13.089 4.077-4.377 1.33-8.806 2.463-13.214 3.698-4.437 1.084-8.864 2.258-13.334 3.234-2.227.529-4.464 1.005-6.708 1.446l-3.279.643c-1.054.2-2.105.442-3.288.562l-.242.988c2.203-.146 4.874-.45 7.047-.775 2.282-.305 4.558-.648 6.824-1.042 4.554-.689 9.053-1.64 13.575-2.502 4.487-1.009 9.008-1.914 13.474-3.022 4.459-1.149 8.969-2.125 13.391-3.414 4.427-1.267 8.903-2.388 13.299-3.775 4.402-1.365 8.812-2.72 13.189-4.166l13.055-4.594c4.353-1.538 8.61-3.317 12.923-4.967l6.448-2.539 6.355-2.752c4.225-1.871 8.515-3.608 12.689-5.594l12.503-6.01c4.216-1.913 8.238-4.213 12.345-6.348 4.06-2.222 8.258-4.213 12.245-6.577l11.991-7.052c4.032-2.302 7.853-4.936 11.661-7.591 1.729-1.192 3.426-2.422 5.142-3.631-.01 3.06-.063 6.094-.012 9.188l.232 9.858c.095 3.28.117 6.568.359 9.837l.586 9.808.358 4.9c.132 1.631.214 3.261.386 4.899.798 6.543 1.579 13.063 2.633 19.521l1.015-.075c.555-6.553.839-13.055 1.139-19.529.063-1.618.22-3.247.323-4.872l.352-4.87.572-9.73 1.223-19.377c.14-3.218.415-6.491.616-9.734l.161-2.372c.073-.897.13-1.821.147-2.805-.02-1.051.022-1.981-.325-3.553"/><path d="m502.307 141.757c-.751-.571-1.807-.513-2.486.142l-.957.922c-.645.608-1.658 1.667-2.82 3.267-1.297 1.784-2.443 3.948-3.311 6.24-.427 1.117-.868 2.439-1.334 3.998-.434 1.312-.814 3.434-1.015 4.938-.52 3.257-.918 6.782-1.271 10.092-.295 2.589.039 30.72.371 56.887.075 5.807.13 9.92.13 10.809l.216 10.041c.034.809.061 1.609.083 2.398.073 2.258.142 4.388.362 6.298.291 2.717.683 5.006 1.172 6.82.681 2.428 1.574 3.971 2.836 4.768.488.266.94.488 1.487.488.771 0 1.499-.476 1.796-1.188.518-1.243-.37-2.139-.817-2.589-.004-.004-.384-.529-.576-2.518-.177-1.605-.214-3.648-.111-6.064.101-2.434.239-5.064.701-8.148.348-2.99 1.135-73.203 1.292-87.371l.01-.579c.022-1.284.035-2.059.242-3.352.162-1.343.327-2.539.542-3.664.411-2.05.972-3.96 1.607-5.493.462-1.05 1.135-2.543 1.683-3.446l.687-1.263c.454-.828.232-1.862-.519-2.433"/></g></svg>