<svg width="92" height="83" viewBox="0 0 92 83" fill="none" xmlns="http://www.w3.org/2000/svg">
<path d="M0 83L7.27967 48.7896V17.033C7.27967 7.65043 13.9318 0 22.09 0H77.1896C85.3479 0 92 7.65043 92 17.033V50.5217C92 59.9044 85.3479 67.5548 77.1896 67.5548H34.0136L0 83ZM22.09 3.75304C15.6889 3.75304 10.543 9.6713 10.543 17.033V49.367L4.76944 76.793L33.5116 63.6574H77.3151C83.7162 63.6574 88.8622 57.7391 88.8622 50.3774V17.033C88.8622 9.6713 83.7162 3.75304 77.3151 3.75304H22.09ZM49.8281 56.5844L48.9495 56.007C45.1842 53.553 41.7954 50.5217 38.6576 47.2017C36.3984 44.7478 34.5157 42.2939 33.0095 39.84C31.0014 36.3757 29.7462 32.9113 29.4952 29.5913C29.3697 27.8591 29.3697 26.2713 29.6207 24.8278C30.7503 18.6209 35.6453 14.1461 41.0423 14.1461C41.7954 14.1461 42.4229 14.2904 43.176 14.4348C45.8117 15.0122 48.0709 16.4557 49.8281 18.6209C51.5853 16.4557 53.719 15.0122 56.4802 14.4348C57.2333 14.2904 57.8608 14.1461 58.6139 14.1461C64.0109 14.1461 68.9059 18.6209 70.0355 24.8278C70.2865 26.2713 70.412 27.8591 70.161 29.5913C69.7844 33.0557 68.6548 36.3757 66.6467 39.84C65.1405 42.2939 63.3833 44.7478 60.9986 47.2017C57.8608 50.5217 54.472 53.4087 50.7067 56.007L49.8281 56.5844ZM41.1678 17.7548C37.2769 17.7548 33.7626 20.9304 33.0095 25.4052C32.7585 26.4157 32.7585 27.7148 32.884 29.0139C33.1351 31.9009 34.1392 34.6435 35.8963 37.6748C37.2769 39.9843 38.9086 42.1496 41.0423 44.4591C43.8035 47.3461 46.6903 49.9444 49.9536 52.2539C53.2169 49.9444 56.2292 47.3461 58.8649 44.4591C60.9986 42.1496 62.6303 39.9843 64.0109 37.6748C65.7681 34.6435 66.7722 31.9009 67.0232 29.0139C67.1487 27.7148 67.1487 26.56 66.8977 25.4052C66.0191 20.9304 62.6303 17.7548 58.7394 17.7548C58.2374 17.7548 57.7353 17.7548 57.2333 17.8991C54.723 18.4765 52.7149 19.92 51.4598 22.5183L50.0791 25.2609L48.6985 22.5183C47.3179 19.92 45.4352 18.3322 42.925 17.8991C42.1719 17.7548 41.6699 17.7548 41.1678 17.7548Z" fill="#C0513E"/>
<path d="M49.828 56.8736L48.8239 56.2962C45.0585 53.6979 41.5442 50.8109 38.5319 47.4908C36.1472 45.0369 34.39 42.583 32.8839 39.9847C30.7502 36.3759 29.6206 33.0559 29.2441 29.5915C29.1186 27.8593 29.1186 26.1271 29.3696 24.6836C30.6247 18.4766 35.5196 13.8574 41.0422 13.8574C41.7952 13.8574 42.5483 14.0018 43.1759 14.1461C45.8116 14.7235 48.0708 16.0227 49.7025 18.1879C51.4596 16.0227 53.5933 14.7235 56.2291 14.1461C56.9821 14.0018 57.7352 13.8574 58.4883 13.8574C64.0108 13.8574 68.9058 18.4766 70.1609 24.6836C70.4119 26.2715 70.5374 27.8593 70.2864 29.5915C69.9098 33.0559 68.7802 36.5203 66.6465 39.9847C65.1404 42.583 63.2577 44.8926 60.9985 47.4908C57.8607 50.8109 54.3464 53.8422 50.581 56.2962L49.828 56.8736ZM41.1677 18.0436C37.4023 18.0436 34.0135 21.2192 33.1349 25.5497C32.8839 26.5602 32.8839 27.715 33.0094 29.0141C33.2604 31.7568 34.2645 34.4994 36.0217 37.5307C37.4023 39.8403 39.034 42.0056 41.1677 44.3152C43.8034 47.2021 46.8157 49.6561 49.9535 51.9657C53.0913 49.6561 56.1036 47.2021 58.7393 44.3152C60.873 42.0056 62.5047 39.8403 63.8853 37.5307C65.6424 34.4994 66.6465 31.9011 66.8976 29.0141C67.0231 27.715 67.0231 26.5602 66.772 25.5497C65.8935 21.2192 62.6302 18.0436 58.7393 18.0436C58.2373 18.0436 57.7352 18.0436 57.2332 18.1879C54.7229 18.7653 52.8403 20.2088 51.5851 22.8071L49.9535 25.9828L48.3218 22.8071C47.0667 20.3531 45.184 18.7653 42.6738 18.1879C42.1718 18.0436 41.5442 18.0436 41.1677 18.0436Z" fill="#C0513E"/>
</svg>
