<svg width="17" height="18" viewBox="0 0 17 18" fill="none" xmlns="http://www.w3.org/2000/svg">
<g clip-path="url(#clip0)">
<path d="M16.2392 16.7197L11.3084 10.9723C12.1048 9.81612 12.5816 8.34803 12.5816 6.75C12.5816 3.02228 9.98872 0 6.79058 0C3.59243 0 0.999512 3.02228 0.999512 6.75C0.999512 10.4777 3.59243 13.5 6.79058 13.5C8.1541 13.5 9.40739 12.9503 10.3968 12.0312L15.3292 17.7803C15.5805 18.0732 15.9879 18.0732 16.2392 17.7803C16.4906 17.4874 16.4906 17.0126 16.2392 16.7197ZM2.28646 6.75C2.28646 3.8507 4.30322 1.50001 6.79061 1.50001C9.27799 1.50001 11.2948 3.8507 11.2948 6.75C11.2948 8.20385 10.7876 9.51971 9.96827 10.4704C9.96821 10.4705 9.96812 10.4706 9.96806 10.4707C9.96803 10.4707 9.96797 10.4708 9.96794 10.4709C9.15342 11.4158 8.03053 12 6.79064 12C4.30322 12 2.28646 9.6493 2.28646 6.75Z" fill="#6E6E6E"/>
</g>
<defs>
<clipPath id="clip0">
<rect width="15.4428" height="18" fill="white" transform="translate(0.992432)"/>
</clipPath>
</defs>
</svg>
