<svg width="320" height="215" viewBox="0 0 320 215" fill="none" xmlns="http://www.w3.org/2000/svg">
<path d="M320 0H160V215H320V0Z" fill="#FDD142"/>
<path d="M0 215H160V121.7L177.268 108.3L160 95.02V0H0V215Z" fill="#2C3037"/>
<path d="M56.2386 102.46C56.8902 102.36 57.8095 102.29 59.1127 102.29C60.4276 102.29 61.3586 102.51 61.9869 102.94C62.592 103.35 62.9876 104.02 62.9876 104.81C62.9876 105.6 62.6851 106.27 62.1266 106.73C61.4051 107.32 60.3229 107.58 59.0662 107.58C58.7869 107.58 58.5309 107.57 58.3447 107.54V110.43H56.2386V102.46V102.46ZM58.3447 106.13C58.5309 106.17 58.752 106.18 59.0546 106.18C60.1833 106.18 60.8815 105.69 60.8815 104.86C60.8815 104.12 60.2764 103.67 59.2175 103.67C58.7869 103.67 58.496 103.71 58.3331 103.74V106.13H58.3447Z" fill="white"/>
<path d="M70.6793 107.44C70.6793 109.59 68.9106 110.57 67.0836 110.57C65.0938 110.57 63.5578 109.44 63.5578 107.55C63.5578 105.66 65.0124 104.44 67.2 104.44C69.2829 104.44 70.6793 105.68 70.6793 107.44ZM65.7455 107.5C65.7455 108.51 66.2342 109.26 67.1418 109.26C67.968 109.26 68.4916 108.55 68.4916 107.5C68.4916 106.62 68.096 105.74 67.1418 105.74C66.1178 105.74 65.7455 106.64 65.7455 107.5Z" fill="white"/>
<path d="M71.9942 101.92H74.112V110.44H71.9942V101.92Z" fill="white"/>
<path d="M75.8342 110.44V104.57H77.9637V110.44H75.8342ZM79.1622 102.02L77.4633 103.84H75.9855L77.184 102.02H79.1622Z" fill="white"/>
<path d="M84.7825 110.29C84.4102 110.43 83.6887 110.55 82.8858 110.55C80.6865 110.55 79.2669 109.4 79.2669 107.55C79.2669 105.83 80.64 104.43 83.1767 104.43C83.7353 104.43 84.352 104.51 84.7942 104.66L84.4567 106.02C84.2007 105.92 83.8284 105.84 83.2698 105.84C82.1527 105.84 81.4313 106.52 81.4429 107.48C81.4429 108.56 82.2807 109.12 83.3164 109.12C83.8167 109.12 84.2124 109.05 84.5265 108.94L84.7825 110.29Z" fill="white"/>
<path d="M88.1455 102.94C88.1455 103.44 87.7033 103.85 87.0051 103.85C86.3302 103.85 85.888 103.44 85.8996 102.94C85.888 102.41 86.3302 102.02 87.0167 102.02C87.7033 102.02 88.1338 102.42 88.1455 102.94ZM85.9578 110.44V104.57H88.0756V110.44H85.9578Z" fill="white"/>
<path d="M93.6611 110.44L93.5331 109.85H93.4865C93.0444 110.32 92.3462 110.57 91.5316 110.57C90.1469 110.57 89.3207 109.71 89.3207 108.77C89.3207 107.25 90.9149 106.52 93.3236 106.53V106.45C93.3236 106.14 93.1258 105.7 92.0786 105.7C91.3804 105.7 90.6356 105.9 90.1935 106.14L89.7978 104.96C90.2749 104.73 91.2058 104.44 92.4509 104.44C94.7316 104.44 95.4531 105.59 95.4531 106.97V109.01C95.4531 109.57 95.4764 110.11 95.5462 110.44H93.6611V110.44ZM93.4167 107.67C92.2996 107.66 91.4386 107.89 91.4386 108.59C91.4386 109.06 91.7993 109.29 92.2764 109.29C92.8116 109.29 93.2422 108.99 93.3818 108.62C93.4051 108.52 93.4284 108.42 93.4284 108.31V107.67H93.4167Z" fill="white"/>
<path d="M207.756 84.46L219.404 73.04C220.881 74.02 225.559 76.85 232.39 76.9C239.779 76.96 244.806 73.73 246.191 72.77C247.889 73.78 253.231 76.68 260.701 76.37C266.833 76.12 271.185 73.84 272.966 72.77C276.887 76.66 280.797 80.56 284.719 84.45C283.497 85.18 280.017 87.48 278.377 91.74C276.433 96.79 292.352 120.07 283.892 132.23C282.182 134.7 278.807 138.09 273.978 140.4C266.601 143.93 261.12 142.4 253.533 146.46C250.007 148.35 247.622 150.59 246.179 152.17C245.004 150.82 242.979 148.8 239.942 146.99C232.913 142.81 227.724 144.15 220.323 141.02C218.159 140.11 211.514 137.29 208.361 131.71C204.66 125.14 207.36 117.48 210.607 108.26C213.562 99.86 216.576 96.27 214.598 91.4C213.213 87.99 210.129 85.79 207.756 84.46Z" stroke="black" stroke-width="2" stroke-miterlimit="10" stroke-linecap="round" stroke-linejoin="round"/>
<path d="M214.912 83.5801C216.681 81.8201 218.449 80.0701 220.23 78.3101C222.394 79.3301 226.223 80.8101 231.273 81.1201C238.464 81.5601 243.91 79.3701 246.191 78.3101C248.308 79.3601 252.66 81.2001 258.56 81.3801C265.565 81.6001 270.743 79.3601 272.873 78.3101C274.513 80.0701 276.143 81.8201 277.783 83.5801C276.049 84.8801 273.804 86.9901 272.78 89.9901C271.372 94.1101 272.954 97.8201 273.676 99.5701C278.551 111.47 283.089 122.53 278.912 130.13C276.817 133.93 272.337 137.26 267.729 138.73C262.307 140.46 257.443 139.34 250.321 142.62C248.471 143.47 247.063 144.33 246.214 144.88C244.457 143.98 241.734 142.68 238.243 141.45C230.563 138.74 226.863 139.49 221.894 137.15C220.8 136.64 215.226 134.01 212.899 129.16C210.618 124.41 213.388 116.88 219.031 102.02C220.579 97.9501 222.243 94.0001 220.358 89.7201C218.868 86.4301 216.25 84.4601 214.912 83.5801Z" stroke="black" stroke-width="2" stroke-miterlimit="10" stroke-linecap="round" stroke-linejoin="round"/>
<path d="M247.482 98.07L251.311 104.73C251.473 105.01 251.788 105.2 252.148 105.25L260.701 106.32C261.609 106.43 261.969 107.39 261.318 107.94L255.127 113.12C254.871 113.34 254.743 113.65 254.813 113.96L256.279 121.28C256.431 122.06 255.488 122.65 254.673 122.28L247.028 118.82C246.703 118.67 246.319 118.67 246.004 118.82L238.359 122.28C237.545 122.65 236.602 122.05 236.753 121.28L238.22 113.96C238.278 113.65 238.161 113.34 237.905 113.12L231.715 107.94C231.063 107.39 231.424 106.43 232.332 106.32L240.884 105.25C241.245 105.21 241.559 105.01 241.722 104.73L245.551 98.07C245.9 97.36 247.075 97.36 247.482 98.07Z" stroke="black" stroke-width="2" stroke-miterlimit="10" stroke-linecap="round" stroke-linejoin="round"/>
<path d="M246.295 131C259.078 131 269.44 122.095 269.44 111.11C269.44 100.125 259.078 91.22 246.295 91.22C233.513 91.22 223.151 100.125 223.151 111.11C223.151 122.095 233.513 131 246.295 131Z" stroke="black" stroke-width="2" stroke-miterlimit="10" stroke-linecap="round" stroke-linejoin="round"/>
</svg>
