<?xml version="1.0" encoding="utf-8"?>
<!-- Generator: Adobe Illustrator 25.0.0, SVG Export Plug-In . SVG Version: 6.00 Build 0)  -->
<svg version="1.1" id="Layer_1" xmlns="http://www.w3.org/2000/svg" xmlns:xlink="http://www.w3.org/1999/xlink" x="0px" y="0px"
	 viewBox="0 0 275 215" style="enable-background:new 0 0 275 215;" xml:space="preserve">
<style type="text/css">
	.st0{fill:#FDD142;}
	.st1{fill:#2C3037;}
	.st2{fill:none;}
	.st3{fill:#FFFFFF;}
	.st4{font-family:'MyriadPro-Bold';}
	.st5{font-size:12px;}
	.st6{fill:none;stroke:#000000;stroke-width:2;stroke-linecap:round;stroke-linejoin:round;stroke-miterlimit:10;}
</style>
<rect x="137.5" class="st0" width="137.5" height="215"/>
<polygon class="st1" points="0,215 137.5,215 137.5,121.7 152.34,108.3 137.5,95.02 137.5,0 0,0 "/>
<g>
	<rect x="19.47" y="73.69" class="st2" width="91.83" height="67.61"/>
	<text transform="matrix(1 0 0 1 37.7461 82.2133)"><tspan x="0" y="0" class="st3 st4 st5">Serviço de </tspan><tspan x="-7.15" y="14.4" class="st3 st4 st5">atendimento </tspan><tspan x="-13.69" y="28.8" class="st3 st4 st5">móvel urgência </tspan><tspan x="3.14" y="43.2" class="st3 st4 st5">(SAMU) e </tspan><tspan x="-1.36" y="57.6" class="st3 st4 st5">Bombeiros</tspan></text>
	<g>
		<path class="st6" d="M243.49,132.66c0.07,0,4.56,0,4.6,0c0.57,0,1.13-0.01,1.7,0c1.32,0.02,1.33,0.07,1.59,0
			c0.97-0.29,1.73-1.35,1.85-2.32c0.01-0.07,0-0.05,0-1.16c0,0,0,0,0-1.39c0-3.03,0-6.06,0-9.08c0-0.13,0-1.47,0-1.47
			c0-1.62,0-1.61,0-1.63c-0.08-1.73-1.03-3.6-2.05-4.04c-0.01,0,0,0-0.9-0.37c0,0-0.86-0.35-0.88-0.36
			c-0.1-0.04-6.88-2.81-6.97-2.85c-0.07-0.03-1.16-0.48-1.17-0.48c-1.09-0.44-1.08-0.44-1.09-0.45c-1.34-0.64-2.06-2.21-2.5-3.17
			c0-0.01,0-0.01-0.43-0.96c-0.16-0.36-0.32-0.72-0.48-1.07c0,0-3.16-7.01-3.21-7.12c-0.06-0.12-0.7-1.56-0.71-1.56
			c-0.54-1.21-0.54-1.2-0.55-1.21c-0.36-0.74-1.26-2.57-2.74-2.91c-0.1-0.02-0.06-0.01-1.53,0c-0.01,0,0,0-1.77,0
			c-0.01,0-49.89,0-50.12,0c-0.14,0-1.01,0-1.01,0c-0.94,0-0.94,0-0.95,0c-1.27,0.05-2.89,2.02-2.89,3.4c0,0.12,0.01,0.48,0.02,1.2
			c0,0.46,0,0.8,0,0.89c0,0.56,0,2.52,0,7.96c0,0.28,0,26.29,0,26.3c0,0.05,0,0.81,0,0.81c0,0.63,0,0.63,0,0.63
			c0.02,0.86,1.04,2.29,2.19,2.41c0.01,0,0,0,0.88,0c0,0,0.67,0,1.03,0c0,0,4.85,0,4.87,0"/>
		<line class="st6" x1="200.97" y1="132.66" x2="223.39" y2="132.66"/>
		<line class="st6" x1="171.28" y1="118.44" x2="228.18" y2="118.44"/>
		<line class="st6" x1="234.06" y1="118.44" x2="253.23" y2="118.44"/>
		<line class="st6" x1="208.78" y1="89.06" x2="208.78" y2="132.66"/>
		<polygon class="st6" points="213.96,107.23 213.96,94.31 228.18,94.31 233.05,107.23 		"/>
		<polygon class="st6" points="180.56,101.66 180.56,106.07 187.67,106.07 187.67,113.18 192.62,113.18 192.62,106.07 
			200.04,106.07 200.04,101.66 193.01,101.66 193.01,94.31 187.52,94.31 187.52,101.66 		"/>
		<line class="st6" x1="215.89" y1="74.77" x2="217.82" y2="77.86"/>
		<line class="st6" x1="229.69" y1="74.77" x2="227.76" y2="77.86"/>
		<line class="st6" x1="222.84" y1="73.11" x2="222.89" y2="76.76"/>
		<g>
			<circle class="st6" cx="190.3" cy="132.66" r="9.23"/>
			<circle class="st6" cx="190.3" cy="132.69" r="3.04"/>
		</g>
		<g>
			<circle class="st6" cx="233.6" cy="132.66" r="9.23"/>
			<circle class="st6" cx="233.6" cy="132.69" r="3.04"/>
		</g>
		<path class="st6" d="M219.74,89.05c-1.05-2.51,0.43-5.89,3-6.02c2.48-0.12,4.57,2.83,3.82,6.03"/>
	</g>
</g>
</svg>
