<svg width="208" height="104" viewBox="0 0 208 104" fill="none" xmlns="http://www.w3.org/2000/svg">
<path d="M206.78 63.1258C205.975 61.8434 203.438 61.166 201.126 61.6138C140.938 73.2545 119.895 68.1295 95.5224 62.1927C76.7442 57.6187 55.4648 52.4347 14.3 54.4306C11.858 54.5486 10.0495 55.7426 10.2656 57.0956C10.4787 58.4502 12.6602 59.4539 15.0756 59.3309C53.9729 57.4514 73.278 62.1484 91.9527 66.6961C106.152 70.1549 119.901 73.5054 140.766 73.5054C156.638 73.5037 176.626 71.5636 204.057 66.2582C206.366 65.8122 207.588 64.4083 206.78 63.1258Z" fill="#C4C4C4"/>
<path d="M182.151 79.6176C138.491 86.4236 121.249 82.6172 102.992 78.5943C92.2059 76.2163 81.0527 73.7563 64.4796 73.1413C62.0139 73.0543 59.9153 74.0761 59.7525 75.4307C59.5867 76.787 61.4397 77.9596 63.8847 78.0514C79.0635 78.614 89.5567 80.928 99.7066 83.1649C111.156 85.6889 122.839 88.2653 140.714 88.2653C152.229 88.2653 166.312 87.1961 184.555 84.3539C186.914 83.9849 188.29 82.627 187.627 81.3183C186.964 80.0129 184.511 79.2519 182.151 79.6176Z" fill="#C4C4C4"/>
<path d="M170.43 95.4731C135.02 101.725 110.508 97.0262 84.555 92.0554C61.1858 87.5798 37.0174 82.9468 4.54026 86.5515C2.13674 86.8172 0.576817 88.1128 1.05634 89.4461C1.53586 90.7778 3.86242 91.6536 6.28073 91.3764C36.4047 88.0456 58.3826 92.2489 81.6542 96.708C98.8814 100.008 116.493 103.381 137.415 103.38C148.287 103.38 160.056 102.468 173.124 100.164C175.46 99.7502 176.753 98.3661 176.01 97.0721C175.264 95.7765 172.772 95.0631 170.43 95.4731Z" fill="#C4C4C4"/>
<path d="M28.2966 41.6434C29.1758 41.6434 30.0667 41.4991 30.8422 41.1973L53.3323 32.4512L60.093 36.8267L45.2663 43.3244C43.3453 44.1674 43.0167 45.7139 44.5382 46.7799C45.4143 47.3933 46.7108 47.7131 48.0221 47.7131C48.987 47.7131 49.9579 47.5409 50.7749 47.1817L91.759 29.2221L112.287 39.6131L102.015 43.6081C100.009 44.3888 99.5231 45.9238 100.932 47.0341C101.796 47.7163 103.173 48.0804 104.57 48.0804C105.452 48.0804 106.343 47.9361 107.116 47.6343L129.606 38.8866L136.366 43.2637L121.54 49.7614C119.619 50.6044 119.29 52.1509 120.811 53.2153C121.688 53.8303 122.987 54.1501 124.298 54.1501C125.263 54.1501 126.234 53.9762 127.051 53.6187L168.127 35.6197L182.015 42.2305C183.877 43.1161 186.677 42.9964 188.276 41.9681C189.874 40.9382 189.661 39.3835 187.802 38.4995L171.134 30.5669C169.524 29.7993 167.159 29.7731 165.487 30.5029L143.337 40.2084L133.729 33.9879C132.24 33.0252 129.68 32.8465 127.803 33.5746L119.728 36.7152L94.9588 24.1774C93.3515 23.3656 90.9184 23.3181 89.2105 24.0643L67.0638 33.7698L57.4556 27.5509C55.9667 26.5866 53.4034 26.4078 51.5326 27.1376L25.7422 37.1695C23.7353 37.9501 23.2498 39.4835 24.6588 40.5955C25.5231 41.2793 26.8995 41.6434 28.2966 41.6434Z" fill="#C4C4C4"/>
<path d="M141.266 19.3738C150.596 19.3738 158.188 15.1689 158.188 9.99795C158.188 4.82703 150.599 0.62207 141.266 0.62207C131.933 0.62207 124.344 4.82703 124.344 9.99795C124.344 15.1689 131.936 19.3738 141.266 19.3738ZM141.266 5.54207C145.7 5.54207 149.308 7.54123 149.308 9.99795C149.308 12.4547 145.7 14.4538 141.266 14.4538C136.832 14.4538 133.224 12.4547 133.224 9.99795C133.224 7.54123 136.832 5.54207 141.266 5.54207Z" fill="#C4C4C4"/>
</svg>
