<?xml version="1.0" encoding="utf-8"?>
<!-- Generator: Adobe Illustrator 25.0.0, SVG Export Plug-In . SVG Version: 6.00 Build 0)  -->
<svg version="1.1" id="Layer_1" xmlns="http://www.w3.org/2000/svg" xmlns:xlink="http://www.w3.org/1999/xlink" x="0px" y="0px"
	 viewBox="0 0 350 250" style="enable-background:new 0 0 350 250;" xml:space="preserve">
<style type="text/css">
	.st0{fill:#F7E7BA;}
	.st1{clip-path:url(#SVGID_2_);}
	.st2{opacity:0.67;}
	.st3{fill:url(#SVGID_3_);}
	.st4{fill:#EEC994;}
	.st5{fill:none;stroke:#EFCA94;stroke-miterlimit:10;}
	.st6{opacity:0.67;fill:#EEC994;}
	.st7{fill:#F7BEBC;}
	.st8{fill:#222650;}
	.st9{opacity:0.3;}
	.st10{fill:#F18C86;}
	.st11{fill:#EB5D80;}
	.st12{fill:#343434;}
	.st13{fill:#F39794;}
	.st14{fill:#F39E9D;}
	.st15{opacity:0.2;}
	.st16{fill:#46B9B5;}
	.st17{opacity:0.6;}
	.st18{fill:#FDE4CC;}
	.st19{fill:#F9B449;}
	.st20{fill:#FFFFFF;}
	.st21{fill:#138DAC;}
	.st22{opacity:0.15;}
	.st23{fill:#D65762;}
	.st24{fill:#F5A740;}
	.st25{fill:#183657;}
	.st26{fill:#F5AFAD;}
	.st27{fill:#AFDBDA;}
	.st28{fill:#F6AA78;}
	.st29{fill:#F39253;}
	.st30{fill:#2A3A67;}
	.st31{fill:#EE7441;}
	.st32{fill:#EB5B29;}
	.st33{fill:#F49E64;}
	.st34{fill:#F4985F;}
	.st35{fill:#F28F38;}
	.st36{fill:#FAB318;}
	.st37{opacity:0.5;fill:#F39355;}
	.st38{fill:#F39355;}
	.st39{fill:#DCEAF9;}
	.st40{fill:#C3DCF4;}
	.st41{fill:#F8FBFE;}
	.st42{fill:#1A3760;}
	.st43{opacity:0.9;fill:#F8FCFF;}
</style>
<rect y="116" class="st0" width="350" height="134"/>
<image style="display:none;overflow:visible;opacity:0.5;" width="1920" height="1080" xlink:href="AABFC20E.jpg"  transform="matrix(0.2343 0 0 0.2343 -50 -1)">
</image>
<g>
	<defs>
		<rect id="SVGID_1_" x="0" y="0" width="350" height="250"/>
	</defs>
	<clipPath id="SVGID_2_">
		<use xlink:href="#SVGID_1_"  style="overflow:visible;"/>
	</clipPath>
	<g class="st1">
		<g class="st2">
			
				<radialGradient id="SVGID_3_" cx="183.7565" cy="166.3506" r="190.3795" gradientTransform="matrix(1 0 0 0.6 0 66.5402)" gradientUnits="userSpaceOnUse">
				<stop  offset="0.2821" style="stop-color:#6AC2BB"/>
				<stop  offset="0.3584" style="stop-color:#6AC2BB"/>
				<stop  offset="0.4836" style="stop-color:#6AC2BB"/>
				<stop  offset="0.5389" style="stop-color:#68C2C2"/>
				<stop  offset="0.6578" style="stop-color:#65C2CC"/>
				<stop  offset="0.7109" style="stop-color:#61C3D8"/>
				<stop  offset="0.7894" style="stop-color:#5DC3E2"/>
				<stop  offset="0.902" style="stop-color:#57C4EF"/>
				<stop  offset="1" style="stop-color:#FFFFFF"/>
			</radialGradient>
			<path class="st3" d="M336.4,209.5c-5.2,0-11.9-1.3-18.9-2.6c-1.2-0.2-2.5-0.5-3.7-0.7c-1.2-0.2-3.1-0.7-5.7-1.3
				c-12.2-2.9-40.8-9.6-68.4-9.6c-9,0-17.2,0.7-24.4,2.1c-6.9,1.3-13.5,3.1-19.8,4.8c-12.1,3.2-23.6,6.2-35.8,6.2
				c-8,0-15.6-1.3-23.2-4c-5.2-1.9-8.9-3.9-12.5-5.8c-5.3-2.8-10.3-5.5-19.7-7.3c-4.4-0.8-8.5-1.2-12.5-1.2c-3.7,0-7.1,0.3-10.3,0.7
				c-3.2,0.3-6.4,0.6-10,0.6c-4.8,0-9.5-0.6-14.6-1.8c-11.6-2.8-31.3-9.4-33.5-22.2c-0.7-3.8,0.4-7.2,1.5-10.4
				c1.3-3.9,2.3-7.3,0.4-11.1c-1.3-2.7-3.5-4.2-5.2-5.5c-1.7-1.2-3.4-2.5-2.7-4.5c0.8-2,3.5-2.3,6.3-2.3c1.6,0,3.4,0.1,5.6,0.2
				c2.1,0.1,4.6,0.2,7.1,0.3c0.7,0,1.3,0,1.9,0c0,0,0,0,0,0c6.5,0,10.7-0.6,15.6-1.4c2.8-0.4,5.8-0.9,9.5-1.3
				c3.9-0.4,7.2-0.6,10.3-0.6c4.6,0,8.2,0.4,12.2,0.9c5.5,0.7,11.8,1.4,23,1.4c0.6,0,1.3,0,2,0c23.3-0.2,35-0.3,45-4.3
				c1.2-0.5,2.4-1,3.6-1.5c4.7-2,9.5-4.1,15.4-4.1c1.2,0,2.5,0.1,3.7,0.3c7.6,1.1,12.5,5.2,16.2,8.3c0.7,0.6,1.4,1.2,2.1,1.7
				c6.3,4.8,14.6,7.2,25.5,7.2c11.3,0,22.9-2.6,32.3-4.7c6.4-1.4,11.4-2.5,14.8-2.5c1,0,4,0,5,2.3c1.8,4.3-5.9,11.1-12.1,14.2
				c-3.7,1.8-7.7,2.7-12.1,2.7c-4.1,0-8.1-0.7-12.3-1.5c-4.4-0.8-8.9-1.6-13.7-1.6c-4.5,0-8.7,0.7-12.9,2.3
				c-5.2,1.9-8.9,4.2-9.5,5.3c1.5,0.8,8.4,0.8,12.6,0.8l5,0c7.3,0,15.3,0.1,24.7,0.6c14.9,0.9,23.4,2.4,30.2,3.7
				c6,1.1,10.7,1.9,17.3,1.9c2.6,0,5.3-0.1,8.3-0.4c4.7-0.4,8.3-1,11.2-1.4c3-0.5,5.3-0.8,7.6-0.8c2.5,0,4.8,0.4,7.3,1.5
				c11.7,4.6,18.9,16.6,21.6,25.5c2.1,7.1,1.9,13.3-0.8,17.1C344.9,208.2,341.5,209.5,336.4,209.5z"/>
			<path class="st4" d="M174.6,124.7c1.1,0,2.3,0.1,3.5,0.3c8.6,1.3,13.6,6.6,17.5,9.6c7.3,5.6,16.7,7.5,26.4,7.5
				c18.9,0,39-7.2,47.1-7.2c1.9,0,3.2,0.4,3.6,1.4c1.2,2.8-4.8,9.1-11.4,12.3c-3.9,1.9-7.7,2.6-11.4,2.6c-8.2,0-16.4-3.2-26-3.2
				c-4.2,0-8.6,0.6-13.4,2.4c-4.4,1.6-10.9,4.8-10.5,7c0.3,1.9,5.4,2,14.2,2c1.6,0,3.2,0,5,0c6.7,0,15,0.1,24.6,0.6
				c27.8,1.7,33.2,5.6,47.6,5.6c2.5,0,5.3-0.1,8.5-0.4c9.5-0.8,14.3-2.2,18.7-2.2c2.2,0,4.3,0.4,6.7,1.4
				c16.8,6.7,26.4,31.3,20.2,40.3c-1.7,2.4-4.9,3.3-9.1,3.3c-5.9,0-13.9-1.7-22.4-3.3c-6.6-1.2-40.9-10.9-74.3-10.9
				c-8.4,0-16.8,0.6-24.7,2.1c-19.8,3.8-36.9,11-55.3,11c-7.3,0-14.7-1.1-22.7-3.9c-13-4.7-16.5-10.1-32.4-13.1
				c-5-0.9-9.1-1.2-12.8-1.2c-7.5,0-13.2,1.3-20.2,1.3c-4.1,0-8.6-0.4-14.3-1.8c-4.3-1-30-7.3-32.4-21c-1.4-7.9,5.6-14.2,1.8-21.9
				c-2.7-5.4-8.6-6.9-7.9-8.8c0.4-1.1,2.2-1.4,4.9-1.4c3.1,0,7.6,0.4,12.6,0.5c0.7,0,1.3,0,2,0c10.4,0,14.9-1.6,25.2-2.6
				c4.1-0.4,7.3-0.6,10.2-0.6c10.7,0,15.6,2.3,35.2,2.3c0.6,0,1.3,0,2,0c23.5-0.2,35.3-0.3,45.6-4.4
				C162.2,127.8,167.6,124.7,174.6,124.7 M174.6,121.7c-6.2,0-11.1,2.2-16,4.2c-1.2,0.5-2.4,1-3.5,1.5c-9.8,3.9-21.4,4-44.5,4.2
				c-0.7,0-1.3,0-2,0c-11.1,0-17.3-0.8-22.8-1.4c-4.1-0.5-7.7-0.9-12.4-0.9c-3.1,0-6.6,0.2-10.5,0.6c-3.8,0.4-6.9,0.9-9.6,1.3
				c-4.8,0.7-8.9,1.4-15.3,1.4c-0.6,0-1.2,0-1.9,0c-2.5,0-4.9-0.2-7.1-0.3c-2.2-0.1-4-0.2-5.6-0.2c-2.2,0-6.4,0-7.7,3.3
				c-1.2,3,1.5,4.9,3.2,6.2c1.6,1.2,3.6,2.7,4.8,5c1.6,3.1,0.8,5.8-0.5,9.9c-1,3.3-2.2,7-1.5,11.1c2.4,13.7,22.7,20.5,34.7,23.4
				c5.3,1.3,10.1,1.9,15,1.9c3.6,0,6.9-0.3,10.1-0.6c3.2-0.3,6.5-0.6,10.1-0.6c4,0,8,0.4,12.2,1.2c9.2,1.7,13.9,4.2,19.3,7.2
				c3.6,1.9,7.3,4,12.7,5.9c7.7,2.8,15.5,4.1,23.7,4.1c12.4,0,23.9-3,36.1-6.3c6.4-1.7,12.9-3.4,19.7-4.7c7.2-1.4,15.3-2.1,24.1-2.1
				c27.4,0,55.9,6.7,68,9.6c2.6,0.6,4.5,1.1,5.7,1.3c1.3,0.2,2.5,0.5,3.7,0.7c7.1,1.4,13.9,2.6,19.2,2.6c5.7,0,9.5-1.5,11.6-4.6
				c2.9-4.2,3.2-10.9,1-18.4c-2.8-9.2-10.3-21.6-22.5-26.4c-2.7-1.1-5.1-1.6-7.9-1.6c-2.4,0-4.8,0.4-7.9,0.8
				c-2.9,0.4-6.4,1-11.1,1.4c-3,0.3-5.7,0.4-8.2,0.4c-6.5,0-11.1-0.8-17-1.9c-6.9-1.3-15.5-2.8-30.4-3.7c-9.4-0.6-17.5-0.6-24.8-0.6
				l-2.7,0l-2.3,0c-2.6,0-6.5,0-9.1-0.2c1.5-0.9,3.8-2,6.5-3c4-1.5,8.1-2.2,12.4-2.2c4.7,0,9.1,0.8,13.4,1.6
				c4.3,0.8,8.3,1.6,12.6,1.6c4.6,0,8.8-0.9,12.7-2.9c6.8-3.3,15-10.8,12.8-16.1c-0.9-2.2-3-3.3-6.4-3.3c-3.6,0-8.7,1.1-15.1,2.6
				c-9.3,2.1-20.9,4.6-32,4.6c-10.5,0-18.5-2.3-24.5-6.9c-0.6-0.5-1.3-1-2-1.6c-3.7-3.1-8.9-7.4-16.9-8.6
				C177.2,121.8,175.9,121.7,174.6,121.7L174.6,121.7z"/>
		</g>
		<path class="st0" d="M350.4,123.8c-0.3-0.6-0.3-1.4,0-2c-0.1-0.4-0.1-0.8,0-1.2c-0.2-0.1-0.4-0.1-0.7-0.2
			c-2.4-0.5-4.8-1.1-7.3-1.5c-2.5-0.4-5.1-0.3-7.6-0.3c-0.6,0-1.1,0-1.6,0.1c-1.9-0.4-4-0.5-6-0.6c-2.1-0.1-4.1-0.1-6.2-0.2
			c-3.4-0.1-6.9,0-10.3,0c-0.5-0.2-1-0.4-1.7-0.5c-0.3-0.1-0.7-0.2-1-0.2c0,0,0,0,0,0c0,0-0.1,0-0.2,0c-0.7-0.2-1.4-0.4-2.1-0.6
			c-1.4-0.4-2.7-0.8-4.1-1.2c-1.6-0.5-3.3-0.9-4.9-1.3c-5.9-1.7-12-3.1-18.5-3c-0.3,0-0.5,0-0.8,0.1c-1.3-0.1-2.5-0.1-3.8-0.1
			c-1.4,0-2.8,0.4-3.7,1.1c-1.1,0.1-2.1,0.5-2.8,1c-0.7,0.2-1.4,0.4-2,0.7c-0.5,0.2-1,0.4-1.4,0.6c-0.1,0.1-1,0.3-1.1,0.4
			c-0.3,0.1-0.5,0.1-0.8,0.2c-0.8,0-1.5,0.1-2.4,0.4c-2.6,0.9-4.8,1.4-7.6,1.8c-1.7,0.3-3.2,0.8-4.7,1.3c-0.3,0.1-0.6,0.1-0.8,0.2
			c-1.6,0.1-3.3,0.1-4.9,0.2c-2.8,0.2-5.7,0.8-8.5,0.5c-1.1-0.1-2,0-2.9,0.2c-2.1-0.8-4.5-1.3-6.5-2.2c-2.7-1.3-4.8-1.6-8.2-1.2
			c-1.2,0-2.2,0.1-3.1,0.4c-1.1,0.2-2.2,0.4-3.3,0.7c-0.9,0.3-2.2,1-3.3,1.2c-0.3,0-0.6-0.1-0.9-0.1c-8.2-0.2-16.2-1.5-24.4-1.1
			c-1.7,0.1-2.9,0.6-3.7,1.2c-0.1,0-0.1,0-0.2,0c-5.2-0.1-10.4-0.1-15.6-0.2c-0.2-0.4-0.5-0.8-1-1.2c-5.4-4.1-11.4-10.7-20-12.4
			c-2.2-0.4-4.6-0.5-6.7,0c-1-0.1-2.1,0-3.2,0.5c-6.6,2.6-14,3-21.4,4c-0.7-0.3-1.5-0.4-2.4-0.5c-8.4-0.4-15.6-2.9-23-5
			c-6.6-1.8-12.2,0.4-16.1,3.7c-3.8,3.2-7,7.5-14.2,7.7c-3.5,0.1-9-0.2-12-1.4c-1-0.4-1.7-1.1-2.7-1.5c-1.4-0.5-3.6-0.8-4.1-2
			c-0.3-0.9-1.1-1.5-2-1.8c-0.2-1.9-3.7-4-7.6-2.9c-4.6,1.3-8.3,3.3-11.1,5.9c-1.4,1.3-2.5,2.7-4,4c-1.9,1.6-4.3,1.3-7.2,1.1
			c-0.7,0-1.4,0-1.9,0.1c0.6,3.9,0.6,7.8,0,11.8c0.1,0,0.2,0,0.4,0c0.2,0,0.4,0,0.7,0c48.6,0.2,97.2,0,145.7-0.6
			c2.5,0,4.1-1,4.6-2.2c0.4-0.1,0.8-0.1,1.1-0.2c-0.4,1.9,1.1-1.7,5.2-2.1c10.8-1.1,21.1-2.2,31.9-1.2c0.6,0.2,1.4,0.3,2.2,0.3
			c0.2,0,0.5,0,0.7,0c0.3,0,0.7,0.1,1,0.1c1.2,0.2,2.3,0.1,3.2-0.2c3.5,0,8.1,5.9,11.7,5.8c-2.1,1.8-0.9,5.1,3.8,5.1
			c5.3,0,11.1,0.5,16.1-0.9c2.2-0.6,2.9-2.5,2.1-3.8c2,0.1,4,0.3,6,0.6c3.2,0.4,5.5-1,6.1-2.6c1-0.2,2-0.4,3.1-0.6
			c0.9,0.7,2.2,1.1,3.6,1c5.6-0.4,11.2-0.6,16.8-0.8c0.9,0.6,2.1,1,3.5,0.9c2.9-0.2,5.7-0.4,8.6-0.6c0.8,1,2.4,1.8,4.5,1.8
			c8.7-0.1,17.4,0,26.1,0.1c0.5,1.5,2.4,2.4,4.9,2.5c2.4,0.1,4.9,0.3,7.3,0.5c0.6,0,1.1,0.1,1.7,0.1c0.2,0,1.2,0.1,1.4,0.1
			c1.1,0.1,2.3,0.2,3.4,0.3c4.9,0.5,10,1.5,15.1,1.5c2.6,0,5.1-1.4,5-3.1c-0.1-1.6-2.2-3.2-5-3.1c-0.6,0-1.3,0-1.9,0
			c-0.3,0-0.5,0-0.5,0c-0.2,0-0.4,0-0.5-0.1c-1.1-0.1-2.2-0.3-3.3-0.4c-1.6-0.2-3.1-0.4-4.7-0.6c0.1-0.2,0.1-0.4,0.1-0.6
			c0,0,0,0,0,0c0.6-0.1,1.2-0.2,1.8-0.4c0.1,0,0.1,0,0.2-0.1c0.4,0.1,0.8,0.1,1.3,0.1c1.9,0,4,0,5.9,0.3c2.2,0.4,4.3,0.9,6.4,1.3
			c1.3,0.3,2.4,0.2,3.3,0C350.3,125.5,350.3,124.7,350.4,123.8z"/>
		<g>
			<path class="st5" d="M-2.3,112.9C8,113,19,112,29,115c24-1,48,2,72,0c28-2,56,1,84,1c15,4,31,8,47,7c38-4,77-13,115-4"/>
			<path class="st5" d="M139,217.4c-9-4-13.5,1.6-16,0c-0.9-0.6-3.4-2.5-7-3c-0.7-0.1-2.2-0.3-4,0c-3.8,0.7-6.2,3.3-7,4
				c-5.5,5.2-19.4,2.9-25,2c-15.5-2.6-16.7-8.1-27-9c-6.3-0.6-15.3,0.6-27,9"/>
			<path class="st5" d="M201,231.4c9-4,13.5,1.6,16,0c0.9-0.6,3.4-2.5,7-3c0.7-0.1,2.2-0.3,4,0c3.8,0.7,6.2,3.3,7,4
				c5.5,5.2,19.4,2.9,25,2c15.5-2.6,16.7-8.1,27-9c6.3-0.6,15.3,0.6,27,9"/>
			<path class="st5" d="M177.5,119.5c8.7-4.7,26.4,2,28.7,0.1c0.9-0.7,3.2-2.7,6.7-3.6c0.7-0.2,2.2-0.5,4-0.3
				c3.8,0.4,6.5,2.8,7.3,3.4c5.9,4.8,19.6,1.4,25.1,0c15.2-3.8,16-9.4,26.2-11.1c6.2-1.1,22.7,4.1,35,11.5"/>
			<path class="st5" d="M10.5,122.5c6.6-15.2,16.7-18.9,19.2-18.1c2.8,0.8,3,5.4,8.4,10.3c4.1,3.7,8,4.7,9.6,5.1
				c1.6,0.4,5.4,1.3,9.6,0c7.5-2.3,9.3-10.4,14.4-15.4c12.1-11.8,24.2,11.8,48,5.1c8.9-2.5,13.1-7.5,21.6-5.1
				c7,1.9,17.8,16.7,21.1,21.1"/>
		</g>
		<path class="st6" d="M22.7,219c-0.1-0.3,0-0.7,0.4-0.8c0.6-0.1,1.2-0.2,1.7-0.4c0-0.2,0.1-0.5,0.4-0.6c0.3-0.1,0.6-0.2,0.9-0.2
			c0.3-0.1,0.5-0.3,0.8-0.5c0.2-0.6,0.7-0.9,1.4-1c0.9-0.6,1.9-1.1,2.9-1.6c1.1-0.5,2.2-0.9,3.3-1.3c0.8-0.6,1.7-1,2.6-1.2
			c0.3-0.2,0.6-0.3,0.8-0.5c1.3-0.7,2.7-1.3,4.1-0.7c0.1,0,0.1,0.1,0.2,0.1c2.9-1.2,5.9-1,9-0.5c0,0,0,0,0,0c0,0,0,0,0,0
			c0.1,0,0.1,0,0.2,0c0.3,0,0.4,0.2,0.4,0.4c0.8,0.1,1.5,0.3,2.3,0.5c1,0.1,2,0.3,3,0.5c0.4,0.1,0.5,0.5,0.4,0.8
			c1.2,0.5,2.4,1.1,3.6,1.6c1.1,0.5,2.2,1.1,3.1,1.9c1.3,0.4,2.6,0.8,4,1c0.2,0,0.3,0.1,0.4,0.3c2.4,0.7,4.9,1.4,7.4,1.8
			c0.3,0,0.4,0.3,0.4,0.5c1,0.2,2,0.3,3.1,0.4c0.3,0,0.7-0.1,1-0.1c0.2,0,0.4,0.1,0.5,0.2c1,0.1,2,0.1,3,0.2
			c0.1-0.1,0.3-0.3,0.5-0.2c1.3,0.1,2.6,0.3,4,0.5c0.2,0,0.3,0.2,0.4,0.4c3.2-0.2,6.4-0.5,9.5-1c0-0.1,0.1-0.2,0.2-0.3
			c0.4-0.3,0.8-0.5,1.2-0.8c-0.2-0.4,0-0.9,0.5-0.9c0.4,0,0.7-0.1,1.1-0.2c1-0.7,2.1-1.4,3.1-2.2c1.4-1,3.4-2.9,5.2-2.3
			c0.1,0,0.2,0.1,0.2,0.1c0.9-0.2,1.7-0.3,2.6-0.1c0.8,0.1,1.5,0.3,2.3,0.6c2,0.2,3.9,0.7,5.7,1.7c0.4,0.2,0.4,0.7,0.1,1
			c0.6,0,1.3-0.1,1.9-0.2c3.8-0.7,7.6-2.4,11.3-0.5c0.1,0,0.1,0.1,0.2,0.1c0,0,0,0,0,0c0.1-0.6,0.8-0.7,1.1-0.4c0.4-0.2,1-0.1,1,0.5
			c0,0.6,0.1,1.2,0.1,1.8c0,0.3-0.2,0.5-0.5,0.6c-3.6,1-7.3-0.9-10.9-0.1c-1.7,0.4-3.2,1-5,0.7c-1.7-0.2-3.2-1-4.7-1.5
			c-1.9-0.7-3.6-0.9-5.6-0.2c-1.7,0.6-3.2,1.6-4.8,2.5c-3.4,1.8-7,2.2-10.8,2.3c-4.2,0.2-8.5,0.3-12.7,0.4c-3.9,0.1-8,0.5-11.9-0.3
			c-3.7-0.7-6.7-3-10.1-4.6c-3.6-1.8-7.9-3.5-12-3.7c-4.6-0.2-7.9,3-11.9,4.7c-4,1.7-8.3,2.4-12.6,2C22.2,220.1,22.1,219.1,22.7,219
			z"/>
		<path class="st6" d="M164.9,233.1c-4.3,0.6-8.6-0.2-12.9-0.1c-2,0-3.9,0.2-5.8,0.8c-2.1,0.7-3.7,2.2-5.8,2.9
			c-4,1.3-8.2-0.9-12.2-0.8c-2.2,0.1-4.2,0.9-6.3,1.4c-2.6,0.6-5.2,0.7-7.8,0.3c-0.8-0.1-1.1,1.1-0.3,1.2c2.3,0.3,4.6,0.4,6.8,0
			c2.3-0.4,4.6-1.4,6.9-1.7c4.2-0.4,8.2,1.9,12.4,1c2.1-0.5,3.8-2,5.8-2.8c2-0.8,4.3-1,6.4-1c4.4,0,8.7,0.7,13.1,0.1
			C166,234.2,165.7,233,164.9,233.1z"/>
		<path class="st6" d="M103.2,119.6c-3.9-1.3-8-2-12.1-1.9c-4.2,0.1-8.2,1.1-12.2,2.4c-2.1,0.7-4.3,1.3-6.5,1.3
			c-2.2,0-4.1-1-6.2-1.3c-3.1-0.4-6.2,1.3-7.5,4.1c-0.3,0.7,0.7,1.4,1.1,0.6c0.7-1.6,2-2.8,3.7-3.3c1.9-0.6,3.6,0,5.4,0.5
			c3.7,1.1,7.3,0.1,10.8-1c3.7-1.2,7.4-2.1,11.4-2.2c4-0.1,8,0.6,11.8,1.8C103.6,121.1,104,119.9,103.2,119.6z"/>
		<path class="st6" d="M312.8,232.3c0.1-0.3,0-0.7-0.4-0.8c-0.6-0.1-1.2-0.2-1.7-0.4c0-0.2-0.1-0.5-0.4-0.6
			c-0.3-0.1-0.6-0.2-0.9-0.2c-0.3-0.1-0.5-0.3-0.8-0.5c-0.2-0.6-0.7-0.9-1.4-1c-0.9-0.6-1.9-1.1-2.9-1.6c-1.1-0.5-2.2-0.9-3.3-1.3
			c-0.8-0.6-1.7-1-2.6-1.2c-0.3-0.2-0.6-0.3-0.8-0.5c-1.3-0.7-2.7-1.3-4.1-0.7c-0.1,0-0.1,0.1-0.2,0.1c-2.9-1.2-5.9-1-9-0.5
			c0,0,0,0,0,0c0,0,0,0,0,0c-0.1,0-0.1,0-0.2,0c-0.3,0-0.4,0.2-0.4,0.4c-0.8,0.1-1.5,0.3-2.3,0.5c-1,0.1-2,0.3-3,0.5
			c-0.4,0.1-0.5,0.5-0.4,0.8c-1.2,0.5-2.4,1.1-3.6,1.6c-1.1,0.5-2.2,1.1-3.1,1.9c-1.3,0.4-2.6,0.8-4,1c-0.2,0-0.3,0.1-0.4,0.3
			c-2.4,0.7-4.9,1.4-7.4,1.8c-0.3,0-0.4,0.3-0.4,0.5c-1,0.2-2,0.3-3.1,0.4c-0.3,0-0.7-0.1-1-0.1c-0.2,0-0.4,0.1-0.5,0.2
			c-1,0.1-2,0.1-3,0.2c-0.1-0.1-0.3-0.3-0.5-0.2c-1.3,0.1-2.6,0.3-4,0.5c-0.2,0-0.3,0.2-0.4,0.4c-3.2-0.2-6.4-0.5-9.5-1
			c0-0.1-0.1-0.2-0.2-0.3c-0.4-0.3-0.8-0.5-1.2-0.8c0.2-0.4,0-0.9-0.5-0.9c-0.4,0-0.7-0.1-1.1-0.2c-1-0.7-2.1-1.4-3.1-2.2
			c-1.4-1-3.4-2.9-5.2-2.3c-0.1,0-0.2,0.1-0.2,0.1c-0.9-0.2-1.7-0.3-2.6-0.1c-0.8,0.1-1.5,0.3-2.3,0.6c-2,0.2-3.9,0.7-5.7,1.7
			c-0.4,0.2-0.4,0.7-0.1,1c-0.6,0-1.3-0.1-1.9-0.2c-3.8-0.7-7.6-2.4-11.3-0.5c-0.1,0-0.1,0.1-0.2,0.1c0,0,0,0,0,0
			c-0.1-0.6-0.8-0.7-1.1-0.4c-0.4-0.2-1-0.1-1,0.5c0,0.6-0.1,1.2-0.1,1.8c0,0.3,0.2,0.5,0.5,0.6c3.6,1,7.3-0.9,10.9-0.1
			c1.7,0.4,3.2,1,5,0.7c1.7-0.2,3.2-1,4.7-1.5c1.9-0.7,3.6-0.9,5.6-0.2c1.7,0.6,3.2,1.6,4.8,2.5c3.4,1.8,7,2.2,10.8,2.3
			c4.2,0.2,8.5,0.3,12.7,0.4c3.9,0.1,8,0.5,11.9-0.3c3.7-0.7,6.7-3,10.1-4.6c3.6-1.8,7.9-3.5,12-3.7c4.6-0.2,7.9,3,11.9,4.7
			c4,1.7,8.3,2.4,12.6,2C313.3,233.4,313.4,232.4,312.8,232.3z"/>
		<g>
			
				<rect x="50.5" y="163.5" transform="matrix(8.706509e-02 -0.9962 0.9962 8.706509e-02 -115.8838 202.1242)" class="st7" width="3.6" height="1.5"/>
			<path class="st7" d="M61.5,157.5l0.2-0.6c0.5-1.7,0.5-1.7,0.4-1.7c-0.1,0-0.5,0.6-0.5,0.5c-0.1-0.1,0.2-1,0.1-1
				c-0.1,0-0.4,0.9-0.5,0.9c-0.1,0,0.2-1,0.1-1c-0.1,0-0.4,1-0.5,1c-0.1-0.1,0.2-1.1,0.1-1.1c-0.1,0-0.5,1.2-0.6,1.6
				c0,0-0.1,0.1-0.1,0c-0.5-0.6-0.6-0.6-0.6-0.5c-0.1,0.1,0.7,2.2,0.7,2.2s1.8,3.8,1.3,4.4c-0.2,0.3-5.2,1.6-6.7,1.3
				c-0.2,0-4.8-0.4-5-0.4c-0.7-0.1-3.8-0.9-6.3-2.5c-0.4-0.2,2.1-4,2.1-4h0c0.4-0.4,1.4-1.5,1.4-1.5c0-0.1-0.1-0.1-0.8,0.2
				c0,0-0.1,0-0.1-0.1c0.1-0.4,0.2-1.6,0.1-1.7c-0.1,0-0.3,1-0.4,1.1c-0.1,0,0.1-1,0-1.1c-0.1,0-0.3,0.9-0.3,1c-0.1,0,0-0.9-0.1-1
				c-0.1-0.1-0.2,0.9-0.3,1c-0.1,0-0.2-0.7-0.2-0.7c-0.1,0-0.1,0-0.3,1.7l-0.1,0.7c0,0-4.2,3.6-3.2,5.4c1.1,1.8,3.9,3.3,3.9,3.3l0,0
				c1.5,0.7,2.9,1.2,2.9,1.2l-1.2,8.6c3.2,0.7,8.8,1.4,8.8,1.4l0.4-9.3c0,0,1.5-0.3,3.1-0.7c0,0,3.1-1,4.5-2.6
				C65,161.8,61.7,157.7,61.5,157.5z"/>
			<path class="st7" d="M55.9,159.6c-0.1-0.1-0.3-0.1-0.5,0c0.2-1.5-0.9-2.8-2.4-2.9c-1.5-0.2-2.8,0.9-2.9,2.4
				c-0.2-0.1-0.3-0.1-0.5-0.1c-0.3,0.1-0.4,0.5-0.3,0.9c0.2,0.4,0.5,0.6,0.8,0.5c0,0,0.1,0,0.1-0.1c0.1,1.2,1,2.2,2.2,2.3
				c1.2,0.1,2.3-0.7,2.6-1.9c0,0,0.1,0.1,0.1,0.1c0.3,0.2,0.7,0,0.9-0.3C56.2,160.2,56.2,159.8,55.9,159.6z"/>
			<path class="st8" d="M56,157.4c-0.3-1-2.2-1.9-3.5-1.9c0,0,0,0.3,0,0.5c-0.1-0.2-0.6-0.7-1.8-0.6c0,0,0.1,0.4,0.2,0.6
				c0,0-0.4-0.1-0.8-0.3c0,0-0.5,0.6-0.2,1.2l-0.4-0.2c0,0-0.6,5.7,2.5,5.9l0.9,0.1C55.7,162.9,56.2,158.1,56,157.4z"/>
		</g>
		<g>
			<path class="st7" d="M299.3,129.3C299.3,129.3,299.3,129.3,299.3,129.3c-0.1-0.2-0.3-0.8-0.3-0.8c-0.1,0,0.1,0.6,0,0.6
				c0,0-0.2-0.5-0.2-0.5c-0.1,0,0.1,0.5,0,0.5c0,0-0.2-0.4-0.2-0.5c0,0,0.1,0.5,0,0.5c0,0-0.2-0.3-0.3-0.3c0,0-0.1,0,0.2,0.9
				l0.1,0.7l0.2-0.1l0.4-0.2c0,0,0.4-1,0.4-1.1C299.6,129,299.6,129,299.3,129.3z"/>
			<path class="st8" d="M302.3,131.4c0,0,1.6-1.7,3.9-0.6s2.9,0.4,4.1,0.6c1.8,0.3,2.5,2.5,0.7,3.6c-1,0.6-1.7-0.2-4.1-0.4
				c-0.4,0-3,0.2-3.3-0.2c-0.3-0.4-0.3-2.1-0.3-2.1L302.3,131.4z"/>
			<path class="st7" d="M298.7,130.3c0,0-0.1,2.4,0.2,2.8c0.3,0.4,3.1,4.3,4.1,4c1-0.3-0.2-1.6-0.6-2c-0.4-0.4-2.4-2.3-2.4-2.3
				l-0.6-2.7L298.7,130.3z"/>
			<g class="st9">
				<path class="st10" d="M302.3,135.2c-0.1-0.1-0.3-0.2-0.5-0.5c-0.3,0.1-0.9,0.2-1.9-0.1c1,1.2,2.4,2.7,3,2.5
					C304,136.8,302.7,135.5,302.3,135.2z"/>
			</g>
			<path class="st7" d="M302.4,134.1v0.7l-0.2,0.2l-1.1,1.5c0,0-0.2,0.8-0.1,0.9c0,0,0.2,0.1,0.8,0c0.6-0.1,1.6-0.2,1.7-0.4
				c0.1-0.2-0.2-1.8-0.2-1.9c0.1-0.1-0.1-0.8-0.1-0.8H302.4z"/>
			<path class="st7" d="M302.6,143.1c0,0,0.4,4.1,1.4,4.3c1,0.2,4.2-3.2,4.2-3.2l-0.4-0.6c0,0-2.3,1.5-2.5,1.8c0,0,0.5-3.4-0.7-4.7
				s-1.4-1.2-1.4-1.2c-0.1,0-0.6,0.3-0.6,0.6s0,1.1,0,1.1L302.6,143.1z"/>
			<path class="st7" d="M308.1,143.4c-0.1,0.1-0.2,0.2-0.4,0.3l0.4,0.5c0,0,0,0,0,0l0.7,0.1l0,0c0.1,0,0.2,0.1,0.3,0.1
				c0.1,0,0.1,0,0.2,0c0.1,0,0.2,0,0.3,0.1c0,0,0.1,0,0.1,0c0.1,0,0.1,0,0-0.1c-0.1-0.1-0.2-0.2-0.3-0.3c-0.2-0.2-0.5-0.3-0.5-0.4
				c0,0-0.1-0.1-0.1-0.1c-0.1-0.1-0.2-0.3-0.3-0.4l0,0c0,0-0.1-0.1-0.1,0C308.3,143.2,308.2,143.3,308.1,143.4
				C308.2,143.4,308.1,143.4,308.1,143.4z"/>
			<path class="st7" d="M301.2,141c0,0-2.1,2.8-2,4.1c0,1.4,2.2,6.3,2.2,6.3l0.7-0.3c0,0-1.1-4.9-1.2-5.1c0,0,1.2-1.9,1.8-3.1
				l-0.8-3L301.2,141z"/>
			<path class="st7" d="M302.1,151.7c0-0.1-0.1-0.2-0.1-0.4v0c0,0-1.1-4.9-1.2-5.1c0,0,1.2-1.9,1.8-3.1l-0.8-3l-0.6,0.9
				c0,0-2.1,2.8-2,4.1c0,1.4,2.2,6.3,2.2,6.3l-0.3,0.6l0,0c-0.1,0.1-0.1,0.1-0.2,0.2c0,0-0.1,0.1-0.1,0.1c0,0.1-0.1,0.2-0.2,0.2
				c0,0-0.1,0.1-0.1,0.1c0,0.1,0,0.1,0.1,0.1c0.1-0.1,0.3-0.1,0.4-0.2c0.2-0.2,0.5-0.3,0.5-0.4c0,0,0.1,0,0.2,0
				c0.2,0,0.3-0.1,0.4-0.1l0,0c0,0,0.1-0.1,0.1-0.1C302.3,151.9,302.2,151.8,302.1,151.7C302.1,151.7,302.1,151.7,302.1,151.7z"/>
			<g class="st9">
				<path class="st10" d="M302.2,141.7c-0.7,1.2-2.1,3.2-2.4,4.1c-0.2,0.8,2.2,5.7,1.7,6.4c0,0,0.1,0,0.2,0c0.2,0,0.3-0.1,0.4-0.1
					l0,0c0,0,0.1-0.1,0.1-0.1c0-0.1-0.1-0.2-0.1-0.3c0,0,0,0,0,0c0-0.1-0.1-0.2-0.1-0.4v0c0,0-1.1-4.9-1.2-5.1c0,0,1.2-1.9,1.8-3.1
					L302.2,141.7z"/>
			</g>
			<path class="st11" d="M302.2,134.9c0,0-1.8,1.6-1.8,2.2c0,0.6,0.7,1,0.7,1s-0.1,2.4,0.1,2.9c0.2,0.5,1.4,2.1,1.4,2.1
				s0.1-3.4,2-2.3c0,0-0.1-0.5-1-1.6c0,0,0.6-1.7,0.7-2.1c0,0-0.8-1.7-0.8-1.7c-0.1,0-1.7,1.5-2.1,1.4
				C301,136.7,302.2,134.9,302.2,134.9z"/>
			<path class="st8" d="M303.5,131.2c0,0-0.8-0.4-1.5,0.4c-0.6,0.8,0.7,1.9,0.7,1.9s1.2-0.6,1.2-0.6S303.5,131.2,303.5,131.2z"/>
			<path class="st7" d="M303.1,133.7c0,0-0.2,0.4-0.7,0.5s-0.9-0.2-0.9-0.3c0,0,0.1-0.7,0.1-0.7s-0.1-0.1-0.2-0.2
				c0,0,0.3-0.2,0.3-0.3c0.1-0.1,0.2-0.9,0.8-1c0.6-0.2,0.6,0.6,0.6,0.6l-0.1,0.8L303.1,133.7z"/>
			<path class="st8" d="M303,133.2c0,0-0.9-0.7-0.5-1.5c0.4-0.7,1.4-0.6,1.8-0.2c0.4,0.4,1,1.4,0,2.4s-1.6,0.1-1.6,0.1
				s0.2-0.1,0.3-0.3L303,133.2z"/>
			<path class="st7" d="M303,133.2c-0.1,0.1-0.2,0.3-0.1,0.5c0.1,0.1,0.3,0.1,0.5,0c0.1-0.1,0.2-0.3,0.1-0.5
				C303.3,133,303.1,133,303,133.2z"/>
			<path class="st12" d="M302.1,132.9c0,0-0.1,0-0.1,0c0,0,0-0.1,0-0.1c0,0,0.1,0,0.1,0C302.1,132.8,302.1,132.9,302.1,132.9z"/>
			<path class="st8" d="M302.3,132.7C302.3,132.7,302.3,132.7,302.3,132.7c-0.1-0.1-0.1-0.1-0.2-0.1c0,0-0.1,0-0.1,0l0,0
				c0,0,0,0,0,0l0,0c0,0,0,0-0.1,0c0,0,0,0,0,0c0,0,0,0,0.1,0c0,0,0.1,0,0.1,0C302.2,132.6,302.2,132.6,302.3,132.7
				C302.3,132.7,302.3,132.7,302.3,132.7z"/>
			<path class="st13" d="M301.5,133.5C301.5,133.5,301.5,133.5,301.5,133.5L301.5,133.5C301.5,133.5,301.5,133.5,301.5,133.5
				c0,0,0.1,0,0.1,0c0,0,0.1,0,0.1,0c0,0,0.1,0,0.1,0c0,0-0.1,0.1-0.1,0.1c0,0-0.1,0-0.1,0C301.6,133.5,301.5,133.5,301.5,133.5z"/>
			<path class="st14" d="M302.4,134.2c0,0,0.4-0.1,0.5-0.3l0.1,0.4l-0.6,0.2L302.4,134.2z"/>
			<g>
				<path class="st7" d="M305.3,128.5C305.2,128.5,305.2,128.5,305.3,128.5c0-0.2,0.2-0.8,0.2-0.9c-0.1,0-0.2,0.5-0.3,0.5
					c-0.1,0,0.1-0.5,0.1-0.5c-0.1,0-0.2,0.4-0.3,0.4c0,0,0.1-0.5,0.1-0.5c0,0-0.2,0.5-0.2,0.5s0-0.4-0.1-0.4c0,0-0.1,0-0.3,0.8
					l-0.3,0.6l0.2,0l0.4,0.1c0,0,0.9-0.7,0.9-0.7C305.7,128.4,305.7,128.4,305.3,128.5z"/>
				<path class="st7" d="M304.2,129c0,0-1.4,1.9-1.4,2.4c0,0.5,0.2,5.3,1.2,5.6c1,0.3,0.7-1.5,0.6-2s-0.8-3.3-0.8-3.3l1-2.6
					L304.2,129z"/>
				<path class="st13" d="M302.8,131.4c0,0.2,0,0.5,0,0.7c0,0.2,0,0.5,0.1,0.7c0,0.5,0.1,1,0.2,1.5c0,0.2,0.1,0.5,0.1,0.7
					c0,0.2,0.1,0.5,0.2,0.7c0.1,0.2,0.1,0.5,0.2,0.7c0,0.1,0.1,0.2,0.2,0.3c0,0,0.1,0.1,0.1,0.1c0,0,0.1,0.1,0.2,0.1
					c-0.1,0-0.2-0.1-0.3-0.2c-0.1-0.1-0.1-0.2-0.2-0.3c-0.1-0.2-0.2-0.5-0.3-0.7c-0.1-0.5-0.2-1-0.3-1.4c-0.1-0.5-0.1-1-0.1-1.5
					c0-0.2,0-0.5,0-0.7c0-0.1,0-0.2,0-0.4C302.8,131.7,302.8,131.5,302.8,131.4z"/>
			</g>
		</g>
		<g>
			<path class="st7" d="M286.6,140.7c0,0,1,3.3,0.5,4.5c-0.5,1.3-4.1,5.2-4.1,5.2l-0.6-0.5c0,0,2.6-4.2,2.8-4.4c0,0-0.5-2.2-0.7-3.4
				l1.7-2.5L286.6,140.7z"/>
			<path class="st7" d="M282.3,150.2c0-0.1,0.1-0.2,0.3-0.3l0,0c0,0,2.6-4.2,2.8-4.4c0,0-0.5-2.2-0.7-3.4l1.7-2.5l0.3,1.1
				c0,0,1,3.8,0.5,5.1c-0.5,1.3-4.1,4.7-4.1,4.7l0,0.6v0c0,0.1,0.1,0.2,0.1,0.3c0,0.1,0,0.1,0,0.2c0,0.1,0,0.2,0.1,0.3
				c0,0,0,0.1,0,0.1c0,0.1,0,0.1-0.1,0c-0.1-0.1-0.2-0.2-0.3-0.3c-0.1-0.2-0.3-0.5-0.4-0.5c0,0-0.1-0.1-0.1-0.1
				c-0.1-0.1-0.3-0.1-0.4-0.3l0,0c0,0-0.1-0.1,0-0.1C282,150.4,282.1,150.3,282.3,150.2C282.2,150.3,282.2,150.2,282.3,150.2z"/>
			<path class="st7" d="M286.4,150.5c0-0.1,0.1-0.2,0.2-0.4l0,0c0,0,2.1-4.5,2.2-4.7c0,0-0.8-2.1-1.1-3.3l1-0.8l0.9,0.1
				c0,0,1.3,2.5,1,3.8c-0.3,1.3-3.4,5.3-3.4,5.3l0.1,0.6l0,0c0,0.1,0.1,0.2,0.1,0.2c0,0.1,0.1,0.1,0.1,0.2c0,0.1,0.1,0.2,0.2,0.3
				c0,0,0,0.1,0,0.1c0,0.1,0,0.1-0.1,0c-0.1-0.1-0.3-0.2-0.3-0.3c-0.2-0.2-0.4-0.4-0.4-0.5c0,0-0.1-0.1-0.2-0.1
				c-0.1,0-0.3-0.1-0.4-0.2l0,0c0,0-0.1-0.1-0.1-0.1C286.2,150.7,286.3,150.6,286.4,150.5C286.4,150.5,286.4,150.5,286.4,150.5z"/>
			<g class="st15">
				<path class="st10" d="M288.3,140.9c0.4,1.3,1.4,3.5,1.4,4.4c0,0.8-3.4,5-3,5.9c0,0-0.1-0.1-0.2-0.1c-0.1,0-0.3-0.1-0.4-0.2l0,0
					c0,0-0.1-0.1-0.1-0.1c0-0.1,0.1-0.2,0.2-0.2c0,0,0,0,0,0c0-0.1,0.1-0.2,0.2-0.4l0,0c0,0,2.1-4.5,2.2-4.7c0,0-0.8-2.1-1.1-3.3
					L288.3,140.9z"/>
			</g>
			<path class="st16" d="M284.4,139.3c0,0-0.5,0.8-0.4,1.9c0.1,1.1,0.8,3,0.8,3s1.7,0.2,2.5-0.4l-0.3-1.9l1.1,1.7
				c0,0,1.7-0.3,2.3-1.3c0,0-1.6-2-1.8-2.9c0,0-1.1,0.3-1.1,0.3c-0.1,0-1.3,0.2-1.3,0.2l-1.3-0.4L284.4,139.3z"/>
			<polygon class="st7" points="286.7,132.6 286.6,133.6 287.6,133.6 287.6,132.4 			"/>
			<g class="st17">
				<path class="st10" d="M287.6,132.9l0-0.5l-0.9,0.3l0,0.2C286.9,133,287.3,133,287.6,132.9z"/>
			</g>
			<polygon class="st18" points="288.3,130.5 288.4,131.2 288.3,131.3 288,130.4 			"/>
			<path class="st13" d="M288.2,131.1c0,0.2,0.1,0.3,0.2,0.3c0.1,0,0.3-0.1,0.3-0.3c0-0.2-0.1-0.3-0.2-0.3
				C288.3,130.9,288.2,131,288.2,131.1z"/>
			<path class="st7" d="M288.4,131.2c0,0,0-0.1,0-0.1c0-0.2-0.1-0.3-0.1-0.5c-0.3-0.5-0.8-0.8-1.4-0.7c-0.7,0.1-1.2,0.9-1,1.6
				c-0.1,0-0.2,0-0.2,0c-0.1,0.1-0.1,0.3,0,0.5c0.1,0.2,0.3,0.2,0.5,0.1c0,0,0,0,0,0c0.2,0.6,0.8,0.9,1.4,0.7
				c0.3-0.1,0.5-0.3,0.7-0.5C288.4,132,288.4,131.6,288.4,131.2z"/>
			<path class="st12" d="M287,131.3c0,0.1,0,0.1-0.1,0.1c-0.1,0-0.1,0-0.1-0.1c0-0.1,0-0.1,0.1-0.1C286.9,131.2,287,131.3,287,131.3
				z"/>
			<path class="st12" d="M287.9,131.1c0,0.1,0,0.1-0.1,0.1c-0.1,0-0.1,0-0.1-0.1c0-0.1,0-0.1,0.1-0.1
				C287.9,131,287.9,131.1,287.9,131.1z"/>
			<path class="st19" d="M287.1,131.1c-0.1,0-0.1,0-0.2,0c-0.1,0-0.1,0-0.2,0c0,0-0.1,0-0.1,0.1l0,0c0,0,0,0,0,0l0,0
				c0,0,0,0-0.1,0.1c0,0,0-0.1,0-0.1c0,0,0-0.1,0.1-0.1c0,0,0.1-0.1,0.2-0.1c0.1,0,0.1,0,0.2,0C287,131,287,131,287.1,131.1z"/>
			<path class="st19" d="M287.5,131c0-0.1,0.1-0.1,0.1-0.1c0,0,0.1-0.1,0.2-0.1c0.1,0,0.1,0,0.2,0c0,0,0.1,0,0.1,0c0,0,0,0,0.1,0.1
				c0,0-0.1,0-0.1,0l0,0c0,0,0,0,0,0l0,0c-0.1,0-0.1,0-0.2,0c-0.1,0-0.1,0-0.2,0C287.6,130.9,287.5,130.9,287.5,131z"/>
			<path class="st19" d="M288.2,129.6c0,0,0.4-0.1-0.1-0.3c-0.5-0.2-1.6-0.3-2.2,0.3c0,0-0.2-0.2-0.4-0.1c-0.2,0.1,0.2,0.2,0.2,0.2
				s-0.2,0.1-0.3,0.2c0,0.1,0.1,0.1,0.2,0c-0.1,0.1-0.5,0.5,0.1,1.5c0.1,0,0.6-0.9,0.6-0.9s1.2,0.3,1,0c0,0,1.4,0.3,1-0.4
				C288.4,130.2,288.9,130.1,288.2,129.6z"/>
			<path class="st13" d="M287.3,131c0,0.1,0,0.2,0,0.2c0,0,0,0.1,0,0.1c0,0,0,0.1,0.1,0.1l0,0l0,0c0,0,0,0,0,0c0,0,0,0,0,0
				c0,0,0,0.1,0,0.1c0,0.1-0.1,0.1-0.2,0.2c0.1,0,0.2,0,0.2-0.1c0,0,0-0.1,0-0.1c0,0,0,0,0,0c0,0,0,0,0,0c0,0,0,0,0,0c0,0,0,0,0,0
				l0,0c0,0,0,0-0.1-0.1c0,0,0-0.1,0-0.1C287.4,131.2,287.4,131.1,287.3,131z"/>
			<path class="st19" d="M286.3,130.5c0,0-0.2,0.8-0.1,1.2c0,0-0.3-0.3-0.6-0.2c0,0-0.3-0.6-0.3-1.1l0.7-0.1L286.3,130.5z"/>
			<path class="st20" d="M287.8,131.8c0,0.1-0.2,0.3-0.3,0.3c-0.2,0-0.4,0-0.4-0.2L287.8,131.8z"/>
			<path class="st21" d="M284.5,139c0,0-0.2,0-0.2,0.2c-0.1,0.2,0.9,0.9,2.3,0.9c1.4,0,2-0.5,2-0.7c0.1-0.1-0.2-0.3-0.2-0.3
				s-1.4,0-1.5,0C286.9,139.2,284.5,139,284.5,139z"/>
			<path class="st21" d="M287.2,140.8c0,0.1,0,0.2,0,0.3c0,0.1,0,0.2,0,0.3c0,0.2-0.1,0.4-0.1,0.6l0,0c0,0.2,0.1,0.3,0.1,0.5
				c0,0.2,0.1,0.3,0.1,0.5c0,0.2,0,0.3,0.1,0.5c0,0.1,0,0.2,0,0.2c0,0.1,0,0.2,0,0.2c0-0.1,0-0.2-0.1-0.2c0-0.1,0-0.2-0.1-0.2
				c0-0.2-0.1-0.3-0.1-0.5c0-0.2-0.1-0.3-0.1-0.5c0-0.2-0.1-0.3-0.1-0.5l0,0l0,0c0-0.2,0.1-0.4,0.1-0.6c0-0.1,0-0.2,0.1-0.3
				C287.2,140.9,287.2,140.9,287.2,140.8z"/>
			<path class="st7" d="M292.7,127.5c0,0-0.3,0.2-0.3,0.2c0,0,0.2-0.5,0.1-0.5c0,0-0.3,0.4-0.3,0.4c0,0,0.2-0.4,0.1-0.5
				c-0.1,0-0.3,0.4-0.3,0.4c0,0,0.2-0.5,0.1-0.5c0,0-0.3,0.5-0.4,0.7c0,0,0,0-0.1,0c-0.2-0.3-0.2-0.3-0.3-0.3c0,0,0.1,0.7,0.1,1l0,0
				c0,0-1.1,2.4-1.4,2.8c-0.2,0.4-1.9,1.7-2.4,2c-0.5,0.2-1.3,0.3-1.9,0.5c-0.6,0.1-3.2,0.5-3.8,1.3c-0.6,0.8-1.6,3.4-1.6,3.4l0,0
				l-0.1,0.1c-0.6,0.6-0.6,0.6-0.6,0.6c0,0,0.3-0.1,0.3-0.1c0,0-0.3,0.4-0.3,0.4s0.4-0.3,0.4-0.2c0,0-0.3,0.3-0.3,0.4
				c0,0,0.4-0.3,0.4-0.3c0,0-0.3,0.4-0.3,0.4c0,0,0.5-0.4,0.6-0.5c0,0,0,0,0.1,0c0.1,0.4,0.1,0.4,0.1,0.4c0,0,0.3-1.2,0.3-1.2
				s1.4-2.3,1.6-2.5c0.2-0.2,2-0.4,2-0.4s0.1,1.7,0,2.1c-0.1,0.4-0.4,1.5-0.4,1.5s1.5,1.6,3.9,0.1c0,0-0.1-1.5,0.1-2
				c0.1-0.5,0.8-1.2,0.8-3.2c0,0,1.5-0.9,2-1.9c0.4-1,0.9-3.2,0.9-3.5l0.1-0.2C292.7,127.5,292.7,127.5,292.7,127.5z"/>
			<g class="st9">
				<path class="st13" d="M287.6,135.1c0,0,0,0.7,0.7,1.1C288.3,136.2,287.5,136.1,287.6,135.1z"/>
			</g>
			<path class="st13" d="M288.5,135.7c0,0.1,0.1,0.1,0.1,0.1c0.1,0,0.1-0.1,0.1-0.1c0-0.1-0.1-0.1-0.1-0.1
				C288.6,135.6,288.5,135.6,288.5,135.7z"/>
			<g class="st9">
				<path class="st13" d="M287.3,135.2c0,0,0,0.7-0.7,1.1C286.6,136.3,287.4,136.3,287.3,135.2z"/>
			</g>
			<path class="st13" d="M286.4,135.8c0,0.1-0.1,0.1-0.1,0.1s-0.1-0.1-0.1-0.1c0-0.1,0.1-0.1,0.1-0.1
				C286.3,135.7,286.4,135.7,286.4,135.8z"/>
			<g class="st22">
				<path class="st10" d="M286.1,133.6c-0.1,0-0.1,0-0.2,0c-0.6,0.1-3.2,0.5-3.8,1.3c-0.6,0.8-1.6,3.4-1.6,3.4l-0.1,0.1
					c-0.6,0.6-0.6,0.6-0.6,0.6c0,0,0.3-0.1,0.3-0.1c0,0-0.3,0.4-0.3,0.4s0.4-0.3,0.4-0.2c0,0-0.3,0.3-0.3,0.4c0,0,0.4-0.3,0.4-0.3
					c0,0-0.3,0.4-0.3,0.4c0,0,0.5-0.4,0.6-0.5c0,0,0,0,0.1,0c0.1,0.4,0.1,0.4,0.1,0.4c0,0,0.3-1.2,0.3-1.2s1.4-2.3,1.6-2.5
					c0.2-0.2,2-0.4,2-0.4s0.1,1.7,0,2.1c-0.1,0.4-0.4,1.5-0.4,1.5s1.5,1.6,3.9,0.1c0,0,0-0.4,0-0.9
					C285.2,138.4,285.8,134.8,286.1,133.6z"/>
			</g>
		</g>
		<g>
			
				<ellipse transform="matrix(0.1707 -0.9853 0.9853 0.1707 120.3716 396.6086)" class="st11" cx="295.8" cy="126.8" rx="2.4" ry="2.4"/>
			<g class="st9">
				<path class="st23" d="M296.7,127.8c-1.3,0-2.4-1.1-2.4-2.4c0-0.2,0-0.4,0.1-0.6c-0.6,0.4-1,1.1-1,1.9c0,1.3,1.1,2.4,2.4,2.4
					c1.1,0,2.1-0.8,2.3-1.8C297.7,127.7,297.2,127.8,296.7,127.8z"/>
			</g>
			<g class="st9">
				<path class="st20" d="M297.6,126.4c-0.2,0.3-0.8,0.1-1.2-0.2c-0.5-0.4-0.7-0.9-0.5-1.1c0.2-0.3,0.8-0.1,1.2,0.2
					C297.6,125.6,297.8,126.1,297.6,126.4z"/>
			</g>
		</g>
		<g>
			<g>
				<g>
					<g>
						<path class="st19" d="M166,146.7c1.7,4.7,7.1,7.1,12.1,5.4c5-1.8,7.7-7,6-11.8c-1.7-4.7-7.1-7.1-12.1-5.4
							C167,136.7,164.3,142,166,146.7z M171.6,144.7c-0.6-1.8,0.4-3.8,2.3-4.5c1.9-0.7,3.9,0.2,4.6,2c0.6,1.8-0.4,3.8-2.3,4.5
							C174.3,147.4,172.2,146.5,171.6,144.7z"/>
					</g>
				</g>
				<g>
					<g>
						<path class="st24" d="M175.6,149.9c5-1.8,7.7-7,6-11.8c-0.3-0.9-0.7-1.6-1.3-2.3c1.6,1,2.9,2.6,3.6,4.5c1.7,4.7-1,10-6,11.8
							c-4.1,1.4-8.4,0.1-10.8-3C169.6,150.5,172.7,150.9,175.6,149.9z"/>
					</g>
				</g>
				<g class="st15">
					<path class="st24" d="M173.2,139.6c1.5-0.5,3-0.1,4,1c-0.9-0.6-2.1-0.8-3.3-0.4c-1.9,0.7-2.9,2.7-2.3,4.5
						c0.1,0.4,0.4,0.8,0.6,1.1c-0.6-0.4-1.1-1-1.3-1.7C170.2,142.3,171.3,140.3,173.2,139.6z"/>
				</g>
				<g class="st9">
					<path class="st20" d="M168,140.2c0.3,0.3,1.5-0.1,2.5-1c1.1-0.9,1.7-2,1.4-2.3c-0.3-0.3-1.5,0.1-2.5,1
						C168.3,138.8,167.6,139.8,168,140.2z"/>
				</g>
			</g>
			<g>
				<path class="st8" d="M180.7,134.9c0,0,1.1,1.2,0.6,2.5c-0.8,1.8-1,2.9-1.1,4.4c-0.1,1.4-1.9,2.7-3.9,1.8c-1.9-0.9-4.3-2.5-3.8-4
					c0.5-1.5,2-1.8,2.6-2.7c0.5-0.8,1.2-2.2,2.3-2.7C178.5,133.6,179.8,133.3,180.7,134.9z"/>
				<path class="st7" d="M176.7,137.9l0.5,0.1c0-0.1,0.1-0.1,0.1-0.1s0.2,0.1,0.3,0.2c0,0,0,0,0,0c0,0,0,0,0.1,0
					c0.1,0,0.4,0.2,0.4,0.2s0,0.1-0.1,0.2l0.3,0.3c0,0-0.2,1-0.3,1.1c0,0.1-1,0.5-1.1,0.5c-0.1,0-0.3-0.4-0.3-0.5c0,0-0.5,0.1-0.6,0
					c-0.1-0.1-0.2-1.1-0.1-1.2S176.7,137.9,176.7,137.9z"/>
				<path class="st13" d="M177.9,137.9l0.3,0.2l-0.1,0.2c-0.1,0-0.4-0.1-0.8-0.4l0.2-0.2L177.9,137.9L177.9,137.9z"/>
				<path class="st7" d="M180.2,137.3c0-0.1-0.1-0.1-0.2-0.1c0.4-0.6,0.2-1.5-0.5-1.8c-0.7-0.4-1.5-0.1-1.9,0.5
					c-0.1-0.1-0.1-0.1-0.2-0.1c-0.2,0-0.3,0.2-0.3,0.4s0.1,0.4,0.3,0.4c0,0,0,0,0.1,0c-0.3,0.6,0,1.2,0.5,1.5
					c0.5,0.3,1.2,0.1,1.6-0.3c0,0,0,0,0,0.1c0.1,0.1,0.3,0.2,0.5,0C180.2,137.6,180.2,137.4,180.2,137.3z"/>
				<path class="st25" d="M178.5,136.5c0,0-0.1-0.1-0.1-0.1c0,0-0.1-0.1-0.1-0.1c0,0-0.1,0-0.2,0l0,0c0,0,0,0,0,0l0,0
					c0,0-0.1,0-0.1,0c0,0,0.1,0,0.1,0c0,0,0.1,0,0.1,0c0.1,0,0.1,0,0.2,0c0.1,0,0.1,0.1,0.2,0.1
					C178.4,136.4,178.5,136.4,178.5,136.5z"/>
				<path class="st25" d="M178.9,136.7c0.1,0,0.1,0,0.2,0c0.1,0,0.1,0,0.2,0.1c0.1,0,0.1,0.1,0.1,0.1c0,0,0,0.1,0,0.1
					c0,0,0,0.1,0,0.1c0,0,0-0.1,0-0.1c0-0.1,0,0,0-0.1c0,0-0.1-0.1-0.1-0.1c0,0-0.1-0.1-0.1-0.1C179,136.7,178.9,136.7,178.9,136.7z
					"/>
				<path class="st12" d="M179.1,137.1c0,0-0.1,0-0.1,0c0,0-0.1,0-0.1,0c0,0-0.1-0.1-0.1-0.1c0,0,0,0,0-0.1c0,0,0,0,0-0.1
					c0,0,0,0,0,0c0,0,0,0,0,0c0,0,0,0.1,0.1,0.1c0,0,0.1,0,0.1,0C179,137.1,179,137.1,179.1,137.1z"/>
				<path class="st12" d="M177.9,136.5c0,0,0,0.1,0.1,0.1c0,0,0.1,0.1,0.1,0.1c0,0,0.1,0,0.1,0c0,0,0,0,0.1,0c0,0,0,0,0.1,0
					c0,0,0,0-0.1,0c0,0,0,0-0.1,0c0,0-0.1,0-0.1,0C178.1,136.6,178,136.6,177.9,136.5C178,136.6,177.9,136.5,177.9,136.5z"/>
				<path class="st13" d="M178.6,136.7c0,0-0.1,0.1-0.1,0.2c0,0,0,0.1,0,0.1c0,0,0,0.1,0,0.1l0,0l0,0c0,0,0,0,0,0c0,0,0,0,0,0
					c0,0,0,0,0,0.1c0,0-0.1,0-0.2,0c0.1,0,0.1,0,0.2,0c0,0,0.1,0,0.1-0.1c0,0,0,0,0,0c0,0,0,0,0,0c0,0,0,0,0,0c0,0,0,0,0,0l0,0
					c0,0,0,0,0-0.1c0,0,0-0.1,0-0.1C178.5,136.8,178.6,136.7,178.6,136.7z"/>
				<path class="st8" d="M179.9,137.1c0,0-0.6-0.7-0.7-1.7c0,0-1.1,0.6-1.7,0.4c0,0,0.1-0.3,0.1-0.4c0,0,0.8-0.7,0.8-0.7l1.2,0
					l0.8,0.7c0,0,0.7,0.4,0.6,0.7c-0.1,0.2-0.2,0.7-0.2,0.8c0,0.1-0.8,0.2-0.8,0.2L179.9,137.1z"/>
				<path class="st13" d="M178.3,137.5c-0.1,0-0.2-0.1-0.2-0.1c0,0-0.1-0.1-0.1-0.1c0,0,0-0.1,0-0.1c0,0,0,0.1,0,0.1c0,0,0,0,0,0.1
					c0,0,0,0,0,0.1c0,0,0.1,0.1,0.1,0.1C178.2,137.5,178.2,137.5,178.3,137.5z"/>
				<path class="st7" d="M178.4,138.9l3.3-0.8l-0.5-0.7c0,0,0,0,0,0c0.2-0.5,0.2-0.9,0.1-1.3c0.6,0.7,2,2.4,1.8,2.8
					c-0.3,0.5-4,1.6-4.9,1.6c-0.8,0-0.1-0.7-0.1-0.8C178.1,139.6,178.4,138.9,178.4,138.9z"/>
				<path class="st7" d="M174.1,134.1c0.3-0.4,2.5-0.1,3.4,0c-0.1,0-0.2,0.1-0.2,0.1c-0.3,0.2-0.6,0.4-0.9,0.7l-0.9,0l1,3
					c0,0-0.4,0.6-0.5,0.6c0,0-0.6,0.9-1.1,0.2C174.5,138.1,173.8,134.6,174.1,134.1z"/>
				<path class="st26" d="M171.9,145.6c0,0,1.5-1.1,1.6-1.1c0.1,0,1.9-0.1,1.9-0.1l0.6,1c0,0-0.7,2-3.3,4.5c0,0-0.3,0.3-0.5,0.8
					c-0.2,0.4-1,2.3-2.6,3.5c0,0-0.7,0.7-1,1.1c-0.4,0.6-0.5,1.1-0.5,1.1s0,0.6-0.3,0.6c-0.3,0-0.5,0.2-0.7,0.1
					c-0.2-0.1-0.2,0.1-0.4,0c-0.2-0.1,1-1.7,1.3-2.2c0.3-0.6,1.4-2.8,1.5-2.8c0,0,2.2-3.3,2.1-3.7
					C171.6,148,171.9,145.6,171.9,145.6z"/>
				<path class="st7" d="M166.2,154.3L166.2,154.3c0,0,1.4-3.4,2.8-3.8l1.4-0.6c0,0-1.1-3.5,0.4-5.6c0,0,0.6-0.7,1.2-0.9
					c0,0,2.2,2.5,0.3,6.5c0,0-0.2,0.6-0.6,0.9c-0.4,0.2-3.9,3.2-4.6,3.8c-0.4,0.6-1.5,2.1-1.6,2c-0.2-0.1-0.1-0.2-0.2-0.4
					c-0.1-0.2-0.1-0.4-0.2-0.7c-0.1-0.3,0.5-0.5,0.5-0.5S165.8,154.7,166.2,154.3z"/>
				<path class="st11" d="M171.9,143.3c0.5-0.8,1.9-2,2.1-2.1c0.2-0.1,0-0.7,0.4-1.8c0.4-1.1,1.4-0.9,1.5-1c0.1,0,0.6-0.6,0.6-0.6
					l0.2,0.1l-0.5,0.8c0.3,0.5,0.4,1.2,0.4,1.2c0.1,0,0.7-0.3,1.4-0.3l0.4-0.8l0.2,0.1c0,0-0.2,0.7-0.2,0.7c0,0.1,0.7,0.8-0.1,1.7
					s-1.5,1-1.5,1.2c0,0.2-0.3,2-0.7,2.8c0,0-2,0-3.1,0.6l0,0c0,0,0,0,0,0c0,0,0,0,0,0l0,0C172.9,144.9,171.9,143.3,171.9,143.3z"/>
				<g class="st9">
					<path class="st23" d="M174,141.2c0.2-0.1,0-0.7,0.4-1.8c0.2-0.6,0.6-0.8,1-0.9c0,0-1,1.6-0.4,2.2c0.7,0.6,1.5,0.7,1.7,0.9
						c0,0-1.1-0.2-1.5-0.1c-0.4,0.1-2.7,3.4,0.1,4.1c-0.7,0.1-1.6,0.2-2.3,0.6l0,0c0,0,0,0,0,0c0,0,0,0,0,0l0,0
						c-0.1-1.2-1.1-2.8-1.1-2.8C172.4,142.5,173.8,141.3,174,141.2z"/>
				</g>
			</g>
		</g>
		<g>
			<g>
				<path class="st27" d="M144,190.5c0.5,0,1-0.5,1-1c0-0.6-0.4-1-1-1c-0.5,0-1,0.5-1,1C143,190,143.4,190.5,144,190.5L144,190.5z"
					/>
			</g>
			<g>
				<path class="st27" d="M141.1,187.8c1,0,1-1.5,0-1.5C140.1,186.3,140.1,187.8,141.1,187.8L141.1,187.8z"/>
			</g>
			<g>
				<path class="st27" d="M146.5,179.5c0.8,0,0.8-1.3,0-1.3C145.7,178.2,145.7,179.5,146.5,179.5L146.5,179.5z"/>
			</g>
			<g>
				<path class="st27" d="M184.5,191.4c1,0,1-1.6,0-1.6C183.5,189.9,183.4,191.4,184.5,191.4L184.5,191.4z"/>
			</g>
			<g>
				<path class="st27" d="M187,190c0.7,0,0.7-1.2,0-1.2C186.2,188.9,186.2,190,187,190L187,190z"/>
			</g>
			<g>
				<path class="st27" d="M174.3,187.8c0.7,0,0.7-1,0-1C173.7,186.8,173.7,187.8,174.3,187.8L174.3,187.8z"/>
			</g>
			<g>
				<path class="st27" d="M192.6,178c0.9,0,0.9-1.4,0-1.4C191.7,176.6,191.7,178,192.6,178L192.6,178z"/>
			</g>
			<g>
				<path class="st27" d="M190.2,176.3c0.6,0,0.6-0.9,0-0.9C189.6,175.4,189.6,176.3,190.2,176.3L190.2,176.3z"/>
			</g>
			<g>
				<path class="st27" d="M249.4,192.2c1.1,0,1.1-1.7,0-1.7C248.3,190.5,248.3,192.2,249.4,192.2L249.4,192.2z"/>
			</g>
			<g>
				<path class="st27" d="M252.8,191c0.5,0,0.5-0.8,0-0.8C252.2,190.1,252.2,191,252.8,191L252.8,191z"/>
			</g>
			<g>
				<path class="st27" d="M243.9,191.6c0.5,0,0.5-0.8,0-0.8C243.3,190.7,243.3,191.6,243.9,191.6L243.9,191.6z"/>
			</g>
			<g>
				<path class="st27" d="M250.7,187c0.7,0,0.7-1.1,0-1.1C250,185.9,250,187,250.7,187L250.7,187z"/>
			</g>
			<g>
				<path class="st27" d="M257.2,187.5c0.5,0,0.5-0.8,0-0.8C256.7,186.6,256.7,187.5,257.2,187.5L257.2,187.5z"/>
			</g>
			<g>
				<path class="st27" d="M260.2,192.3c1,0,1-1.6,0-1.6C259.2,190.7,259.2,192.3,260.2,192.3L260.2,192.3z"/>
			</g>
			<g>
				<path class="st27" d="M263.1,191.3c0.7,0,0.7-1.1,0-1.1C262.4,190.2,262.4,191.3,263.1,191.3L263.1,191.3z"/>
			</g>
			<g>
				<path class="st27" d="M267,175.8c1.1,0,1.1-1.7,0-1.7C265.9,174.2,265.9,175.8,267,175.8L267,175.8z"/>
			</g>
			<g>
				<path class="st27" d="M263.9,176.1c0.4,0,0.4-0.7,0-0.7C263.4,175.4,263.4,176.1,263.9,176.1L263.9,176.1z"/>
			</g>
			<g>
				<path class="st27" d="M265.5,179c0.6,0,0.6-0.9,0-0.9C264.9,178,264.9,179,265.5,179L265.5,179z"/>
			</g>
			<g>
				<path class="st27" d="M257.9,175.8c0.4,0,0.4-0.7,0-0.7C257.5,175.1,257.5,175.8,257.9,175.8L257.9,175.8z"/>
			</g>
			<g>
				<path class="st27" d="M292,193.4c0.9,0,0.9-1.4,0-1.4C291.1,192,291.1,193.4,292,193.4L292,193.4z"/>
			</g>
			<g>
				<path class="st27" d="M288.9,192.3c0.5,0,0.5-0.8,0-0.8C288.4,191.5,288.4,192.3,288.9,192.3L288.9,192.3z"/>
			</g>
			<g>
				<path class="st27" d="M285.4,190.1c0.8,0,0.8-1.2,0-1.2C284.6,188.9,284.6,190.1,285.4,190.1L285.4,190.1z"/>
			</g>
			<g>
				<path class="st27" d="M285.2,192.3c0.3,0,0.3-0.5,0-0.5C284.8,191.7,284.8,192.3,285.2,192.3L285.2,192.3z"/>
			</g>
			<g>
				<path class="st27" d="M295.1,189c0.7,0,0.7-1,0-1C294.4,188,294.4,189,295.1,189L295.1,189z"/>
			</g>
			<g>
				<path class="st27" d="M316.5,186c1.1,0,1.1-1.7,0-1.7C315.4,184.3,315.4,186,316.5,186L316.5,186z"/>
			</g>
			<g>
				<path class="st27" d="M319,187c0.7,0,0.7-1.1,0-1.1C318.3,185.9,318.3,187,319,187L319,187z"/>
			</g>
			<g>
				<path class="st27" d="M315.3,189.9c0.8,0,0.8-1.3,0-1.3C314.5,188.6,314.5,189.9,315.3,189.9L315.3,189.9z"/>
			</g>
			<g>
				<path class="st27" d="M311.6,189.9c0.6,0,0.6-0.9,0-0.9C311,189,311,189.9,311.6,189.9L311.6,189.9z"/>
			</g>
			<g>
				<path class="st27" d="M321,191.9c0.7,0,0.7-1.1,0-1.1C320.3,190.8,320.3,191.9,321,191.9L321,191.9z"/>
			</g>
			<g>
				<path class="st27" d="M333.9,190.7c0.8,0,0.8-1.3,0-1.3C333,189.4,333,190.7,333.9,190.7L333.9,190.7z"/>
			</g>
			<g>
				<path class="st27" d="M335.5,192.2c0.6,0,0.6-0.9,0-0.9C334.9,191.3,334.9,192.2,335.5,192.2L335.5,192.2z"/>
			</g>
			<g>
				<path class="st27" d="M331.7,192.7c0.9,0,0.9-1.4,0-1.4C330.8,191.3,330.8,192.7,331.7,192.7L331.7,192.7z"/>
			</g>
			<g>
				<path class="st27" d="M327.6,190.4c0.5,0,0.5-0.7,0-0.7C327.1,189.7,327.1,190.4,327.6,190.4L327.6,190.4z"/>
			</g>
			<g>
				<path class="st27" d="M146.3,162.7c0.5,0,0.5-0.7,0-0.7C145.8,162,145.8,162.7,146.3,162.7L146.3,162.7z"/>
			</g>
			<g>
				<path class="st27" d="M148.3,163.4c0.5,0,0.5-0.7,0-0.7C147.8,162.7,147.8,163.4,148.3,163.4L148.3,163.4z"/>
			</g>
			<g>
				<path class="st27" d="M141.1,166.7c0.5,0,0.5-0.7,0-0.7C140.6,166,140.6,166.7,141.1,166.7L141.1,166.7z"/>
			</g>
			<g>
				<path class="st27" d="M189.5,166.2c0.5,0,0.5-0.7,0-0.7C189,165.4,189,166.2,189.5,166.2L189.5,166.2z"/>
			</g>
		</g>
		<g>
			<g>
				<path class="st27" d="M161.6,166.7c-0.3,0-0.5-0.5-0.5-1.1c0.1-0.6,0.4-1,0.7-1c0.3,0,0.5,0.5,0.5,1.1
					C162.2,166.3,161.9,166.7,161.6,166.7L161.6,166.7z"/>
			</g>
			<g>
				<path class="st27" d="M163.5,164.2c-0.5-0.1-0.4-1.6,0.2-1.5C164.3,162.7,164.1,164.2,163.5,164.2L163.5,164.2z"/>
			</g>
			<g>
				<path class="st27" d="M161.4,155.4c-0.5-0.1-0.3-1.4,0.2-1.3C162.1,154.1,161.9,155.4,161.4,155.4L161.4,155.4z"/>
			</g>
			<g>
				<path class="st27" d="M138.5,165c-0.6-0.1-0.4-1.6,0.2-1.6C139.2,163.5,139.1,165.1,138.5,165L138.5,165z"/>
			</g>
			<g>
				<path class="st27" d="M137.2,163.4c-0.4,0-0.3-1.2,0.1-1.2C137.8,162.3,137.6,163.5,137.2,163.4L137.2,163.4z"/>
			</g>
			<g>
				<path class="st27" d="M144.7,162c-0.4,0-0.3-1.1,0.1-1C145.2,161,145,162,144.7,162L144.7,162z"/>
			</g>
			<g>
				<path class="st27" d="M135.4,150.8c-0.5-0.1-0.4-1.5,0.2-1.4C136.1,149.4,135.9,150.9,135.4,150.8L135.4,150.8z"/>
			</g>
			<g>
				<path class="st27" d="M137,149.3c-0.3,0-0.2-1,0.1-1C137.4,148.4,137.3,149.3,137,149.3L137,149.3z"/>
			</g>
			<g>
				<path class="st27" d="M101.5,161.5c-0.6-0.1-0.4-1.8,0.2-1.7C102.3,159.9,102.1,161.6,101.5,161.5L101.5,161.5z"/>
			</g>
			<g>
				<path class="st27" d="M99.8,160c-0.3,0-0.2-0.9,0.1-0.8C100.1,159.2,100.1,160,99.8,160L99.8,160z"/>
			</g>
			<g>
				<path class="st27" d="M104.7,161.2c-0.3,0-0.2-0.9,0.1-0.8C105.1,160.4,105,161.2,104.7,161.2L104.7,161.2z"/>
			</g>
			<g>
				<path class="st27" d="M101.4,156.1c-0.4,0-0.3-1.1,0.1-1.1C101.9,155.1,101.8,156.2,101.4,156.1L101.4,156.1z"/>
			</g>
			<g>
				<path class="st27" d="M97.6,156.2c-0.3,0-0.2-0.9,0.1-0.8C98,155.4,97.9,156.2,97.6,156.2L97.6,156.2z"/>
			</g>
			<g>
				<path class="st27" d="M95.4,160.9c-0.6-0.1-0.4-1.6,0.2-1.6C96.1,159.4,95.9,160.9,95.4,160.9L95.4,160.9z"/>
			</g>
			<g>
				<path class="st27" d="M93.8,159.7c-0.4,0-0.3-1.1,0.1-1.1C94.3,158.7,94.2,159.8,93.8,159.7L93.8,159.7z"/>
			</g>
			<g>
				<path class="st27" d="M93.5,143.7c-0.6-0.1-0.4-1.8,0.2-1.7C94.3,142.1,94.1,143.8,93.5,143.7L93.5,143.7z"/>
			</g>
			<g>
				<path class="st27" d="M95.2,144.2c-0.2,0-0.2-0.7,0.1-0.7C95.5,143.5,95.5,144.2,95.2,144.2L95.2,144.2z"/>
			</g>
			<g>
				<path class="st27" d="M93.9,147c-0.3,0-0.2-1,0.1-1C94.4,146.1,94.3,147,93.9,147L93.9,147z"/>
			</g>
			<g>
				<path class="st27" d="M98.6,144.3c-0.2,0-0.2-0.7,0.1-0.7C98.9,143.6,98.8,144.3,98.6,144.3L98.6,144.3z"/>
			</g>
			<g>
				<path class="st27" d="M77.2,159.9c-0.5-0.1-0.4-1.5,0.2-1.4C77.8,158.6,77.7,160,77.2,159.9L77.2,159.9z"/>
			</g>
			<g>
				<path class="st27" d="M79.1,159c-0.3,0-0.2-0.9,0.1-0.8C79.5,158.2,79.4,159,79.1,159L79.1,159z"/>
			</g>
			<g>
				<path class="st27" d="M81.3,157c-0.4-0.1-0.3-1.3,0.1-1.2C81.9,155.8,81.8,157,81.3,157L81.3,157z"/>
			</g>
			<g>
				<path class="st27" d="M81.2,159.2c-0.2,0-0.1-0.6,0.1-0.6C81.5,158.7,81.4,159.2,81.2,159.2L81.2,159.2z"/>
			</g>
			<g>
				<path class="st27" d="M76,155.3c-0.4,0-0.3-1.1,0.1-1C76.5,154.3,76.3,155.3,76,155.3L76,155.3z"/>
			</g>
			<g>
				<path class="st27" d="M64.1,150.8c-0.6-0.1-0.4-1.8,0.2-1.7C65,149.1,64.8,150.8,64.1,150.8L64.1,150.8z"/>
			</g>
			<g>
				<path class="st27" d="M62.6,151.6c-0.4,0-0.3-1.1,0.1-1.1C63.1,150.6,63,151.7,62.6,151.6L62.6,151.6z"/>
			</g>
			<g>
				<path class="st27" d="M64.4,154.8c-0.5-0.1-0.3-1.4,0.2-1.3C65,153.5,64.8,154.8,64.4,154.8L64.4,154.8z"/>
			</g>
			<g>
				<path class="st27" d="M66.5,155.1c-0.3,0-0.2-1,0.1-1C66.9,154.2,66.8,155.1,66.5,155.1L66.5,155.1z"/>
			</g>
			<g>
				<path class="st27" d="M60.9,156.5c-0.4,0-0.3-1.1,0.1-1.1C61.4,155.5,61.3,156.6,60.9,156.5L60.9,156.5z"/>
			</g>
			<g>
				<path class="st27" d="M53.7,154.4c-0.5-0.1-0.3-1.4,0.2-1.3C54.4,153.2,54.2,154.5,53.7,154.4L53.7,154.4z"/>
			</g>
			<g>
				<path class="st27" d="M52.6,155.9c-0.3,0-0.2-1,0.1-1C53.1,154.9,52.9,155.9,52.6,155.9L52.6,155.9z"/>
			</g>
			<g>
				<path class="st27" d="M54.7,156.6c-0.5-0.1-0.4-1.5,0.2-1.4C55.4,155.2,55.3,156.7,54.7,156.6L54.7,156.6z"/>
			</g>
			<g>
				<path class="st27" d="M57.3,154.6c-0.3,0-0.2-0.8,0.1-0.8C57.7,153.8,57.6,154.6,57.3,154.6L57.3,154.6z"/>
			</g>
			<g>
				<path class="st27" d="M163.5,138.4c-0.3,0-0.2-0.8,0.1-0.8C163.9,137.6,163.8,138.4,163.5,138.4L163.5,138.4z"/>
			</g>
			<g>
				<path class="st27" d="M162.3,139c-0.3,0-0.2-0.8,0.1-0.8C162.7,138.2,162.6,139,162.3,139L162.3,139z"/>
			</g>
			<g>
				<path class="st27" d="M166,142.7c-0.3,0-0.2-0.8,0.1-0.8C166.4,142,166.3,142.8,166,142.7L166,142.7z"/>
			</g>
			<g>
				<path class="st27" d="M138.6,139c-0.3,0-0.2-0.8,0.1-0.8C139,138.3,138.9,139,138.6,139L138.6,139z"/>
			</g>
		</g>
		<g>
			<g>
				<path class="st27" d="M179.2,193.2c-0.3,0-0.5-0.5-0.5-1.1c0.1-0.6,0.4-1,0.7-1c0.3,0,0.5,0.5,0.5,1.1
					C179.9,192.7,179.6,193.2,179.2,193.2L179.2,193.2z"/>
			</g>
			<g>
				<path class="st27" d="M181.2,190.6c-0.5-0.1-0.4-1.6,0.2-1.5C181.9,189.2,181.7,190.7,181.2,190.6L181.2,190.6z"/>
			</g>
			<g>
				<path class="st27" d="M179.1,181.8c-0.5-0.1-0.3-1.4,0.2-1.3C179.7,180.6,179.6,181.9,179.1,181.8L179.1,181.8z"/>
			</g>
			<g>
				<path class="st27" d="M156.1,191.5c-0.6-0.1-0.4-1.6,0.2-1.6C156.9,190,156.7,191.5,156.1,191.5L156.1,191.5z"/>
			</g>
			<g>
				<path class="st27" d="M154.9,189.9c-0.4,0-0.3-1.2,0.1-1.2C155.4,188.8,155.3,189.9,154.9,189.9L154.9,189.9z"/>
			</g>
			<g>
				<path class="st27" d="M162.3,188.4c-0.4,0-0.3-1.1,0.1-1C162.8,187.4,162.7,188.5,162.3,188.4L162.3,188.4z"/>
			</g>
			<g>
				<path class="st27" d="M153.1,177.3c-0.5-0.1-0.4-1.5,0.2-1.4C153.8,175.9,153.6,177.3,153.1,177.3L153.1,177.3z"/>
			</g>
			<g>
				<path class="st27" d="M154.6,175.7c-0.3,0-0.2-1,0.1-1C155.1,174.8,155,175.8,154.6,175.7L154.6,175.7z"/>
			</g>
			<g>
				<path class="st27" d="M119.2,188c-0.6-0.1-0.4-1.8,0.2-1.7C120,186.3,119.8,188.1,119.2,188L119.2,188z"/>
			</g>
			<g>
				<path class="st27" d="M117.4,186.5c-0.3,0-0.2-0.9,0.1-0.8C117.8,185.7,117.7,186.5,117.4,186.5L117.4,186.5z"/>
			</g>
			<g>
				<path class="st27" d="M122.4,187.7c-0.3,0-0.2-0.9,0.1-0.8C122.8,186.9,122.7,187.7,122.4,187.7L122.4,187.7z"/>
			</g>
			<g>
				<path class="st27" d="M119,182.6c-0.4,0-0.3-1.1,0.1-1.1C119.6,181.5,119.4,182.6,119,182.6L119,182.6z"/>
			</g>
			<g>
				<path class="st27" d="M115.3,182.6c-0.3,0-0.2-0.9,0.1-0.8C115.7,181.8,115.6,182.7,115.3,182.6L115.3,182.6z"/>
			</g>
			<g>
				<path class="st27" d="M113,187.3c-0.6-0.1-0.4-1.6,0.2-1.6C113.8,185.8,113.6,187.4,113,187.3L113,187.3z"/>
			</g>
			<g>
				<path class="st27" d="M111.5,186.2c-0.4,0-0.3-1.1,0.1-1.1C112,185.1,111.9,186.2,111.5,186.2L111.5,186.2z"/>
			</g>
			<g>
				<path class="st27" d="M111.1,170.2c-0.6-0.1-0.4-1.8,0.2-1.7C111.9,168.5,111.7,170.3,111.1,170.2L111.1,170.2z"/>
			</g>
			<g>
				<path class="st27" d="M112.9,170.6c-0.2,0-0.2-0.7,0.1-0.7C113.2,170,113.1,170.6,112.9,170.6L112.9,170.6z"/>
			</g>
			<g>
				<path class="st27" d="M111.6,173.5c-0.3,0-0.2-1,0.1-1C112,172.5,111.9,173.5,111.6,173.5L111.6,173.5z"/>
			</g>
			<g>
				<path class="st27" d="M116.2,170.8c-0.2,0-0.2-0.7,0.1-0.7C116.6,170.1,116.5,170.8,116.2,170.8L116.2,170.8z"/>
			</g>
			<g>
				<path class="st27" d="M94.8,186.4c-0.5-0.1-0.4-1.5,0.2-1.4C95.5,185,95.3,186.4,94.8,186.4L94.8,186.4z"/>
			</g>
			<g>
				<path class="st27" d="M96.7,185.4c-0.3,0-0.2-0.9,0.1-0.8C97.1,184.6,97,185.5,96.7,185.4L96.7,185.4z"/>
			</g>
			<g>
				<path class="st27" d="M99,183.4c-0.4-0.1-0.3-1.3,0.1-1.2C99.6,182.2,99.4,183.5,99,183.4L99,183.4z"/>
			</g>
			<g>
				<path class="st27" d="M98.8,185.7c-0.2,0-0.1-0.6,0.1-0.6C99.1,185.1,99,185.7,98.8,185.7L98.8,185.7z"/>
			</g>
			<g>
				<path class="st27" d="M93.6,181.7c-0.4,0-0.3-1.1,0.1-1C94.1,180.7,94,181.7,93.6,181.7L93.6,181.7z"/>
			</g>
			<g>
				<path class="st27" d="M81.8,177.2c-0.6-0.1-0.4-1.8,0.2-1.7C82.6,175.6,82.4,177.3,81.8,177.2L81.8,177.2z"/>
			</g>
			<g>
				<path class="st27" d="M80.2,178.1c-0.4,0-0.3-1.1,0.1-1.1C80.8,177,80.6,178.1,80.2,178.1L80.2,178.1z"/>
			</g>
			<g>
				<path class="st27" d="M82,181.2c-0.5-0.1-0.3-1.4,0.2-1.3C82.6,180,82.5,181.3,82,181.2L82,181.2z"/>
			</g>
			<g>
				<path class="st27" d="M84.1,181.6c-0.3,0-0.2-1,0.1-1C84.6,180.6,84.5,181.6,84.1,181.6L84.1,181.6z"/>
			</g>
			<g>
				<path class="st27" d="M78.6,183c-0.4,0-0.3-1.1,0.1-1.1C79.1,181.9,79,183,78.6,183L78.6,183z"/>
			</g>
			<g>
				<path class="st27" d="M71.4,180.9c-0.5-0.1-0.3-1.4,0.2-1.3C72,179.6,71.9,180.9,71.4,180.9L71.4,180.9z"/>
			</g>
			<g>
				<path class="st27" d="M70.3,182.3c-0.3,0-0.2-1,0.1-1C70.7,181.4,70.6,182.3,70.3,182.3L70.3,182.3z"/>
			</g>
			<g>
				<path class="st27" d="M72.4,183c-0.5-0.1-0.4-1.5,0.2-1.4C73.1,181.7,72.9,183.1,72.4,183L72.4,183z"/>
			</g>
			<g>
				<path class="st27" d="M75,181c-0.3,0-0.2-0.8,0.1-0.8C75.3,180.3,75.3,181,75,181L75,181z"/>
			</g>
			<g>
				<path class="st27" d="M181.2,164.8c-0.3,0-0.2-0.8,0.1-0.8C181.5,164.1,181.5,164.8,181.2,164.8L181.2,164.8z"/>
			</g>
			<g>
				<path class="st27" d="M180,165.4c-0.3,0-0.2-0.8,0.1-0.8C180.3,164.7,180.2,165.5,180,165.4L180,165.4z"/>
			</g>
			<g>
				<path class="st27" d="M183.7,169.2c-0.3,0-0.2-0.8,0.1-0.8C184,168.5,184,169.2,183.7,169.2L183.7,169.2z"/>
			</g>
			<g>
				<path class="st27" d="M156.2,165.5c-0.3,0-0.2-0.8,0.1-0.8C156.6,164.7,156.5,165.5,156.2,165.5L156.2,165.5z"/>
			</g>
		</g>
		<g>
			<g>
				<path class="st27" d="M313.2,190.2c-0.3,0-0.5-0.5-0.5-1.1c0.1-0.6,0.4-1,0.7-1c0.3,0,0.5,0.5,0.5,1.1
					C313.9,189.7,313.6,190.2,313.2,190.2L313.2,190.2z"/>
			</g>
			<g>
				<path class="st27" d="M315.2,187.6c-0.5-0.1-0.4-1.6,0.2-1.5C315.9,186.2,315.7,187.7,315.2,187.6L315.2,187.6z"/>
			</g>
			<g>
				<path class="st27" d="M313.1,178.8c-0.5-0.1-0.3-1.4,0.2-1.3C313.7,177.6,313.6,178.9,313.1,178.8L313.1,178.8z"/>
			</g>
			<g>
				<path class="st27" d="M290.1,188.5c-0.6-0.1-0.4-1.6,0.2-1.6C290.9,187,290.7,188.5,290.1,188.5L290.1,188.5z"/>
			</g>
			<g>
				<path class="st27" d="M288.9,186.9c-0.4,0-0.3-1.2,0.1-1.2C289.4,185.8,289.3,186.9,288.9,186.9L288.9,186.9z"/>
			</g>
			<g>
				<path class="st27" d="M296.3,185.4c-0.4,0-0.3-1.1,0.1-1C296.8,184.4,296.7,185.5,296.3,185.4L296.3,185.4z"/>
			</g>
			<g>
				<path class="st27" d="M287.1,174.3c-0.5-0.1-0.4-1.5,0.2-1.4C287.8,172.9,287.6,174.3,287.1,174.3L287.1,174.3z"/>
			</g>
			<g>
				<path class="st27" d="M288.6,172.7c-0.3,0-0.2-1,0.1-1C289.1,171.8,289,172.8,288.6,172.7L288.6,172.7z"/>
			</g>
			<g>
				<path class="st27" d="M253.2,185c-0.6-0.1-0.4-1.8,0.2-1.7C254,183.3,253.8,185.1,253.2,185L253.2,185z"/>
			</g>
			<g>
				<path class="st27" d="M251.4,183.5c-0.3,0-0.2-0.9,0.1-0.8C251.8,182.7,251.7,183.5,251.4,183.5L251.4,183.5z"/>
			</g>
			<g>
				<path class="st27" d="M256.4,184.7c-0.3,0-0.2-0.9,0.1-0.8C256.8,183.9,256.7,184.7,256.4,184.7L256.4,184.7z"/>
			</g>
			<g>
				<path class="st27" d="M253,179.6c-0.4,0-0.3-1.1,0.1-1.1C253.6,178.5,253.4,179.6,253,179.6L253,179.6z"/>
			</g>
			<g>
				<path class="st27" d="M249.3,179.6c-0.3,0-0.2-0.9,0.1-0.8C249.7,178.8,249.6,179.7,249.3,179.6L249.3,179.6z"/>
			</g>
			<g>
				<path class="st27" d="M247,184.3c-0.6-0.1-0.4-1.6,0.2-1.6C247.8,182.8,247.6,184.4,247,184.3L247,184.3z"/>
			</g>
			<g>
				<path class="st27" d="M245.5,183.2c-0.4,0-0.3-1.1,0.1-1.1C246,182.1,245.9,183.2,245.5,183.2L245.5,183.2z"/>
			</g>
			<g>
				<path class="st27" d="M245.1,167.2c-0.6-0.1-0.4-1.8,0.2-1.7C245.9,165.5,245.7,167.3,245.1,167.2L245.1,167.2z"/>
			</g>
			<g>
				<path class="st27" d="M246.9,167.6c-0.2,0-0.2-0.7,0.1-0.7C247.2,167,247.1,167.6,246.9,167.6L246.9,167.6z"/>
			</g>
			<g>
				<path class="st27" d="M245.6,170.5c-0.3,0-0.2-1,0.1-1C246,169.5,245.9,170.5,245.6,170.5L245.6,170.5z"/>
			</g>
			<g>
				<path class="st27" d="M250.2,167.8c-0.2,0-0.2-0.7,0.1-0.7C250.6,167.1,250.5,167.8,250.2,167.8L250.2,167.8z"/>
			</g>
			<g>
				<path class="st27" d="M228.8,183.4c-0.5-0.1-0.4-1.5,0.2-1.4C229.5,182,229.3,183.4,228.8,183.4L228.8,183.4z"/>
			</g>
			<g>
				<path class="st27" d="M230.7,182.4c-0.3,0-0.2-0.9,0.1-0.8C231.1,181.6,231,182.5,230.7,182.4L230.7,182.4z"/>
			</g>
			<g>
				<path class="st27" d="M233,180.4c-0.4-0.1-0.3-1.3,0.1-1.2C233.6,179.2,233.4,180.5,233,180.4L233,180.4z"/>
			</g>
			<g>
				<path class="st27" d="M232.8,182.7c-0.2,0-0.1-0.6,0.1-0.6C233.1,182.1,233,182.7,232.8,182.7L232.8,182.7z"/>
			</g>
			<g>
				<path class="st27" d="M227.6,178.7c-0.4,0-0.3-1.1,0.1-1C228.1,177.7,228,178.7,227.6,178.7L227.6,178.7z"/>
			</g>
			<g>
				<path class="st27" d="M215.8,174.2c-0.6-0.1-0.4-1.8,0.2-1.7C216.6,172.6,216.4,174.3,215.8,174.2L215.8,174.2z"/>
			</g>
			<g>
				<path class="st27" d="M214.2,175.1c-0.4,0-0.3-1.1,0.1-1.1C214.8,174,214.6,175.1,214.2,175.1L214.2,175.1z"/>
			</g>
			<g>
				<path class="st27" d="M216,178.2c-0.5-0.1-0.3-1.4,0.2-1.3C216.6,177,216.5,178.3,216,178.2L216,178.2z"/>
			</g>
			<g>
				<path class="st27" d="M218.1,178.6c-0.3,0-0.2-1,0.1-1C218.6,177.6,218.5,178.6,218.1,178.6L218.1,178.6z"/>
			</g>
			<g>
				<path class="st27" d="M212.6,180c-0.4,0-0.3-1.1,0.1-1.1C213.1,178.9,213,180,212.6,180L212.6,180z"/>
			</g>
			<g>
				<path class="st27" d="M205.4,177.9c-0.5-0.1-0.3-1.4,0.2-1.3C206,176.6,205.9,177.9,205.4,177.9L205.4,177.9z"/>
			</g>
			<g>
				<path class="st27" d="M204.3,179.3c-0.3,0-0.2-1,0.1-1C204.7,178.4,204.6,179.3,204.3,179.3L204.3,179.3z"/>
			</g>
			<g>
				<path class="st27" d="M206.4,180c-0.5-0.1-0.4-1.5,0.2-1.4C207.1,178.7,206.9,180.1,206.4,180L206.4,180z"/>
			</g>
			<g>
				<path class="st27" d="M209,178c-0.3,0-0.2-0.8,0.1-0.8C209.3,177.3,209.3,178,209,178L209,178z"/>
			</g>
			<g>
				<path class="st27" d="M315.2,161.8c-0.3,0-0.2-0.8,0.1-0.8C315.5,161.1,315.5,161.8,315.2,161.8L315.2,161.8z"/>
			</g>
			<g>
				<path class="st27" d="M314,162.4c-0.3,0-0.2-0.8,0.1-0.8C314.3,161.7,314.2,162.5,314,162.4L314,162.4z"/>
			</g>
			<g>
				<path class="st27" d="M317.7,166.2c-0.3,0-0.2-0.8,0.1-0.8C318,165.5,318,166.2,317.7,166.2L317.7,166.2z"/>
			</g>
			<g>
				<path class="st27" d="M290.2,162.5c-0.3,0-0.2-0.8,0.1-0.8C290.6,161.7,290.5,162.5,290.2,162.5L290.2,162.5z"/>
			</g>
		</g>
		<g>
			<path class="st28" d="M248.1,216.1l-0.7,3l0.4,0.9c-2.5,0.4-2.9,1.6-3.5,1.2c0,0,0-0.8,0-1.1c0-0.3,0-0.8,0-1.2l0.3-2.8
				c0,0-0.1-1.7,0.6-1.8c0.2,0,0.6-0.3,0.6-0.5c0,0,0.1-0.6,0.1-1l1.2,0.6c0,0-0.1,0.7,0,0.9c0,0,0,0,0,0c0,0.2,0.2,0.3,0.4,0.3
				C248.4,214.9,248.1,216.1,248.1,216.1z"/>
			<path class="st29" d="M247.6,216.1C247.6,216.1,247.5,216.2,247.6,216.1c-0.1,0.1-0.2,0-0.2,0C247.4,216,247.5,216,247.6,216.1
				C247.5,216,247.6,216.1,247.6,216.1z"/>
			<path class="st29" d="M245.7,215.9C245.7,215.9,245.7,215.9,245.7,215.9c-0.1,0.1-0.2,0-0.2,0
				C245.6,215.8,245.6,215.8,245.7,215.9C245.7,215.8,245.7,215.8,245.7,215.9z"/>
			<path class="st28" d="M247.5,219.9c0,0,1.3,3.3,1,4.7c-0.3,1.4-1.4,3.1-1.4,3.1l-0.6-0.4c0,0,0.7-2.5,0.5-3.2
				c-0.2-0.7-1.1-3.6-1.1-3.6L247.5,219.9z"/>
			<path class="st28" d="M247.2,227.3c0,0,0.1,0.6,0.4,1.1s0.5,0.7,0.2,0.8c-0.2,0.1-0.8-0.4-1.1-0.6c-0.3-0.2-0.9-0.4-0.2-1.4
				L247.2,227.3z"/>
			<path class="st28" d="M246.2,220.3c0,0,0.1,3.7-0.8,4.7c-0.6,0.6-3.4,0.8-3.4,0.8l-0.3-0.6c0,0,2.5-1.2,2.6-1.3
				c0.1-0.7,0-3.8,0-3.8L246.2,220.3z"/>
			<path class="st28" d="M242,225.7c0,0-0.6,0.1-1,0.5s-0.7,0.6-0.8,0.3c-0.1-0.2,0.3-0.9,0.5-1.2c0.2-0.3,0.3-1,1.4-0.4L242,225.7z
				"/>
			<path class="st28" d="M247.4,214.5c0,0,0.5,0.1,1.6-0.5c0.8-0.5,2-2.8,2-2.8l0.4,0.2c0,0-0.8,2.7-1.3,3.2c-0.5,0.5-2,1.4-2,1.4
				L247.4,214.5z"/>
			<path class="st28" d="M251,211.3c0,0,0-0.4,0-0.4c0-0.1,0.1,0.2,0.1,0.2s0.2-0.5,0.4-0.4c0.2,0.1,0.2,0.3,0.1,0.5
				c0,0.2-0.2,0.4-0.2,0.4L251,211.3z"/>
			<path class="st28" d="M245.2,214.3c0,0-0.5,0.1-1.6-0.5c-0.8-0.5-2-2.8-2-2.8l-0.4,0.2c0,0,0.8,2.7,1.3,3.2s2,1.5,2,1.5
				L245.2,214.3z"/>
			<path class="st28" d="M241.6,211c0,0,0-0.4,0-0.4c0-0.1-0.1,0.2-0.1,0.2s-0.2-0.5-0.4-0.4c-0.2,0.1-0.2,0.3-0.1,0.5
				c0,0.2,0.2,0.4,0.2,0.4L241.6,211z"/>
			<path class="st29" d="M245.9,213.3c0,0,0.1,0.4,1.2,0.5l0-0.2L245.9,213.3z"/>
			<path class="st28" d="M247.4,213.6c0,0-1.7,0.4-1.9-0.9s0.5-2.2,1-2.2c1-0.1,1.2,0.3,1.3,0.7C248,211.6,248.2,213.4,247.4,213.6z
				"/>
			<path class="st20" d="M246.9,212.9c0,0,0.2,0.2,0.5,0.1c0,0,0.3-0.1,0.3-0.3C247.7,212.7,247.3,212.7,246.9,212.9z"/>
			<g>
				<path class="st30" d="M245.8,213.3c0,0-0.3-0.2-0.2-0.8c0,0-0.2-0.2,0-0.4c0.2-0.2,0.3,0.2,0.4,0.2c0-0.1,0-1.1,0.3-1
					c1.3,0.4,2-0.6,2-0.6s-1.5-1.3-2.8-0.6C243.9,211,244.7,213.3,245.8,213.3z"/>
				<path class="st30" d="M244.7,211c0,0-0.1-0.2,0-0.4C244.7,210.6,244.7,210.8,244.7,211C244.9,211,244.7,211,244.7,211z"/>
				<path class="st30" d="M244.7,210.8c0,0-0.2,0-0.3,0.2c0,0,0.1-0.1,0.3,0L244.7,210.8z"/>
			</g>
			<path class="st31" d="M244.2,221.2l1.9,0.1c0,0,0.6-0.1,1-0.1c0.4-0.1,0.7-0.2,0.7-0.2c0-0.2-0.4-2.2-0.4-2.2s-1.7,0.3-3.3-0.3
				C244.3,218.4,243.9,219.5,244.2,221.2z"/>
			<polygon class="st32" points="242.5,213.8 242.5,213.8 242.5,213.8 			"/>
			<path class="st32" d="M246.2,221.3c0,0,0.1-1,0.4-1.3c0,0-0.2,0.7,0,1.2L246.2,221.3z"/>
		</g>
		<g>
			<path class="st33" d="M232,213.1c0,0,0.3,4-0.2,4.5c-0.4,0.6-1.2-0.2-1.3-0.5c-0.1-0.4-0.6-3.5-0.3-3.7S232,213.1,232,213.1z"/>
			<path class="st33" d="M227.9,217.4c0.4,0,1.5,0.1,2.4,0.2c0.5,0.1,1,0.1,1.1,0.2c0,0,0,0,0,0c0,0,0,0,0,0c0,0,0,0,0,0
				s0.6-1-0.6-1.5c-0.2-0.1-0.4-0.1-0.7-0.1c0,0-0.1,0-0.1,0c-1.1,0-2.3,0.6-2.3,0.6L227.9,217.4z"/>
			<path class="st33" d="M227.9,217.4c0,0-1,0.7-1.2,0.5c-0.2-0.2,0.4-0.6,0.5-0.8c0.1-0.2,0.4-0.4,0.7-0.2
				C228.1,217.1,227.9,217.4,227.9,217.4z"/>
			<path class="st30" d="M227.3,202.6c0,0-0.9-0.7-1.5-0.4c-0.7,0.3-1.1-0.8-1.9-0.8c-0.8,0-1.3,0.3-1,1c0.2,0.7,1.6,1.7,2.2,1.5
				c0.6-0.3,1.1-1.3,1.4-1.3c0.4,0.1,0.9,0.5,0.9,0.5L227.3,202.6z"/>
			<path class="st28" d="M230.7,207.6c-0.7-0.1-1-1-0.4-1.5c0.6-0.5,1.1-1,1.2-1.3c0.3-0.7,0.5-2.3,0.5-2.3l0.5,0.2
				c0,0,0.2,1.8,0,2.8c-0.2,0.7-0.9,1.6-1.2,2C231.1,207.5,230.9,207.6,230.7,207.6L230.7,207.6z"/>
			<path class="st28" d="M232.5,202.6c0,0,0-0.7-0.2-1c-0.2-0.3-0.4-0.5-0.6-0.4c-0.2,0.1,0.1,0.8,0.1,0.8s-0.3-0.2-0.3-0.2
				c0,0.1,0.3,0.4,0.4,0.5c0.1,0,0.2,0.1,0.2,0.1L232.5,202.6z"/>
			<g>
				<path class="st28" d="M229.9,213.5c0,0,0.3,4-0.2,4.5c-0.4,0.6-1.4-0.1-1.5-0.5c-0.1-0.4-0.4-3.5-0.1-3.7
					C228.4,213.7,229.9,213.5,229.9,213.5z"/>
				<path class="st28" d="M229.6,218.2c0,0-2.4,2.1-2.8,2.6l-0.4-0.3c0,0,0.7-2.4,1.8-3C229.3,216.9,229.6,218.2,229.6,218.2z"/>
			</g>
			<path class="st28" d="M227.5,208.2c0.7-0.2,0.8-1.2,0.1-1.5c-0.6-0.4-1.3-0.8-1.4-1c-0.4-0.7-0.9-2.2-0.9-2.2l-0.5,0.2
				c0,0,0.1,1.8,0.5,2.7c0.3,0.7,1.1,1.4,1.6,1.7C227.1,208.2,227.3,208.2,227.5,208.2L227.5,208.2z"/>
			<path class="st28" d="M225,204c0,0-0.4-0.6-0.4-0.9c0-0.3,0-0.6,0.2-0.7c0.2,0,0.4,0.7,0.4,0.7c0,0,0.1-0.4,0.2-0.3s0,0.6,0,0.6
				c0,0.1-0.1,0.2-0.1,0.2L225,204z"/>
			<path class="st31" d="M229.7,206.1c0,0,0.3,0,0.5-0.1c0.4-0.2,1-0.8,1-0.8s1.2,1.2,0.4,2.7C231.5,208.1,229.7,206.1,229.7,206.1z
				"/>
			<path class="st31" d="M228.2,206.4c0,0-0.9-0.4-1.5-0.3c0,0-0.8,2.1,0.5,2.9C228.4,209.7,228.2,206.4,228.2,206.4z"/>
			<path class="st30" d="M229.4,202.5c0,0,0.9-1,0.4-1.6c-0.5-0.6,0.2-1.6-0.7-1.8c-1-0.3-1.8,0.5-1.6,1.3s1.3,1,1.5,1.3
				c0.2,0.4,0.1,0.6,0.1,0.6L229.4,202.5z"/>
			<path class="st32" d="M232.5,215l0.1,0.4c0,0-0.1,0.2-0.5,0.2c-0.4,0-0.7,0.1-0.9,0.2c-0.2,0.1-0.4,0.1-0.7,0.1
				c-0.3,0-0.3,0-0.4,0c-0.1,0-0.2-0.2-0.4-0.1c-0.2,0.1-0.6,0-0.8-0.1c-0.2-0.1-0.8,0-0.9-0.1c-0.1-0.1-0.2-0.3-0.5-0.3
				c-0.2,0-0.4-0.1-0.5-0.2c-0.1-0.2-0.4-0.2-0.5-0.2c-0.1-0.1-0.1-0.2-0.2-0.2c-0.1,0-0.2-0.1-0.3-0.2c0-0.1-0.2-0.1-0.2-0.1
				c0-0.1,0.1-0.1,0.1-0.1L232.5,215z"/>
			<path class="st31" d="M232.5,215c-1.4,1.1-4.9,1-6.6-1c0,0,0.9-4.6,0.9-4.6s0-2,0.2-2.3c0.9-1.1,2.4-1.1,3.1-1
				C232.2,206.2,232.7,214.9,232.5,215z"/>
			<g>
				<path class="st30" d="M230.1,203c0,0-0.6-0.8-1.5-0.9c-0.8-0.1-1.5,0.5-1.6,1.3c-0.1,0.8,0.1,1.8,1.4,2.1L230.1,203z"/>
				<path class="st28" d="M229.3,206.8L229.3,206.8c-0.4,0.2-1,0-1.2-0.4l0,0c0,0,0.2-0.4,0.2-1c0-0.3,0-0.5-0.1-0.9l1.3,0.5
					c0,0,0,0.1,0,0.3c0,0.2,0,0.4,0.1,0.7c0,0,0,0,0,0C229.8,206.3,229.6,206.7,229.3,206.8z"/>
				<path class="st34" d="M229.6,206c-0.7,0.1-1.3-0.6-1.3-0.6l1.2-0.1C229.6,205.5,229.6,205.8,229.6,206z"/>
				<path class="st28" d="M229.9,205.6c0,0-1.4,0.5-1.9-0.6c-0.6-1.1-0.2-2.1,0.3-2.2c0.9-0.2,1.5,0.1,1.7,0.5
					C230.2,203.7,230.7,205.3,229.9,205.6z"/>
				<path class="st20" d="M229.3,205c0,0,0.1,0.1,0.4,0c0,0,0.3-0.1,0.3-0.3C230,204.8,229.7,204.7,229.3,205z"/>
				<path class="st30" d="M228.9,203c0,0,0.2,1.3-1,1.8c-0.5,0.2-0.8-1.8,0.2-2.2c1-0.4,2,0,2.2,0.7s0.1,0.8,0.1,0.8
					S229.8,202.8,228.9,203z"/>
				<g>
					<path class="st35" d="M227.3,203.2c0-0.2,0-0.2,0-0.2c0.1,0,0.1,0,0.2,0.2c0,0.2,0,0.3,0,0.3S227.4,203.4,227.3,203.2z"/>
					<path class="st35" d="M227.7,203.2c0.1-0.1,0.2-0.1,0.2-0.1c0,0,0,0.1-0.1,0.2c-0.1,0.1-0.3,0.1-0.3,0.1
						S227.6,203.3,227.7,203.2z"/>
					<path class="st35" d="M227.2,203.3c-0.2,0-0.2,0-0.2,0.1c0,0.1,0,0.1,0.2,0.1c0.2,0,0.3-0.1,0.3-0.1S227.4,203.4,227.2,203.3z"
						/>
					<path class="st35" d="M227.3,203.7c-0.1,0.2-0.1,0.2,0,0.2c0.1,0,0.1,0,0.2-0.1c0.1-0.2,0.1-0.3,0.1-0.3
						S227.3,203.6,227.3,203.7z"/>
					<path class="st35" d="M227.8,203.6c0.2,0.1,0.2,0.2,0.1,0.2c0,0-0.1,0.1-0.2,0c-0.2-0.1-0.2-0.3-0.2-0.3
						S227.7,203.5,227.8,203.6z"/>
				</g>
				<path class="st36" d="M227.4,203.5C227.4,203.4,227.5,203.4,227.4,203.5c0.1-0.1,0.1,0,0.2,0S227.5,203.5,227.4,203.5
					C227.5,203.5,227.4,203.5,227.4,203.5z"/>
			</g>
			<path class="st28" d="M226.8,220.8c0,0,0.7,0.7,0.5,1.1c-0.2,0.4-1.5-0.4-1.5-0.8c0-0.3,0.5-0.7,0.5-0.7L226.8,220.8z"/>
		</g>
		<g>
			<g>
				<path class="st28" d="M211.5,194.7c0,0,2,0.4,2.5,1c0.5,0.6,0.3,4.4,0.6,5.5c0.4,1.3,0.3,2.6,0.3,2.6l-2.8-2.3L211.5,194.7z"/>
				<path class="st37" d="M213.6,198.2c0,0,0.8,2.1,0.4,2.9s-0.8,0.3-0.8,0.3L213.6,198.2z"/>
				<path class="st28" d="M207.5,224.4c0,0-0.2,1.3,0.1,1.4l3.5,0.3c0,0,0-0.4-0.5-0.5s-1.5-0.5-1.6-1.3
					C208.8,223.6,207.5,224.4,207.5,224.4z"/>
				<path class="st28" d="M215.4,223.7c0,0-0.2,1.3,0.1,1.4l3.5,0.3c0,0,0-0.4-0.5-0.5s-1.6-0.4-1.8-1.1
					C216.6,223,215.4,223.7,215.4,223.7z"/>
				<path class="st28" d="M211.9,206.4c0,0-0.4,2.3-0.8,5c-0.6,3.7-1.3,6.8-1.5,7.6c-0.6,2.9-0.6,5.4-0.6,5.4s-0.3,0.4-1.4,0.1
					c0,0-0.5-1.9-0.8-6.7c0-0.7,0.2-1.9,0.2-2c0-3.7,0.1-10.2,0.1-10.2L211.9,206.4z"/>
				<path class="st28" d="M208.8,195.2c0,0,2.3,0.9,3.6,0.4c0,0-0.3-0.4-0.9-0.6c0-0.3,0-0.5,0.1-0.7c0-0.4,0-0.7,0-0.7l-0.9-0.6
					l-0.9-0.6C209.9,194.2,208.8,195.2,208.8,195.2z"/>
				<path class="st28" d="M207.2,196.1c0,0,0,3.1,0.2,5c0,0.2,0,0.4,0,0.7c0,1.2-0.1,2.7-0.2,3.8c-0.1,0.8-0.2,1.3-0.2,1.4
					c0,0.1,6.1,0.9,6.2,0.8c0,0-0.8-2.9-0.2-5.7c0.8-3.3,0.6-5.8-0.1-6.5c-0.3-0.3-1.5-0.9-1.5-0.9c-0.5,0.1-0.4,0.6-0.9,0.3
					c-0.5-0.3-1.2-0.6-1.3-0.6C208.6,194.9,207.5,194.7,207.2,196.1z"/>
				<path class="st37" d="M209.8,193.1c0,0,0.6,1,1.7,1.2c0-0.4,0-0.7,0-0.7l-0.9-0.6L209.8,193.1z"/>
				<path class="st28" d="M211.9,193.5c0,0-2.1,0.5-2.4-0.8c-0.3-1.3-0.8-2.1,0.6-2.5c1.3-0.4,1.7,0.1,1.9,0.5
					C212.2,191.1,212.5,193.4,211.9,193.5z"/>
				<path class="st30" d="M208.6,190.2c0,0-0.1,0-0.2,0c0,0,0.1-0.1,0.2-0.1c0-0.1,0.1-0.4,0.3-0.5c0,0-0.1,0.1-0.1,0.2
					c0.3-0.3,0.8-0.6,2.5-0.5c2.2,0,1.6,1.5,1.3,1.6c-0.3,0.2-1-0.2-1.5-0.1c-0.5,0.1-0.6,0.8-0.7,1s-0.1-0.1-0.4-0.2
					c-0.2-0.1-0.2,0.3-0.2,0.6c0.1,0.3-0.2,0.6-0.2,0.6s0,0-0.4-0.3C208.8,192.1,208.4,190.6,208.6,190.2
					C208.5,190.2,208.5,190.2,208.6,190.2z"/>
				<path class="st28" d="M213,205.6c0,0,2.9,6.6,3.5,9.4c0.6,2.9,0.1,8.9,0.1,8.9l-1.3-0.3c0,0-2-5-1.4-7.7
					c0.3-1.3-5.9-4.7-5.1-8.4C209.4,205.3,213,205.6,213,205.6z"/>
				<path class="st38" d="M211.4,203.1c0,0.1,0,0.2-0.1,0.2s-0.1-0.1-0.1-0.2c0-0.1,0-0.2,0.1-0.2
					C211.4,202.9,211.4,203,211.4,203.1z"/>
				<path class="st20" d="M215.9,212c0,0-1.3,0.7-3.1,1l0,0c-0.3,0.1-0.7,0.1-1,0.1l-0.9-0.8l-2.6-2.5l-0.9-5.3c0,0,3,0.8,5.8,0.3
					C213.2,204.8,214.9,207.9,215.9,212z"/>
				<path class="st39" d="M212.7,213L212.7,213c-0.3,0.1-0.7,0.1-1,0.1l-0.9-0.8l0.8-4.8C211.7,209.5,212.7,213,212.7,213z"/>
				<path class="st20" d="M207.4,204.4c0,0-0.5,1.1-0.6,2.5c-0.1,1.4-0.1,5.8-0.1,5.8s1,0.8,4.1,0.5l1.1-7.3L207.4,204.4z"/>
				<path class="st31" d="M209,194.6c0,0,2.2,1,2.5,0.1c0,0,2.1,0.4,2.5,1c0.4,0.7,0.6,3.3,0.6,3.3s-0.5,0.3-1.1,0.5l0.4,6.5
					c0,0-1.7,1.4-7.5,0.2l0.9-9.1L209,194.6z"/>
				<g>
					<path class="st40" d="M212.6,200.6c-0.4,0.1-0.7,0.2-1,0.4c-0.8,0.5-1.3,1.5-1.1,2.5c0.2,1.4,1.5,2.3,2.9,2.1
						c1.2-0.2,2-1.1,2.1-2.3c0-0.2,0-0.4,0-0.6C215.3,201.4,214,200.4,212.6,200.6z"/>
					<path class="st41" d="M212.6,200.6c-0.4,0.1-0.7,0.2-1,0.4c-0.1,0.4-0.2,0.8-0.1,1.2c0.2,1.3,1.4,2.1,2.6,1.9
						c0.6-0.1,1.1-0.4,1.4-0.8c0-0.2,0-0.4,0-0.6C215.3,201.4,214,200.4,212.6,200.6z"/>
					<g>
						<path class="st42" d="M213.4,205.6L213.4,205.6c1-1,1.1-2,1.1-2.7c-0.1-0.7-0.4-1.3-0.4-1.3l0,0c0,0,0.3,0.5,0.4,1.3
							C214.5,203.6,214.4,204.7,213.4,205.6z"/>
					</g>
					<g>
						<path class="st42" d="M210.5,203.1L210.5,203.1c0.4-1,1.3-1.4,1.9-1.5c0.7-0.1,1.4,0,1.4,0l0,0c0,0-0.7-0.1-1.4,0
							C211.7,201.7,210.9,202.1,210.5,203.1z"/>
					</g>
					<g>
						<path class="st42" d="M214.1,201.5L214.1,201.5c0,0,0.6-0.1,0.9,0.2l0,0C214.7,201.3,214.2,201.5,214.1,201.5z"/>
					</g>
					<g>
						<path class="st42" d="M212.8,200.6c0.6,0.1,1.2,0.9,1.2,0.9l0,0c0,0-0.1-0.2-0.4-0.4C213.5,200.9,213.1,200.6,212.8,200.6
							L212.8,200.6z"/>
					</g>
					<path class="st42" d="M214,201.3C213.9,201.3,213.9,201.3,214,201.3c-0.1,0-0.2,0.1-0.2,0.2c0,0.1,0.1,0.2,0.2,0.2
						c0.1,0,0.2-0.1,0.2-0.1c0,0,0,0,0,0C214.2,201.4,214.1,201.3,214,201.3z"/>
				</g>
				<path class="st28" d="M208.1,194.9c0,0-1.7,0.3-2.1,1.2c-0.5,1.2-1.3,5.5-0.7,6.4c0.6,0.9,4.6,1.4,4.6,1.4l0.4-0.8
					c0,0-3.4-1.5-3.4-1.7c0-0.2,0.3-2.2,0.8-3.2C208,197.3,208.1,194.9,208.1,194.9z"/>
				<path class="st28" d="M210.3,203.1c0,0,0.5-0.1,0.8,0.1c0.3,0.2,0.9,0.1,0.8,0.3c0,0.2-0.9,0.2-0.8,0.3c0.1,0.1,1.3,0.6,1,0.9
					c-0.3,0.3-1.1,0.3-1.3,0.2c-0.2-0.1-1.1-1-1.1-1L210.3,203.1z"/>
				<path class="st31" d="M209,194.6c0,0-2.4,0.6-2.9,1.2c-0.5,0.6-1.1,3-1.1,3s1.1,0.8,2.5,0.6s1.7-3,1.7-3.1
					C209.1,196.2,209,194.6,209,194.6z"/>
			</g>
			<path class="st20" d="M212.1,192.6c0,0,0,0.2-0.3,0.3c-0.4,0.1-0.6-0.2-0.6-0.2S211.7,192.5,212.1,192.6z"/>
		</g>
		<g>
			<path class="st43" d="M248,37.4c0,0,4.5-5.3,15.3-4.7c0,0,15.6-8.8,32.3-1.2c0,0,17.7-1.9,30.8,1.6C335.1,35.5,338,38,338,38
				L248,37.4z"/>
			<path class="st43" d="M77,88.6c0,0,7-13,23.9-11.6c0,0,24.5-21.7,50.6-2.9c0,0,27.7-4.7,48.3,4C213.5,83.9,218,90,218,90L77,88.6
				z"/>
			<path class="st43" d="M44.4,35.3c0,0,2.8-5.9,9.4-5.3c0,0,9.6-9.9,19.9-1.3c0,0,10.9-2.1,19,1.8c5.4,2.6,7.2,5.4,7.2,5.4
				L44.4,35.3z"/>
			<path class="st43" d="M207.3,46.6c0-3.9,3.1-7,7-7c3.9,0,7,3.1,7,7c0,3.9-3.1,7-7,7C210.4,53.6,207.3,50.4,207.3,46.6z"/>
		</g>
	</g>
</g>
</svg>
