<svg width="119" height="158" viewBox="0 0 119 158" fill="none" xmlns="http://www.w3.org/2000/svg">
<path d="M81.1977 30.7176C81.1896 30.6842 80.4793 27.2486 82.1671 25.5044C82.9584 24.6873 82.9584 23.3628 82.1671 22.5457C81.3759 21.73 80.0945 21.73 79.3032 22.5457C77.4399 24.4698 77.0051 27.0283 76.9916 28.9511C74.1965 29.1951 72.3818 30.9058 71.6526 32.1231C71.072 33.0907 71.361 34.3386 72.2859 34.9576C72.6208 35.1821 72.9975 35.2881 73.3729 35.2881C74.0318 35.2881 74.6826 34.9576 75.0769 34.3581C75.193 34.1838 76.2894 32.664 78.7874 33.2385C79.468 33.3891 80.1728 33.1743 80.6657 32.664C81.1531 32.1565 81.3556 31.4175 81.1977 30.7176Z" fill="#C4C4C4"/>
<path d="M89.2115 50.7015C89.3479 50.5049 89.8894 49.8872 91.1559 50.1786C91.8418 50.3334 92.5521 50.1173 93.0409 49.6014C93.531 49.0869 93.7295 48.3465 93.5648 47.6452C93.5594 47.6257 93.1516 45.5775 94.0779 44.6224C94.8692 43.8068 94.8692 42.4808 94.0779 41.6652C93.2866 40.8481 92.0052 40.8481 91.214 41.6652C89.938 42.9827 89.5207 44.6419 89.4343 46.0153C87.5615 46.3639 86.3246 47.5699 85.8007 48.4483C85.2107 49.4313 85.4902 50.7461 86.4408 51.354C86.7797 51.5701 87.1537 51.6747 87.5237 51.6747C88.1867 51.6747 88.8321 51.3345 89.2115 50.7015Z" fill="#C4C4C4"/>
<path d="M59.5487 0.8396C27.1395 0.8396 0.771484 28.067 0.771484 61.5323C0.771484 94.999 27.1382 122.225 59.5487 122.225C91.9592 122.225 118.326 94.999 118.326 61.5323C118.326 28.067 91.9592 0.8396 59.5487 0.8396ZM59.5487 118.042C52.1465 118.042 45.086 116.508 38.6398 113.746C38.7613 113.748 38.868 113.756 38.9936 113.756C42.4719 113.756 44.3055 112.999 45.9231 112.331C47.3855 111.726 48.6507 111.205 51.3485 111.205C54.0464 111.205 55.3089 111.726 56.7712 112.331C58.3875 112.999 60.2211 113.756 63.6981 113.756C67.1777 113.756 69.0114 112.999 70.629 112.331C72.0927 111.726 73.3579 111.205 76.0585 111.205C78.759 111.205 80.0242 111.726 81.4879 112.331C81.8403 112.476 82.2062 112.625 82.5938 112.77C75.5845 116.146 67.7786 118.042 59.5487 118.042ZM88.327 109.571C85.694 109.558 84.4369 109.045 82.9907 108.447C81.3731 107.779 79.5381 107.022 76.0585 107.022C72.5788 107.022 70.7438 107.779 69.1262 108.447C67.6625 109.052 66.3973 109.573 63.6981 109.573C61.0003 109.573 59.7377 109.052 58.2754 108.447C56.6591 107.779 54.8255 107.022 51.3485 107.022C47.8689 107.022 46.0352 107.779 44.4189 108.447C42.9566 109.052 41.6927 109.573 38.9936 109.573C36.2957 109.573 35.0332 109.052 33.5709 108.447C32.037 107.812 30.2897 107.105 27.1449 107.034C25.4274 105.727 23.7882 104.314 22.2313 102.813C23.5762 103.089 24.6105 103.507 25.7191 103.964C27.7472 104.802 30.0467 105.752 34.4013 105.752C38.7586 105.752 41.0568 104.802 43.0862 103.964C45.0198 103.167 46.6901 102.476 50.267 102.476C53.8411 102.476 55.5114 103.167 57.445 103.964C59.4731 104.804 61.7726 105.752 66.1272 105.752C70.4859 105.752 72.7854 104.802 74.8149 103.964C76.7498 103.167 78.4214 102.476 81.9983 102.476C85.5752 102.476 87.2481 103.167 89.1817 103.964C90.4942 104.507 91.9282 105.091 93.9482 105.439C92.1631 106.934 90.2862 108.314 88.327 109.571ZM98.1043 101.594C98.026 101.584 97.9504 101.569 97.8694 101.569C94.2925 101.569 92.6195 100.879 90.6859 100.081C88.6565 99.2418 86.357 98.2937 81.9983 98.2937C77.6396 98.2937 75.3401 99.2432 73.3107 100.081C71.3757 100.879 69.7041 101.569 66.1272 101.569C62.5531 101.569 60.8828 100.879 58.9492 100.081C56.9211 99.2418 54.6216 98.2937 50.267 98.2937C45.9096 98.2937 43.6115 99.2432 41.582 100.081C39.6484 100.879 37.9782 101.569 34.4013 101.569C30.8271 101.569 29.1568 100.879 27.2233 100.081C25.1952 99.2418 22.8956 98.2937 18.541 98.2937C18.383 98.2937 18.2318 98.3174 18.0846 98.3508C17.1867 97.2759 16.3225 96.1702 15.5043 95.0255H103.592C101.926 97.3581 100.092 99.5555 98.1043 101.594ZM43.3549 57.3341C43.3914 57.3313 46.8643 57.0539 49.315 59.3265C50.3831 60.3179 51.1298 61.6787 51.5511 63.3909C41.0433 60.4936 36.6603 68.9164 36.613 69.0098C36.0986 70.0346 36.4875 71.2978 37.4799 71.8276C37.7783 71.9865 38.097 72.0618 38.4089 72.0618C39.1421 72.0618 39.8496 71.6505 40.2088 70.9311C40.3236 70.7024 42.6528 66.2686 48.7236 67.0731C39.1704 73.0267 33.0686 86.1273 31.1147 90.8413H29.2865C28.6275 86.487 25.4598 62.0245 35.0602 49.1818C35.1318 49.1665 35.202 49.1595 35.2736 49.1372C39.1785 47.8838 42.3368 47.8935 44.662 49.1693C47.1195 50.5161 47.8324 52.8557 47.8648 52.9645C48.0039 53.4581 48.3212 53.8526 48.7236 54.1217C45.8097 52.9157 43.12 53.1527 42.9647 53.1694C41.8507 53.281 41.0365 54.303 41.1432 55.4533C41.2526 56.6035 42.2464 57.4415 43.3549 57.3341ZM78.3499 90.8427C78.8333 88.8015 80.6075 87.2775 82.7301 87.2775C84.8541 87.2775 86.6297 88.8015 87.1131 90.8427H78.3499ZM106.275 90.8427H91.2314C90.7021 86.4814 87.0956 83.0947 82.7301 83.0947C78.3661 83.0947 74.7608 86.4814 74.2315 90.8427H35.5625C38.1888 84.9993 44.5823 72.8203 53.5724 69.244C58.6022 75.8961 55.4736 79.128 55.2832 79.3148C54.4582 80.0719 54.3704 81.3756 55.0928 82.2428C55.4939 82.7238 56.0596 82.9692 56.6294 82.9692C57.098 82.9692 57.5679 82.8033 57.95 82.4631C58.1836 82.2568 60.2387 80.3313 60.4669 76.7131C60.6546 73.7698 59.5663 70.6411 57.2708 67.3882C63.983 63.9625 66.4675 67.1177 66.6201 67.3269C67.2493 68.261 68.4902 68.505 69.407 67.872C70.3374 67.2307 70.5872 65.9312 69.966 64.972C69.7973 64.7098 66.323 59.5566 58.1242 62.472C59.7337 59.841 62.4248 56.7151 66.7862 54.5874C67.7975 54.0938 68.2296 52.8474 67.7529 51.8031C67.275 50.7573 66.0665 50.3126 65.0565 50.8048C59.916 53.313 56.7064 57.0009 54.758 60.1603C54.1017 58.6155 53.1889 57.2979 52.0223 56.2159C51.1622 55.4184 50.2386 54.8314 49.3218 54.3908C49.4068 54.4131 49.4865 54.4508 49.5756 54.4619C49.6553 54.4717 49.735 54.4759 49.8133 54.4759C50.5465 54.4759 51.2311 54.0646 51.5889 53.3897C51.8292 52.9366 51.8481 52.397 51.7374 51.8393L51.7658 51.8309C51.7388 51.7319 51.7063 51.6357 51.6672 51.5437C51.281 50.123 50.1805 48.6659 49.8781 48.2853C48.2551 46.2343 44.7282 43.3426 38.1847 44.2085C43.8667 35.2224 49.1759 37.3821 49.473 37.5132C50.4776 37.9844 51.6712 37.5369 52.1438 36.4995C52.6205 35.4538 52.187 34.2087 51.1743 33.7165C50.8084 33.5395 43.1632 30.0134 35.7273 40.5276C35.5504 36.1259 36.2336 29.6132 40.4073 23.1466C41.0271 22.1859 40.7759 20.8865 39.8456 20.2465C38.9139 19.6037 37.6568 19.8658 37.037 20.8265C32.6432 27.6333 31.5954 34.4067 31.6157 39.3871C23.4493 31.2933 15.3247 35.0815 15.2275 35.1289C14.2229 35.6183 13.7948 36.8481 14.2607 37.891C14.7238 38.9325 15.9215 39.3885 16.9383 38.92C17.2488 38.7764 23.9745 35.8135 30.7839 44.6588C16.2348 48.2728 16.837 61.075 16.8464 61.213C16.9153 62.3201 17.8051 63.172 18.8664 63.172C18.9097 63.172 18.9529 63.1706 18.9974 63.1664C20.1141 63.0939 20.9607 62.0998 20.8905 60.9467C20.8662 60.5563 20.4989 52.3845 30.1736 49.1762C21.8762 63.2208 24.335 85.03 25.1857 90.8427H12.8253C12.8091 90.8427 12.7956 90.8469 12.7794 90.8469C7.73212 82.2958 4.82229 72.2584 4.82229 61.5323C4.82229 30.3731 29.3729 5.02242 59.5487 5.02242C89.7259 5.02242 114.275 30.3731 114.275 61.5323C114.275 72.2584 111.365 82.2958 106.318 90.8469C106.304 90.8469 106.29 90.8427 106.275 90.8427Z" fill="#C4C4C4"/>
<path d="M73.1053 76.0704C72.31 75.2575 71.0299 75.2659 70.2414 76.0871C69.4542 76.9083 69.4623 78.2315 70.2576 79.0444L74.7594 83.644C75.1537 84.047 75.6695 84.2491 76.1839 84.2491C76.7065 84.2491 77.2263 84.0428 77.6233 83.6287C78.4105 82.8075 78.4024 81.4843 77.6071 80.6715L73.1053 76.0704Z" fill="#C4C4C4"/>
<path d="M83.1799 71.0774C82.0821 71.0007 81.0869 71.8359 80.9924 72.9876L80.4442 79.7513C80.3524 80.9015 81.1788 81.9138 82.2941 82.01C82.3508 82.0142 82.4089 82.017 82.4656 82.017C83.5066 82.017 84.3924 81.1915 84.4815 80.0998L85.0297 73.3361C85.1229 72.1858 84.2952 71.1736 83.1799 71.0774Z" fill="#C4C4C4"/>
<path d="M95.2702 75.8583C94.4532 75.0664 93.1719 75.111 92.4076 75.949L87.9072 80.8958C87.1416 81.7379 87.1807 83.0625 87.9949 83.8516C88.3865 84.2308 88.8848 84.4191 89.3817 84.4191C89.9204 84.4191 90.4592 84.1974 90.8575 83.7596L95.3579 78.8128C96.1249 77.972 96.0857 76.6489 95.2702 75.8583Z" fill="#C4C4C4"/>
<path d="M99.4801 84.2449L92.9515 85.048C91.8416 85.1847 91.0476 86.2248 91.1799 87.3724C91.3028 88.4349 92.1764 89.2157 93.1878 89.2157C93.2688 89.2157 93.3485 89.2115 93.4308 89.2004L99.9594 88.3972C101.069 88.2606 101.863 87.2204 101.731 86.0728C101.6 84.9267 100.594 84.1013 99.4801 84.2449Z" fill="#C4C4C4"/>
<path d="M72.7843 85.0619L66.3854 83.5102C65.2957 83.2439 64.2074 83.9438 63.9508 85.0675C63.6943 86.1913 64.3708 87.3164 65.4591 87.5813L71.858 89.1331C72.0133 89.1707 72.1685 89.1888 72.3225 89.1888C73.242 89.1888 74.0738 88.5391 74.2925 87.5757C74.5491 86.4506 73.8739 85.3254 72.7843 85.0619Z" fill="#C4C4C4"/>
<path d="M24.9197 149.83C24.2477 149.83 23.6504 149.746 23.1277 149.578C22.6051 149.41 22.1151 149.126 21.6577 148.724C21.4057 148.5 21.2797 148.253 21.2797 147.982C21.2797 147.768 21.3591 147.581 21.5177 147.422C21.6764 147.254 21.8677 147.17 22.0917 147.17C22.2691 147.17 22.4277 147.226 22.5677 147.338C22.9411 147.646 23.3051 147.87 23.6597 148.01C24.0144 148.15 24.4344 148.22 24.9197 148.22C25.4424 148.22 25.8904 148.104 26.2637 147.87C26.6464 147.637 26.8377 147.348 26.8377 147.002C26.8377 146.582 26.6511 146.256 26.2777 146.022C25.9044 145.78 25.3117 145.598 24.4997 145.476C22.4557 145.178 21.4337 144.226 21.4337 142.62C21.4337 142.032 21.5877 141.524 21.8957 141.094C22.2037 140.656 22.6237 140.324 23.1557 140.1C23.6877 139.867 24.2804 139.75 24.9337 139.75C25.5217 139.75 26.0724 139.839 26.5857 140.016C27.1084 140.194 27.5424 140.427 27.8877 140.716C28.1584 140.931 28.2937 141.178 28.2937 141.458C28.2937 141.673 28.2144 141.864 28.0557 142.032C27.8971 142.191 27.7104 142.27 27.4957 142.27C27.3557 142.27 27.2297 142.228 27.1177 142.144C26.8751 141.948 26.5344 141.771 26.0957 141.612C25.6664 141.444 25.2791 141.36 24.9337 141.36C24.3457 141.36 23.8884 141.472 23.5617 141.696C23.2444 141.911 23.0857 142.196 23.0857 142.55C23.0857 142.952 23.2491 143.255 23.5757 143.46C23.9117 143.666 24.4344 143.834 25.1437 143.964C25.9464 144.104 26.5857 144.286 27.0617 144.51C27.5471 144.725 27.9111 145.024 28.1537 145.406C28.3964 145.78 28.5177 146.279 28.5177 146.904C28.5177 147.492 28.3497 148.01 28.0137 148.458C27.6871 148.897 27.2484 149.238 26.6977 149.48C26.1471 149.714 25.5544 149.83 24.9197 149.83ZM39.1392 144.79C39.1392 145.714 38.9339 146.564 38.5232 147.338C38.1126 148.104 37.5432 148.71 36.8152 149.158C36.0966 149.606 35.2846 149.83 34.3792 149.83C33.4739 149.83 32.6572 149.606 31.9292 149.158C31.2106 148.71 30.6459 148.104 30.2352 147.338C29.8339 146.564 29.6332 145.714 29.6332 144.79C29.6332 143.866 29.8339 143.022 30.2352 142.256C30.6459 141.482 31.2106 140.87 31.9292 140.422C32.6572 139.974 33.4739 139.75 34.3792 139.75C35.2846 139.75 36.0966 139.974 36.8152 140.422C37.5432 140.87 38.1126 141.482 38.5232 142.256C38.9339 143.022 39.1392 143.866 39.1392 144.79ZM37.3192 144.79C37.3192 144.165 37.1932 143.6 36.9412 143.096C36.6892 142.583 36.3392 142.177 35.8912 141.878C35.4432 141.58 34.9392 141.43 34.3792 141.43C33.8099 141.43 33.3012 141.58 32.8532 141.878C32.4146 142.168 32.0692 142.569 31.8172 143.082C31.5746 143.596 31.4532 144.165 31.4532 144.79C31.4532 145.416 31.5746 145.985 31.8172 146.498C32.0692 147.012 32.4146 147.418 32.8532 147.716C33.3012 148.006 33.8099 148.15 34.3792 148.15C34.9392 148.15 35.4432 148.001 35.8912 147.702C36.3392 147.404 36.6892 147.002 36.9412 146.498C37.1932 145.985 37.3192 145.416 37.3192 144.79ZM46.1503 148.052C46.393 148.052 46.5936 148.132 46.7523 148.29C46.9203 148.44 47.0043 148.636 47.0043 148.878C47.0043 149.112 46.9203 149.308 46.7523 149.466C46.5936 149.616 46.393 149.69 46.1503 149.69H41.6003C41.3576 149.69 41.1523 149.611 40.9843 149.452C40.8256 149.284 40.7463 149.079 40.7463 148.836V140.744C40.7463 140.502 40.8303 140.301 40.9983 140.142C41.1663 139.974 41.381 139.89 41.6423 139.89C41.8756 139.89 42.0763 139.974 42.2443 140.142C42.4123 140.301 42.4963 140.502 42.4963 140.744V148.052H46.1503ZM58.0754 148.08C58.3181 148.08 58.5188 148.164 58.6774 148.332C58.8454 148.491 58.9294 148.678 58.9294 148.892C58.9294 149.126 58.8454 149.317 58.6774 149.466C58.5188 149.616 58.3181 149.69 58.0754 149.69H53.3854C53.1428 149.69 52.9374 149.611 52.7694 149.452C52.6108 149.284 52.5314 149.079 52.5314 148.836V140.744C52.5314 140.502 52.6108 140.301 52.7694 140.142C52.9374 139.974 53.1428 139.89 53.3854 139.89H58.0754C58.3181 139.89 58.5188 139.97 58.6774 140.128C58.8454 140.278 58.9294 140.474 58.9294 140.716C58.9294 140.95 58.8501 141.141 58.6914 141.29C58.5328 141.43 58.3274 141.5 58.0754 141.5H54.2814V143.88H57.4454C57.6881 143.88 57.8888 143.96 58.0474 144.118C58.2154 144.268 58.2994 144.464 58.2994 144.706C58.2994 144.94 58.2201 145.131 58.0614 145.28C57.9028 145.42 57.6974 145.49 57.4454 145.49H54.2814V148.08H58.0754ZM68.513 139.89C68.989 139.89 69.4417 140.035 69.871 140.324C70.3003 140.604 70.6457 140.987 70.907 141.472C71.1683 141.948 71.299 142.471 71.299 143.04C71.299 143.6 71.1683 144.123 70.907 144.608C70.6457 145.094 70.3003 145.481 69.871 145.77C69.4417 146.05 68.989 146.19 68.513 146.19H66.077V148.836C66.077 149.088 66.0023 149.294 65.853 149.452C65.7037 149.611 65.5077 149.69 65.265 149.69C65.0317 149.69 64.8403 149.611 64.691 149.452C64.5417 149.284 64.467 149.079 64.467 148.836V140.744C64.467 140.502 64.5463 140.301 64.705 140.142C64.873 139.974 65.0783 139.89 65.321 139.89H68.513ZM68.513 144.594C68.6903 144.594 68.863 144.52 69.031 144.37C69.2083 144.221 69.3483 144.03 69.451 143.796C69.563 143.554 69.619 143.302 69.619 143.04C69.619 142.779 69.563 142.532 69.451 142.298C69.3483 142.056 69.2083 141.864 69.031 141.724C68.863 141.575 68.6903 141.5 68.513 141.5H66.077V144.594H68.513ZM80.5885 148.318C80.7099 148.393 80.8032 148.491 80.8685 148.612C80.9432 148.734 80.9805 148.86 80.9805 148.99C80.9805 149.158 80.9245 149.312 80.8125 149.452C80.6725 149.62 80.4579 149.704 80.1685 149.704C79.9445 149.704 79.7392 149.653 79.5525 149.55C78.8805 149.168 78.5445 148.388 78.5445 147.212C78.5445 146.876 78.4325 146.61 78.2085 146.414C77.9939 146.218 77.6812 146.12 77.2705 146.12H74.6525V148.836C74.6525 149.088 74.5825 149.294 74.4425 149.452C74.3119 149.611 74.1345 149.69 73.9105 149.69C73.6399 149.69 73.4019 149.611 73.1965 149.452C73.0005 149.284 72.9025 149.079 72.9025 148.836V140.744C72.9025 140.502 72.9819 140.301 73.1405 140.142C73.3085 139.974 73.5139 139.89 73.7565 139.89H77.7885C78.2739 139.89 78.7312 140.021 79.1605 140.282C79.5899 140.544 79.9305 140.903 80.1825 141.36C80.4439 141.818 80.5745 142.331 80.5745 142.9C80.5745 143.367 80.4485 143.824 80.1965 144.272C79.9445 144.711 79.6179 145.061 79.2165 145.322C79.8045 145.733 80.1265 146.284 80.1825 146.974C80.2105 147.124 80.2245 147.268 80.2245 147.408C80.2619 147.698 80.2992 147.908 80.3365 148.038C80.3739 148.16 80.4579 148.253 80.5885 148.318ZM77.7185 144.678C77.8865 144.678 78.0499 144.599 78.2085 144.44C78.3672 144.282 78.4979 144.072 78.6005 143.81C78.7032 143.54 78.7545 143.25 78.7545 142.942C78.7545 142.681 78.7032 142.443 78.6005 142.228C78.4979 142.004 78.3672 141.827 78.2085 141.696C78.0499 141.566 77.8865 141.5 77.7185 141.5H74.6525V144.678H77.7185ZM90.1999 148.598C90.2465 148.72 90.2699 148.832 90.2699 148.934C90.2699 149.177 90.1905 149.378 90.0319 149.536C89.8732 149.686 89.6912 149.76 89.4859 149.76C89.3179 149.76 89.1639 149.709 89.0239 149.606C88.8932 149.504 88.7905 149.364 88.7159 149.186L87.9879 147.492H83.8159L83.0879 149.2C83.0225 149.378 82.9199 149.518 82.7799 149.62C82.6492 149.714 82.5045 149.76 82.3459 149.76C82.1032 149.76 81.9165 149.695 81.7859 149.564C81.6645 149.434 81.6039 149.256 81.6039 149.032C81.6039 148.948 81.6179 148.86 81.6459 148.766L85.1319 140.394C85.2065 140.208 85.3185 140.063 85.4679 139.96C85.6172 139.858 85.7852 139.816 85.9719 139.834C86.1399 139.834 86.2939 139.886 86.4339 139.988C86.5832 140.082 86.6905 140.217 86.7559 140.394L90.1999 148.598ZM87.3019 145.882L85.8879 142.606L84.5019 145.882H87.3019ZM93.2053 148.836C93.2053 149.079 93.1166 149.284 92.9393 149.452C92.7619 149.611 92.5566 149.69 92.3233 149.69C92.0713 149.69 91.8613 149.611 91.6933 149.452C91.5346 149.284 91.4553 149.079 91.4553 148.836V140.744C91.4553 140.502 91.5393 140.301 91.7073 140.142C91.8753 139.974 92.0899 139.89 92.3513 139.89C92.5846 139.89 92.7853 139.974 92.9533 140.142C93.1213 140.301 93.2053 140.502 93.2053 140.744V148.836ZM102.997 148.598C103.043 148.72 103.067 148.832 103.067 148.934C103.067 149.177 102.987 149.378 102.829 149.536C102.67 149.686 102.488 149.76 102.283 149.76C102.115 149.76 101.961 149.709 101.821 149.606C101.69 149.504 101.587 149.364 101.513 149.186L100.785 147.492H96.6127L95.8847 149.2C95.8194 149.378 95.7167 149.518 95.5767 149.62C95.4461 149.714 95.3014 149.76 95.1427 149.76C94.9001 149.76 94.7134 149.695 94.5827 149.564C94.4614 149.434 94.4007 149.256 94.4007 149.032C94.4007 148.948 94.4147 148.86 94.4427 148.766L97.9287 140.394C98.0034 140.208 98.1154 140.063 98.2647 139.96C98.4141 139.858 98.5821 139.816 98.7687 139.834C98.9367 139.834 99.0907 139.886 99.2307 139.988C99.3801 140.082 99.4874 140.217 99.5527 140.394L102.997 148.598ZM100.099 145.882L98.6847 142.606L97.2987 145.882H100.099Z" fill="#C4C4C4"/>
</svg>
